%TF.GenerationSoftware,KiCad,Pcbnew,8.0.5-8.0.5-0~ubuntu24.04.1*%
%TF.CreationDate,2024-09-16T22:52:31+02:00*%
%TF.ProjectId,fx3_tn20k_adapter,6678335f-746e-4323-906b-5f6164617074,0.0.1*%
%TF.SameCoordinates,Original*%
%TF.FileFunction,Soldermask,Top*%
%TF.FilePolarity,Negative*%
%FSLAX46Y46*%
G04 Gerber Fmt 4.6, Leading zero omitted, Abs format (unit mm)*
G04 Created by KiCad (PCBNEW 8.0.5-8.0.5-0~ubuntu24.04.1) date 2024-09-16 22:52:31*
%MOMM*%
%LPD*%
G01*
G04 APERTURE LIST*
G04 Aperture macros list*
%AMRoundRect*
0 Rectangle with rounded corners*
0 $1 Rounding radius*
0 $2 $3 $4 $5 $6 $7 $8 $9 X,Y pos of 4 corners*
0 Add a 4 corners polygon primitive as box body*
4,1,4,$2,$3,$4,$5,$6,$7,$8,$9,$2,$3,0*
0 Add four circle primitives for the rounded corners*
1,1,$1+$1,$2,$3*
1,1,$1+$1,$4,$5*
1,1,$1+$1,$6,$7*
1,1,$1+$1,$8,$9*
0 Add four rect primitives between the rounded corners*
20,1,$1+$1,$2,$3,$4,$5,0*
20,1,$1+$1,$4,$5,$6,$7,0*
20,1,$1+$1,$6,$7,$8,$9,0*
20,1,$1+$1,$8,$9,$2,$3,0*%
G04 Aperture macros list end*
%ADD10C,0.625000*%
%ADD11RoundRect,0.250000X-0.565685X-0.070711X-0.070711X-0.565685X0.565685X0.070711X0.070711X0.565685X0*%
%ADD12RoundRect,0.250000X0.475000X-0.250000X0.475000X0.250000X-0.475000X0.250000X-0.475000X-0.250000X0*%
%ADD13RoundRect,0.250000X0.565685X0.070711X0.070711X0.565685X-0.565685X-0.070711X-0.070711X-0.565685X0*%
%ADD14R,1.700000X1.700000*%
%ADD15O,1.700000X1.700000*%
%ADD16RoundRect,0.250000X0.450000X-0.350000X0.450000X0.350000X-0.450000X0.350000X-0.450000X-0.350000X0*%
%ADD17RoundRect,0.250000X0.350000X0.450000X-0.350000X0.450000X-0.350000X-0.450000X0.350000X-0.450000X0*%
%ADD18RoundRect,0.250000X-0.475000X0.250000X-0.475000X-0.250000X0.475000X-0.250000X0.475000X0.250000X0*%
%ADD19RoundRect,0.250000X-0.350000X-0.450000X0.350000X-0.450000X0.350000X0.450000X-0.350000X0.450000X0*%
%TA.AperFunction,Profile*%
%ADD20C,0.100000*%
%TD*%
G04 APERTURE END LIST*
D10*
X186367500Y-110515400D02*
G75*
G02*
X185742500Y-110515400I-312500J0D01*
G01*
X185742500Y-110515400D02*
G75*
G02*
X186367500Y-110515400I312500J0D01*
G01*
D11*
%TO.C,R2*%
X195253893Y-105922093D03*
X196668107Y-107336307D03*
%TD*%
%TO.C,R4*%
X195228493Y-98657693D03*
X196642707Y-100071907D03*
%TD*%
D12*
%TO.C,C2*%
X186055000Y-110500200D03*
X186055000Y-108600200D03*
%TD*%
D13*
%TO.C,R21*%
X168207107Y-112207107D03*
X166792893Y-110792893D03*
%TD*%
%TO.C,R29*%
X168207107Y-88207107D03*
X166792893Y-86792893D03*
%TD*%
D11*
%TO.C,R8*%
X195203093Y-83189093D03*
X196617307Y-84603307D03*
%TD*%
%TO.C,R3*%
X195228493Y-102899493D03*
X196642707Y-104313707D03*
%TD*%
D13*
%TO.C,R27*%
X168207107Y-94207107D03*
X166792893Y-92792893D03*
%TD*%
D14*
%TO.C,J3*%
X201803000Y-72390000D03*
D15*
X204343000Y-72390000D03*
X201803000Y-74930000D03*
X204343000Y-74930000D03*
X204343000Y-77470000D03*
X201803000Y-80010000D03*
X204343000Y-80010000D03*
X201803000Y-82550000D03*
X204343000Y-82550000D03*
X201803000Y-85090000D03*
X204343000Y-85090000D03*
X201803000Y-87630000D03*
X204343000Y-87630000D03*
X201803000Y-90170000D03*
X204343000Y-90170000D03*
X201803000Y-92710000D03*
X204343000Y-92710000D03*
X201803000Y-95250000D03*
X204343000Y-95250000D03*
X201803000Y-97790000D03*
X204343000Y-97790000D03*
X201803000Y-100330000D03*
X204343000Y-100330000D03*
X201803000Y-102870000D03*
X204343000Y-102870000D03*
X201803000Y-105410000D03*
X204343000Y-105410000D03*
X201803000Y-107950000D03*
X204343000Y-107950000D03*
X201803000Y-110490000D03*
X204343000Y-110490000D03*
X201803000Y-113030000D03*
X204343000Y-113030000D03*
X201803000Y-115570000D03*
X204343000Y-115570000D03*
X201803000Y-118110000D03*
X204343000Y-118110000D03*
X201803000Y-120650000D03*
X204343000Y-120650000D03*
%TD*%
D13*
%TO.C,R26*%
X168207107Y-97207107D03*
X166792893Y-95792893D03*
%TD*%
D16*
%TO.C,R14*%
X188468000Y-87233000D03*
X188468000Y-85233000D03*
%TD*%
D13*
%TO.C,R23*%
X168207107Y-106207107D03*
X166792893Y-104792893D03*
%TD*%
D17*
%TO.C,R16*%
X184896000Y-90170000D03*
X182896000Y-90170000D03*
%TD*%
D18*
%TO.C,C1*%
X198729600Y-74945200D03*
X198729600Y-76845200D03*
%TD*%
D11*
%TO.C,R9*%
X195203093Y-80395093D03*
X196617307Y-81809307D03*
%TD*%
D13*
%TO.C,R28*%
X168207107Y-91207107D03*
X166792893Y-89792893D03*
%TD*%
%TO.C,R30*%
X168207107Y-85207107D03*
X166792893Y-83792893D03*
%TD*%
D14*
%TO.C,J2*%
X171803000Y-72390000D03*
D15*
X171803000Y-74930000D03*
X171803000Y-77470000D03*
X171803000Y-80010000D03*
X171803000Y-82550000D03*
X171803000Y-85090000D03*
X171803000Y-87630000D03*
X171803000Y-90170000D03*
X171803000Y-92710000D03*
X171803000Y-95250000D03*
X171803000Y-97790000D03*
X171803000Y-100330000D03*
X171803000Y-102870000D03*
X171803000Y-105410000D03*
X171803000Y-107950000D03*
X171803000Y-110490000D03*
X171803000Y-113030000D03*
X171803000Y-115570000D03*
X171803000Y-118110000D03*
X171803000Y-120650000D03*
%TD*%
D13*
%TO.C,R24*%
X168207107Y-103207107D03*
X166792893Y-101792893D03*
%TD*%
%TO.C,R25*%
X168207107Y-100207107D03*
X166792893Y-98792893D03*
%TD*%
D18*
%TO.C,C3*%
X166827200Y-71211400D03*
X166827200Y-73111400D03*
%TD*%
D11*
%TO.C,R7*%
X195203093Y-85983093D03*
X196617307Y-87397307D03*
%TD*%
D13*
%TO.C,R22*%
X168207107Y-109207107D03*
X166792893Y-107792893D03*
%TD*%
D19*
%TO.C,R0*%
X195062600Y-115570000D03*
X197062600Y-115570000D03*
%TD*%
D16*
%TO.C,R15*%
X186131200Y-87233000D03*
X186131200Y-85233000D03*
%TD*%
D13*
%TO.C,R20*%
X168207107Y-115207107D03*
X166792893Y-113792893D03*
%TD*%
D14*
%TO.C,J32*%
X177723800Y-87884000D03*
%TD*%
D11*
%TO.C,R6*%
X195203093Y-88777093D03*
X196617307Y-90191307D03*
%TD*%
D17*
%TO.C,R17*%
X188137800Y-105410000D03*
X186137800Y-105410000D03*
%TD*%
D11*
%TO.C,R5*%
X195203093Y-94161893D03*
X196617307Y-95576107D03*
%TD*%
D18*
%TO.C,C5*%
X179781200Y-118125200D03*
X179781200Y-120025200D03*
%TD*%
D13*
%TO.C,R31*%
X168207107Y-82207107D03*
X166792893Y-80792893D03*
%TD*%
D14*
%TO.C,J1*%
X192123000Y-72390000D03*
D15*
X192123000Y-74930000D03*
X192123000Y-77470000D03*
X192123000Y-80010000D03*
X192123000Y-82550000D03*
X192123000Y-85090000D03*
X192123000Y-87630000D03*
X192123000Y-90170000D03*
X192123000Y-92710000D03*
X192123000Y-95250000D03*
X192123000Y-97790000D03*
X192123000Y-100330000D03*
X192123000Y-102870000D03*
X192123000Y-105410000D03*
X192123000Y-107950000D03*
X192123000Y-110490000D03*
X192123000Y-113030000D03*
X192123000Y-115570000D03*
X192123000Y-118110000D03*
X192123000Y-120650000D03*
%TD*%
D18*
%TO.C,C4*%
X188544200Y-71186000D03*
X188544200Y-73086000D03*
%TD*%
D14*
%TO.C,J4*%
X159800000Y-72390000D03*
D15*
X162340000Y-72390000D03*
X159800000Y-74930000D03*
X162340000Y-74930000D03*
X162340000Y-77470000D03*
X159800000Y-80010000D03*
X162340000Y-80010000D03*
X159800000Y-82550000D03*
X162340000Y-82550000D03*
X159800000Y-85090000D03*
X162340000Y-85090000D03*
X159800000Y-87630000D03*
X162340000Y-87630000D03*
X159800000Y-90170000D03*
X162340000Y-90170000D03*
X159800000Y-92710000D03*
X162340000Y-92710000D03*
X159800000Y-95250000D03*
X162340000Y-95250000D03*
X159800000Y-97790000D03*
X162340000Y-97790000D03*
X159800000Y-100330000D03*
X162340000Y-100330000D03*
X159800000Y-102870000D03*
X162340000Y-102870000D03*
X159800000Y-105410000D03*
X162340000Y-105410000D03*
X159800000Y-107950000D03*
X162340000Y-107950000D03*
X159800000Y-110490000D03*
X162340000Y-110490000D03*
X159800000Y-113030000D03*
X162340000Y-113030000D03*
X159800000Y-115570000D03*
X162340000Y-115570000D03*
X159800000Y-118110000D03*
X162340000Y-118110000D03*
X159800000Y-120650000D03*
X162340000Y-120650000D03*
%TD*%
D19*
%TO.C,R1*%
X195062600Y-113030000D03*
X197062600Y-113030000D03*
%TD*%
D20*
X157480000Y-122936000D02*
X157480000Y-68580000D01*
X206756000Y-122936000D02*
X206756000Y-68580000D01*
X157480000Y-122936000D02*
X206756000Y-122936000D01*
X206756000Y-68580000D02*
X157480000Y-68580000D01*
M02*
