M48
; DRILL file {KiCad 8.0.5-8.0.5-0~ubuntu24.04.1} date 2024-09-16T22:49:01+0200
; FORMAT={-:-/ absolute / inch / decimal}
; #@! TF.CreationDate,2024-09-16T22:49:01+02:00
; #@! TF.GenerationSoftware,Kicad,Pcbnew,8.0.5-8.0.5-0~ubuntu24.04.1
; #@! TF.FileFunction,Plated,1,2,PTH
FMAT,2
INCH
; #@! TA.AperFunction,Plated,PTH,ViaDrill
T1C0.0157
; #@! TA.AperFunction,Plated,PTH,ViaDrill
T2C0.0197
; #@! TA.AperFunction,Plated,PTH,ComponentDrill
T3C0.0394
%
G90
G05
T1
X6.242Y-2.741
X6.485Y-2.825
X6.489Y-4.653
X6.5Y-2.946
X6.532Y-3.053
X6.642Y-3.071
X6.648Y-2.937
X6.665Y-4.648
X6.669Y-3.172
X6.671Y-2.82
X6.847Y-3.802
X6.85Y-4.35
X6.859Y-3.418
X6.878Y-3.499
X6.896Y-4.549
X6.936Y-4.334
X6.942Y-4.113
X6.944Y-3.972
X6.956Y-3.604
X6.979Y-4.79
X6.99Y-3.739
X7.017Y-4.587
X7.026Y-4.311
X7.031Y-3.887
X7.035Y-4.206
X7.044Y-3.606
X7.051Y-4.105
X7.056Y-3.308
X7.104Y-4.23
X7.106Y-4.35
X7.2Y-3.734
X7.205Y-4.09
X7.247Y-3.849
X7.248Y-4.423
X7.254Y-3.956
X7.267Y-4.579
X7.268Y-4.198
X7.333Y-4.062
X7.342Y-2.822
X7.348Y-4.505
X7.369Y-3.951
X7.395Y-3.138
X7.42Y-3.308
X7.42Y-3.55
X7.435Y-2.927
X7.446Y-3.868
X7.453Y-4.289
X7.459Y-3.2
X7.463Y-3.055
X7.467Y-4.091
X7.474Y-4.415
X7.476Y-3.256
X7.478Y-4.568
X7.485Y-3.352
X7.635Y-4.385
X7.652Y-4.623
X7.659Y-4.791
X7.666Y-3.067
X7.701Y-2.928
X7.745Y-4.302
X7.786Y-3.091
X7.842Y-4.793
X7.849Y-4.654
X7.851Y-3.146
X7.853Y-4.444
X7.936Y-2.735
X8.087Y-2.749
T2
X7.125Y-3.395
X7.325Y-4.3504
T3
X6.2913Y-2.85
X6.2913Y-2.95
X6.2913Y-3.15
X6.2913Y-3.25
X6.2913Y-3.35
X6.2913Y-3.45
X6.2913Y-3.55
X6.2913Y-3.65
X6.2913Y-3.75
X6.2913Y-3.85
X6.2913Y-3.95
X6.2913Y-4.05
X6.2913Y-4.15
X6.2913Y-4.25
X6.2913Y-4.35
X6.2913Y-4.45
X6.2913Y-4.55
X6.2913Y-4.65
X6.2913Y-4.75
X6.3913Y-2.85
X6.3913Y-2.95
X6.3913Y-3.05
X6.3913Y-3.15
X6.3913Y-3.25
X6.3913Y-3.35
X6.3913Y-3.45
X6.3913Y-3.55
X6.3913Y-3.65
X6.3913Y-3.75
X6.3913Y-3.85
X6.3913Y-3.95
X6.3913Y-4.05
X6.3913Y-4.15
X6.3913Y-4.25
X6.3913Y-4.35
X6.3913Y-4.45
X6.3913Y-4.55
X6.3913Y-4.65
X6.3913Y-4.75
X6.7639Y-2.85
X6.7639Y-2.95
X6.7639Y-3.05
X6.7639Y-3.15
X6.7639Y-3.25
X6.7639Y-3.35
X6.7639Y-3.45
X6.7639Y-3.55
X6.7639Y-3.65
X6.7639Y-3.75
X6.7639Y-3.85
X6.7639Y-3.95
X6.7639Y-4.05
X6.7639Y-4.15
X6.7639Y-4.25
X6.7639Y-4.35
X6.7639Y-4.45
X6.7639Y-4.55
X6.7639Y-4.65
X6.7639Y-4.75
X6.997Y-3.46
X7.5639Y-2.85
X7.5639Y-2.95
X7.5639Y-3.05
X7.5639Y-3.15
X7.5639Y-3.25
X7.5639Y-3.35
X7.5639Y-3.45
X7.5639Y-3.55
X7.5639Y-3.65
X7.5639Y-3.75
X7.5639Y-3.85
X7.5639Y-3.95
X7.5639Y-4.05
X7.5639Y-4.15
X7.5639Y-4.25
X7.5639Y-4.35
X7.5639Y-4.45
X7.5639Y-4.55
X7.5639Y-4.65
X7.5639Y-4.75
X7.945Y-2.85
X7.945Y-2.95
X7.945Y-3.15
X7.945Y-3.25
X7.945Y-3.35
X7.945Y-3.45
X7.945Y-3.55
X7.945Y-3.65
X7.945Y-3.75
X7.945Y-3.85
X7.945Y-3.95
X7.945Y-4.05
X7.945Y-4.15
X7.945Y-4.25
X7.945Y-4.35
X7.945Y-4.45
X7.945Y-4.55
X7.945Y-4.65
X7.945Y-4.75
X8.045Y-2.85
X8.045Y-2.95
X8.045Y-3.05
X8.045Y-3.15
X8.045Y-3.25
X8.045Y-3.35
X8.045Y-3.45
X8.045Y-3.55
X8.045Y-3.65
X8.045Y-3.75
X8.045Y-3.85
X8.045Y-3.95
X8.045Y-4.05
X8.045Y-4.15
X8.045Y-4.25
X8.045Y-4.35
X8.045Y-4.45
X8.045Y-4.55
X8.045Y-4.65
X8.045Y-4.75
M30
