%TF.GenerationSoftware,KiCad,Pcbnew,8.0.5-8.0.5-0~ubuntu24.04.1*%
%TF.CreationDate,2024-09-16T22:52:31+02:00*%
%TF.ProjectId,fx3_tn20k_adapter,6678335f-746e-4323-906b-5f6164617074,0.0.1*%
%TF.SameCoordinates,Original*%
%TF.FileFunction,Copper,L1,Top*%
%TF.FilePolarity,Positive*%
%FSLAX46Y46*%
G04 Gerber Fmt 4.6, Leading zero omitted, Abs format (unit mm)*
G04 Created by KiCad (PCBNEW 8.0.5-8.0.5-0~ubuntu24.04.1) date 2024-09-16 22:52:31*
%MOMM*%
%LPD*%
G01*
G04 APERTURE LIST*
G04 Aperture macros list*
%AMRoundRect*
0 Rectangle with rounded corners*
0 $1 Rounding radius*
0 $2 $3 $4 $5 $6 $7 $8 $9 X,Y pos of 4 corners*
0 Add a 4 corners polygon primitive as box body*
4,1,4,$2,$3,$4,$5,$6,$7,$8,$9,$2,$3,0*
0 Add four circle primitives for the rounded corners*
1,1,$1+$1,$2,$3*
1,1,$1+$1,$4,$5*
1,1,$1+$1,$6,$7*
1,1,$1+$1,$8,$9*
0 Add four rect primitives between the rounded corners*
20,1,$1+$1,$2,$3,$4,$5,0*
20,1,$1+$1,$4,$5,$6,$7,0*
20,1,$1+$1,$6,$7,$8,$9,0*
20,1,$1+$1,$8,$9,$2,$3,0*%
G04 Aperture macros list end*
%TA.AperFunction,SMDPad,CuDef*%
%ADD10RoundRect,0.250000X-0.565685X-0.070711X-0.070711X-0.565685X0.565685X0.070711X0.070711X0.565685X0*%
%TD*%
%TA.AperFunction,SMDPad,CuDef*%
%ADD11RoundRect,0.250000X0.475000X-0.250000X0.475000X0.250000X-0.475000X0.250000X-0.475000X-0.250000X0*%
%TD*%
%TA.AperFunction,SMDPad,CuDef*%
%ADD12RoundRect,0.250000X0.565685X0.070711X0.070711X0.565685X-0.565685X-0.070711X-0.070711X-0.565685X0*%
%TD*%
%TA.AperFunction,ComponentPad*%
%ADD13R,1.700000X1.700000*%
%TD*%
%TA.AperFunction,ComponentPad*%
%ADD14O,1.700000X1.700000*%
%TD*%
%TA.AperFunction,SMDPad,CuDef*%
%ADD15RoundRect,0.250000X0.450000X-0.350000X0.450000X0.350000X-0.450000X0.350000X-0.450000X-0.350000X0*%
%TD*%
%TA.AperFunction,SMDPad,CuDef*%
%ADD16RoundRect,0.250000X0.350000X0.450000X-0.350000X0.450000X-0.350000X-0.450000X0.350000X-0.450000X0*%
%TD*%
%TA.AperFunction,SMDPad,CuDef*%
%ADD17RoundRect,0.250000X-0.475000X0.250000X-0.475000X-0.250000X0.475000X-0.250000X0.475000X0.250000X0*%
%TD*%
%TA.AperFunction,SMDPad,CuDef*%
%ADD18RoundRect,0.250000X-0.350000X-0.450000X0.350000X-0.450000X0.350000X0.450000X-0.350000X0.450000X0*%
%TD*%
%TA.AperFunction,ViaPad*%
%ADD19C,1.200000*%
%TD*%
%TA.AperFunction,ViaPad*%
%ADD20C,0.800000*%
%TD*%
%TA.AperFunction,Conductor*%
%ADD21C,0.400000*%
%TD*%
%TA.AperFunction,Conductor*%
%ADD22C,0.320000*%
%TD*%
%TA.AperFunction,Conductor*%
%ADD23C,1.000000*%
%TD*%
%TA.AperFunction,Profile*%
%ADD24C,0.100000*%
%TD*%
G04 APERTURE END LIST*
D10*
%TO.P,R2,1*%
%TO.N,Net-(J1-Pin_13)*%
X195253893Y-105922093D03*
%TO.P,R2,2*%
%TO.N,Net-(J3-DQ2)*%
X196668107Y-107336307D03*
%TD*%
%TO.P,R4,1*%
%TO.N,Net-(J1-Pin_10)*%
X195228493Y-98657693D03*
%TO.P,R4,2*%
%TO.N,Net-(J3-DQ4)*%
X196642707Y-100071907D03*
%TD*%
D11*
%TO.P,C2,1*%
%TO.N,VDD*%
X186055000Y-110500200D03*
%TO.P,C2,2*%
%TO.N,GND*%
X186055000Y-108600200D03*
%TD*%
D12*
%TO.P,R21,1*%
%TO.N,Net-(J2-Pin_17)*%
X168207107Y-112207107D03*
%TO.P,R21,2*%
%TO.N,Net-(J4-DQ21)*%
X166792893Y-110792893D03*
%TD*%
%TO.P,R29,1*%
%TO.N,Net-(J2-Pin_9)*%
X168207107Y-88207107D03*
%TO.P,R29,2*%
%TO.N,Net-(J4-DQ29)*%
X166792893Y-86792893D03*
%TD*%
D10*
%TO.P,R8,1*%
%TO.N,Net-(J1-Pin_4)*%
X195203093Y-83189093D03*
%TO.P,R8,2*%
%TO.N,Net-(J3-DQ8)*%
X196617307Y-84603307D03*
%TD*%
%TO.P,R3,1*%
%TO.N,Net-(J1-Pin_12)*%
X195228493Y-102899493D03*
%TO.P,R3,2*%
%TO.N,Net-(J3-DQ3)*%
X196642707Y-104313707D03*
%TD*%
D12*
%TO.P,R27,1*%
%TO.N,Net-(J2-Pin_11)*%
X168207107Y-94207107D03*
%TO.P,R27,2*%
%TO.N,Net-(J4-DQ27)*%
X166792893Y-92792893D03*
%TD*%
D13*
%TO.P,J3,1,V3P3*%
%TO.N,VDD*%
X201803000Y-72390000D03*
D14*
%TO.P,J3,2,V1P2*%
%TO.N,unconnected-(J3-V1P2-Pad2)*%
X204343000Y-72390000D03*
%TO.P,J3,3,USB3_VBUS*%
%TO.N,+5V*%
X201803000Y-74930000D03*
%TO.P,J3,4,USB3_VBUS*%
X204343000Y-74930000D03*
%TO.P,J3,6,GND*%
%TO.N,GND*%
X204343000Y-77470000D03*
%TO.P,J3,7,CTL12*%
%TO.N,unconnected-(J3-CTL12-Pad7)*%
X201803000Y-80010000D03*
%TO.P,J3,8,DQ15*%
%TO.N,Net-(J3-DQ15)*%
X204343000Y-80010000D03*
%TO.P,J3,9,CTL11*%
%TO.N,unconnected-(J3-CTL11-Pad9)*%
X201803000Y-82550000D03*
%TO.P,J3,10,DQ14*%
%TO.N,Net-(J3-DQ14)*%
X204343000Y-82550000D03*
%TO.P,J3,11,CTL10*%
%TO.N,unconnected-(J3-CTL10-Pad11)*%
X201803000Y-85090000D03*
%TO.P,J3,12,DQ13*%
%TO.N,Net-(J3-DQ13)*%
X204343000Y-85090000D03*
%TO.P,J3,13,CTL9*%
%TO.N,unconnected-(J3-CTL9-Pad13)*%
X201803000Y-87630000D03*
%TO.P,J3,14,DQ12*%
%TO.N,Net-(J3-DQ12)*%
X204343000Y-87630000D03*
%TO.P,J3,15,CTL8*%
%TO.N,unconnected-(J3-CTL8-Pad15)*%
X201803000Y-90170000D03*
%TO.P,J3,16,DQ11*%
%TO.N,Net-(J3-DQ11)*%
X204343000Y-90170000D03*
%TO.P,J3,17,CTL7*%
%TO.N,unconnected-(J3-CTL7-Pad17)*%
X201803000Y-92710000D03*
%TO.P,J3,18,DQ10*%
%TO.N,Net-(J3-DQ10)*%
X204343000Y-92710000D03*
%TO.P,J3,19,CTL6*%
%TO.N,unconnected-(J3-CTL6-Pad19)*%
X201803000Y-95250000D03*
%TO.P,J3,20,DQ9*%
%TO.N,Net-(J3-DQ9)*%
X204343000Y-95250000D03*
%TO.P,J3,21,CTL5*%
%TO.N,unconnected-(J3-CTL5-Pad21)*%
X201803000Y-97790000D03*
%TO.P,J3,22,DQ8*%
%TO.N,Net-(J3-DQ8)*%
X204343000Y-97790000D03*
%TO.P,J3,23,CTL4_SW*%
%TO.N,unconnected-(J3-CTL4_SW-Pad23)*%
X201803000Y-100330000D03*
%TO.P,J3,24,DQ7*%
%TO.N,Net-(J3-DQ7)*%
X204343000Y-100330000D03*
%TO.P,J3,25,CTL3*%
%TO.N,unconnected-(J3-CTL3-Pad25)*%
X201803000Y-102870000D03*
%TO.P,J3,26,DQ6*%
%TO.N,Net-(J3-DQ6)*%
X204343000Y-102870000D03*
%TO.P,J3,27,CTL2*%
%TO.N,unconnected-(J3-CTL2-Pad27)*%
X201803000Y-105410000D03*
%TO.P,J3,28,DQ5*%
%TO.N,Net-(J3-DQ5)*%
X204343000Y-105410000D03*
%TO.P,J3,29,CTL1*%
%TO.N,unconnected-(J3-CTL1-Pad29)*%
X201803000Y-107950000D03*
%TO.P,J3,30,DQ4*%
%TO.N,Net-(J3-DQ4)*%
X204343000Y-107950000D03*
%TO.P,J3,31,CTL0*%
%TO.N,unconnected-(J3-CTL0-Pad31)*%
X201803000Y-110490000D03*
%TO.P,J3,32,DQ3*%
%TO.N,Net-(J3-DQ3)*%
X204343000Y-110490000D03*
%TO.P,J3,33,GND*%
%TO.N,GND*%
X201803000Y-113030000D03*
%TO.P,J3,34,DQ2*%
%TO.N,Net-(J3-DQ2)*%
X204343000Y-113030000D03*
%TO.P,J3,35,PCLK*%
%TO.N,Net-(J3-PCLK)*%
X201803000Y-115570000D03*
%TO.P,J3,36,DQ1*%
%TO.N,Net-(J3-DQ1)*%
X204343000Y-115570000D03*
%TO.P,J3,37,GND*%
%TO.N,GND*%
X201803000Y-118110000D03*
%TO.P,J3,38,DQ0*%
%TO.N,Net-(J3-DQ0)*%
X204343000Y-118110000D03*
%TO.P,J3,39,I2C_SDA_FX3*%
%TO.N,unconnected-(J3-I2C_SDA_FX3-Pad39)*%
X201803000Y-120650000D03*
%TO.P,J3,40,I2C_SCL_FX3*%
%TO.N,unconnected-(J3-I2C_SCL_FX3-Pad40)*%
X204343000Y-120650000D03*
%TD*%
D12*
%TO.P,R26,1*%
%TO.N,Net-(J2-Pin_12)*%
X168207107Y-97207107D03*
%TO.P,R26,2*%
%TO.N,Net-(J4-DQ26)*%
X166792893Y-95792893D03*
%TD*%
D15*
%TO.P,R14,1*%
%TO.N,Net-(J1-Pin_7)*%
X188468000Y-87233000D03*
%TO.P,R14,2*%
%TO.N,Net-(J3-DQ14)*%
X188468000Y-85233000D03*
%TD*%
D12*
%TO.P,R23,1*%
%TO.N,Net-(J2-Pin_15)*%
X168207107Y-106207107D03*
%TO.P,R23,2*%
%TO.N,Net-(J4-DQ23)*%
X166792893Y-104792893D03*
%TD*%
D16*
%TO.P,R16,1*%
%TO.N,Net-(J1-Pin_8)*%
X184896000Y-90170000D03*
%TO.P,R16,2*%
%TO.N,Net-(J4-DQ16)*%
X182896000Y-90170000D03*
%TD*%
D17*
%TO.P,C1,1*%
%TO.N,+5V*%
X198729600Y-74945200D03*
%TO.P,C1,2*%
%TO.N,GND*%
X198729600Y-76845200D03*
%TD*%
D10*
%TO.P,R9,1*%
%TO.N,Net-(J1-Pin_3)*%
X195203093Y-80395093D03*
%TO.P,R9,2*%
%TO.N,Net-(J3-DQ9)*%
X196617307Y-81809307D03*
%TD*%
D12*
%TO.P,R28,1*%
%TO.N,Net-(J2-Pin_10)*%
X168207107Y-91207107D03*
%TO.P,R28,2*%
%TO.N,Net-(J4-DQ28)*%
X166792893Y-89792893D03*
%TD*%
%TO.P,R30,1*%
%TO.N,Net-(J2-Pin_8)*%
X168207107Y-85207107D03*
%TO.P,R30,2*%
%TO.N,Net-(J4-DQ30)*%
X166792893Y-83792893D03*
%TD*%
D13*
%TO.P,J2,1,Pin_1*%
%TO.N,Net-(J2-Pin_1)*%
X171803000Y-72390000D03*
D14*
%TO.P,J2,2,Pin_2*%
%TO.N,Net-(J2-Pin_2)*%
X171803000Y-74930000D03*
%TO.P,J2,3,Pin_3*%
%TO.N,Net-(J2-Pin_3)*%
X171803000Y-77470000D03*
%TO.P,J2,4,Pin_4*%
%TO.N,Net-(J2-Pin_4)*%
X171803000Y-80010000D03*
%TO.P,J2,5,Pin_5*%
%TO.N,Net-(J2-Pin_5)*%
X171803000Y-82550000D03*
%TO.P,J2,6,Pin_6*%
%TO.N,Net-(J2-Pin_6)*%
X171803000Y-85090000D03*
%TO.P,J2,7,Pin_7*%
%TO.N,Net-(J2-Pin_7)*%
X171803000Y-87630000D03*
%TO.P,J2,8,Pin_8*%
%TO.N,Net-(J2-Pin_8)*%
X171803000Y-90170000D03*
%TO.P,J2,9,Pin_9*%
%TO.N,Net-(J2-Pin_9)*%
X171803000Y-92710000D03*
%TO.P,J2,10,Pin_10*%
%TO.N,Net-(J2-Pin_10)*%
X171803000Y-95250000D03*
%TO.P,J2,11,Pin_11*%
%TO.N,Net-(J2-Pin_11)*%
X171803000Y-97790000D03*
%TO.P,J2,12,Pin_12*%
%TO.N,Net-(J2-Pin_12)*%
X171803000Y-100330000D03*
%TO.P,J2,13,Pin_13*%
%TO.N,Net-(J2-Pin_13)*%
X171803000Y-102870000D03*
%TO.P,J2,14,Pin_14*%
%TO.N,Net-(J2-Pin_14)*%
X171803000Y-105410000D03*
%TO.P,J2,15,Pin_15*%
%TO.N,Net-(J2-Pin_15)*%
X171803000Y-107950000D03*
%TO.P,J2,16,Pin_16*%
%TO.N,Net-(J2-Pin_16)*%
X171803000Y-110490000D03*
%TO.P,J2,17,Pin_17*%
%TO.N,Net-(J2-Pin_17)*%
X171803000Y-113030000D03*
%TO.P,J2,18,Pin_18*%
%TO.N,Net-(J2-Pin_18)*%
X171803000Y-115570000D03*
%TO.P,J2,19,Pin_19*%
%TO.N,VDD*%
X171803000Y-118110000D03*
%TO.P,J2,20,Pin_20*%
%TO.N,GND*%
X171803000Y-120650000D03*
%TD*%
D12*
%TO.P,R24,1*%
%TO.N,Net-(J2-Pin_14)*%
X168207107Y-103207107D03*
%TO.P,R24,2*%
%TO.N,Net-(J4-DQ24)*%
X166792893Y-101792893D03*
%TD*%
%TO.P,R25,1*%
%TO.N,Net-(J2-Pin_13)*%
X168207107Y-100207107D03*
%TO.P,R25,2*%
%TO.N,Net-(J4-DQ25)*%
X166792893Y-98792893D03*
%TD*%
D17*
%TO.P,C3,1*%
%TO.N,VDD*%
X166827200Y-71211400D03*
%TO.P,C3,2*%
%TO.N,GND*%
X166827200Y-73111400D03*
%TD*%
D10*
%TO.P,R7,1*%
%TO.N,Net-(J1-Pin_5)*%
X195203093Y-85983093D03*
%TO.P,R7,2*%
%TO.N,Net-(J3-DQ7)*%
X196617307Y-87397307D03*
%TD*%
D12*
%TO.P,R22,1*%
%TO.N,Net-(J2-Pin_16)*%
X168207107Y-109207107D03*
%TO.P,R22,2*%
%TO.N,Net-(J4-DQ22)*%
X166792893Y-107792893D03*
%TD*%
D18*
%TO.P,R0,1*%
%TO.N,Net-(J1-Pin_18)*%
X195062600Y-115570000D03*
%TO.P,R0,2*%
%TO.N,Net-(J3-DQ0)*%
X197062600Y-115570000D03*
%TD*%
D15*
%TO.P,R15,1*%
%TO.N,Net-(J1-Pin_11)*%
X186131200Y-87233000D03*
%TO.P,R15,2*%
%TO.N,Net-(J3-DQ15)*%
X186131200Y-85233000D03*
%TD*%
D12*
%TO.P,R20,1*%
%TO.N,Net-(J2-Pin_18)*%
X168207107Y-115207107D03*
%TO.P,R20,2*%
%TO.N,Net-(J4-DQ20)*%
X166792893Y-113792893D03*
%TD*%
D13*
%TO.P,J32,1,Pin_1*%
%TO.N,Net-(J32-Pin_1)*%
X177723800Y-87884000D03*
%TD*%
D10*
%TO.P,R6,1*%
%TO.N,Net-(J1-Pin_6)*%
X195203093Y-88777093D03*
%TO.P,R6,2*%
%TO.N,Net-(J3-DQ6)*%
X196617307Y-90191307D03*
%TD*%
D16*
%TO.P,R17,1*%
%TO.N,Net-(J1-Pin_14)*%
X188137800Y-105410000D03*
%TO.P,R17,2*%
%TO.N,Net-(J4-DQ17)*%
X186137800Y-105410000D03*
%TD*%
D10*
%TO.P,R5,1*%
%TO.N,Net-(J1-Pin_9)*%
X195203093Y-94161893D03*
%TO.P,R5,2*%
%TO.N,Net-(J3-DQ5)*%
X196617307Y-95576107D03*
%TD*%
D17*
%TO.P,C5,1*%
%TO.N,VDD*%
X179781200Y-118125200D03*
%TO.P,C5,2*%
%TO.N,GND*%
X179781200Y-120025200D03*
%TD*%
D12*
%TO.P,R31,1*%
%TO.N,Net-(J2-Pin_7)*%
X168207107Y-82207107D03*
%TO.P,R31,2*%
%TO.N,Net-(J4-DQ31)*%
X166792893Y-80792893D03*
%TD*%
D13*
%TO.P,J1,1,Pin_1*%
%TO.N,+5V*%
X192123000Y-72390000D03*
D14*
%TO.P,J1,2,Pin_2*%
%TO.N,GND*%
X192123000Y-74930000D03*
%TO.P,J1,3,Pin_3*%
%TO.N,Net-(J1-Pin_3)*%
X192123000Y-77470000D03*
%TO.P,J1,4,Pin_4*%
%TO.N,Net-(J1-Pin_4)*%
X192123000Y-80010000D03*
%TO.P,J1,5,Pin_5*%
%TO.N,Net-(J1-Pin_5)*%
X192123000Y-82550000D03*
%TO.P,J1,6,Pin_6*%
%TO.N,Net-(J1-Pin_6)*%
X192123000Y-85090000D03*
%TO.P,J1,7,Pin_7*%
%TO.N,Net-(J1-Pin_7)*%
X192123000Y-87630000D03*
%TO.P,J1,8,Pin_8*%
%TO.N,Net-(J1-Pin_8)*%
X192123000Y-90170000D03*
%TO.P,J1,9,Pin_9*%
%TO.N,Net-(J1-Pin_9)*%
X192123000Y-92710000D03*
%TO.P,J1,10,Pin_10*%
%TO.N,Net-(J1-Pin_10)*%
X192123000Y-95250000D03*
%TO.P,J1,11,Pin_11*%
%TO.N,Net-(J1-Pin_11)*%
X192123000Y-97790000D03*
%TO.P,J1,12,Pin_12*%
%TO.N,Net-(J1-Pin_12)*%
X192123000Y-100330000D03*
%TO.P,J1,13,Pin_13*%
%TO.N,Net-(J1-Pin_13)*%
X192123000Y-102870000D03*
%TO.P,J1,14,Pin_14*%
%TO.N,Net-(J1-Pin_14)*%
X192123000Y-105410000D03*
%TO.P,J1,15,Pin_15*%
%TO.N,GND*%
X192123000Y-107950000D03*
%TO.P,J1,16,Pin_16*%
%TO.N,VDD*%
X192123000Y-110490000D03*
%TO.P,J1,17,Pin_17*%
%TO.N,Net-(J1-Pin_17)*%
X192123000Y-113030000D03*
%TO.P,J1,18,Pin_18*%
%TO.N,Net-(J1-Pin_18)*%
X192123000Y-115570000D03*
%TO.P,J1,19,Pin_19*%
%TO.N,Net-(J1-Pin_19)*%
X192123000Y-118110000D03*
%TO.P,J1,20,Pin_20*%
%TO.N,Net-(J1-Pin_20)*%
X192123000Y-120650000D03*
%TD*%
D17*
%TO.P,C4,1*%
%TO.N,VDD*%
X188544200Y-71186000D03*
%TO.P,C4,2*%
%TO.N,GND*%
X188544200Y-73086000D03*
%TD*%
D13*
%TO.P,J4,1,V3P3*%
%TO.N,VDD*%
X159800000Y-72390000D03*
D14*
%TO.P,J4,2,V1P2*%
%TO.N,unconnected-(J4-V1P2-Pad2)*%
X162340000Y-72390000D03*
%TO.P,J4,3,INT_N_CTL15*%
%TO.N,unconnected-(J4-INT_N_CTL15-Pad3)*%
X159800000Y-74930000D03*
%TO.P,J4,4,VIO*%
%TO.N,unconnected-(J4-VIO-Pad4)*%
X162340000Y-74930000D03*
%TO.P,J4,6,DQ31*%
%TO.N,Net-(J4-DQ31)*%
X162340000Y-77470000D03*
%TO.P,J4,7,PMODE_2*%
%TO.N,unconnected-(J4-PMODE_2-Pad7)*%
X159800000Y-80010000D03*
%TO.P,J4,8,DQ30*%
%TO.N,Net-(J4-DQ30)*%
X162340000Y-80010000D03*
%TO.P,J4,9,PMODE_1*%
%TO.N,unconnected-(J4-PMODE_1-Pad9)*%
X159800000Y-82550000D03*
%TO.P,J4,10,DQ29*%
%TO.N,Net-(J4-DQ29)*%
X162340000Y-82550000D03*
%TO.P,J4,11,PMODE_0*%
%TO.N,unconnected-(J4-PMODE_0-Pad11)*%
X159800000Y-85090000D03*
%TO.P,J4,12,DQ28*%
%TO.N,Net-(J4-DQ28)*%
X162340000Y-85090000D03*
%TO.P,J4,13,GND*%
%TO.N,GND*%
X159800000Y-87630000D03*
%TO.P,J4,14,GPIO45*%
%TO.N,unconnected-(J4-GPIO45-Pad14)*%
X162340000Y-87630000D03*
%TO.P,J4,15,GND*%
%TO.N,GND*%
X159800000Y-90170000D03*
%TO.P,J4,16,DQ27*%
%TO.N,Net-(J4-DQ27)*%
X162340000Y-90170000D03*
%TO.P,J4,17,GND*%
%TO.N,GND*%
X159800000Y-92710000D03*
%TO.P,J4,18,DQ26*%
%TO.N,Net-(J4-DQ26)*%
X162340000Y-92710000D03*
%TO.P,J4,19,SPI-MOSI_UART-RX*%
%TO.N,unconnected-(J4-SPI-MOSI_UART-RX-Pad19)*%
X159800000Y-95250000D03*
%TO.P,J4,20,DQ25*%
%TO.N,Net-(J4-DQ25)*%
X162340000Y-95250000D03*
%TO.P,J4,21,SPI-MISO_UART_TX*%
%TO.N,unconnected-(J4-SPI-MISO_UART_TX-Pad21)*%
X159800000Y-97790000D03*
%TO.P,J4,22,DQ24*%
%TO.N,Net-(J4-DQ24)*%
X162340000Y-97790000D03*
%TO.P,J4,23,SPI-SSN_UART-CTS*%
%TO.N,unconnected-(J4-SPI-SSN_UART-CTS-Pad23)*%
X159800000Y-100330000D03*
%TO.P,J4,24,DQ23*%
%TO.N,Net-(J4-DQ23)*%
X162340000Y-100330000D03*
%TO.P,J4,25,GND*%
%TO.N,GND*%
X159800000Y-102870000D03*
%TO.P,J4,26,DQ22*%
%TO.N,Net-(J4-DQ22)*%
X162340000Y-102870000D03*
%TO.P,J4,27,SPI-SCK_UART-RTS*%
%TO.N,unconnected-(J4-SPI-SCK_UART-RTS-Pad27)*%
X159800000Y-105410000D03*
%TO.P,J4,28,DQ21*%
%TO.N,Net-(J4-DQ21)*%
X162340000Y-105410000D03*
%TO.P,J4,29,GND*%
%TO.N,GND*%
X159800000Y-107950000D03*
%TO.P,J4,30,DQ20*%
%TO.N,Net-(J4-DQ20)*%
X162340000Y-107950000D03*
%TO.P,J4,31,I2S_WS*%
%TO.N,unconnected-(J4-I2S_WS-Pad31)*%
X159800000Y-110490000D03*
%TO.P,J4,32,DQ19*%
%TO.N,Net-(J4-DQ19)*%
X162340000Y-110490000D03*
%TO.P,J4,33,I2S_SD*%
%TO.N,unconnected-(J4-I2S_SD-Pad33)*%
X159800000Y-113030000D03*
%TO.P,J4,34,DQ18*%
%TO.N,Net-(J4-DQ18)*%
X162340000Y-113030000D03*
%TO.P,J4,35,GPIO57_I2S-MCLK_VIO3_SW*%
%TO.N,unconnected-(J4-GPIO57_I2S-MCLK_VIO3_SW-Pad35)*%
X159800000Y-115570000D03*
%TO.P,J4,36,DQ17*%
%TO.N,Net-(J4-DQ17)*%
X162340000Y-115570000D03*
%TO.P,J4,37,I2S_CLK*%
%TO.N,unconnected-(J4-I2S_CLK-Pad37)*%
X159800000Y-118110000D03*
%TO.P,J4,38,DQ16*%
%TO.N,Net-(J4-DQ16)*%
X162340000Y-118110000D03*
%TO.P,J4,39,GND*%
%TO.N,GND*%
X159800000Y-120650000D03*
%TO.P,J4,40,GND*%
X162340000Y-120650000D03*
%TD*%
D18*
%TO.P,R1,1*%
%TO.N,Net-(J1-Pin_17)*%
X195062600Y-113030000D03*
%TO.P,R1,2*%
%TO.N,Net-(J3-DQ1)*%
X197062600Y-113030000D03*
%TD*%
D19*
%TO.N,VDD*%
X186055000Y-110500200D03*
X180975000Y-86233000D03*
D20*
%TO.N,GND*%
X189661800Y-103911400D03*
X184581800Y-116306600D03*
X184073800Y-97764600D03*
X183007000Y-103886000D03*
X184099200Y-112344200D03*
X179222400Y-84023200D03*
X184607200Y-106629200D03*
X189941200Y-116027200D03*
X190119000Y-85140800D03*
X195605400Y-74371200D03*
X176326800Y-104470200D03*
X184251600Y-100482400D03*
X178587400Y-98729800D03*
X194360800Y-117424200D03*
X186486800Y-71678800D03*
X173913800Y-96570800D03*
X199364600Y-118211600D03*
X180441600Y-107442000D03*
X186258200Y-103174800D03*
X176174400Y-110083600D03*
X165100000Y-74828400D03*
X173990000Y-110490000D03*
X164719000Y-71755000D03*
X201574400Y-69469000D03*
X197764400Y-78511400D03*
X178689000Y-106832400D03*
X169443400Y-71628000D03*
X188849000Y-74345800D03*
X189839600Y-112141000D03*
X176377600Y-100888800D03*
X168859200Y-74599800D03*
X199186800Y-121742200D03*
X168706800Y-78003400D03*
X189306200Y-108940600D03*
X180492400Y-110490000D03*
X199466200Y-112877600D03*
X169291000Y-118059200D03*
X169392600Y-80568800D03*
X189128400Y-98247200D03*
X194716400Y-77901800D03*
X177266600Y-121666000D03*
X199415400Y-79908400D03*
X165912800Y-77546200D03*
X196723000Y-109270800D03*
X179095400Y-104267000D03*
X178460400Y-109499400D03*
X194538600Y-121691400D03*
X193929000Y-111379000D03*
X174701200Y-88874600D03*
X174218600Y-86817200D03*
X189560200Y-77597000D03*
X205409800Y-69824600D03*
X186639200Y-114427000D03*
X189890400Y-82702400D03*
X182880000Y-94843600D03*
X164820600Y-118186200D03*
X178917600Y-91592400D03*
X178231800Y-116509800D03*
X176682400Y-91541600D03*
X158546800Y-69621400D03*
X177546000Y-94970600D03*
X187172600Y-100355400D03*
X187833000Y-79705200D03*
%TO.N,Net-(J3-DQ15)*%
X189458600Y-81280000D03*
%TO.N,Net-(J3-DQ14)*%
X188468000Y-84023200D03*
%TO.N,Net-(J4-DQ16)*%
X175158400Y-115544600D03*
%TO.N,Net-(J1-Pin_8)*%
X188468000Y-90170000D03*
%TD*%
D21*
%TO.N,Net-(J2-Pin_14)*%
X169917500Y-104917500D02*
G75*
G03*
X171106500Y-105410000I1189000J1189000D01*
G01*
%TO.N,Net-(J2-Pin_9)*%
X168207107Y-88660607D02*
G75*
G03*
X168527793Y-89434765I1094793J7D01*
G01*
%TO.N,Net-(J2-Pin_16)*%
X168848553Y-109848553D02*
G75*
G03*
X170397142Y-110489980I1548547J1548553D01*
G01*
%TO.N,Net-(J2-Pin_17)*%
X168618553Y-112618553D02*
G75*
G03*
X169611873Y-113030009I993347J993353D01*
G01*
%TO.N,Net-(J2-Pin_11)*%
X171785403Y-97785403D02*
G75*
G03*
X171796500Y-97789998I11097J11103D01*
G01*
%TO.N,Net-(J2-Pin_18)*%
X168388553Y-115388553D02*
G75*
G03*
X168826604Y-115569996I438047J438053D01*
G01*
%TO.N,Net-(J2-Pin_8)*%
X168207107Y-85559107D02*
G75*
G03*
X168456014Y-86160002I849793J7D01*
G01*
X169900600Y-87936100D02*
G75*
G03*
X170135007Y-88502003I800300J0D01*
G01*
X169666194Y-87370194D02*
G75*
G02*
X169900603Y-87936100I-565894J-565906D01*
G01*
%TO.N,Net-(J2-Pin_10)*%
X168207107Y-91430607D02*
G75*
G03*
X168365145Y-91812145I539593J7D01*
G01*
%TO.N,Net-(J2-Pin_15)*%
X169294865Y-107294865D02*
G75*
G03*
X170876500Y-107949991I1581635J1581665D01*
G01*
%TO.N,Net-(J2-Pin_12)*%
X171162769Y-100162769D02*
G75*
G03*
X171566500Y-100329989I403731J403769D01*
G01*
%TO.N,Net-(J2-Pin_13)*%
X170584915Y-102584915D02*
G75*
G02*
X170586391Y-102588500I-3615J-3585D01*
G01*
X170586400Y-102588500D02*
G75*
G03*
X170587878Y-102592090I5100J0D01*
G01*
X170726100Y-102730300D02*
G75*
G03*
X171063365Y-102870014I337300J337300D01*
G01*
%TO.N,Net-(J2-Pin_7)*%
X170002200Y-84915700D02*
G75*
G03*
X170648139Y-86475145I2205400J0D01*
G01*
X169356257Y-83356257D02*
G75*
G02*
X170002195Y-84915700I-1559457J-1559443D01*
G01*
D22*
%TO.N,Net-(J1-Pin_6)*%
X194988486Y-87955486D02*
G75*
G02*
X195203104Y-88473593I-518086J-518114D01*
G01*
%TO.N,Net-(J1-Pin_10)*%
X195121649Y-98248649D02*
G75*
G02*
X195228496Y-98506593I-257949J-257951D01*
G01*
%TO.N,Net-(J1-Pin_11)*%
X189826900Y-89192100D02*
G75*
G03*
X189121708Y-88899997I-705200J-705200D01*
G01*
X189826900Y-89192100D02*
G75*
G02*
X190119003Y-89897291I-705200J-705200D01*
G01*
X190119000Y-94368958D02*
G75*
G03*
X191120988Y-96788012I3421000J-42D01*
G01*
X186461400Y-88569800D02*
G75*
G03*
X187258573Y-88900011I797200J797200D01*
G01*
X186131200Y-87914100D02*
G75*
G03*
X186361368Y-88469758I785800J0D01*
G01*
%TO.N,Net-(J1-Pin_7)*%
X188463300Y-87609300D02*
G75*
G03*
X188513274Y-87630011I50000J50000D01*
G01*
%TO.N,Net-(J1-Pin_9)*%
X194326855Y-93285655D02*
G75*
G03*
X192937100Y-92709997I-1389755J-1389745D01*
G01*
%TO.N,Net-(J1-Pin_4)*%
X195168091Y-83055091D02*
G75*
G02*
X195203101Y-83139593I-84491J-84509D01*
G01*
%TO.N,Net-(J1-Pin_13)*%
X195147232Y-105894232D02*
G75*
G03*
X195214493Y-105922106I67268J67232D01*
G01*
%TO.N,Net-(J1-Pin_5)*%
X195078288Y-85505288D02*
G75*
G02*
X195203103Y-85806593I-301288J-301312D01*
G01*
%TO.N,Net-(J1-Pin_12)*%
X192848504Y-100519504D02*
G75*
G03*
X192391000Y-100329997I-457504J-457496D01*
G01*
%TO.N,Net-(J1-Pin_3)*%
X194993292Y-80340292D02*
G75*
G03*
X195125593Y-80395100I132308J132292D01*
G01*
%TO.N,Net-(J4-DQ16)*%
X176979541Y-90170000D02*
G75*
G03*
X175691788Y-90703388I-41J-1821100D01*
G01*
X175691800Y-90703400D02*
G75*
G03*
X175158417Y-91991141I1287700J-1287700D01*
G01*
%TO.N,Net-(J4-DQ17)*%
X176618900Y-116319300D02*
G75*
G02*
X175361818Y-116840008I-1257100J1257100D01*
G01*
X179090823Y-105410000D02*
G75*
G03*
X177711093Y-105981493I-23J-1951200D01*
G01*
X177139600Y-115062218D02*
G75*
G02*
X176618894Y-116319294I-1777800J18D01*
G01*
X162975000Y-116205000D02*
G75*
G03*
X164508025Y-116839989I1533000J1533000D01*
G01*
X177711100Y-105981500D02*
G75*
G03*
X177139610Y-107361223I1379700J-1379700D01*
G01*
D21*
%TO.N,Net-(J4-DQ20)*%
X165000000Y-111305000D02*
G75*
G03*
X165491435Y-112491443I1677900J0D01*
G01*
X164508560Y-110118560D02*
G75*
G02*
X164999994Y-111305000I-1186460J-1186440D01*
G01*
%TO.N,Net-(J4-DQ21)*%
X165171195Y-108241195D02*
G75*
G02*
X165500003Y-109035000I-793795J-793805D01*
G01*
X165500000Y-109035000D02*
G75*
G03*
X165828806Y-109828802I1122600J0D01*
G01*
%TO.N,Net-(J4-DQ22)*%
X165500000Y-106250000D02*
G75*
G03*
X165676787Y-106676765I603500J0D01*
G01*
X162380606Y-102880606D02*
G75*
G03*
X162355000Y-102869996I-25606J-25594D01*
G01*
X165323223Y-105823223D02*
G75*
G02*
X165499986Y-106250000I-426823J-426777D01*
G01*
%TO.N,Net-(J4-DQ23)*%
X162340000Y-100335000D02*
G75*
G03*
X162343529Y-100343541I12100J0D01*
G01*
%TO.N,Net-(J4-DQ24)*%
X162949099Y-97949099D02*
G75*
G03*
X162565000Y-97790001I-384099J-384101D01*
G01*
%TO.N,Net-(J4-DQ25)*%
X163571733Y-95571733D02*
G75*
G03*
X162795000Y-95250010I-776733J-776767D01*
G01*
%TO.N,Net-(J4-DQ26)*%
X164194368Y-93194368D02*
G75*
G03*
X163025000Y-92709989I-1169368J-1169332D01*
G01*
%TO.N,Net-(J4-DQ27)*%
X164817002Y-90817002D02*
G75*
G03*
X163255000Y-90169998I-1562002J-1561998D01*
G01*
%TO.N,Net-(J4-DQ28)*%
X164911611Y-87661611D02*
G75*
G02*
X164999993Y-87875000I-213411J-213389D01*
G01*
X165000000Y-87875000D02*
G75*
G03*
X165088383Y-88088393I301800J0D01*
G01*
%TO.N,Net-(J4-DQ29)*%
X162624246Y-82624246D02*
G75*
G03*
X162445000Y-82550002I-179246J-179254D01*
G01*
%TO.N,Net-(J4-DQ30)*%
X163246880Y-80246880D02*
G75*
G03*
X162675000Y-80010011I-571880J-571920D01*
G01*
%TO.N,Net-(J4-DQ31)*%
X163869515Y-77869515D02*
G75*
G03*
X162905000Y-77469991I-964515J-964485D01*
G01*
D22*
%TO.N,Net-(J3-DQ0)*%
X197697600Y-116205000D02*
G75*
G03*
X199230625Y-116839989I1533000J1533000D01*
G01*
X203708000Y-117475000D02*
G75*
G03*
X202174974Y-116840011I-1533000J-1533000D01*
G01*
%TO.N,Net-(J3-DQ1)*%
X198043800Y-114046000D02*
G75*
G03*
X198657010Y-114299996I613200J613200D01*
G01*
X203708000Y-114935000D02*
G75*
G03*
X202174974Y-114300011I-1533000J-1533000D01*
G01*
X197789800Y-113774600D02*
G75*
G03*
X197802105Y-113804301I42000J0D01*
G01*
X197777496Y-113744896D02*
G75*
G02*
X197789802Y-113774600I-29696J-29704D01*
G01*
%TO.N,Net-(J3-DQ2)*%
X199855915Y-110524115D02*
G75*
G02*
X199999591Y-110871000I-346915J-346885D01*
G01*
X199999600Y-110871000D02*
G75*
G03*
X200143277Y-111217891I490600J0D01*
G01*
X200342500Y-111417100D02*
G75*
G03*
X201170333Y-111759986I827800J827800D01*
G01*
X203708000Y-112395000D02*
G75*
G03*
X202174974Y-111760011I-1533000J-1533000D01*
G01*
%TO.N,Net-(J3-DQ3)*%
X199999600Y-108135987D02*
G75*
G03*
X200317096Y-108902504I1084000J-13D01*
G01*
X200317100Y-108902500D02*
G75*
G03*
X201083612Y-109219995I766500J766500D01*
G01*
X203708000Y-109855000D02*
G75*
G03*
X202174974Y-109220011I-1533000J-1533000D01*
G01*
X199676310Y-107347310D02*
G75*
G02*
X199999594Y-108127800I-780510J-780490D01*
G01*
%TO.N,Net-(J3-DQ4)*%
X199631300Y-104305100D02*
G75*
G02*
X199999619Y-105194254I-889200J-889200D01*
G01*
X203708000Y-107315000D02*
G75*
G03*
X202174974Y-106680011I-1533000J-1533000D01*
G01*
X199999600Y-105509266D02*
G75*
G03*
X200342490Y-106337110I1170700J-34D01*
G01*
X199263000Y-103415945D02*
G75*
G03*
X199631313Y-104305087I1257500J45D01*
G01*
X198822967Y-102252167D02*
G75*
G02*
X199262990Y-103314500I-1062367J-1062333D01*
G01*
X200342500Y-106337100D02*
G75*
G03*
X201170333Y-106679986I827800J827800D01*
G01*
%TO.N,Net-(J3-DQ5)*%
X200279000Y-103860600D02*
G75*
G03*
X200953531Y-104139987I674500J674500D01*
G01*
X196617307Y-95626907D02*
G75*
G03*
X196653242Y-95713614I122593J7D01*
G01*
X199999600Y-103186068D02*
G75*
G03*
X200278991Y-103860609I953900J-32D01*
G01*
X199631300Y-101739700D02*
G75*
G02*
X199999619Y-102628854I-889200J-889200D01*
G01*
X198894700Y-99453700D02*
G75*
G02*
X199263019Y-100342854I-889200J-889200D01*
G01*
X203708000Y-104775000D02*
G75*
G03*
X202174974Y-104140011I-1533000J-1533000D01*
G01*
X197996564Y-97056964D02*
G75*
G02*
X198526391Y-98336100I-1279164J-1279136D01*
G01*
X199263000Y-100850545D02*
G75*
G03*
X199631313Y-101739687I1257500J45D01*
G01*
X198526400Y-98564545D02*
G75*
G03*
X198894713Y-99453687I1257500J45D01*
G01*
%TO.N,Net-(J3-DQ6)*%
X200279000Y-101320600D02*
G75*
G03*
X200953531Y-101599987I674500J674500D01*
G01*
X199999600Y-100646068D02*
G75*
G03*
X200278991Y-101320609I953900J-32D01*
G01*
X199631300Y-99174300D02*
G75*
G02*
X199999619Y-100063454I-889200J-889200D01*
G01*
X199263000Y-98285145D02*
G75*
G03*
X199631313Y-99174287I1257500J45D01*
G01*
X197597253Y-91171253D02*
G75*
G02*
X198577246Y-93537053I-2365753J-2365847D01*
G01*
X203708000Y-102235000D02*
G75*
G03*
X202174974Y-101600011I-1533000J-1533000D01*
G01*
X198577200Y-96187466D02*
G75*
G03*
X198920090Y-97015310I1170700J-34D01*
G01*
X198920100Y-97015300D02*
G75*
G02*
X199262986Y-97843133I-827800J-827800D01*
G01*
%TO.N,Net-(J3-DQ7)*%
X199288400Y-95839305D02*
G75*
G03*
X199644002Y-96697798I1214100J5D01*
G01*
X200279000Y-98780600D02*
G75*
G03*
X200953531Y-99059987I674500J674500D01*
G01*
X199999600Y-98106068D02*
G75*
G03*
X200278991Y-98780609I953900J-32D01*
G01*
X199644000Y-96697800D02*
G75*
G02*
X199999602Y-97556294I-858500J-858500D01*
G01*
X203708000Y-99695000D02*
G75*
G03*
X202174974Y-99060011I-1533000J-1533000D01*
G01*
X197952853Y-88732853D02*
G75*
G02*
X199288378Y-91957147I-3224253J-3224247D01*
G01*
%TO.N,Net-(J3-DQ8)*%
X200240900Y-96278700D02*
G75*
G03*
X200823449Y-96519979I582500J582500D01*
G01*
X199999600Y-95696150D02*
G75*
G03*
X200240885Y-96278715I823800J-50D01*
G01*
X198405807Y-86391807D02*
G75*
G02*
X199999611Y-90239563I-3847807J-3847793D01*
G01*
X203708000Y-97155000D02*
G75*
G03*
X202174974Y-96520011I-1533000J-1533000D01*
G01*
%TO.N,Net-(J3-DQ9)*%
X202819000Y-84074000D02*
G75*
G02*
X203072996Y-84687210I-613200J-613200D01*
G01*
X202819000Y-84074000D02*
G75*
G03*
X202205789Y-83820004I-613200J-613200D01*
G01*
X197622653Y-82814653D02*
G75*
G03*
X200049774Y-83820008I2427147J2427153D01*
G01*
X203073000Y-93081974D02*
G75*
G03*
X203707992Y-94615008I2168000J-26D01*
G01*
%TO.N,Net-(J3-DQ14)*%
X188455300Y-84035900D02*
G75*
G03*
X188442584Y-84066560I30700J-30700D01*
G01*
%TO.N,Net-(J3-DQ15)*%
X186778900Y-81927700D02*
G75*
G03*
X186131194Y-83491386I1563700J-1563700D01*
G01*
X188342586Y-81280000D02*
G75*
G03*
X186778904Y-81927704I14J-2211400D01*
G01*
D23*
%TO.N,+5V*%
X198722000Y-74937600D02*
G75*
G03*
X198737200Y-74937600I7600J7600D01*
G01*
X198755548Y-74930000D02*
G75*
G03*
X198737186Y-74937586I-48J-25900D01*
G01*
X197452000Y-73667600D02*
G75*
G03*
X194367600Y-72390000I-3084400J-3084400D01*
G01*
%TO.N,VDD*%
X166814500Y-69964300D02*
G75*
G03*
X166783839Y-69951584I-30700J-30700D01*
G01*
X166819760Y-69951600D02*
G75*
G03*
X166814567Y-69964233I40J-7400D01*
G01*
X185260963Y-110490000D02*
G75*
G03*
X181413215Y-112083801I37J-5441600D01*
G01*
X166814500Y-69964300D02*
G75*
G02*
X166827216Y-69994960I-30700J-30700D01*
G01*
X181374538Y-112122461D02*
G75*
G03*
X179806606Y-115907800I3785362J-3785339D01*
G01*
X161042773Y-69951600D02*
G75*
G03*
X160164008Y-70315608I27J-1242800D01*
G01*
X188544200Y-70568800D02*
G75*
G03*
X187927000Y-69951600I-617200J0D01*
G01*
X189161400Y-69951600D02*
G75*
G03*
X188544200Y-70568800I0J-617200D01*
G01*
X200583800Y-71170800D02*
G75*
G03*
X197640390Y-69951604I-2943400J-2943400D01*
G01*
X160164000Y-70315600D02*
G75*
G03*
X159799989Y-71194373I878800J-878800D01*
G01*
X179799000Y-118117600D02*
G75*
G03*
X179806484Y-118114452I3100J3100D01*
G01*
X179799000Y-118117600D02*
G75*
G03*
X179780651Y-118110049I-18300J-18400D01*
G01*
X180975000Y-71951598D02*
G75*
G03*
X178631859Y-69951646I-2184100J-186302D01*
G01*
X182974998Y-69951600D02*
G75*
G03*
X180975000Y-71951598I2J-2000000D01*
G01*
X166783839Y-69951600D02*
X166819760Y-69951600D01*
X187927000Y-69951600D02*
X189161400Y-69951600D01*
X178631856Y-69951600D02*
X182974998Y-69951600D01*
X185260963Y-110490000D02*
X192123000Y-110490000D01*
X200583800Y-71170800D02*
X201803000Y-72390000D01*
X159800000Y-71194373D02*
X159800000Y-72390000D01*
X179780651Y-118110000D02*
X171803000Y-118110000D01*
X179806600Y-115907800D02*
X179806600Y-118114451D01*
X188544200Y-70568800D02*
X188544200Y-71186000D01*
X187927000Y-69951600D02*
X182974998Y-69951600D01*
X180975000Y-86233000D02*
X180975000Y-71951598D01*
X189161400Y-69951600D02*
X197640390Y-69951600D01*
X181413206Y-112083792D02*
X181374538Y-112122461D01*
X166827200Y-69994960D02*
X166827200Y-71211400D01*
X166783839Y-69951600D02*
X161042773Y-69951600D01*
X166819760Y-69951600D02*
X178631856Y-69951600D01*
%TO.N,+5V*%
X198722000Y-74937600D02*
X197452000Y-73667600D01*
X201803000Y-74930000D02*
X204343000Y-74930000D01*
X198755548Y-74930000D02*
X201803000Y-74930000D01*
X194367600Y-72390000D02*
X192123000Y-72390000D01*
D22*
%TO.N,Net-(J3-DQ15)*%
X186131200Y-83491386D02*
X186131200Y-85588600D01*
X189458600Y-81280000D02*
X188342586Y-81280000D01*
%TO.N,Net-(J3-DQ14)*%
X188468000Y-84023200D02*
X188455300Y-84035900D01*
X188442600Y-84066560D02*
X188442600Y-85588600D01*
%TO.N,Net-(J3-DQ9)*%
X203073000Y-84687210D02*
X203073000Y-93081974D01*
X202205789Y-83820000D02*
X200049774Y-83820000D01*
X197622653Y-82814653D02*
X196617307Y-81809307D01*
X203708000Y-94615000D02*
X204343000Y-95250000D01*
%TO.N,Net-(J3-DQ8)*%
X199999600Y-95696150D02*
X199999600Y-90239563D01*
X198405807Y-86391807D02*
X196617307Y-84603307D01*
X203708000Y-97155000D02*
X204343000Y-97790000D01*
X200823449Y-96520000D02*
X202174974Y-96520000D01*
%TO.N,Net-(J3-DQ7)*%
X197952853Y-88732853D02*
X196617307Y-87397307D01*
X199999600Y-98106068D02*
X199999600Y-97556294D01*
X200953531Y-99060000D02*
X202174974Y-99060000D01*
X203708000Y-99695000D02*
X204343000Y-100330000D01*
X199288400Y-95839305D02*
X199288400Y-91957147D01*
%TO.N,Net-(J3-DQ6)*%
X203708000Y-102235000D02*
X204343000Y-102870000D01*
X198577200Y-93537053D02*
X198577200Y-96187466D01*
X199263000Y-98285145D02*
X199263000Y-97843133D01*
X199999600Y-100646068D02*
X199999600Y-100063454D01*
X197597253Y-91171253D02*
X196617307Y-90191307D01*
X200953531Y-101600000D02*
X202174974Y-101600000D01*
%TO.N,Net-(J3-DQ5)*%
X199999600Y-103186068D02*
X199999600Y-102628854D01*
X196653228Y-95713628D02*
X197996564Y-97056964D01*
X200953531Y-104140000D02*
X202174974Y-104140000D01*
X196617307Y-95626907D02*
X196617307Y-95576107D01*
X199263000Y-100342854D02*
X199263000Y-100850545D01*
X203708000Y-104775000D02*
X204343000Y-105410000D01*
X198526400Y-98336100D02*
X198526400Y-98564545D01*
%TO.N,Net-(J3-DQ4)*%
X203708000Y-107315000D02*
X204343000Y-107950000D01*
X198822967Y-102252167D02*
X196642707Y-100071907D01*
X199263000Y-103415945D02*
X199263000Y-103314500D01*
X199999600Y-105194254D02*
X199999600Y-105509266D01*
X202174974Y-106680000D02*
X201170333Y-106680000D01*
%TO.N,Net-(J3-DQ3)*%
X203708000Y-109855000D02*
X204343000Y-110490000D01*
X199676310Y-107347310D02*
X196642707Y-104313707D01*
X201083612Y-109220000D02*
X202174974Y-109220000D01*
X199999600Y-108135987D02*
X199999600Y-108127800D01*
%TO.N,Net-(J3-DQ2)*%
X203708000Y-112395000D02*
X204343000Y-113030000D01*
X199855915Y-110524115D02*
X196668107Y-107336307D01*
X201170333Y-111760000D02*
X202174974Y-111760000D01*
X200143284Y-111217884D02*
X200342500Y-111417100D01*
%TO.N,Net-(J3-DQ1)*%
X203708000Y-114935000D02*
X204343000Y-115570000D01*
X198043800Y-114046000D02*
X197802103Y-113804303D01*
X198657010Y-114300000D02*
X202174974Y-114300000D01*
X197777496Y-113744896D02*
X197062600Y-113030000D01*
%TO.N,Net-(J3-DQ0)*%
X197697600Y-116205000D02*
X197062600Y-115570000D01*
X199230625Y-116840000D02*
X202174974Y-116840000D01*
X203708000Y-117475000D02*
X204343000Y-118110000D01*
D21*
%TO.N,Net-(J4-DQ31)*%
X163869515Y-77869515D02*
X166792893Y-80792893D01*
X162905000Y-77470000D02*
X162340000Y-77470000D01*
%TO.N,Net-(J4-DQ30)*%
X162675000Y-80010000D02*
X162340000Y-80010000D01*
X163246880Y-80246880D02*
X166792893Y-83792893D01*
%TO.N,Net-(J4-DQ29)*%
X162445000Y-82550000D02*
X162340000Y-82550000D01*
X162624246Y-82624246D02*
X166792893Y-86792893D01*
%TO.N,Net-(J4-DQ28)*%
X164911611Y-87661611D02*
X162340000Y-85090000D01*
X165088388Y-88088388D02*
X166792893Y-89792893D01*
%TO.N,Net-(J4-DQ27)*%
X163255000Y-90170000D02*
X162340000Y-90170000D01*
X164817002Y-90817002D02*
X166792893Y-92792893D01*
%TO.N,Net-(J4-DQ26)*%
X164194368Y-93194368D02*
X166792893Y-95792893D01*
X163025000Y-92710000D02*
X162340000Y-92710000D01*
%TO.N,Net-(J4-DQ25)*%
X163571733Y-95571733D02*
X166792893Y-98792893D01*
X162795000Y-95250000D02*
X162340000Y-95250000D01*
%TO.N,Net-(J4-DQ24)*%
X162949099Y-97949099D02*
X166792893Y-101792893D01*
X162565000Y-97790000D02*
X162340000Y-97790000D01*
%TO.N,Net-(J4-DQ23)*%
X162343535Y-100343535D02*
X166792893Y-104792893D01*
X162340000Y-100335000D02*
X162340000Y-100330000D01*
%TO.N,Net-(J4-DQ22)*%
X162380606Y-102880606D02*
X165323223Y-105823223D01*
X162355000Y-102870000D02*
X162340000Y-102870000D01*
X165676776Y-106676776D02*
X166792893Y-107792893D01*
%TO.N,Net-(J4-DQ21)*%
X165828804Y-109828804D02*
X166792893Y-110792893D01*
X165171195Y-108241195D02*
X162340000Y-105410000D01*
%TO.N,Net-(J4-DQ20)*%
X164508560Y-110118560D02*
X162340000Y-107950000D01*
X165491439Y-112491439D02*
X166792893Y-113792893D01*
D22*
%TO.N,Net-(J4-DQ17)*%
X179090823Y-105410000D02*
X186137800Y-105410000D01*
X162975000Y-116205000D02*
X162340000Y-115570000D01*
X175361818Y-116840000D02*
X164508025Y-116840000D01*
X177139600Y-115062218D02*
X177139600Y-107361223D01*
%TO.N,Net-(J4-DQ16)*%
X175158400Y-115544600D02*
X175158400Y-91991141D01*
X176979541Y-90170000D02*
X182896000Y-90170000D01*
%TO.N,Net-(J1-Pin_3)*%
X194993292Y-80340292D02*
X192123000Y-77470000D01*
X195125593Y-80395093D02*
X195203093Y-80395093D01*
%TO.N,Net-(J1-Pin_12)*%
X192391000Y-100330000D02*
X192123000Y-100330000D01*
X192848504Y-100519504D02*
X195228493Y-102899493D01*
%TO.N,Net-(J1-Pin_5)*%
X195203093Y-85806593D02*
X195203093Y-85983093D01*
X195078288Y-85505288D02*
X192123000Y-82550000D01*
%TO.N,Net-(J1-Pin_13)*%
X195214493Y-105922093D02*
X195253893Y-105922093D01*
X195147232Y-105894232D02*
X192123000Y-102870000D01*
%TO.N,Net-(J1-Pin_8)*%
X184896000Y-90170000D02*
X188417200Y-90170000D01*
%TO.N,Net-(J1-Pin_4)*%
X195168091Y-83055091D02*
X192123000Y-80010000D01*
X195203093Y-83139593D02*
X195203093Y-83189093D01*
%TO.N,Net-(J1-Pin_9)*%
X192937100Y-92710000D02*
X192123000Y-92710000D01*
X194326855Y-93285655D02*
X195203093Y-94161893D01*
%TO.N,Net-(J1-Pin_14)*%
X192123000Y-105410000D02*
X188137800Y-105410000D01*
%TO.N,Net-(J1-Pin_7)*%
X188463300Y-87609300D02*
X188442600Y-87588600D01*
X188513274Y-87630000D02*
X192123000Y-87630000D01*
D21*
%TO.N,Net-(J1-Pin_17)*%
X192123000Y-113030000D02*
X195062600Y-113030000D01*
D22*
%TO.N,Net-(J1-Pin_11)*%
X191121000Y-96788000D02*
X192123000Y-97790000D01*
X189121708Y-88900000D02*
X187258573Y-88900000D01*
X186131200Y-87914100D02*
X186131200Y-87588600D01*
X190119000Y-89897291D02*
X190119000Y-94368958D01*
X186461400Y-88569800D02*
X186361363Y-88469763D01*
D21*
%TO.N,Net-(J1-Pin_18)*%
X192123000Y-115570000D02*
X195062600Y-115570000D01*
D22*
%TO.N,Net-(J1-Pin_10)*%
X195228493Y-98506593D02*
X195228493Y-98657693D01*
X195121649Y-98248649D02*
X192123000Y-95250000D01*
%TO.N,Net-(J1-Pin_6)*%
X195203093Y-88473593D02*
X195203093Y-88777093D01*
X194988486Y-87955486D02*
X192123000Y-85090000D01*
D21*
%TO.N,Net-(J2-Pin_7)*%
X170648142Y-86475142D02*
X171803000Y-87630000D01*
X169356257Y-83356257D02*
X168207107Y-82207107D01*
%TO.N,Net-(J2-Pin_13)*%
X170587884Y-102592084D02*
X170726100Y-102730300D01*
X170584915Y-102584915D02*
X168207107Y-100207107D01*
X171063365Y-102870000D02*
X171803000Y-102870000D01*
%TO.N,Net-(J2-Pin_12)*%
X171162769Y-100162769D02*
X168207107Y-97207107D01*
X171566500Y-100330000D02*
X171803000Y-100330000D01*
%TO.N,Net-(J2-Pin_15)*%
X170876500Y-107950000D02*
X171803000Y-107950000D01*
X169294865Y-107294865D02*
X168207107Y-106207107D01*
%TO.N,Net-(J2-Pin_10)*%
X168207107Y-91430607D02*
X168207107Y-91207107D01*
X168365145Y-91812145D02*
X171803000Y-95250000D01*
%TO.N,Net-(J2-Pin_8)*%
X168456008Y-86160008D02*
X169666194Y-87370194D01*
X168207107Y-85559107D02*
X168207107Y-85207107D01*
X170135005Y-88502005D02*
X171803000Y-90170000D01*
%TO.N,Net-(J2-Pin_18)*%
X168826604Y-115570000D02*
X171803000Y-115570000D01*
X168388553Y-115388553D02*
X168207107Y-115207107D01*
%TO.N,Net-(J2-Pin_11)*%
X171796500Y-97790000D02*
X171803000Y-97790000D01*
X171785403Y-97785403D02*
X168207107Y-94207107D01*
%TO.N,Net-(J2-Pin_17)*%
X168618553Y-112618553D02*
X168207107Y-112207107D01*
X169611873Y-113030000D02*
X171803000Y-113030000D01*
%TO.N,Net-(J2-Pin_16)*%
X168848553Y-109848553D02*
X168207107Y-109207107D01*
X170397142Y-110490000D02*
X171803000Y-110490000D01*
%TO.N,Net-(J2-Pin_9)*%
X168527779Y-89434779D02*
X171803000Y-92710000D01*
X168207107Y-88660607D02*
X168207107Y-88207107D01*
%TO.N,Net-(J2-Pin_14)*%
X171106500Y-105410000D02*
X171803000Y-105410000D01*
X169917500Y-104917500D02*
X168207107Y-103207107D01*
%TD*%
%TA.AperFunction,Conductor*%
%TO.N,GND*%
G36*
X193686824Y-105367912D02*
G01*
X193943622Y-105624710D01*
X193977107Y-105686033D01*
X193976599Y-105740988D01*
X193937707Y-105905083D01*
X193937707Y-106080521D01*
X193937708Y-106080532D01*
X193978166Y-106251234D01*
X193993317Y-106281402D01*
X194056905Y-106408018D01*
X194056907Y-106408021D01*
X194056909Y-106408024D01*
X194112342Y-106476071D01*
X194122162Y-106488126D01*
X194687860Y-107053822D01*
X194767968Y-107119081D01*
X194885023Y-107177867D01*
X194924751Y-107197819D01*
X195067296Y-107231603D01*
X195095461Y-107238279D01*
X195095464Y-107238279D01*
X195227921Y-107238279D01*
X195294960Y-107257964D01*
X195340715Y-107310768D01*
X195351921Y-107362279D01*
X195351921Y-107494735D01*
X195351922Y-107494746D01*
X195392380Y-107665448D01*
X195392382Y-107665451D01*
X195471119Y-107822232D01*
X195471121Y-107822235D01*
X195471123Y-107822238D01*
X195536366Y-107902328D01*
X195536376Y-107902340D01*
X196102074Y-108468036D01*
X196182182Y-108533295D01*
X196316522Y-108600762D01*
X196338965Y-108612033D01*
X196481510Y-108645817D01*
X196509675Y-108652493D01*
X196509678Y-108652493D01*
X196685114Y-108652493D01*
X196685117Y-108652493D01*
X196855830Y-108612032D01*
X196878270Y-108600761D01*
X196947013Y-108588265D01*
X197011599Y-108614917D01*
X197021603Y-108623891D01*
X199306820Y-110909108D01*
X199340305Y-110970431D01*
X199341613Y-110977392D01*
X199367449Y-111140530D01*
X199389099Y-111207165D01*
X199421425Y-111306661D01*
X199423435Y-111312845D01*
X199505677Y-111474265D01*
X199505686Y-111474281D01*
X199612164Y-111620844D01*
X199612171Y-111620853D01*
X199626196Y-111634879D01*
X199626263Y-111634952D01*
X199655347Y-111664035D01*
X199676218Y-111684906D01*
X199728839Y-111737532D01*
X199728840Y-111737532D01*
X199733948Y-111742641D01*
X199733993Y-111742681D01*
X199839127Y-111847815D01*
X199839151Y-111847859D01*
X199875446Y-111884153D01*
X199875446Y-111884154D01*
X199960319Y-111969026D01*
X200150768Y-112115161D01*
X200358663Y-112235187D01*
X200580446Y-112327049D01*
X200580456Y-112327051D01*
X200580460Y-112327053D01*
X200812317Y-112389174D01*
X200812319Y-112389174D01*
X200812322Y-112389175D01*
X201050324Y-112420503D01*
X201170352Y-112420500D01*
X202100557Y-112420500D01*
X202100561Y-112420501D01*
X202170916Y-112420500D01*
X202179025Y-112420765D01*
X202197054Y-112421946D01*
X202363648Y-112432863D01*
X202379717Y-112434979D01*
X202557198Y-112470280D01*
X202572841Y-112474472D01*
X202744200Y-112532638D01*
X202759168Y-112538838D01*
X202921468Y-112618875D01*
X202935494Y-112626973D01*
X202947716Y-112635140D01*
X202961149Y-112644116D01*
X203005953Y-112697730D01*
X203014659Y-112767055D01*
X203012033Y-112779304D01*
X203008832Y-112791254D01*
X203007937Y-112794593D01*
X202987341Y-113029999D01*
X202987341Y-113030000D01*
X203007936Y-113265403D01*
X203007938Y-113265413D01*
X203069094Y-113493655D01*
X203069096Y-113493659D01*
X203069097Y-113493663D01*
X203088044Y-113534295D01*
X203109131Y-113579516D01*
X203119623Y-113648594D01*
X203091103Y-113712378D01*
X203032627Y-113750617D01*
X202962759Y-113751172D01*
X202960755Y-113750582D01*
X202863073Y-113720951D01*
X202751920Y-113698842D01*
X202590500Y-113666736D01*
X202590494Y-113666735D01*
X202590487Y-113666734D01*
X202390995Y-113647089D01*
X202313923Y-113639499D01*
X202313920Y-113639499D01*
X202174966Y-113639500D01*
X198665128Y-113639500D01*
X198648945Y-113638439D01*
X198634236Y-113636502D01*
X198619686Y-113634587D01*
X198588426Y-113626211D01*
X198568736Y-113618056D01*
X198540697Y-113601868D01*
X198517311Y-113583923D01*
X198505117Y-113573229D01*
X198372191Y-113440303D01*
X198356777Y-113421523D01*
X198293416Y-113326717D01*
X198244477Y-113277789D01*
X198199418Y-113232730D01*
X198165933Y-113171407D01*
X198163099Y-113145049D01*
X198163099Y-112529998D01*
X198163098Y-112529981D01*
X198152599Y-112427203D01*
X198152598Y-112427200D01*
X198150379Y-112420503D01*
X198097414Y-112260666D01*
X198005312Y-112111344D01*
X197881256Y-111987288D01*
X197754476Y-111909090D01*
X197731936Y-111895187D01*
X197731931Y-111895185D01*
X197730462Y-111894698D01*
X197565397Y-111840001D01*
X197565395Y-111840000D01*
X197462610Y-111829500D01*
X196662598Y-111829500D01*
X196662580Y-111829501D01*
X196559803Y-111840000D01*
X196559800Y-111840001D01*
X196393268Y-111895185D01*
X196393263Y-111895187D01*
X196243942Y-111987289D01*
X196150281Y-112080951D01*
X196088958Y-112114436D01*
X196019266Y-112109452D01*
X195974919Y-112080951D01*
X195881257Y-111987289D01*
X195881256Y-111987288D01*
X195754476Y-111909090D01*
X195731936Y-111895187D01*
X195731931Y-111895185D01*
X195730462Y-111894698D01*
X195565397Y-111840001D01*
X195565395Y-111840000D01*
X195462610Y-111829500D01*
X194662598Y-111829500D01*
X194662580Y-111829501D01*
X194559803Y-111840000D01*
X194559800Y-111840001D01*
X194393268Y-111895185D01*
X194393263Y-111895187D01*
X194243942Y-111987289D01*
X194119889Y-112111342D01*
X194117532Y-112115163D01*
X194030041Y-112257011D01*
X194023995Y-112266813D01*
X194022200Y-112265706D01*
X193982913Y-112310337D01*
X193916692Y-112329500D01*
X193345711Y-112329500D01*
X193278672Y-112309815D01*
X193244136Y-112276623D01*
X193161494Y-112158597D01*
X192994402Y-111991506D01*
X192994396Y-111991501D01*
X192808842Y-111861575D01*
X192765217Y-111806998D01*
X192758023Y-111737500D01*
X192789546Y-111675145D01*
X192808842Y-111658425D01*
X192882244Y-111607028D01*
X192994401Y-111528495D01*
X193161495Y-111361401D01*
X193297035Y-111167830D01*
X193396903Y-110953663D01*
X193458063Y-110725408D01*
X193478659Y-110490000D01*
X193458063Y-110254592D01*
X193396903Y-110026337D01*
X193297035Y-109812171D01*
X193291425Y-109804158D01*
X193161494Y-109618597D01*
X192994402Y-109451506D01*
X192994395Y-109451501D01*
X192973938Y-109437177D01*
X192913461Y-109394830D01*
X192800834Y-109315967D01*
X192800830Y-109315965D01*
X192800828Y-109315964D01*
X192586663Y-109216097D01*
X192586659Y-109216096D01*
X192586655Y-109216094D01*
X192358413Y-109154938D01*
X192358403Y-109154936D01*
X192123001Y-109134341D01*
X192122999Y-109134341D01*
X191887596Y-109154936D01*
X191887586Y-109154938D01*
X191659344Y-109216094D01*
X191659335Y-109216098D01*
X191445171Y-109315964D01*
X191445169Y-109315965D01*
X191251597Y-109451505D01*
X191249922Y-109453181D01*
X191249000Y-109453684D01*
X191247449Y-109454986D01*
X191247187Y-109454674D01*
X191188599Y-109486666D01*
X191162241Y-109489500D01*
X186515702Y-109489500D01*
X186470909Y-109481127D01*
X186357460Y-109437177D01*
X186357457Y-109437176D01*
X186357456Y-109437176D01*
X186156976Y-109399700D01*
X185953024Y-109399700D01*
X185752544Y-109437176D01*
X185752539Y-109437177D01*
X185639091Y-109481127D01*
X185594298Y-109489500D01*
X185312330Y-109489500D01*
X185312289Y-109489488D01*
X185260956Y-109489488D01*
X185225461Y-109489488D01*
X185030877Y-109489489D01*
X184571894Y-109522320D01*
X184116417Y-109587809D01*
X183666789Y-109685622D01*
X183225266Y-109815267D01*
X182794116Y-109976079D01*
X182375555Y-110167231D01*
X181971689Y-110387759D01*
X181584575Y-110636541D01*
X181584570Y-110636544D01*
X181216202Y-110912301D01*
X181216200Y-110912303D01*
X180868454Y-111213625D01*
X180868415Y-111213661D01*
X180777411Y-111304664D01*
X180777401Y-111304674D01*
X180732775Y-111349302D01*
X180703397Y-111378680D01*
X180703379Y-111378689D01*
X180506631Y-111575438D01*
X180506595Y-111575477D01*
X180209402Y-111918459D01*
X180209400Y-111918461D01*
X179937423Y-112281781D01*
X179937420Y-112281786D01*
X179692053Y-112663587D01*
X179692049Y-112663593D01*
X179474541Y-113061931D01*
X179474537Y-113061938D01*
X179286013Y-113474751D01*
X179127408Y-113899990D01*
X179127399Y-113900017D01*
X178999539Y-114335465D01*
X178999536Y-114335475D01*
X178903067Y-114778941D01*
X178838477Y-115228178D01*
X178806100Y-115680871D01*
X178806100Y-116985500D01*
X178786415Y-117052539D01*
X178733611Y-117098294D01*
X178682100Y-117109500D01*
X177059680Y-117109500D01*
X176992641Y-117089815D01*
X176946886Y-117037011D01*
X176936942Y-116967853D01*
X176965967Y-116904297D01*
X176982365Y-116888555D01*
X176985480Y-116886069D01*
X176989119Y-116883168D01*
X177026253Y-116846032D01*
X177026258Y-116846029D01*
X177033319Y-116838968D01*
X177033321Y-116838967D01*
X177085944Y-116786344D01*
X177138567Y-116733721D01*
X177138568Y-116733718D01*
X177143689Y-116728598D01*
X177143773Y-116728502D01*
X177182763Y-116689514D01*
X177353512Y-116475402D01*
X177499216Y-116243518D01*
X177618040Y-115996779D01*
X177708492Y-115738287D01*
X177769434Y-115471293D01*
X177794766Y-115246483D01*
X177800099Y-115199157D01*
X177800100Y-115062224D01*
X177800100Y-107435640D01*
X177800101Y-107435636D01*
X177800100Y-107366087D01*
X177800482Y-107356360D01*
X177800721Y-107353324D01*
X177815224Y-107169021D01*
X177818265Y-107149821D01*
X177860992Y-106971841D01*
X177866998Y-106953356D01*
X177937047Y-106784240D01*
X177945867Y-106766929D01*
X178041505Y-106610860D01*
X178052931Y-106595135D01*
X178171757Y-106456005D01*
X178185510Y-106442252D01*
X178324737Y-106323342D01*
X178340465Y-106311914D01*
X178496533Y-106216276D01*
X178513860Y-106207449D01*
X178682949Y-106137411D01*
X178701449Y-106131400D01*
X178879420Y-106088675D01*
X178898622Y-106085634D01*
X179086094Y-106070881D01*
X179095809Y-106070500D01*
X179165236Y-106070501D01*
X179165240Y-106070500D01*
X184977381Y-106070500D01*
X185044420Y-106090185D01*
X185090175Y-106142989D01*
X185095084Y-106155487D01*
X185100228Y-106171011D01*
X185102986Y-106179333D01*
X185102987Y-106179336D01*
X185136136Y-106233079D01*
X185195088Y-106328656D01*
X185319144Y-106452712D01*
X185468466Y-106544814D01*
X185635003Y-106599999D01*
X185737791Y-106610500D01*
X186537808Y-106610499D01*
X186537816Y-106610498D01*
X186537819Y-106610498D01*
X186594102Y-106604748D01*
X186640597Y-106599999D01*
X186807134Y-106544814D01*
X186956456Y-106452712D01*
X187050119Y-106359049D01*
X187111442Y-106325564D01*
X187181134Y-106330548D01*
X187225481Y-106359049D01*
X187319144Y-106452712D01*
X187468466Y-106544814D01*
X187635003Y-106599999D01*
X187737791Y-106610500D01*
X188537808Y-106610499D01*
X188537816Y-106610498D01*
X188537819Y-106610498D01*
X188594102Y-106604748D01*
X188640597Y-106599999D01*
X188807134Y-106544814D01*
X188956456Y-106452712D01*
X189080512Y-106328656D01*
X189172614Y-106179334D01*
X189180513Y-106155493D01*
X189220287Y-106098050D01*
X189284803Y-106071228D01*
X189298219Y-106070500D01*
X190872280Y-106070500D01*
X190939319Y-106090185D01*
X190973855Y-106123377D01*
X191007209Y-106171011D01*
X191084505Y-106281401D01*
X191251599Y-106448495D01*
X191348384Y-106516265D01*
X191445165Y-106584032D01*
X191445167Y-106584033D01*
X191445170Y-106584035D01*
X191659337Y-106683903D01*
X191887592Y-106745063D01*
X192075918Y-106761539D01*
X192122999Y-106765659D01*
X192123000Y-106765659D01*
X192123001Y-106765659D01*
X192162234Y-106762226D01*
X192358408Y-106745063D01*
X192586663Y-106683903D01*
X192800830Y-106584035D01*
X192994401Y-106448495D01*
X193161495Y-106281401D01*
X193297035Y-106087830D01*
X193396903Y-105873663D01*
X193458063Y-105645408D01*
X193475615Y-105444784D01*
X193501067Y-105379717D01*
X193557658Y-105338738D01*
X193627420Y-105334860D01*
X193686824Y-105367912D01*
G37*
%TD.AperFunction*%
%TA.AperFunction,Conductor*%
G36*
X189411151Y-90620707D02*
G01*
X189451680Y-90677621D01*
X189458500Y-90718178D01*
X189458500Y-94439893D01*
X189458516Y-94440240D01*
X189458516Y-94547159D01*
X189489575Y-94902212D01*
X189551457Y-95253179D01*
X189551462Y-95253200D01*
X189643700Y-95597455D01*
X189643707Y-95597475D01*
X189765598Y-95932374D01*
X189765606Y-95932393D01*
X189912726Y-96247895D01*
X189916224Y-96255397D01*
X190010347Y-96418425D01*
X190094426Y-96564056D01*
X190298848Y-96856003D01*
X190298852Y-96856008D01*
X190298853Y-96856009D01*
X190527947Y-97129034D01*
X190600891Y-97201978D01*
X190600898Y-97201986D01*
X190772302Y-97373390D01*
X190805787Y-97434713D01*
X190804396Y-97493163D01*
X190787939Y-97554583D01*
X190787936Y-97554596D01*
X190767341Y-97789999D01*
X190767341Y-97790000D01*
X190787936Y-98025403D01*
X190787938Y-98025413D01*
X190849094Y-98253655D01*
X190849096Y-98253659D01*
X190849097Y-98253663D01*
X190929004Y-98425023D01*
X190948965Y-98467830D01*
X190948967Y-98467834D01*
X191014641Y-98561625D01*
X191084501Y-98661396D01*
X191084506Y-98661402D01*
X191251597Y-98828493D01*
X191251603Y-98828498D01*
X191437158Y-98958425D01*
X191480783Y-99013002D01*
X191487977Y-99082500D01*
X191456454Y-99144855D01*
X191437158Y-99161575D01*
X191251597Y-99291505D01*
X191084505Y-99458597D01*
X190948965Y-99652169D01*
X190948964Y-99652171D01*
X190849098Y-99866335D01*
X190849094Y-99866344D01*
X190787938Y-100094586D01*
X190787936Y-100094596D01*
X190767341Y-100329999D01*
X190767341Y-100330000D01*
X190787936Y-100565403D01*
X190787938Y-100565413D01*
X190849094Y-100793655D01*
X190849096Y-100793659D01*
X190849097Y-100793663D01*
X190903832Y-100911042D01*
X190948965Y-101007830D01*
X190948967Y-101007834D01*
X191014641Y-101101625D01*
X191084501Y-101201396D01*
X191084506Y-101201402D01*
X191251597Y-101368493D01*
X191251603Y-101368498D01*
X191437158Y-101498425D01*
X191480783Y-101553002D01*
X191487977Y-101622500D01*
X191456454Y-101684855D01*
X191437158Y-101701575D01*
X191251597Y-101831505D01*
X191084505Y-101998597D01*
X190948965Y-102192169D01*
X190948964Y-102192171D01*
X190849098Y-102406335D01*
X190849094Y-102406344D01*
X190787938Y-102634586D01*
X190787936Y-102634596D01*
X190767341Y-102869999D01*
X190767341Y-102870000D01*
X190787936Y-103105403D01*
X190787938Y-103105413D01*
X190849094Y-103333655D01*
X190849096Y-103333659D01*
X190849097Y-103333663D01*
X190936247Y-103520556D01*
X190948965Y-103547830D01*
X190948967Y-103547834D01*
X191084501Y-103741395D01*
X191084506Y-103741402D01*
X191251597Y-103908493D01*
X191251603Y-103908498D01*
X191437158Y-104038425D01*
X191480783Y-104093002D01*
X191487977Y-104162500D01*
X191456454Y-104224855D01*
X191437158Y-104241575D01*
X191251597Y-104371505D01*
X191084506Y-104538596D01*
X191008540Y-104647089D01*
X190973958Y-104696478D01*
X190973856Y-104696623D01*
X190919279Y-104740248D01*
X190872281Y-104749500D01*
X189298219Y-104749500D01*
X189231180Y-104729815D01*
X189185425Y-104677011D01*
X189180513Y-104664505D01*
X189172614Y-104640666D01*
X189080512Y-104491344D01*
X188956456Y-104367288D01*
X188842009Y-104296697D01*
X188807136Y-104275187D01*
X188807131Y-104275185D01*
X188779630Y-104266072D01*
X188640597Y-104220001D01*
X188640595Y-104220000D01*
X188537810Y-104209500D01*
X187737798Y-104209500D01*
X187737780Y-104209501D01*
X187635003Y-104220000D01*
X187635000Y-104220001D01*
X187468468Y-104275185D01*
X187468463Y-104275187D01*
X187319142Y-104367289D01*
X187225481Y-104460951D01*
X187164158Y-104494436D01*
X187094466Y-104489452D01*
X187050119Y-104460951D01*
X186956457Y-104367289D01*
X186956456Y-104367288D01*
X186842009Y-104296697D01*
X186807136Y-104275187D01*
X186807131Y-104275185D01*
X186779630Y-104266072D01*
X186640597Y-104220001D01*
X186640595Y-104220000D01*
X186537810Y-104209500D01*
X185737798Y-104209500D01*
X185737780Y-104209501D01*
X185635003Y-104220000D01*
X185635000Y-104220001D01*
X185468468Y-104275185D01*
X185468463Y-104275187D01*
X185319142Y-104367289D01*
X185195089Y-104491342D01*
X185102987Y-104640663D01*
X185102986Y-104640666D01*
X185095087Y-104664505D01*
X185055313Y-104721950D01*
X184990797Y-104748772D01*
X184977381Y-104749500D01*
X179020233Y-104749500D01*
X179020035Y-104749509D01*
X178944150Y-104749509D01*
X178652669Y-104782348D01*
X178652663Y-104782349D01*
X178366675Y-104847620D01*
X178366670Y-104847622D01*
X178089787Y-104944505D01*
X177825500Y-105071777D01*
X177577119Y-105227844D01*
X177347770Y-105410743D01*
X177296679Y-105461833D01*
X177280382Y-105478130D01*
X177280351Y-105478146D01*
X177140332Y-105618166D01*
X176957442Y-105847504D01*
X176957441Y-105847506D01*
X176801368Y-106095896D01*
X176674095Y-106360186D01*
X176577214Y-106637062D01*
X176577212Y-106637070D01*
X176511940Y-106923055D01*
X176511937Y-106923075D01*
X176479099Y-107214551D01*
X176479099Y-107214556D01*
X176479100Y-107296170D01*
X176479100Y-115057334D01*
X176478718Y-115067064D01*
X176466108Y-115227264D01*
X176463064Y-115246483D01*
X176426690Y-115397984D01*
X176420677Y-115416487D01*
X176361055Y-115560429D01*
X176352220Y-115577768D01*
X176286283Y-115685364D01*
X176234471Y-115732239D01*
X176165541Y-115743660D01*
X176101379Y-115716003D01*
X176062355Y-115658046D01*
X176057236Y-115607617D01*
X176063860Y-115544600D01*
X176044074Y-115356344D01*
X175989512Y-115188423D01*
X175985581Y-115176322D01*
X175985580Y-115176321D01*
X175985579Y-115176316D01*
X175890933Y-115012384D01*
X175850750Y-114967756D01*
X175820520Y-114904764D01*
X175818900Y-114884784D01*
X175818900Y-92065551D01*
X175818901Y-92065547D01*
X175818900Y-91995997D01*
X175819282Y-91986271D01*
X175821976Y-91952037D01*
X175832421Y-91819279D01*
X175835461Y-91800082D01*
X175873421Y-91641957D01*
X175879432Y-91623457D01*
X175941661Y-91473217D01*
X175950488Y-91455892D01*
X176035457Y-91317233D01*
X176046883Y-91301508D01*
X176152422Y-91177935D01*
X176166164Y-91164193D01*
X176289917Y-91058498D01*
X176305643Y-91047072D01*
X176444300Y-90962104D01*
X176461631Y-90953275D01*
X176474559Y-90947920D01*
X176611867Y-90891046D01*
X176630355Y-90885040D01*
X176788484Y-90847079D01*
X176807682Y-90844038D01*
X176974902Y-90830881D01*
X176984623Y-90830500D01*
X177053947Y-90830501D01*
X177053951Y-90830500D01*
X181735581Y-90830500D01*
X181802620Y-90850185D01*
X181848375Y-90902989D01*
X181853284Y-90915487D01*
X181861186Y-90939334D01*
X181953288Y-91088656D01*
X182077344Y-91212712D01*
X182226666Y-91304814D01*
X182393203Y-91359999D01*
X182495991Y-91370500D01*
X183296008Y-91370499D01*
X183296016Y-91370498D01*
X183296019Y-91370498D01*
X183352302Y-91364748D01*
X183398797Y-91359999D01*
X183565334Y-91304814D01*
X183714656Y-91212712D01*
X183808319Y-91119049D01*
X183869642Y-91085564D01*
X183939334Y-91090548D01*
X183983681Y-91119049D01*
X184077344Y-91212712D01*
X184226666Y-91304814D01*
X184393203Y-91359999D01*
X184495991Y-91370500D01*
X185296008Y-91370499D01*
X185296016Y-91370498D01*
X185296019Y-91370498D01*
X185352302Y-91364748D01*
X185398797Y-91359999D01*
X185565334Y-91304814D01*
X185714656Y-91212712D01*
X185838712Y-91088656D01*
X185930814Y-90939334D01*
X185938713Y-90915493D01*
X185978487Y-90858050D01*
X186043003Y-90831228D01*
X186056419Y-90830500D01*
X187804789Y-90830500D01*
X187871828Y-90850185D01*
X187877674Y-90854182D01*
X188015265Y-90954148D01*
X188015270Y-90954151D01*
X188188192Y-91031142D01*
X188188197Y-91031144D01*
X188373354Y-91070500D01*
X188373355Y-91070500D01*
X188562644Y-91070500D01*
X188562646Y-91070500D01*
X188747803Y-91031144D01*
X188920730Y-90954151D01*
X189073871Y-90842888D01*
X189200533Y-90702216D01*
X189214954Y-90677238D01*
X189227113Y-90656179D01*
X189277679Y-90607963D01*
X189346286Y-90594739D01*
X189411151Y-90620707D01*
G37*
%TD.AperFunction*%
%TA.AperFunction,Conductor*%
G36*
X165544739Y-70971785D02*
G01*
X165590494Y-71024589D01*
X165601700Y-71076100D01*
X165601700Y-71511401D01*
X165601701Y-71511419D01*
X165612200Y-71614196D01*
X165612201Y-71614199D01*
X165658968Y-71755331D01*
X165667386Y-71780734D01*
X165759488Y-71930056D01*
X165883544Y-72054112D01*
X166032866Y-72146214D01*
X166199403Y-72201399D01*
X166302191Y-72211900D01*
X166718656Y-72211899D01*
X166718670Y-72211900D01*
X166728659Y-72211900D01*
X166940175Y-72211900D01*
X166940183Y-72211899D01*
X167352202Y-72211899D01*
X167352208Y-72211899D01*
X167454997Y-72201399D01*
X167621534Y-72146214D01*
X167770856Y-72054112D01*
X167894912Y-71930056D01*
X167987014Y-71780734D01*
X168042199Y-71614197D01*
X168052700Y-71511409D01*
X168052699Y-71076099D01*
X168072383Y-71009061D01*
X168125187Y-70963306D01*
X168176699Y-70952100D01*
X170530611Y-70952100D01*
X170597650Y-70971785D01*
X170643405Y-71024589D01*
X170653349Y-71093747D01*
X170624324Y-71157303D01*
X170604926Y-71175363D01*
X170597791Y-71180704D01*
X170595451Y-71182456D01*
X170509206Y-71297664D01*
X170509202Y-71297671D01*
X170458908Y-71432517D01*
X170452501Y-71492116D01*
X170452501Y-71492123D01*
X170452500Y-71492135D01*
X170452500Y-73287870D01*
X170452501Y-73287876D01*
X170458908Y-73347483D01*
X170509202Y-73482328D01*
X170509206Y-73482335D01*
X170595452Y-73597544D01*
X170595455Y-73597547D01*
X170710664Y-73683793D01*
X170710671Y-73683797D01*
X170842081Y-73732810D01*
X170898015Y-73774681D01*
X170922432Y-73840145D01*
X170907580Y-73908418D01*
X170886430Y-73936673D01*
X170764503Y-74058600D01*
X170628965Y-74252169D01*
X170628964Y-74252171D01*
X170529098Y-74466335D01*
X170529094Y-74466344D01*
X170467938Y-74694586D01*
X170467936Y-74694596D01*
X170447341Y-74929999D01*
X170447341Y-74930000D01*
X170467936Y-75165403D01*
X170467938Y-75165413D01*
X170529094Y-75393655D01*
X170529096Y-75393659D01*
X170529097Y-75393663D01*
X170533000Y-75402032D01*
X170628965Y-75607830D01*
X170628967Y-75607834D01*
X170737281Y-75762521D01*
X170764501Y-75801396D01*
X170764506Y-75801402D01*
X170931597Y-75968493D01*
X170931603Y-75968498D01*
X171117158Y-76098425D01*
X171160783Y-76153002D01*
X171167977Y-76222500D01*
X171136454Y-76284855D01*
X171117158Y-76301575D01*
X170931597Y-76431505D01*
X170764505Y-76598597D01*
X170628965Y-76792169D01*
X170628964Y-76792171D01*
X170529098Y-77006335D01*
X170529094Y-77006344D01*
X170467938Y-77234586D01*
X170467936Y-77234596D01*
X170447341Y-77469999D01*
X170447341Y-77470000D01*
X170467936Y-77705403D01*
X170467938Y-77705413D01*
X170529094Y-77933655D01*
X170529096Y-77933659D01*
X170529097Y-77933663D01*
X170628965Y-78147830D01*
X170628967Y-78147834D01*
X170764501Y-78341395D01*
X170764506Y-78341402D01*
X170931597Y-78508493D01*
X170931603Y-78508498D01*
X171117158Y-78638425D01*
X171160783Y-78693002D01*
X171167977Y-78762500D01*
X171136454Y-78824855D01*
X171117158Y-78841575D01*
X170931597Y-78971505D01*
X170764505Y-79138597D01*
X170628965Y-79332169D01*
X170628964Y-79332171D01*
X170529098Y-79546335D01*
X170529094Y-79546344D01*
X170467938Y-79774586D01*
X170467936Y-79774596D01*
X170447341Y-80009999D01*
X170447341Y-80010000D01*
X170467936Y-80245403D01*
X170467938Y-80245413D01*
X170529094Y-80473655D01*
X170529096Y-80473659D01*
X170529097Y-80473663D01*
X170623703Y-80676546D01*
X170628965Y-80687830D01*
X170628967Y-80687834D01*
X170737281Y-80842521D01*
X170764501Y-80881396D01*
X170764506Y-80881402D01*
X170931597Y-81048493D01*
X170931603Y-81048498D01*
X171117158Y-81178425D01*
X171160783Y-81233002D01*
X171167977Y-81302500D01*
X171136454Y-81364855D01*
X171117158Y-81381575D01*
X170931597Y-81511505D01*
X170764505Y-81678597D01*
X170628965Y-81872169D01*
X170628964Y-81872171D01*
X170529098Y-82086335D01*
X170529094Y-82086344D01*
X170467938Y-82314586D01*
X170467936Y-82314596D01*
X170447341Y-82549999D01*
X170447341Y-82550000D01*
X170467936Y-82785403D01*
X170467938Y-82785413D01*
X170529094Y-83013655D01*
X170529096Y-83013659D01*
X170529097Y-83013663D01*
X170609004Y-83185023D01*
X170628965Y-83227830D01*
X170628967Y-83227834D01*
X170698909Y-83327721D01*
X170764501Y-83421396D01*
X170764506Y-83421402D01*
X170931597Y-83588493D01*
X170931603Y-83588498D01*
X171117158Y-83718425D01*
X171160783Y-83773002D01*
X171167977Y-83842500D01*
X171136454Y-83904855D01*
X171117158Y-83921575D01*
X170931597Y-84051505D01*
X170801445Y-84181658D01*
X170740122Y-84215143D01*
X170670430Y-84210159D01*
X170614497Y-84168287D01*
X170595104Y-84129974D01*
X170536129Y-83935558D01*
X170426869Y-83671778D01*
X170420348Y-83659579D01*
X170347502Y-83523293D01*
X170292279Y-83419978D01*
X170292276Y-83419974D01*
X170292273Y-83419968D01*
X170133660Y-83182584D01*
X170133657Y-83182581D01*
X170114593Y-83159351D01*
X169952531Y-82961876D01*
X169952529Y-82961874D01*
X169952525Y-82961869D01*
X169907444Y-82916789D01*
X169907434Y-82916777D01*
X169512715Y-82522058D01*
X169479230Y-82460735D01*
X169483174Y-82402332D01*
X169481167Y-82401857D01*
X169523291Y-82224124D01*
X169523293Y-82224117D01*
X169523293Y-82048675D01*
X169513039Y-82005410D01*
X169482833Y-81877965D01*
X169456898Y-81826324D01*
X169404095Y-81721182D01*
X169404091Y-81721177D01*
X169404090Y-81721175D01*
X169338847Y-81641085D01*
X169338846Y-81641084D01*
X169338838Y-81641074D01*
X168773140Y-81075378D01*
X168693032Y-81010119D01*
X168595477Y-80961126D01*
X168536248Y-80931380D01*
X168365546Y-80890922D01*
X168365541Y-80890921D01*
X168365539Y-80890921D01*
X168233079Y-80890921D01*
X168166040Y-80871236D01*
X168120285Y-80818432D01*
X168109079Y-80766921D01*
X168109079Y-80634464D01*
X168109079Y-80634461D01*
X168086778Y-80540368D01*
X168068619Y-80463751D01*
X168046964Y-80420632D01*
X167989881Y-80306968D01*
X167989877Y-80306963D01*
X167989876Y-80306961D01*
X167924633Y-80226871D01*
X167924632Y-80226870D01*
X167924624Y-80226860D01*
X167358926Y-79661164D01*
X167278818Y-79595905D01*
X167180124Y-79546340D01*
X167122034Y-79517166D01*
X166951332Y-79476708D01*
X166951327Y-79476707D01*
X166951325Y-79476707D01*
X166775883Y-79476707D01*
X166775881Y-79476707D01*
X166775875Y-79476708D01*
X166598143Y-79518833D01*
X166597657Y-79516784D01*
X166538308Y-79520558D01*
X166477942Y-79487285D01*
X164311796Y-77321138D01*
X164311660Y-77321015D01*
X164282860Y-77292214D01*
X164101567Y-77147634D01*
X164101568Y-77147634D01*
X163905232Y-77024266D01*
X163905229Y-77024264D01*
X163696310Y-76923651D01*
X163696303Y-76923648D01*
X163601095Y-76890333D01*
X163544319Y-76849611D01*
X163529668Y-76825696D01*
X163514036Y-76792174D01*
X163514035Y-76792171D01*
X163514033Y-76792168D01*
X163514032Y-76792166D01*
X163378494Y-76598597D01*
X163211402Y-76431506D01*
X163211396Y-76431501D01*
X163025842Y-76301575D01*
X162982217Y-76246998D01*
X162975023Y-76177500D01*
X163006546Y-76115145D01*
X163025842Y-76098425D01*
X163048026Y-76082891D01*
X163211401Y-75968495D01*
X163378495Y-75801401D01*
X163514035Y-75607830D01*
X163613903Y-75393663D01*
X163675063Y-75165408D01*
X163695659Y-74930000D01*
X163675063Y-74694592D01*
X163613903Y-74466337D01*
X163514035Y-74252171D01*
X163508425Y-74244158D01*
X163378494Y-74058597D01*
X163211402Y-73891506D01*
X163211396Y-73891501D01*
X163025842Y-73761575D01*
X162982217Y-73706998D01*
X162975023Y-73637500D01*
X163006546Y-73575145D01*
X163025842Y-73558425D01*
X163061059Y-73533766D01*
X163211401Y-73428495D01*
X163378495Y-73261401D01*
X163514035Y-73067830D01*
X163613903Y-72853663D01*
X163675063Y-72625408D01*
X163695659Y-72390000D01*
X163675063Y-72154592D01*
X163614900Y-71930057D01*
X163613905Y-71926344D01*
X163613904Y-71926343D01*
X163613903Y-71926337D01*
X163514035Y-71712171D01*
X163489716Y-71677439D01*
X163378494Y-71518597D01*
X163211402Y-71351506D01*
X163211395Y-71351501D01*
X163017834Y-71215967D01*
X163017830Y-71215965D01*
X163017828Y-71215964D01*
X162958891Y-71188481D01*
X162906453Y-71142310D01*
X162887301Y-71075116D01*
X162907517Y-71008235D01*
X162960682Y-70962900D01*
X163011297Y-70952100D01*
X165477700Y-70952100D01*
X165544739Y-70971785D01*
G37*
%TD.AperFunction*%
%TA.AperFunction,Conductor*%
G36*
X206699039Y-68599685D02*
G01*
X206744794Y-68652489D01*
X206756000Y-68704000D01*
X206756000Y-122812000D01*
X206736315Y-122879039D01*
X206683511Y-122924794D01*
X206632000Y-122936000D01*
X157604000Y-122936000D01*
X157536961Y-122916315D01*
X157491206Y-122863511D01*
X157480000Y-122812000D01*
X157480000Y-74929999D01*
X158444341Y-74929999D01*
X158444341Y-74930000D01*
X158464936Y-75165403D01*
X158464938Y-75165413D01*
X158526094Y-75393655D01*
X158526096Y-75393659D01*
X158526097Y-75393663D01*
X158530000Y-75402032D01*
X158625965Y-75607830D01*
X158625967Y-75607834D01*
X158734281Y-75762521D01*
X158761505Y-75801401D01*
X158928599Y-75968495D01*
X159025384Y-76036265D01*
X159122165Y-76104032D01*
X159122167Y-76104033D01*
X159122170Y-76104035D01*
X159336337Y-76203903D01*
X159564592Y-76265063D01*
X159752918Y-76281539D01*
X159799999Y-76285659D01*
X159800000Y-76285659D01*
X159800001Y-76285659D01*
X159839234Y-76282226D01*
X160035408Y-76265063D01*
X160263663Y-76203903D01*
X160477830Y-76104035D01*
X160671401Y-75968495D01*
X160838495Y-75801401D01*
X160968425Y-75615842D01*
X161023002Y-75572217D01*
X161092500Y-75565023D01*
X161154855Y-75596546D01*
X161171575Y-75615842D01*
X161301501Y-75801396D01*
X161301506Y-75801402D01*
X161468597Y-75968493D01*
X161468603Y-75968498D01*
X161654158Y-76098425D01*
X161697783Y-76153002D01*
X161704977Y-76222500D01*
X161673454Y-76284855D01*
X161654158Y-76301575D01*
X161468597Y-76431505D01*
X161301505Y-76598597D01*
X161165965Y-76792169D01*
X161165964Y-76792171D01*
X161066098Y-77006335D01*
X161066094Y-77006344D01*
X161004938Y-77234586D01*
X161004936Y-77234596D01*
X160984341Y-77469999D01*
X160984341Y-77470000D01*
X161004936Y-77705403D01*
X161004938Y-77705413D01*
X161066094Y-77933655D01*
X161066096Y-77933659D01*
X161066097Y-77933663D01*
X161165965Y-78147830D01*
X161165967Y-78147834D01*
X161301501Y-78341395D01*
X161301506Y-78341402D01*
X161468597Y-78508493D01*
X161468603Y-78508498D01*
X161654158Y-78638425D01*
X161697783Y-78693002D01*
X161704977Y-78762500D01*
X161673454Y-78824855D01*
X161654158Y-78841575D01*
X161468597Y-78971505D01*
X161301505Y-79138597D01*
X161171575Y-79324158D01*
X161116998Y-79367783D01*
X161047500Y-79374977D01*
X160985145Y-79343454D01*
X160968425Y-79324158D01*
X160838494Y-79138597D01*
X160671402Y-78971506D01*
X160671395Y-78971501D01*
X160477834Y-78835967D01*
X160477830Y-78835965D01*
X160477828Y-78835964D01*
X160263663Y-78736097D01*
X160263659Y-78736096D01*
X160263655Y-78736094D01*
X160035413Y-78674938D01*
X160035403Y-78674936D01*
X159800001Y-78654341D01*
X159799999Y-78654341D01*
X159564596Y-78674936D01*
X159564586Y-78674938D01*
X159336344Y-78736094D01*
X159336335Y-78736098D01*
X159122171Y-78835964D01*
X159122169Y-78835965D01*
X158928597Y-78971505D01*
X158761505Y-79138597D01*
X158625965Y-79332169D01*
X158625964Y-79332171D01*
X158526098Y-79546335D01*
X158526094Y-79546344D01*
X158464938Y-79774586D01*
X158464936Y-79774596D01*
X158444341Y-80009999D01*
X158444341Y-80010000D01*
X158464936Y-80245403D01*
X158464938Y-80245413D01*
X158526094Y-80473655D01*
X158526096Y-80473659D01*
X158526097Y-80473663D01*
X158620703Y-80676546D01*
X158625965Y-80687830D01*
X158625967Y-80687834D01*
X158734281Y-80842521D01*
X158761501Y-80881396D01*
X158761506Y-80881402D01*
X158928597Y-81048493D01*
X158928603Y-81048498D01*
X159114158Y-81178425D01*
X159157783Y-81233002D01*
X159164977Y-81302500D01*
X159133454Y-81364855D01*
X159114158Y-81381575D01*
X158928597Y-81511505D01*
X158761505Y-81678597D01*
X158625965Y-81872169D01*
X158625964Y-81872171D01*
X158526098Y-82086335D01*
X158526094Y-82086344D01*
X158464938Y-82314586D01*
X158464936Y-82314596D01*
X158444341Y-82549999D01*
X158444341Y-82550000D01*
X158464936Y-82785403D01*
X158464938Y-82785413D01*
X158526094Y-83013655D01*
X158526096Y-83013659D01*
X158526097Y-83013663D01*
X158606004Y-83185023D01*
X158625965Y-83227830D01*
X158625967Y-83227834D01*
X158695909Y-83327721D01*
X158761501Y-83421396D01*
X158761506Y-83421402D01*
X158928597Y-83588493D01*
X158928603Y-83588498D01*
X159114158Y-83718425D01*
X159157783Y-83773002D01*
X159164977Y-83842500D01*
X159133454Y-83904855D01*
X159114158Y-83921575D01*
X158928597Y-84051505D01*
X158761505Y-84218597D01*
X158625965Y-84412169D01*
X158625964Y-84412171D01*
X158526098Y-84626335D01*
X158526094Y-84626344D01*
X158464938Y-84854586D01*
X158464936Y-84854596D01*
X158444341Y-85089999D01*
X158444341Y-85090000D01*
X158464936Y-85325403D01*
X158464938Y-85325413D01*
X158526094Y-85553655D01*
X158526096Y-85553659D01*
X158526097Y-85553663D01*
X158565698Y-85638587D01*
X158625965Y-85767830D01*
X158625967Y-85767834D01*
X158715599Y-85895841D01*
X158761505Y-85961401D01*
X158928599Y-86128495D01*
X158996032Y-86175712D01*
X159122165Y-86264032D01*
X159122167Y-86264033D01*
X159122170Y-86264035D01*
X159336337Y-86363903D01*
X159564592Y-86425063D01*
X159752918Y-86441539D01*
X159799999Y-86445659D01*
X159800000Y-86445659D01*
X159800001Y-86445659D01*
X159839234Y-86442226D01*
X160035408Y-86425063D01*
X160263663Y-86363903D01*
X160477830Y-86264035D01*
X160671401Y-86128495D01*
X160838495Y-85961401D01*
X160968425Y-85775842D01*
X161023002Y-85732217D01*
X161092500Y-85725023D01*
X161154855Y-85756546D01*
X161171575Y-85775842D01*
X161301501Y-85961396D01*
X161301506Y-85961402D01*
X161468597Y-86128493D01*
X161468603Y-86128498D01*
X161654158Y-86258425D01*
X161697783Y-86313002D01*
X161704977Y-86382500D01*
X161673454Y-86444855D01*
X161654158Y-86461575D01*
X161468597Y-86591505D01*
X161301505Y-86758597D01*
X161165965Y-86952169D01*
X161165964Y-86952171D01*
X161066098Y-87166335D01*
X161066094Y-87166344D01*
X161004938Y-87394586D01*
X161004936Y-87394596D01*
X160984341Y-87629999D01*
X160984341Y-87630000D01*
X161004936Y-87865403D01*
X161004938Y-87865413D01*
X161066094Y-88093655D01*
X161066096Y-88093659D01*
X161066097Y-88093663D01*
X161143531Y-88259721D01*
X161165965Y-88307830D01*
X161165967Y-88307834D01*
X161301501Y-88501395D01*
X161301506Y-88501402D01*
X161468597Y-88668493D01*
X161468603Y-88668498D01*
X161654158Y-88798425D01*
X161697783Y-88853002D01*
X161704977Y-88922500D01*
X161673454Y-88984855D01*
X161654158Y-89001575D01*
X161468597Y-89131505D01*
X161301505Y-89298597D01*
X161165965Y-89492169D01*
X161165964Y-89492171D01*
X161066098Y-89706335D01*
X161066094Y-89706344D01*
X161004938Y-89934586D01*
X161004936Y-89934596D01*
X160984341Y-90169999D01*
X160984341Y-90170000D01*
X161004936Y-90405403D01*
X161004938Y-90405413D01*
X161066094Y-90633655D01*
X161066096Y-90633659D01*
X161066097Y-90633663D01*
X161138450Y-90788824D01*
X161165965Y-90847830D01*
X161165967Y-90847834D01*
X161240412Y-90954151D01*
X161301501Y-91041396D01*
X161301506Y-91041402D01*
X161468597Y-91208493D01*
X161468603Y-91208498D01*
X161654158Y-91338425D01*
X161697783Y-91393002D01*
X161704977Y-91462500D01*
X161673454Y-91524855D01*
X161654158Y-91541575D01*
X161468597Y-91671505D01*
X161301505Y-91838597D01*
X161165965Y-92032169D01*
X161165964Y-92032171D01*
X161094567Y-92185283D01*
X161066458Y-92245564D01*
X161066098Y-92246335D01*
X161066094Y-92246344D01*
X161004938Y-92474586D01*
X161004936Y-92474596D01*
X160984341Y-92709999D01*
X160984341Y-92710000D01*
X161004936Y-92945403D01*
X161004938Y-92945413D01*
X161066094Y-93173655D01*
X161066096Y-93173659D01*
X161066097Y-93173663D01*
X161100711Y-93247893D01*
X161165965Y-93387830D01*
X161165967Y-93387834D01*
X161250804Y-93508993D01*
X161301501Y-93581396D01*
X161301506Y-93581402D01*
X161468597Y-93748493D01*
X161468603Y-93748498D01*
X161654158Y-93878425D01*
X161697783Y-93933002D01*
X161704977Y-94002500D01*
X161673454Y-94064855D01*
X161654158Y-94081575D01*
X161468597Y-94211505D01*
X161301505Y-94378597D01*
X161171575Y-94564158D01*
X161116998Y-94607783D01*
X161047500Y-94614977D01*
X160985145Y-94583454D01*
X160968425Y-94564158D01*
X160838494Y-94378597D01*
X160671402Y-94211506D01*
X160671395Y-94211501D01*
X160644240Y-94192487D01*
X160607647Y-94166864D01*
X160477834Y-94075967D01*
X160477830Y-94075965D01*
X160462074Y-94068618D01*
X160263663Y-93976097D01*
X160263659Y-93976096D01*
X160263655Y-93976094D01*
X160035413Y-93914938D01*
X160035403Y-93914936D01*
X159800001Y-93894341D01*
X159799999Y-93894341D01*
X159564596Y-93914936D01*
X159564586Y-93914938D01*
X159336344Y-93976094D01*
X159336335Y-93976098D01*
X159122171Y-94075964D01*
X159122169Y-94075965D01*
X158928597Y-94211505D01*
X158761505Y-94378597D01*
X158625965Y-94572169D01*
X158625964Y-94572171D01*
X158526098Y-94786335D01*
X158526094Y-94786344D01*
X158464938Y-95014586D01*
X158464936Y-95014596D01*
X158444341Y-95249999D01*
X158444341Y-95250000D01*
X158464936Y-95485403D01*
X158464938Y-95485413D01*
X158526094Y-95713655D01*
X158526096Y-95713659D01*
X158526097Y-95713663D01*
X158609358Y-95892217D01*
X158625965Y-95927830D01*
X158625967Y-95927834D01*
X158729279Y-96075378D01*
X158761501Y-96121396D01*
X158761506Y-96121402D01*
X158928597Y-96288493D01*
X158928603Y-96288498D01*
X159114158Y-96418425D01*
X159157783Y-96473002D01*
X159164977Y-96542500D01*
X159133454Y-96604855D01*
X159114158Y-96621575D01*
X158928597Y-96751505D01*
X158761505Y-96918597D01*
X158625965Y-97112169D01*
X158625964Y-97112171D01*
X158526098Y-97326335D01*
X158526094Y-97326344D01*
X158464938Y-97554586D01*
X158464936Y-97554596D01*
X158444341Y-97789999D01*
X158444341Y-97790000D01*
X158464936Y-98025403D01*
X158464938Y-98025413D01*
X158526094Y-98253655D01*
X158526096Y-98253659D01*
X158526097Y-98253663D01*
X158606004Y-98425023D01*
X158625965Y-98467830D01*
X158625967Y-98467834D01*
X158691641Y-98561625D01*
X158761501Y-98661396D01*
X158761506Y-98661402D01*
X158928597Y-98828493D01*
X158928603Y-98828498D01*
X159114158Y-98958425D01*
X159157783Y-99013002D01*
X159164977Y-99082500D01*
X159133454Y-99144855D01*
X159114158Y-99161575D01*
X158928597Y-99291505D01*
X158761505Y-99458597D01*
X158625965Y-99652169D01*
X158625964Y-99652171D01*
X158526098Y-99866335D01*
X158526094Y-99866344D01*
X158464938Y-100094586D01*
X158464936Y-100094596D01*
X158444341Y-100329999D01*
X158444341Y-100330000D01*
X158464936Y-100565403D01*
X158464938Y-100565413D01*
X158526094Y-100793655D01*
X158526096Y-100793659D01*
X158526097Y-100793663D01*
X158580832Y-100911042D01*
X158625965Y-101007830D01*
X158625967Y-101007834D01*
X158691641Y-101101625D01*
X158761505Y-101201401D01*
X158928599Y-101368495D01*
X158956585Y-101388091D01*
X159122165Y-101504032D01*
X159122167Y-101504033D01*
X159122170Y-101504035D01*
X159336337Y-101603903D01*
X159336343Y-101603904D01*
X159336344Y-101603905D01*
X159366212Y-101611908D01*
X159564592Y-101665063D01*
X159752918Y-101681539D01*
X159799999Y-101685659D01*
X159800000Y-101685659D01*
X159800001Y-101685659D01*
X159839234Y-101682226D01*
X160035408Y-101665063D01*
X160263663Y-101603903D01*
X160477830Y-101504035D01*
X160671401Y-101368495D01*
X160838495Y-101201401D01*
X160968425Y-101015842D01*
X161023002Y-100972217D01*
X161092500Y-100965023D01*
X161154855Y-100996546D01*
X161171575Y-101015842D01*
X161301501Y-101201396D01*
X161301506Y-101201402D01*
X161468597Y-101368493D01*
X161468603Y-101368498D01*
X161654158Y-101498425D01*
X161697783Y-101553002D01*
X161704977Y-101622500D01*
X161673454Y-101684855D01*
X161654158Y-101701575D01*
X161468597Y-101831505D01*
X161301505Y-101998597D01*
X161165965Y-102192169D01*
X161165964Y-102192171D01*
X161066098Y-102406335D01*
X161066094Y-102406344D01*
X161004938Y-102634586D01*
X161004936Y-102634596D01*
X160984341Y-102869999D01*
X160984341Y-102870000D01*
X161004936Y-103105403D01*
X161004938Y-103105413D01*
X161066094Y-103333655D01*
X161066096Y-103333659D01*
X161066097Y-103333663D01*
X161153247Y-103520556D01*
X161165965Y-103547830D01*
X161165967Y-103547834D01*
X161301501Y-103741395D01*
X161301506Y-103741402D01*
X161468597Y-103908493D01*
X161468603Y-103908498D01*
X161654158Y-104038425D01*
X161697783Y-104093002D01*
X161704977Y-104162500D01*
X161673454Y-104224855D01*
X161654158Y-104241575D01*
X161468597Y-104371505D01*
X161301505Y-104538597D01*
X161171575Y-104724158D01*
X161116998Y-104767783D01*
X161047500Y-104774977D01*
X160985145Y-104743454D01*
X160968425Y-104724158D01*
X160838494Y-104538597D01*
X160671402Y-104371506D01*
X160671395Y-104371501D01*
X160665378Y-104367288D01*
X160613144Y-104330713D01*
X160477834Y-104235967D01*
X160477830Y-104235965D01*
X160476541Y-104235364D01*
X160263663Y-104136097D01*
X160263659Y-104136096D01*
X160263655Y-104136094D01*
X160035413Y-104074938D01*
X160035403Y-104074936D01*
X159800001Y-104054341D01*
X159799999Y-104054341D01*
X159564596Y-104074936D01*
X159564586Y-104074938D01*
X159336344Y-104136094D01*
X159336335Y-104136098D01*
X159122171Y-104235964D01*
X159122169Y-104235965D01*
X158928597Y-104371505D01*
X158761505Y-104538597D01*
X158625965Y-104732169D01*
X158625964Y-104732171D01*
X158526098Y-104946335D01*
X158526094Y-104946344D01*
X158464938Y-105174586D01*
X158464936Y-105174596D01*
X158444341Y-105409999D01*
X158444341Y-105410000D01*
X158464936Y-105645403D01*
X158464938Y-105645413D01*
X158526094Y-105873655D01*
X158526096Y-105873659D01*
X158526097Y-105873663D01*
X158606004Y-106045023D01*
X158625965Y-106087830D01*
X158625967Y-106087834D01*
X158729558Y-106235776D01*
X158761505Y-106281401D01*
X158928599Y-106448495D01*
X159025384Y-106516265D01*
X159122165Y-106584032D01*
X159122167Y-106584033D01*
X159122170Y-106584035D01*
X159336337Y-106683903D01*
X159564592Y-106745063D01*
X159752918Y-106761539D01*
X159799999Y-106765659D01*
X159800000Y-106765659D01*
X159800001Y-106765659D01*
X159839234Y-106762226D01*
X160035408Y-106745063D01*
X160263663Y-106683903D01*
X160477830Y-106584035D01*
X160671401Y-106448495D01*
X160838495Y-106281401D01*
X160968425Y-106095842D01*
X161023002Y-106052217D01*
X161092500Y-106045023D01*
X161154855Y-106076546D01*
X161171575Y-106095842D01*
X161301501Y-106281396D01*
X161301506Y-106281402D01*
X161468597Y-106448493D01*
X161468603Y-106448498D01*
X161654158Y-106578425D01*
X161697783Y-106633002D01*
X161704977Y-106702500D01*
X161673454Y-106764855D01*
X161654158Y-106781575D01*
X161468597Y-106911505D01*
X161301505Y-107078597D01*
X161165965Y-107272169D01*
X161165964Y-107272171D01*
X161066098Y-107486335D01*
X161066094Y-107486344D01*
X161004938Y-107714586D01*
X161004936Y-107714596D01*
X160984341Y-107949999D01*
X160984341Y-107950000D01*
X161004936Y-108185403D01*
X161004938Y-108185413D01*
X161066094Y-108413655D01*
X161066096Y-108413659D01*
X161066097Y-108413663D01*
X161153343Y-108600762D01*
X161165965Y-108627830D01*
X161165967Y-108627834D01*
X161301501Y-108821395D01*
X161301506Y-108821402D01*
X161468597Y-108988493D01*
X161468603Y-108988498D01*
X161654158Y-109118425D01*
X161697783Y-109173002D01*
X161704977Y-109242500D01*
X161673454Y-109304855D01*
X161654158Y-109321575D01*
X161468597Y-109451505D01*
X161301505Y-109618597D01*
X161171575Y-109804158D01*
X161116998Y-109847783D01*
X161047500Y-109854977D01*
X160985145Y-109823454D01*
X160968425Y-109804158D01*
X160838494Y-109618597D01*
X160671402Y-109451506D01*
X160671395Y-109451501D01*
X160650938Y-109437177D01*
X160590461Y-109394830D01*
X160477834Y-109315967D01*
X160477830Y-109315965D01*
X160477828Y-109315964D01*
X160263663Y-109216097D01*
X160263659Y-109216096D01*
X160263655Y-109216094D01*
X160035413Y-109154938D01*
X160035403Y-109154936D01*
X159800001Y-109134341D01*
X159799999Y-109134341D01*
X159564596Y-109154936D01*
X159564586Y-109154938D01*
X159336344Y-109216094D01*
X159336335Y-109216098D01*
X159122171Y-109315964D01*
X159122169Y-109315965D01*
X158928597Y-109451505D01*
X158761505Y-109618597D01*
X158625965Y-109812169D01*
X158625964Y-109812171D01*
X158526098Y-110026335D01*
X158526094Y-110026344D01*
X158464938Y-110254586D01*
X158464936Y-110254596D01*
X158444341Y-110489999D01*
X158444341Y-110490000D01*
X158464936Y-110725403D01*
X158464938Y-110725413D01*
X158526094Y-110953655D01*
X158526096Y-110953659D01*
X158526097Y-110953663D01*
X158597724Y-111107267D01*
X158625965Y-111167830D01*
X158625967Y-111167834D01*
X158723172Y-111306656D01*
X158761501Y-111361396D01*
X158761506Y-111361402D01*
X158928597Y-111528493D01*
X158928603Y-111528498D01*
X159114158Y-111658425D01*
X159157783Y-111713002D01*
X159164977Y-111782500D01*
X159133454Y-111844855D01*
X159114158Y-111861575D01*
X158928597Y-111991505D01*
X158761505Y-112158597D01*
X158625965Y-112352169D01*
X158625964Y-112352171D01*
X158526098Y-112566335D01*
X158526094Y-112566344D01*
X158464938Y-112794586D01*
X158464936Y-112794596D01*
X158444341Y-113029999D01*
X158444341Y-113030000D01*
X158464936Y-113265403D01*
X158464938Y-113265413D01*
X158526094Y-113493655D01*
X158526096Y-113493659D01*
X158526097Y-113493663D01*
X158609358Y-113672217D01*
X158625965Y-113707830D01*
X158625967Y-113707834D01*
X158690037Y-113799334D01*
X158761501Y-113901396D01*
X158761506Y-113901402D01*
X158928597Y-114068493D01*
X158928603Y-114068498D01*
X159114158Y-114198425D01*
X159157783Y-114253002D01*
X159164977Y-114322500D01*
X159133454Y-114384855D01*
X159114158Y-114401575D01*
X158928597Y-114531505D01*
X158761505Y-114698597D01*
X158625965Y-114892169D01*
X158625964Y-114892171D01*
X158526098Y-115106335D01*
X158526094Y-115106344D01*
X158464938Y-115334586D01*
X158464936Y-115334596D01*
X158444341Y-115569999D01*
X158444341Y-115570000D01*
X158464936Y-115805403D01*
X158464938Y-115805413D01*
X158526094Y-116033655D01*
X158526096Y-116033659D01*
X158526097Y-116033663D01*
X158593693Y-116178623D01*
X158625965Y-116247830D01*
X158625967Y-116247834D01*
X158690037Y-116339334D01*
X158761501Y-116441396D01*
X158761506Y-116441402D01*
X158928597Y-116608493D01*
X158928603Y-116608498D01*
X159114158Y-116738425D01*
X159157783Y-116793002D01*
X159164977Y-116862500D01*
X159133454Y-116924855D01*
X159114158Y-116941575D01*
X158928597Y-117071505D01*
X158761505Y-117238597D01*
X158625965Y-117432169D01*
X158625964Y-117432171D01*
X158526098Y-117646335D01*
X158526094Y-117646344D01*
X158464938Y-117874586D01*
X158464936Y-117874596D01*
X158444341Y-118109999D01*
X158444341Y-118110000D01*
X158464936Y-118345403D01*
X158464938Y-118345413D01*
X158526094Y-118573655D01*
X158526096Y-118573659D01*
X158526097Y-118573663D01*
X158530000Y-118582032D01*
X158625965Y-118787830D01*
X158625967Y-118787834D01*
X158734281Y-118942521D01*
X158761505Y-118981401D01*
X158928599Y-119148495D01*
X159025384Y-119216265D01*
X159122165Y-119284032D01*
X159122167Y-119284033D01*
X159122170Y-119284035D01*
X159336337Y-119383903D01*
X159564592Y-119445063D01*
X159752918Y-119461539D01*
X159799999Y-119465659D01*
X159800000Y-119465659D01*
X159800001Y-119465659D01*
X159839234Y-119462226D01*
X160035408Y-119445063D01*
X160263663Y-119383903D01*
X160477830Y-119284035D01*
X160671401Y-119148495D01*
X160838495Y-118981401D01*
X160968425Y-118795842D01*
X161023002Y-118752217D01*
X161092500Y-118745023D01*
X161154855Y-118776546D01*
X161171575Y-118795842D01*
X161301500Y-118981395D01*
X161301505Y-118981401D01*
X161468599Y-119148495D01*
X161565384Y-119216265D01*
X161662165Y-119284032D01*
X161662167Y-119284033D01*
X161662170Y-119284035D01*
X161876337Y-119383903D01*
X162104592Y-119445063D01*
X162292918Y-119461539D01*
X162339999Y-119465659D01*
X162340000Y-119465659D01*
X162340001Y-119465659D01*
X162379234Y-119462226D01*
X162575408Y-119445063D01*
X162803663Y-119383903D01*
X163017830Y-119284035D01*
X163211401Y-119148495D01*
X163378495Y-118981401D01*
X163514035Y-118787830D01*
X163613903Y-118573663D01*
X163675063Y-118345408D01*
X163695659Y-118110000D01*
X163675063Y-117874592D01*
X163613903Y-117646337D01*
X163573867Y-117560481D01*
X163563376Y-117491406D01*
X163591895Y-117427622D01*
X163650372Y-117389382D01*
X163720239Y-117388827D01*
X163722126Y-117389382D01*
X163819924Y-117419048D01*
X164092499Y-117473264D01*
X164369075Y-117500501D01*
X164508033Y-117500500D01*
X170406574Y-117500500D01*
X170473613Y-117520185D01*
X170519368Y-117572989D01*
X170529312Y-117642147D01*
X170526349Y-117656593D01*
X170467938Y-117874586D01*
X170467936Y-117874596D01*
X170447341Y-118109999D01*
X170447341Y-118110000D01*
X170467936Y-118345403D01*
X170467938Y-118345413D01*
X170529094Y-118573655D01*
X170529096Y-118573659D01*
X170529097Y-118573663D01*
X170533000Y-118582032D01*
X170628965Y-118787830D01*
X170628967Y-118787834D01*
X170737281Y-118942521D01*
X170764505Y-118981401D01*
X170931599Y-119148495D01*
X171028384Y-119216265D01*
X171125165Y-119284032D01*
X171125167Y-119284033D01*
X171125170Y-119284035D01*
X171339337Y-119383903D01*
X171567592Y-119445063D01*
X171755918Y-119461539D01*
X171802999Y-119465659D01*
X171803000Y-119465659D01*
X171803001Y-119465659D01*
X171842234Y-119462226D01*
X172038408Y-119445063D01*
X172266663Y-119383903D01*
X172480830Y-119284035D01*
X172674401Y-119148495D01*
X172676077Y-119146819D01*
X172676995Y-119146317D01*
X172678544Y-119145018D01*
X172678805Y-119145329D01*
X172737400Y-119113334D01*
X172763758Y-119110500D01*
X179119212Y-119110500D01*
X179146538Y-119114911D01*
X179146780Y-119113782D01*
X179153396Y-119115198D01*
X179153401Y-119115198D01*
X179153403Y-119115199D01*
X179256191Y-119125700D01*
X180306208Y-119125699D01*
X180306216Y-119125698D01*
X180306219Y-119125698D01*
X180362502Y-119119948D01*
X180408997Y-119115199D01*
X180575534Y-119060014D01*
X180724856Y-118967912D01*
X180848912Y-118843856D01*
X180941014Y-118694534D01*
X180996199Y-118527997D01*
X181006700Y-118425209D01*
X181006699Y-117825192D01*
X180996199Y-117722403D01*
X180941014Y-117555866D01*
X180848912Y-117406544D01*
X180843419Y-117401051D01*
X180809934Y-117339728D01*
X180807100Y-117313370D01*
X180807100Y-115910506D01*
X180807218Y-115905097D01*
X180808641Y-115872495D01*
X180823429Y-115533812D01*
X180824367Y-115523083D01*
X180872522Y-115157309D01*
X180874395Y-115146679D01*
X180954248Y-114786487D01*
X180957046Y-114776049D01*
X180967081Y-114744223D01*
X181067983Y-114424198D01*
X181071664Y-114414084D01*
X181212856Y-114073214D01*
X181217412Y-114063445D01*
X181387763Y-113736203D01*
X181393158Y-113726858D01*
X181591389Y-113415695D01*
X181597579Y-113406856D01*
X181822158Y-113114178D01*
X181829108Y-113105895D01*
X181898653Y-113029999D01*
X182080095Y-112831987D01*
X182083793Y-112828125D01*
X182118775Y-112793143D01*
X182122637Y-112789446D01*
X182402325Y-112533159D01*
X182410594Y-112526221D01*
X182709394Y-112296944D01*
X182718232Y-112290754D01*
X183035890Y-112088385D01*
X183045236Y-112082990D01*
X183379298Y-111909087D01*
X183389089Y-111904520D01*
X183737048Y-111760390D01*
X183747183Y-111756701D01*
X184106390Y-111643443D01*
X184116805Y-111640652D01*
X184484524Y-111559128D01*
X184495143Y-111557256D01*
X184868558Y-111508094D01*
X184879292Y-111507154D01*
X185245993Y-111491142D01*
X185257994Y-111490618D01*
X185263403Y-111490500D01*
X185423831Y-111490500D01*
X185436432Y-111491141D01*
X185529991Y-111500700D01*
X185567970Y-111500699D01*
X185612764Y-111509072D01*
X185752544Y-111563224D01*
X185953024Y-111600700D01*
X185953026Y-111600700D01*
X186156974Y-111600700D01*
X186156976Y-111600700D01*
X186357456Y-111563224D01*
X186497239Y-111509072D01*
X186542033Y-111500699D01*
X186580002Y-111500699D01*
X186580008Y-111500699D01*
X186673566Y-111491141D01*
X186686166Y-111490500D01*
X191162242Y-111490500D01*
X191229281Y-111510185D01*
X191249923Y-111526819D01*
X191251597Y-111528493D01*
X191251603Y-111528498D01*
X191437158Y-111658425D01*
X191480783Y-111713002D01*
X191487977Y-111782500D01*
X191456454Y-111844855D01*
X191437158Y-111861575D01*
X191251597Y-111991505D01*
X191084505Y-112158597D01*
X190948965Y-112352169D01*
X190948964Y-112352171D01*
X190849098Y-112566335D01*
X190849094Y-112566344D01*
X190787938Y-112794586D01*
X190787936Y-112794596D01*
X190767341Y-113029999D01*
X190767341Y-113030000D01*
X190787936Y-113265403D01*
X190787938Y-113265413D01*
X190849094Y-113493655D01*
X190849096Y-113493659D01*
X190849097Y-113493663D01*
X190932358Y-113672217D01*
X190948965Y-113707830D01*
X190948967Y-113707834D01*
X191013037Y-113799334D01*
X191084501Y-113901396D01*
X191084506Y-113901402D01*
X191251597Y-114068493D01*
X191251603Y-114068498D01*
X191437158Y-114198425D01*
X191480783Y-114253002D01*
X191487977Y-114322500D01*
X191456454Y-114384855D01*
X191437158Y-114401575D01*
X191251597Y-114531505D01*
X191084505Y-114698597D01*
X190948965Y-114892169D01*
X190948964Y-114892171D01*
X190849098Y-115106335D01*
X190849094Y-115106344D01*
X190787938Y-115334586D01*
X190787936Y-115334596D01*
X190767341Y-115569999D01*
X190767341Y-115570000D01*
X190787936Y-115805403D01*
X190787938Y-115805413D01*
X190849094Y-116033655D01*
X190849096Y-116033659D01*
X190849097Y-116033663D01*
X190916693Y-116178623D01*
X190948965Y-116247830D01*
X190948967Y-116247834D01*
X191013037Y-116339334D01*
X191084501Y-116441396D01*
X191084506Y-116441402D01*
X191251597Y-116608493D01*
X191251603Y-116608498D01*
X191437158Y-116738425D01*
X191480783Y-116793002D01*
X191487977Y-116862500D01*
X191456454Y-116924855D01*
X191437158Y-116941575D01*
X191251597Y-117071505D01*
X191084505Y-117238597D01*
X190948965Y-117432169D01*
X190948964Y-117432171D01*
X190849098Y-117646335D01*
X190849094Y-117646344D01*
X190787938Y-117874586D01*
X190787936Y-117874596D01*
X190767341Y-118109999D01*
X190767341Y-118110000D01*
X190787936Y-118345403D01*
X190787938Y-118345413D01*
X190849094Y-118573655D01*
X190849096Y-118573659D01*
X190849097Y-118573663D01*
X190853000Y-118582032D01*
X190948965Y-118787830D01*
X190948967Y-118787834D01*
X191057281Y-118942521D01*
X191084501Y-118981396D01*
X191084506Y-118981402D01*
X191251597Y-119148493D01*
X191251603Y-119148498D01*
X191437158Y-119278425D01*
X191480783Y-119333002D01*
X191487977Y-119402500D01*
X191456454Y-119464855D01*
X191437158Y-119481575D01*
X191251597Y-119611505D01*
X191084505Y-119778597D01*
X190948965Y-119972169D01*
X190948964Y-119972171D01*
X190849098Y-120186335D01*
X190849094Y-120186344D01*
X190787938Y-120414586D01*
X190787936Y-120414596D01*
X190767341Y-120649999D01*
X190767341Y-120650000D01*
X190787936Y-120885403D01*
X190787938Y-120885413D01*
X190849094Y-121113655D01*
X190849096Y-121113659D01*
X190849097Y-121113663D01*
X190853000Y-121122032D01*
X190948965Y-121327830D01*
X190948967Y-121327834D01*
X191057281Y-121482521D01*
X191084505Y-121521401D01*
X191251599Y-121688495D01*
X191348384Y-121756265D01*
X191445165Y-121824032D01*
X191445167Y-121824033D01*
X191445170Y-121824035D01*
X191659337Y-121923903D01*
X191887592Y-121985063D01*
X192075918Y-122001539D01*
X192122999Y-122005659D01*
X192123000Y-122005659D01*
X192123001Y-122005659D01*
X192162234Y-122002226D01*
X192358408Y-121985063D01*
X192586663Y-121923903D01*
X192800830Y-121824035D01*
X192994401Y-121688495D01*
X193161495Y-121521401D01*
X193297035Y-121327830D01*
X193396903Y-121113663D01*
X193458063Y-120885408D01*
X193478659Y-120650000D01*
X193458063Y-120414592D01*
X193396903Y-120186337D01*
X193297035Y-119972171D01*
X193291425Y-119964158D01*
X193161494Y-119778597D01*
X192994402Y-119611506D01*
X192994396Y-119611501D01*
X192808842Y-119481575D01*
X192765217Y-119426998D01*
X192758023Y-119357500D01*
X192789546Y-119295145D01*
X192808842Y-119278425D01*
X192831026Y-119262891D01*
X192994401Y-119148495D01*
X193161495Y-118981401D01*
X193297035Y-118787830D01*
X193396903Y-118573663D01*
X193458063Y-118345408D01*
X193478659Y-118110000D01*
X193458063Y-117874592D01*
X193396903Y-117646337D01*
X193297035Y-117432171D01*
X193291425Y-117424158D01*
X193161494Y-117238597D01*
X192994402Y-117071506D01*
X192994396Y-117071501D01*
X192808842Y-116941575D01*
X192765217Y-116886998D01*
X192758023Y-116817500D01*
X192789546Y-116755145D01*
X192808842Y-116738425D01*
X192856846Y-116704812D01*
X192994401Y-116608495D01*
X193161495Y-116441401D01*
X193244136Y-116323376D01*
X193298713Y-116279752D01*
X193345711Y-116270500D01*
X193916692Y-116270500D01*
X193983731Y-116290185D01*
X194022236Y-116334271D01*
X194023995Y-116333187D01*
X194027785Y-116339332D01*
X194027786Y-116339334D01*
X194119888Y-116488656D01*
X194243944Y-116612712D01*
X194393266Y-116704814D01*
X194559803Y-116759999D01*
X194662591Y-116770500D01*
X195462608Y-116770499D01*
X195462616Y-116770498D01*
X195462619Y-116770498D01*
X195518902Y-116764748D01*
X195565397Y-116759999D01*
X195731934Y-116704814D01*
X195881256Y-116612712D01*
X195974919Y-116519049D01*
X196036242Y-116485564D01*
X196105934Y-116490548D01*
X196150281Y-116519049D01*
X196243944Y-116612712D01*
X196393266Y-116704814D01*
X196559803Y-116759999D01*
X196662591Y-116770500D01*
X197284669Y-116770499D01*
X197351708Y-116790183D01*
X197363333Y-116798645D01*
X197413725Y-116840000D01*
X197537495Y-116941575D01*
X197543637Y-116946615D01*
X197543641Y-116946618D01*
X197774700Y-117101006D01*
X197774713Y-117101014D01*
X197774716Y-117101016D01*
X198019815Y-117232023D01*
X198127812Y-117276756D01*
X198276572Y-117338374D01*
X198276574Y-117338374D01*
X198276575Y-117338375D01*
X198542524Y-117419048D01*
X198815099Y-117473264D01*
X199091675Y-117500501D01*
X199230633Y-117500500D01*
X202100557Y-117500500D01*
X202100561Y-117500501D01*
X202170916Y-117500500D01*
X202179025Y-117500765D01*
X202197054Y-117501946D01*
X202363648Y-117512863D01*
X202379717Y-117514979D01*
X202557198Y-117550280D01*
X202572841Y-117554472D01*
X202744200Y-117612638D01*
X202759168Y-117618838D01*
X202921468Y-117698875D01*
X202935494Y-117706973D01*
X202947716Y-117715140D01*
X202961149Y-117724116D01*
X203005953Y-117777730D01*
X203014659Y-117847055D01*
X203012033Y-117859304D01*
X203007937Y-117874593D01*
X202987341Y-118109999D01*
X202987341Y-118110000D01*
X203007936Y-118345403D01*
X203007938Y-118345413D01*
X203069094Y-118573655D01*
X203069096Y-118573659D01*
X203069097Y-118573663D01*
X203073000Y-118582032D01*
X203168965Y-118787830D01*
X203168967Y-118787834D01*
X203277281Y-118942521D01*
X203304501Y-118981396D01*
X203304506Y-118981402D01*
X203471597Y-119148493D01*
X203471603Y-119148498D01*
X203657158Y-119278425D01*
X203700783Y-119333002D01*
X203707977Y-119402500D01*
X203676454Y-119464855D01*
X203657158Y-119481575D01*
X203471597Y-119611505D01*
X203304505Y-119778597D01*
X203174575Y-119964158D01*
X203119998Y-120007783D01*
X203050500Y-120014977D01*
X202988145Y-119983454D01*
X202971425Y-119964158D01*
X202841494Y-119778597D01*
X202674402Y-119611506D01*
X202674395Y-119611501D01*
X202480834Y-119475967D01*
X202480830Y-119475965D01*
X202458729Y-119465659D01*
X202266663Y-119376097D01*
X202266659Y-119376096D01*
X202266655Y-119376094D01*
X202038413Y-119314938D01*
X202038403Y-119314936D01*
X201803001Y-119294341D01*
X201802999Y-119294341D01*
X201567596Y-119314936D01*
X201567586Y-119314938D01*
X201339344Y-119376094D01*
X201339335Y-119376098D01*
X201125171Y-119475964D01*
X201125169Y-119475965D01*
X200931597Y-119611505D01*
X200764505Y-119778597D01*
X200628965Y-119972169D01*
X200628964Y-119972171D01*
X200529098Y-120186335D01*
X200529094Y-120186344D01*
X200467938Y-120414586D01*
X200467936Y-120414596D01*
X200447341Y-120649999D01*
X200447341Y-120650000D01*
X200467936Y-120885403D01*
X200467938Y-120885413D01*
X200529094Y-121113655D01*
X200529096Y-121113659D01*
X200529097Y-121113663D01*
X200533000Y-121122032D01*
X200628965Y-121327830D01*
X200628967Y-121327834D01*
X200737281Y-121482521D01*
X200764505Y-121521401D01*
X200931599Y-121688495D01*
X201028384Y-121756265D01*
X201125165Y-121824032D01*
X201125167Y-121824033D01*
X201125170Y-121824035D01*
X201339337Y-121923903D01*
X201567592Y-121985063D01*
X201755918Y-122001539D01*
X201802999Y-122005659D01*
X201803000Y-122005659D01*
X201803001Y-122005659D01*
X201842234Y-122002226D01*
X202038408Y-121985063D01*
X202266663Y-121923903D01*
X202480830Y-121824035D01*
X202674401Y-121688495D01*
X202841495Y-121521401D01*
X202971425Y-121335842D01*
X203026002Y-121292217D01*
X203095500Y-121285023D01*
X203157855Y-121316546D01*
X203174575Y-121335842D01*
X203304500Y-121521395D01*
X203304505Y-121521401D01*
X203471599Y-121688495D01*
X203568384Y-121756265D01*
X203665165Y-121824032D01*
X203665167Y-121824033D01*
X203665170Y-121824035D01*
X203879337Y-121923903D01*
X204107592Y-121985063D01*
X204295918Y-122001539D01*
X204342999Y-122005659D01*
X204343000Y-122005659D01*
X204343001Y-122005659D01*
X204382234Y-122002226D01*
X204578408Y-121985063D01*
X204806663Y-121923903D01*
X205020830Y-121824035D01*
X205214401Y-121688495D01*
X205381495Y-121521401D01*
X205517035Y-121327830D01*
X205616903Y-121113663D01*
X205678063Y-120885408D01*
X205698659Y-120650000D01*
X205678063Y-120414592D01*
X205616903Y-120186337D01*
X205517035Y-119972171D01*
X205511425Y-119964158D01*
X205381494Y-119778597D01*
X205214402Y-119611506D01*
X205214396Y-119611501D01*
X205028842Y-119481575D01*
X204985217Y-119426998D01*
X204978023Y-119357500D01*
X205009546Y-119295145D01*
X205028842Y-119278425D01*
X205051026Y-119262891D01*
X205214401Y-119148495D01*
X205381495Y-118981401D01*
X205517035Y-118787830D01*
X205616903Y-118573663D01*
X205678063Y-118345408D01*
X205698659Y-118110000D01*
X205678063Y-117874592D01*
X205616903Y-117646337D01*
X205517035Y-117432171D01*
X205511425Y-117424158D01*
X205381494Y-117238597D01*
X205214402Y-117071506D01*
X205214396Y-117071501D01*
X205028842Y-116941575D01*
X204985217Y-116886998D01*
X204978023Y-116817500D01*
X205009546Y-116755145D01*
X205028842Y-116738425D01*
X205076846Y-116704812D01*
X205214401Y-116608495D01*
X205381495Y-116441401D01*
X205517035Y-116247830D01*
X205616903Y-116033663D01*
X205678063Y-115805408D01*
X205698659Y-115570000D01*
X205678063Y-115334592D01*
X205616903Y-115106337D01*
X205517035Y-114892171D01*
X205511425Y-114884158D01*
X205381494Y-114698597D01*
X205214402Y-114531506D01*
X205214396Y-114531501D01*
X205028842Y-114401575D01*
X204985217Y-114346998D01*
X204978023Y-114277500D01*
X205009546Y-114215145D01*
X205028842Y-114198425D01*
X205137939Y-114122034D01*
X205214401Y-114068495D01*
X205381495Y-113901401D01*
X205517035Y-113707830D01*
X205616903Y-113493663D01*
X205678063Y-113265408D01*
X205698659Y-113030000D01*
X205678063Y-112794592D01*
X205616903Y-112566337D01*
X205517035Y-112352171D01*
X205511425Y-112344158D01*
X205381494Y-112158597D01*
X205214402Y-111991506D01*
X205214396Y-111991501D01*
X205028842Y-111861575D01*
X204985217Y-111806998D01*
X204978023Y-111737500D01*
X205009546Y-111675145D01*
X205028842Y-111658425D01*
X205102244Y-111607028D01*
X205214401Y-111528495D01*
X205381495Y-111361401D01*
X205517035Y-111167830D01*
X205616903Y-110953663D01*
X205678063Y-110725408D01*
X205698659Y-110490000D01*
X205678063Y-110254592D01*
X205616903Y-110026337D01*
X205517035Y-109812171D01*
X205511425Y-109804158D01*
X205381494Y-109618597D01*
X205214402Y-109451506D01*
X205214396Y-109451501D01*
X205028842Y-109321575D01*
X204985217Y-109266998D01*
X204978023Y-109197500D01*
X205009546Y-109135145D01*
X205028842Y-109118425D01*
X205092256Y-109074022D01*
X205214401Y-108988495D01*
X205381495Y-108821401D01*
X205517035Y-108627830D01*
X205616903Y-108413663D01*
X205678063Y-108185408D01*
X205698659Y-107950000D01*
X205678063Y-107714592D01*
X205616903Y-107486337D01*
X205517035Y-107272171D01*
X205509888Y-107261963D01*
X205381494Y-107078597D01*
X205214402Y-106911506D01*
X205214396Y-106911501D01*
X205028842Y-106781575D01*
X204985217Y-106726998D01*
X204978023Y-106657500D01*
X205009546Y-106595145D01*
X205028842Y-106578425D01*
X205061752Y-106555381D01*
X205214401Y-106448495D01*
X205381495Y-106281401D01*
X205517035Y-106087830D01*
X205616903Y-105873663D01*
X205678063Y-105645408D01*
X205698659Y-105410000D01*
X205678063Y-105174592D01*
X205616903Y-104946337D01*
X205517035Y-104732171D01*
X205515386Y-104729815D01*
X205381494Y-104538597D01*
X205214402Y-104371506D01*
X205214396Y-104371501D01*
X205028842Y-104241575D01*
X204985217Y-104186998D01*
X204978023Y-104117500D01*
X205009546Y-104055145D01*
X205028842Y-104038425D01*
X205105762Y-103984565D01*
X205214401Y-103908495D01*
X205381495Y-103741401D01*
X205517035Y-103547830D01*
X205616903Y-103333663D01*
X205678063Y-103105408D01*
X205698659Y-102870000D01*
X205678063Y-102634592D01*
X205616903Y-102406337D01*
X205517035Y-102192171D01*
X205389562Y-102010119D01*
X205381494Y-101998597D01*
X205214402Y-101831506D01*
X205214396Y-101831501D01*
X205028842Y-101701575D01*
X204985217Y-101646998D01*
X204978023Y-101577500D01*
X205009546Y-101515145D01*
X205028842Y-101498425D01*
X205078540Y-101463626D01*
X205214401Y-101368495D01*
X205381495Y-101201401D01*
X205517035Y-101007830D01*
X205616903Y-100793663D01*
X205678063Y-100565408D01*
X205698659Y-100330000D01*
X205678063Y-100094592D01*
X205617381Y-99868121D01*
X205616905Y-99866344D01*
X205616904Y-99866343D01*
X205616903Y-99866337D01*
X205517035Y-99652171D01*
X205511425Y-99644158D01*
X205381494Y-99458597D01*
X205214402Y-99291506D01*
X205214396Y-99291501D01*
X205028842Y-99161575D01*
X204985217Y-99106998D01*
X204978023Y-99037500D01*
X205009546Y-98975145D01*
X205028842Y-98958425D01*
X205125246Y-98890922D01*
X205214401Y-98828495D01*
X205381495Y-98661401D01*
X205517035Y-98467830D01*
X205616903Y-98253663D01*
X205678063Y-98025408D01*
X205698659Y-97790000D01*
X205678063Y-97554592D01*
X205620968Y-97341507D01*
X205616905Y-97326344D01*
X205616904Y-97326343D01*
X205616903Y-97326337D01*
X205517035Y-97112171D01*
X205511425Y-97104158D01*
X205381494Y-96918597D01*
X205214402Y-96751506D01*
X205214396Y-96751501D01*
X205028842Y-96621575D01*
X204985217Y-96566998D01*
X204978023Y-96497500D01*
X205009546Y-96435145D01*
X205028842Y-96418425D01*
X205160167Y-96326470D01*
X205214401Y-96288495D01*
X205381495Y-96121401D01*
X205517035Y-95927830D01*
X205616903Y-95713663D01*
X205678063Y-95485408D01*
X205698659Y-95250000D01*
X205678063Y-95014592D01*
X205616903Y-94786337D01*
X205517035Y-94572171D01*
X205517034Y-94572169D01*
X205381494Y-94378597D01*
X205214402Y-94211506D01*
X205214396Y-94211501D01*
X205028842Y-94081575D01*
X204985217Y-94026998D01*
X204978023Y-93957500D01*
X205009546Y-93895145D01*
X205028842Y-93878425D01*
X205094074Y-93832749D01*
X205214401Y-93748495D01*
X205381495Y-93581401D01*
X205517035Y-93387830D01*
X205616903Y-93173663D01*
X205678063Y-92945408D01*
X205698659Y-92710000D01*
X205678063Y-92474592D01*
X205616903Y-92246337D01*
X205517035Y-92032171D01*
X205513305Y-92026843D01*
X205381494Y-91838597D01*
X205214402Y-91671506D01*
X205214396Y-91671501D01*
X205028842Y-91541575D01*
X204985217Y-91486998D01*
X204978023Y-91417500D01*
X205009546Y-91355145D01*
X205028842Y-91338425D01*
X205079340Y-91303066D01*
X205214401Y-91208495D01*
X205381495Y-91041401D01*
X205517035Y-90847830D01*
X205616903Y-90633663D01*
X205678063Y-90405408D01*
X205698659Y-90170000D01*
X205678063Y-89934592D01*
X205616903Y-89706337D01*
X205517035Y-89492171D01*
X205515386Y-89489815D01*
X205381494Y-89298597D01*
X205214402Y-89131506D01*
X205214396Y-89131501D01*
X205028842Y-89001575D01*
X204985217Y-88946998D01*
X204978023Y-88877500D01*
X205009546Y-88815145D01*
X205028842Y-88798425D01*
X205067009Y-88771700D01*
X205214401Y-88668495D01*
X205381495Y-88501401D01*
X205517035Y-88307830D01*
X205616903Y-88093663D01*
X205678063Y-87865408D01*
X205698659Y-87630000D01*
X205678063Y-87394592D01*
X205629960Y-87215068D01*
X205616905Y-87166344D01*
X205616904Y-87166343D01*
X205616903Y-87166337D01*
X205517035Y-86952171D01*
X205515386Y-86949815D01*
X205381494Y-86758597D01*
X205214402Y-86591506D01*
X205214396Y-86591501D01*
X205028842Y-86461575D01*
X204985217Y-86406998D01*
X204978023Y-86337500D01*
X205009546Y-86275145D01*
X205028842Y-86258425D01*
X205051026Y-86242891D01*
X205214401Y-86128495D01*
X205381495Y-85961401D01*
X205517035Y-85767830D01*
X205616903Y-85553663D01*
X205678063Y-85325408D01*
X205698659Y-85090000D01*
X205678063Y-84854592D01*
X205616903Y-84626337D01*
X205517035Y-84412171D01*
X205511425Y-84404158D01*
X205381494Y-84218597D01*
X205214402Y-84051506D01*
X205214396Y-84051501D01*
X205028842Y-83921575D01*
X204985217Y-83866998D01*
X204978023Y-83797500D01*
X205009546Y-83735145D01*
X205028842Y-83718425D01*
X205095455Y-83671782D01*
X205214401Y-83588495D01*
X205381495Y-83421401D01*
X205517035Y-83227830D01*
X205616903Y-83013663D01*
X205678063Y-82785408D01*
X205698659Y-82550000D01*
X205678063Y-82314592D01*
X205616903Y-82086337D01*
X205517035Y-81872171D01*
X205511425Y-81864158D01*
X205381494Y-81678597D01*
X205214402Y-81511506D01*
X205214396Y-81511501D01*
X205028842Y-81381575D01*
X204985217Y-81326998D01*
X204978023Y-81257500D01*
X205009546Y-81195145D01*
X205028842Y-81178425D01*
X205109372Y-81122037D01*
X205214401Y-81048495D01*
X205381495Y-80881401D01*
X205517035Y-80687830D01*
X205616903Y-80473663D01*
X205678063Y-80245408D01*
X205698659Y-80010000D01*
X205678063Y-79774592D01*
X205616903Y-79546337D01*
X205517035Y-79332171D01*
X205511425Y-79324158D01*
X205381494Y-79138597D01*
X205214402Y-78971506D01*
X205214395Y-78971501D01*
X205020834Y-78835967D01*
X205020830Y-78835965D01*
X205020828Y-78835964D01*
X204806663Y-78736097D01*
X204806659Y-78736096D01*
X204806655Y-78736094D01*
X204578413Y-78674938D01*
X204578403Y-78674936D01*
X204343001Y-78654341D01*
X204342999Y-78654341D01*
X204107596Y-78674936D01*
X204107586Y-78674938D01*
X203879344Y-78736094D01*
X203879335Y-78736098D01*
X203665171Y-78835964D01*
X203665169Y-78835965D01*
X203471597Y-78971505D01*
X203304505Y-79138597D01*
X203174575Y-79324158D01*
X203119998Y-79367783D01*
X203050500Y-79374977D01*
X202988145Y-79343454D01*
X202971425Y-79324158D01*
X202841494Y-79138597D01*
X202674402Y-78971506D01*
X202674395Y-78971501D01*
X202480834Y-78835967D01*
X202480830Y-78835965D01*
X202480828Y-78835964D01*
X202266663Y-78736097D01*
X202266659Y-78736096D01*
X202266655Y-78736094D01*
X202038413Y-78674938D01*
X202038403Y-78674936D01*
X201803001Y-78654341D01*
X201802999Y-78654341D01*
X201567596Y-78674936D01*
X201567586Y-78674938D01*
X201339344Y-78736094D01*
X201339335Y-78736098D01*
X201125171Y-78835964D01*
X201125169Y-78835965D01*
X200931597Y-78971505D01*
X200764505Y-79138597D01*
X200628965Y-79332169D01*
X200628964Y-79332171D01*
X200529098Y-79546335D01*
X200529094Y-79546344D01*
X200467938Y-79774586D01*
X200467936Y-79774596D01*
X200447341Y-80009999D01*
X200447341Y-80010000D01*
X200467936Y-80245403D01*
X200467938Y-80245413D01*
X200529094Y-80473655D01*
X200529096Y-80473659D01*
X200529097Y-80473663D01*
X200623703Y-80676546D01*
X200628965Y-80687830D01*
X200628967Y-80687834D01*
X200737281Y-80842521D01*
X200764501Y-80881396D01*
X200764506Y-80881402D01*
X200931597Y-81048493D01*
X200931603Y-81048498D01*
X201117158Y-81178425D01*
X201160783Y-81233002D01*
X201167977Y-81302500D01*
X201136454Y-81364855D01*
X201117158Y-81381575D01*
X200931597Y-81511505D01*
X200764505Y-81678597D01*
X200628965Y-81872169D01*
X200628964Y-81872171D01*
X200529098Y-82086335D01*
X200529094Y-82086344D01*
X200467938Y-82314586D01*
X200467936Y-82314596D01*
X200447341Y-82549999D01*
X200447341Y-82550000D01*
X200467936Y-82785403D01*
X200467938Y-82785413D01*
X200526349Y-83003407D01*
X200524686Y-83073257D01*
X200485523Y-83131119D01*
X200421295Y-83158623D01*
X200406574Y-83159500D01*
X200052832Y-83159500D01*
X200046747Y-83159351D01*
X200038170Y-83158929D01*
X199784160Y-83146448D01*
X199772051Y-83145255D01*
X199515021Y-83107127D01*
X199503086Y-83104753D01*
X199251021Y-83041613D01*
X199239380Y-83038081D01*
X198994728Y-82950543D01*
X198983496Y-82945891D01*
X198748577Y-82834781D01*
X198737861Y-82829053D01*
X198514986Y-82695466D01*
X198504868Y-82688706D01*
X198296150Y-82533910D01*
X198286744Y-82526190D01*
X198091825Y-82349526D01*
X198087417Y-82345329D01*
X197904891Y-82162803D01*
X197871406Y-82101480D01*
X197876390Y-82031788D01*
X197881762Y-82019470D01*
X197893032Y-81997030D01*
X197933493Y-81826317D01*
X197933493Y-81650875D01*
X197912055Y-81560423D01*
X197893033Y-81480165D01*
X197864693Y-81423735D01*
X197814295Y-81323382D01*
X197814291Y-81323377D01*
X197814290Y-81323375D01*
X197749047Y-81243285D01*
X197749046Y-81243284D01*
X197749038Y-81243274D01*
X197183340Y-80677578D01*
X197103232Y-80612319D01*
X197024490Y-80572774D01*
X196946448Y-80533580D01*
X196775746Y-80493122D01*
X196775741Y-80493121D01*
X196775739Y-80493121D01*
X196643279Y-80493121D01*
X196576240Y-80473436D01*
X196530485Y-80420632D01*
X196519279Y-80369121D01*
X196519279Y-80236664D01*
X196519279Y-80236661D01*
X196500946Y-80159310D01*
X196478819Y-80065951D01*
X196468190Y-80044786D01*
X196400081Y-79909168D01*
X196400077Y-79909163D01*
X196400076Y-79909161D01*
X196334833Y-79829071D01*
X196334832Y-79829070D01*
X196334824Y-79829060D01*
X195769126Y-79263364D01*
X195689018Y-79198105D01*
X195570526Y-79138597D01*
X195532234Y-79119366D01*
X195361532Y-79078908D01*
X195361527Y-79078907D01*
X195361525Y-79078907D01*
X195186083Y-79078907D01*
X195186081Y-79078907D01*
X195186075Y-79078908D01*
X195015370Y-79119367D01*
X194889746Y-79182457D01*
X194821003Y-79194953D01*
X194756417Y-79168300D01*
X194746415Y-79159327D01*
X193473697Y-77886609D01*
X193440212Y-77825286D01*
X193441604Y-77766833D01*
X193458061Y-77705415D01*
X193458060Y-77705415D01*
X193458063Y-77705408D01*
X193478659Y-77470000D01*
X193458063Y-77234592D01*
X193401707Y-77024266D01*
X193396905Y-77006344D01*
X193396904Y-77006343D01*
X193396903Y-77006337D01*
X193297035Y-76792171D01*
X193297032Y-76792166D01*
X193161494Y-76598597D01*
X192994402Y-76431506D01*
X192994395Y-76431501D01*
X192800834Y-76295967D01*
X192800830Y-76295965D01*
X192778729Y-76285659D01*
X192586663Y-76196097D01*
X192586659Y-76196096D01*
X192586655Y-76196094D01*
X192358413Y-76134938D01*
X192358403Y-76134936D01*
X192123001Y-76114341D01*
X192122999Y-76114341D01*
X191887596Y-76134936D01*
X191887586Y-76134938D01*
X191659344Y-76196094D01*
X191659335Y-76196098D01*
X191445171Y-76295964D01*
X191445169Y-76295965D01*
X191251597Y-76431505D01*
X191084505Y-76598597D01*
X190948965Y-76792169D01*
X190948964Y-76792171D01*
X190849098Y-77006335D01*
X190849094Y-77006344D01*
X190787938Y-77234586D01*
X190787936Y-77234596D01*
X190767341Y-77469999D01*
X190767341Y-77470000D01*
X190787936Y-77705403D01*
X190787938Y-77705413D01*
X190849094Y-77933655D01*
X190849096Y-77933659D01*
X190849097Y-77933663D01*
X190948965Y-78147830D01*
X190948967Y-78147834D01*
X191084501Y-78341395D01*
X191084506Y-78341402D01*
X191251597Y-78508493D01*
X191251603Y-78508498D01*
X191437158Y-78638425D01*
X191480783Y-78693002D01*
X191487977Y-78762500D01*
X191456454Y-78824855D01*
X191437158Y-78841575D01*
X191251597Y-78971505D01*
X191084505Y-79138597D01*
X190948965Y-79332169D01*
X190948964Y-79332171D01*
X190849098Y-79546335D01*
X190849094Y-79546344D01*
X190787938Y-79774586D01*
X190787936Y-79774596D01*
X190767341Y-80009999D01*
X190767341Y-80010000D01*
X190787936Y-80245403D01*
X190787938Y-80245413D01*
X190849094Y-80473655D01*
X190849096Y-80473659D01*
X190849097Y-80473663D01*
X190943703Y-80676546D01*
X190948965Y-80687830D01*
X190948967Y-80687834D01*
X191057281Y-80842521D01*
X191084501Y-80881396D01*
X191084506Y-80881402D01*
X191251597Y-81048493D01*
X191251603Y-81048498D01*
X191437158Y-81178425D01*
X191480783Y-81233002D01*
X191487977Y-81302500D01*
X191456454Y-81364855D01*
X191437158Y-81381575D01*
X191251597Y-81511505D01*
X191084505Y-81678597D01*
X190948965Y-81872169D01*
X190948964Y-81872171D01*
X190849098Y-82086335D01*
X190849094Y-82086344D01*
X190787938Y-82314586D01*
X190787936Y-82314596D01*
X190767341Y-82549999D01*
X190767341Y-82550000D01*
X190787936Y-82785403D01*
X190787938Y-82785413D01*
X190849094Y-83013655D01*
X190849096Y-83013659D01*
X190849097Y-83013663D01*
X190929004Y-83185023D01*
X190948965Y-83227830D01*
X190948967Y-83227834D01*
X191018909Y-83327721D01*
X191084501Y-83421396D01*
X191084506Y-83421402D01*
X191251597Y-83588493D01*
X191251603Y-83588498D01*
X191437158Y-83718425D01*
X191480783Y-83773002D01*
X191487977Y-83842500D01*
X191456454Y-83904855D01*
X191437158Y-83921575D01*
X191251597Y-84051505D01*
X191084505Y-84218597D01*
X190948965Y-84412169D01*
X190948964Y-84412171D01*
X190849098Y-84626335D01*
X190849094Y-84626344D01*
X190787938Y-84854586D01*
X190787936Y-84854596D01*
X190767341Y-85089999D01*
X190767341Y-85090000D01*
X190787936Y-85325403D01*
X190787938Y-85325413D01*
X190849094Y-85553655D01*
X190849096Y-85553659D01*
X190849097Y-85553663D01*
X190888698Y-85638587D01*
X190948965Y-85767830D01*
X190948967Y-85767834D01*
X191038599Y-85895841D01*
X191084501Y-85961396D01*
X191084506Y-85961402D01*
X191251597Y-86128493D01*
X191251603Y-86128498D01*
X191437158Y-86258425D01*
X191480783Y-86313002D01*
X191487977Y-86382500D01*
X191456454Y-86444855D01*
X191437158Y-86461575D01*
X191251597Y-86591505D01*
X191084506Y-86758596D01*
X190987588Y-86897011D01*
X190974231Y-86916088D01*
X190973856Y-86916623D01*
X190919279Y-86960248D01*
X190872281Y-86969500D01*
X189792499Y-86969500D01*
X189725460Y-86949815D01*
X189679705Y-86897011D01*
X189668499Y-86845500D01*
X189668499Y-86832998D01*
X189668498Y-86832981D01*
X189657999Y-86730203D01*
X189657998Y-86730200D01*
X189602814Y-86563666D01*
X189510712Y-86414344D01*
X189417049Y-86320681D01*
X189383564Y-86259358D01*
X189388548Y-86189666D01*
X189417049Y-86145319D01*
X189456080Y-86106288D01*
X189510712Y-86051656D01*
X189602814Y-85902334D01*
X189657999Y-85735797D01*
X189668500Y-85633009D01*
X189668499Y-84832992D01*
X189657999Y-84730203D01*
X189602814Y-84563666D01*
X189510712Y-84414344D01*
X189391134Y-84294766D01*
X189357649Y-84233443D01*
X189355494Y-84194133D01*
X189373460Y-84023200D01*
X189353674Y-83834944D01*
X189295179Y-83654916D01*
X189200533Y-83490984D01*
X189073871Y-83350312D01*
X189073870Y-83350311D01*
X188920734Y-83239051D01*
X188920729Y-83239048D01*
X188747807Y-83162057D01*
X188747802Y-83162055D01*
X188602001Y-83131065D01*
X188562646Y-83122700D01*
X188373354Y-83122700D01*
X188368024Y-83123833D01*
X188188197Y-83162055D01*
X188188192Y-83162057D01*
X188015270Y-83239048D01*
X188015265Y-83239051D01*
X187862129Y-83350311D01*
X187735466Y-83490985D01*
X187640821Y-83654915D01*
X187640818Y-83654922D01*
X187582327Y-83834940D01*
X187582326Y-83834944D01*
X187562540Y-84023200D01*
X187580504Y-84194126D01*
X187567935Y-84262853D01*
X187544866Y-84294766D01*
X187425285Y-84414347D01*
X187405138Y-84447011D01*
X187353190Y-84493736D01*
X187284227Y-84504957D01*
X187220146Y-84477114D01*
X187194062Y-84447011D01*
X187173914Y-84414347D01*
X187173911Y-84414343D01*
X187049857Y-84290289D01*
X187049856Y-84290288D01*
X186900534Y-84198186D01*
X186900533Y-84198185D01*
X186900532Y-84198185D01*
X186876693Y-84190285D01*
X186819249Y-84150511D01*
X186792428Y-84085994D01*
X186791700Y-84072580D01*
X186791700Y-83495442D01*
X186791966Y-83487332D01*
X186796381Y-83419977D01*
X186804437Y-83297066D01*
X186806554Y-83280989D01*
X186842962Y-83097955D01*
X186847159Y-83082295D01*
X186907146Y-82905581D01*
X186913348Y-82890610D01*
X186995890Y-82723230D01*
X187003994Y-82709195D01*
X187107681Y-82554016D01*
X187117538Y-82541170D01*
X187240615Y-82400828D01*
X187252074Y-82389369D01*
X187392368Y-82266334D01*
X187405213Y-82256477D01*
X187560400Y-82152785D01*
X187574420Y-82144691D01*
X187741807Y-82062143D01*
X187756779Y-82055941D01*
X187933511Y-81995949D01*
X187949143Y-81991760D01*
X188132194Y-81955348D01*
X188148265Y-81953232D01*
X188298925Y-81943357D01*
X188338457Y-81940766D01*
X188346567Y-81940500D01*
X188795389Y-81940500D01*
X188862428Y-81960185D01*
X188868274Y-81964182D01*
X189005865Y-82064148D01*
X189005870Y-82064151D01*
X189178792Y-82141142D01*
X189178797Y-82141144D01*
X189363954Y-82180500D01*
X189363955Y-82180500D01*
X189553244Y-82180500D01*
X189553246Y-82180500D01*
X189738403Y-82141144D01*
X189911330Y-82064151D01*
X190064471Y-81952888D01*
X190191133Y-81812216D01*
X190285779Y-81648284D01*
X190344274Y-81468256D01*
X190364060Y-81280000D01*
X190344274Y-81091744D01*
X190285779Y-80911716D01*
X190191133Y-80747784D01*
X190064471Y-80607112D01*
X190061798Y-80605170D01*
X189911334Y-80495851D01*
X189911329Y-80495848D01*
X189738407Y-80418857D01*
X189738402Y-80418855D01*
X189592601Y-80387865D01*
X189553246Y-80379500D01*
X189363954Y-80379500D01*
X189331497Y-80386398D01*
X189178797Y-80418855D01*
X189178792Y-80418857D01*
X189005870Y-80495848D01*
X189005865Y-80495851D01*
X188868274Y-80595818D01*
X188802468Y-80619298D01*
X188795389Y-80619500D01*
X188393949Y-80619500D01*
X188393932Y-80619495D01*
X188342582Y-80619495D01*
X188201495Y-80619495D01*
X187967483Y-80642545D01*
X187920680Y-80647155D01*
X187920668Y-80647157D01*
X187675918Y-80695842D01*
X187643930Y-80702205D01*
X187643927Y-80702205D01*
X187643914Y-80702209D01*
X187373912Y-80784115D01*
X187113213Y-80892101D01*
X186864363Y-81025115D01*
X186864353Y-81025121D01*
X186629750Y-81181878D01*
X186629736Y-81181888D01*
X186411619Y-81360892D01*
X186381285Y-81391227D01*
X186311856Y-81460656D01*
X186311855Y-81460657D01*
X186254944Y-81517566D01*
X186254867Y-81517651D01*
X186212097Y-81560422D01*
X186033092Y-81778539D01*
X186033082Y-81778553D01*
X185876325Y-82013156D01*
X185876319Y-82013166D01*
X185743305Y-82262015D01*
X185635320Y-82522712D01*
X185553414Y-82792715D01*
X185553409Y-82792736D01*
X185498362Y-83069469D01*
X185498360Y-83069481D01*
X185498360Y-83069482D01*
X185472901Y-83327958D01*
X185470700Y-83350300D01*
X185470700Y-84072580D01*
X185451015Y-84139619D01*
X185398211Y-84185374D01*
X185385707Y-84190285D01*
X185361867Y-84198185D01*
X185212542Y-84290289D01*
X185088489Y-84414342D01*
X184996387Y-84563663D01*
X184996385Y-84563668D01*
X184972220Y-84636593D01*
X184941201Y-84730203D01*
X184941201Y-84730204D01*
X184941200Y-84730204D01*
X184930700Y-84832983D01*
X184930700Y-85633001D01*
X184930701Y-85633019D01*
X184941200Y-85735796D01*
X184941201Y-85735799D01*
X184973658Y-85833747D01*
X184996386Y-85902334D01*
X185088487Y-86051655D01*
X185088489Y-86051657D01*
X185182151Y-86145319D01*
X185215636Y-86206642D01*
X185210652Y-86276334D01*
X185182151Y-86320681D01*
X185088489Y-86414342D01*
X184996387Y-86563663D01*
X184996385Y-86563668D01*
X184985119Y-86597667D01*
X184941201Y-86730203D01*
X184941201Y-86730204D01*
X184941200Y-86730204D01*
X184930700Y-86832983D01*
X184930700Y-87633001D01*
X184930701Y-87633019D01*
X184941200Y-87735796D01*
X184941201Y-87735799D01*
X184996385Y-87902331D01*
X184996386Y-87902334D01*
X185088488Y-88051656D01*
X185212544Y-88175712D01*
X185361866Y-88267814D01*
X185466173Y-88302378D01*
X185523617Y-88342149D01*
X185542508Y-88376449D01*
X185542962Y-88376261D01*
X185544514Y-88380008D01*
X185544515Y-88380011D01*
X185617072Y-88555175D01*
X185670797Y-88648226D01*
X185711879Y-88719378D01*
X185827288Y-88869777D01*
X185827297Y-88869787D01*
X185861206Y-88903695D01*
X185861221Y-88903709D01*
X186044601Y-89087090D01*
X186044780Y-89087252D01*
X186077215Y-89119688D01*
X186077223Y-89119695D01*
X186077224Y-89119696D01*
X186092611Y-89131503D01*
X186263145Y-89262360D01*
X186263149Y-89262362D01*
X186263156Y-89262368D01*
X186263163Y-89262372D01*
X186290427Y-89278113D01*
X186338643Y-89328680D01*
X186351865Y-89397287D01*
X186325897Y-89462152D01*
X186268983Y-89502680D01*
X186228427Y-89509500D01*
X186056419Y-89509500D01*
X185989380Y-89489815D01*
X185943625Y-89437011D01*
X185938713Y-89424505D01*
X185930814Y-89400666D01*
X185838712Y-89251344D01*
X185714656Y-89127288D01*
X185565334Y-89035186D01*
X185398797Y-88980001D01*
X185398795Y-88980000D01*
X185296010Y-88969500D01*
X184495998Y-88969500D01*
X184495980Y-88969501D01*
X184393203Y-88980000D01*
X184393200Y-88980001D01*
X184226668Y-89035185D01*
X184226663Y-89035187D01*
X184077342Y-89127289D01*
X183983681Y-89220951D01*
X183922358Y-89254436D01*
X183852666Y-89249452D01*
X183808319Y-89220951D01*
X183714657Y-89127289D01*
X183714656Y-89127288D01*
X183565334Y-89035186D01*
X183398797Y-88980001D01*
X183398795Y-88980000D01*
X183296010Y-88969500D01*
X182495998Y-88969500D01*
X182495980Y-88969501D01*
X182393203Y-88980000D01*
X182393200Y-88980001D01*
X182226668Y-89035185D01*
X182226663Y-89035187D01*
X182077342Y-89127289D01*
X181953289Y-89251342D01*
X181861187Y-89400663D01*
X181861186Y-89400666D01*
X181853287Y-89424505D01*
X181813513Y-89481950D01*
X181748997Y-89508772D01*
X181735581Y-89509500D01*
X176908817Y-89509500D01*
X176908479Y-89509515D01*
X176840193Y-89509515D01*
X176840192Y-89509515D01*
X176840189Y-89509515D01*
X176563208Y-89540718D01*
X176563205Y-89540718D01*
X176563202Y-89540719D01*
X176563191Y-89540721D01*
X176291471Y-89602735D01*
X176291456Y-89602740D01*
X176028374Y-89694791D01*
X175922711Y-89745675D01*
X175777238Y-89815730D01*
X175777233Y-89815732D01*
X175777233Y-89815733D01*
X175541232Y-89964019D01*
X175541221Y-89964027D01*
X175323300Y-90137813D01*
X175279822Y-90181290D01*
X175279784Y-90181326D01*
X175261086Y-90200025D01*
X175261035Y-90200052D01*
X175126195Y-90334892D01*
X174952412Y-90552810D01*
X174952404Y-90552821D01*
X174804117Y-90788824D01*
X174804114Y-90788829D01*
X174747995Y-90905364D01*
X174683174Y-91039967D01*
X174591122Y-91303051D01*
X174591117Y-91303066D01*
X174529103Y-91574788D01*
X174529101Y-91574799D01*
X174529100Y-91574805D01*
X174499384Y-91838594D01*
X174497897Y-91851791D01*
X174497900Y-91969016D01*
X174497900Y-114884784D01*
X174478215Y-114951823D01*
X174466050Y-114967756D01*
X174425866Y-115012385D01*
X174331221Y-115176315D01*
X174331218Y-115176322D01*
X174279792Y-115334596D01*
X174272726Y-115356344D01*
X174252940Y-115544600D01*
X174272726Y-115732856D01*
X174272727Y-115732859D01*
X174331218Y-115912877D01*
X174331221Y-115912884D01*
X174365942Y-115973023D01*
X174377765Y-115993500D01*
X174394238Y-116061400D01*
X174371385Y-116127427D01*
X174316464Y-116170618D01*
X174270378Y-116179500D01*
X173199426Y-116179500D01*
X173132387Y-116159815D01*
X173086632Y-116107011D01*
X173076688Y-116037853D01*
X173079651Y-116023407D01*
X173086788Y-115996772D01*
X173138063Y-115805408D01*
X173158659Y-115570000D01*
X173138063Y-115334592D01*
X173076903Y-115106337D01*
X172977035Y-114892171D01*
X172971425Y-114884158D01*
X172841494Y-114698597D01*
X172674402Y-114531506D01*
X172674396Y-114531501D01*
X172488842Y-114401575D01*
X172445217Y-114346998D01*
X172438023Y-114277500D01*
X172469546Y-114215145D01*
X172488842Y-114198425D01*
X172597939Y-114122034D01*
X172674401Y-114068495D01*
X172841495Y-113901401D01*
X172977035Y-113707830D01*
X173076903Y-113493663D01*
X173138063Y-113265408D01*
X173158659Y-113030000D01*
X173138063Y-112794592D01*
X173076903Y-112566337D01*
X172977035Y-112352171D01*
X172971425Y-112344158D01*
X172841494Y-112158597D01*
X172674402Y-111991506D01*
X172674396Y-111991501D01*
X172488842Y-111861575D01*
X172445217Y-111806998D01*
X172438023Y-111737500D01*
X172469546Y-111675145D01*
X172488842Y-111658425D01*
X172562244Y-111607028D01*
X172674401Y-111528495D01*
X172841495Y-111361401D01*
X172977035Y-111167830D01*
X173076903Y-110953663D01*
X173138063Y-110725408D01*
X173158659Y-110490000D01*
X173138063Y-110254592D01*
X173076903Y-110026337D01*
X172977035Y-109812171D01*
X172971425Y-109804158D01*
X172841494Y-109618597D01*
X172674402Y-109451506D01*
X172674396Y-109451501D01*
X172488842Y-109321575D01*
X172445217Y-109266998D01*
X172438023Y-109197500D01*
X172469546Y-109135145D01*
X172488842Y-109118425D01*
X172552256Y-109074022D01*
X172674401Y-108988495D01*
X172841495Y-108821401D01*
X172977035Y-108627830D01*
X173076903Y-108413663D01*
X173138063Y-108185408D01*
X173158659Y-107950000D01*
X173138063Y-107714592D01*
X173076903Y-107486337D01*
X172977035Y-107272171D01*
X172969888Y-107261963D01*
X172841494Y-107078597D01*
X172674402Y-106911506D01*
X172674396Y-106911501D01*
X172488842Y-106781575D01*
X172445217Y-106726998D01*
X172438023Y-106657500D01*
X172469546Y-106595145D01*
X172488842Y-106578425D01*
X172521752Y-106555381D01*
X172674401Y-106448495D01*
X172841495Y-106281401D01*
X172977035Y-106087830D01*
X173076903Y-105873663D01*
X173138063Y-105645408D01*
X173158659Y-105410000D01*
X173138063Y-105174592D01*
X173076903Y-104946337D01*
X172977035Y-104732171D01*
X172975386Y-104729815D01*
X172841494Y-104538597D01*
X172674402Y-104371506D01*
X172674396Y-104371501D01*
X172488842Y-104241575D01*
X172445217Y-104186998D01*
X172438023Y-104117500D01*
X172469546Y-104055145D01*
X172488842Y-104038425D01*
X172565762Y-103984565D01*
X172674401Y-103908495D01*
X172841495Y-103741401D01*
X172977035Y-103547830D01*
X173076903Y-103333663D01*
X173138063Y-103105408D01*
X173158659Y-102870000D01*
X173138063Y-102634592D01*
X173076903Y-102406337D01*
X172977035Y-102192171D01*
X172849562Y-102010119D01*
X172841494Y-101998597D01*
X172674402Y-101831506D01*
X172674396Y-101831501D01*
X172488842Y-101701575D01*
X172445217Y-101646998D01*
X172438023Y-101577500D01*
X172469546Y-101515145D01*
X172488842Y-101498425D01*
X172538540Y-101463626D01*
X172674401Y-101368495D01*
X172841495Y-101201401D01*
X172977035Y-101007830D01*
X173076903Y-100793663D01*
X173138063Y-100565408D01*
X173158659Y-100330000D01*
X173138063Y-100094592D01*
X173077381Y-99868121D01*
X173076905Y-99866344D01*
X173076904Y-99866343D01*
X173076903Y-99866337D01*
X172977035Y-99652171D01*
X172971425Y-99644158D01*
X172841494Y-99458597D01*
X172674402Y-99291506D01*
X172674396Y-99291501D01*
X172488842Y-99161575D01*
X172445217Y-99106998D01*
X172438023Y-99037500D01*
X172469546Y-98975145D01*
X172488842Y-98958425D01*
X172585246Y-98890922D01*
X172674401Y-98828495D01*
X172841495Y-98661401D01*
X172977035Y-98467830D01*
X173076903Y-98253663D01*
X173138063Y-98025408D01*
X173158659Y-97790000D01*
X173138063Y-97554592D01*
X173080968Y-97341507D01*
X173076905Y-97326344D01*
X173076904Y-97326343D01*
X173076903Y-97326337D01*
X172977035Y-97112171D01*
X172971425Y-97104158D01*
X172841494Y-96918597D01*
X172674402Y-96751506D01*
X172674396Y-96751501D01*
X172488842Y-96621575D01*
X172445217Y-96566998D01*
X172438023Y-96497500D01*
X172469546Y-96435145D01*
X172488842Y-96418425D01*
X172620167Y-96326470D01*
X172674401Y-96288495D01*
X172841495Y-96121401D01*
X172977035Y-95927830D01*
X173076903Y-95713663D01*
X173138063Y-95485408D01*
X173158659Y-95250000D01*
X173138063Y-95014592D01*
X173076903Y-94786337D01*
X172977035Y-94572171D01*
X172977034Y-94572169D01*
X172841494Y-94378597D01*
X172674402Y-94211506D01*
X172674396Y-94211501D01*
X172488842Y-94081575D01*
X172445217Y-94026998D01*
X172438023Y-93957500D01*
X172469546Y-93895145D01*
X172488842Y-93878425D01*
X172554074Y-93832749D01*
X172674401Y-93748495D01*
X172841495Y-93581401D01*
X172977035Y-93387830D01*
X173076903Y-93173663D01*
X173138063Y-92945408D01*
X173158659Y-92710000D01*
X173138063Y-92474592D01*
X173076903Y-92246337D01*
X172977035Y-92032171D01*
X172973305Y-92026843D01*
X172841494Y-91838597D01*
X172674402Y-91671506D01*
X172674396Y-91671501D01*
X172488842Y-91541575D01*
X172445217Y-91486998D01*
X172438023Y-91417500D01*
X172469546Y-91355145D01*
X172488842Y-91338425D01*
X172539340Y-91303066D01*
X172674401Y-91208495D01*
X172841495Y-91041401D01*
X172977035Y-90847830D01*
X173076903Y-90633663D01*
X173138063Y-90405408D01*
X173158659Y-90170000D01*
X173138063Y-89934592D01*
X173076903Y-89706337D01*
X172977035Y-89492171D01*
X172975386Y-89489815D01*
X172841494Y-89298597D01*
X172674402Y-89131506D01*
X172674396Y-89131501D01*
X172488842Y-89001575D01*
X172445217Y-88946998D01*
X172438023Y-88877500D01*
X172469546Y-88815145D01*
X172488842Y-88798425D01*
X172527009Y-88771700D01*
X172674401Y-88668495D01*
X172841495Y-88501401D01*
X172977035Y-88307830D01*
X173076903Y-88093663D01*
X173138063Y-87865408D01*
X173158659Y-87630000D01*
X173138063Y-87394592D01*
X173089960Y-87215068D01*
X173076905Y-87166344D01*
X173076904Y-87166343D01*
X173076903Y-87166337D01*
X172992873Y-86986135D01*
X176373300Y-86986135D01*
X176373300Y-88781870D01*
X176373301Y-88781876D01*
X176379708Y-88841483D01*
X176430002Y-88976328D01*
X176430006Y-88976335D01*
X176516252Y-89091544D01*
X176516255Y-89091547D01*
X176631464Y-89177793D01*
X176631471Y-89177797D01*
X176766317Y-89228091D01*
X176766316Y-89228091D01*
X176773244Y-89228835D01*
X176825927Y-89234500D01*
X178621672Y-89234499D01*
X178681283Y-89228091D01*
X178816131Y-89177796D01*
X178931346Y-89091546D01*
X179017596Y-88976331D01*
X179067891Y-88841483D01*
X179074300Y-88781873D01*
X179074299Y-86986128D01*
X179067891Y-86926517D01*
X179064001Y-86916088D01*
X179017597Y-86791671D01*
X179017593Y-86791664D01*
X178931347Y-86676455D01*
X178931344Y-86676452D01*
X178816135Y-86590206D01*
X178816128Y-86590202D01*
X178681282Y-86539908D01*
X178681283Y-86539908D01*
X178621683Y-86533501D01*
X178621681Y-86533500D01*
X178621673Y-86533500D01*
X178621664Y-86533500D01*
X176825929Y-86533500D01*
X176825923Y-86533501D01*
X176766316Y-86539908D01*
X176631471Y-86590202D01*
X176631464Y-86590206D01*
X176516255Y-86676452D01*
X176516252Y-86676455D01*
X176430006Y-86791664D01*
X176430002Y-86791671D01*
X176379708Y-86926517D01*
X176374219Y-86977579D01*
X176373301Y-86986123D01*
X176373300Y-86986135D01*
X172992873Y-86986135D01*
X172977035Y-86952171D01*
X172975386Y-86949815D01*
X172841494Y-86758597D01*
X172674402Y-86591506D01*
X172674396Y-86591501D01*
X172488842Y-86461575D01*
X172445217Y-86406998D01*
X172438023Y-86337500D01*
X172469546Y-86275145D01*
X172488842Y-86258425D01*
X172511026Y-86242891D01*
X172674401Y-86128495D01*
X172841495Y-85961401D01*
X172977035Y-85767830D01*
X173076903Y-85553663D01*
X173138063Y-85325408D01*
X173158659Y-85090000D01*
X173138063Y-84854592D01*
X173076903Y-84626337D01*
X172977035Y-84412171D01*
X172971425Y-84404158D01*
X172841494Y-84218597D01*
X172674402Y-84051506D01*
X172674396Y-84051501D01*
X172488842Y-83921575D01*
X172445217Y-83866998D01*
X172438023Y-83797500D01*
X172469546Y-83735145D01*
X172488842Y-83718425D01*
X172555455Y-83671782D01*
X172674401Y-83588495D01*
X172841495Y-83421401D01*
X172977035Y-83227830D01*
X173076903Y-83013663D01*
X173138063Y-82785408D01*
X173158659Y-82550000D01*
X173138063Y-82314592D01*
X173076903Y-82086337D01*
X172977035Y-81872171D01*
X172971425Y-81864158D01*
X172841494Y-81678597D01*
X172674402Y-81511506D01*
X172674396Y-81511501D01*
X172488842Y-81381575D01*
X172445217Y-81326998D01*
X172438023Y-81257500D01*
X172469546Y-81195145D01*
X172488842Y-81178425D01*
X172569372Y-81122037D01*
X172674401Y-81048495D01*
X172841495Y-80881401D01*
X172977035Y-80687830D01*
X173076903Y-80473663D01*
X173138063Y-80245408D01*
X173158659Y-80010000D01*
X173138063Y-79774592D01*
X173076903Y-79546337D01*
X172977035Y-79332171D01*
X172971425Y-79324158D01*
X172841494Y-79138597D01*
X172674402Y-78971506D01*
X172674396Y-78971501D01*
X172488842Y-78841575D01*
X172445217Y-78786998D01*
X172438023Y-78717500D01*
X172469546Y-78655145D01*
X172488842Y-78638425D01*
X172511026Y-78622891D01*
X172674401Y-78508495D01*
X172841495Y-78341401D01*
X172977035Y-78147830D01*
X173076903Y-77933663D01*
X173138063Y-77705408D01*
X173158659Y-77470000D01*
X173138063Y-77234592D01*
X173081707Y-77024266D01*
X173076905Y-77006344D01*
X173076904Y-77006343D01*
X173076903Y-77006337D01*
X172977035Y-76792171D01*
X172977032Y-76792166D01*
X172841494Y-76598597D01*
X172674402Y-76431506D01*
X172674396Y-76431501D01*
X172488842Y-76301575D01*
X172445217Y-76246998D01*
X172438023Y-76177500D01*
X172469546Y-76115145D01*
X172488842Y-76098425D01*
X172511026Y-76082891D01*
X172674401Y-75968495D01*
X172841495Y-75801401D01*
X172977035Y-75607830D01*
X173076903Y-75393663D01*
X173138063Y-75165408D01*
X173158659Y-74930000D01*
X173138063Y-74694592D01*
X173076903Y-74466337D01*
X172977035Y-74252171D01*
X172971424Y-74244158D01*
X172841496Y-74058600D01*
X172841493Y-74058597D01*
X172719567Y-73936671D01*
X172686084Y-73875351D01*
X172691068Y-73805659D01*
X172732939Y-73749725D01*
X172763915Y-73732810D01*
X172895331Y-73683796D01*
X173010546Y-73597546D01*
X173096796Y-73482331D01*
X173147091Y-73347483D01*
X173153500Y-73287873D01*
X173153499Y-71492128D01*
X173147091Y-71432517D01*
X173145809Y-71429081D01*
X173096797Y-71297671D01*
X173096793Y-71297664D01*
X173010548Y-71182456D01*
X173010546Y-71182455D01*
X173010546Y-71182454D01*
X173001076Y-71175365D01*
X172959207Y-71119433D01*
X172954223Y-71049741D01*
X172987708Y-70988418D01*
X173049031Y-70954934D01*
X173075389Y-70952100D01*
X178533315Y-70952100D01*
X178568719Y-70952100D01*
X178582598Y-70952879D01*
X178585032Y-70953153D01*
X178611981Y-70956189D01*
X178663699Y-70952427D01*
X178672695Y-70952100D01*
X178890105Y-70952100D01*
X178909999Y-70953706D01*
X179063482Y-70978653D01*
X179082237Y-70983224D01*
X179143077Y-71003181D01*
X179238070Y-71034341D01*
X179240098Y-71035006D01*
X179257915Y-71042432D01*
X179405825Y-71118085D01*
X179422268Y-71128182D01*
X179543015Y-71215967D01*
X179556652Y-71225881D01*
X179571335Y-71238414D01*
X179688918Y-71355777D01*
X179701478Y-71370436D01*
X179799423Y-71504628D01*
X179809555Y-71521057D01*
X179857417Y-71614199D01*
X179885490Y-71668829D01*
X179892949Y-71686634D01*
X179945026Y-71844394D01*
X179949632Y-71863140D01*
X179958958Y-71919844D01*
X179965388Y-71958939D01*
X179972856Y-72004341D01*
X179974500Y-72024465D01*
X179974500Y-85744171D01*
X179961501Y-85799441D01*
X179947492Y-85827576D01*
X179944418Y-85833750D01*
X179937290Y-85858801D01*
X179888602Y-86029917D01*
X179869785Y-86232999D01*
X179869785Y-86233000D01*
X179888602Y-86436082D01*
X179944417Y-86632247D01*
X179944422Y-86632260D01*
X180035327Y-86814821D01*
X180158237Y-86977581D01*
X180308958Y-87114980D01*
X180308960Y-87114982D01*
X180340517Y-87134521D01*
X180482363Y-87222348D01*
X180672544Y-87296024D01*
X180873024Y-87333500D01*
X180873026Y-87333500D01*
X181076974Y-87333500D01*
X181076976Y-87333500D01*
X181277456Y-87296024D01*
X181467637Y-87222348D01*
X181641041Y-87114981D01*
X181791764Y-86977579D01*
X181914673Y-86814821D01*
X182005582Y-86632250D01*
X182061397Y-86436083D01*
X182080215Y-86233000D01*
X182065931Y-86078853D01*
X182061397Y-86029917D01*
X182044566Y-85970763D01*
X182005582Y-85833750D01*
X181989264Y-85800978D01*
X181988499Y-85799441D01*
X181975500Y-85744171D01*
X181975500Y-72007697D01*
X181976116Y-71995353D01*
X181979759Y-71958939D01*
X181978249Y-71941239D01*
X181978271Y-71919909D01*
X181989739Y-71788839D01*
X181993490Y-71767565D01*
X182032969Y-71620226D01*
X182040362Y-71599917D01*
X182104823Y-71461681D01*
X182115629Y-71442966D01*
X182203119Y-71318017D01*
X182217007Y-71301465D01*
X182324865Y-71193607D01*
X182341417Y-71179719D01*
X182466366Y-71092229D01*
X182485081Y-71081423D01*
X182623319Y-71016961D01*
X182643626Y-71009569D01*
X182790965Y-70970090D01*
X182812241Y-70966339D01*
X182956643Y-70953706D01*
X182969605Y-70952572D01*
X182980412Y-70952100D01*
X183067709Y-70952100D01*
X187194700Y-70952100D01*
X187261739Y-70971785D01*
X187307494Y-71024589D01*
X187318700Y-71076100D01*
X187318700Y-71486001D01*
X187318701Y-71486019D01*
X187329200Y-71588796D01*
X187329201Y-71588799D01*
X187370083Y-71712171D01*
X187384386Y-71755334D01*
X187476488Y-71904656D01*
X187600544Y-72028712D01*
X187749866Y-72120814D01*
X187916403Y-72175999D01*
X188019191Y-72186500D01*
X188435656Y-72186499D01*
X188435670Y-72186500D01*
X188445659Y-72186500D01*
X188657175Y-72186500D01*
X188657183Y-72186499D01*
X189069202Y-72186499D01*
X189069208Y-72186499D01*
X189171997Y-72175999D01*
X189338534Y-72120814D01*
X189487856Y-72028712D01*
X189611912Y-71904656D01*
X189704014Y-71755334D01*
X189759199Y-71588797D01*
X189769700Y-71486009D01*
X189769699Y-71076099D01*
X189789383Y-71009061D01*
X189842187Y-70963306D01*
X189893699Y-70952100D01*
X190850611Y-70952100D01*
X190917650Y-70971785D01*
X190963405Y-71024589D01*
X190973349Y-71093747D01*
X190944324Y-71157303D01*
X190924926Y-71175363D01*
X190917791Y-71180704D01*
X190915451Y-71182456D01*
X190829206Y-71297664D01*
X190829202Y-71297671D01*
X190778908Y-71432517D01*
X190772501Y-71492116D01*
X190772501Y-71492123D01*
X190772500Y-71492135D01*
X190772500Y-73287870D01*
X190772501Y-73287876D01*
X190778908Y-73347483D01*
X190829202Y-73482328D01*
X190829206Y-73482335D01*
X190915452Y-73597544D01*
X190915455Y-73597547D01*
X191030664Y-73683793D01*
X191030671Y-73683797D01*
X191165517Y-73734091D01*
X191165516Y-73734091D01*
X191172444Y-73734835D01*
X191225127Y-73740500D01*
X193020872Y-73740499D01*
X193080483Y-73734091D01*
X193215331Y-73683796D01*
X193330546Y-73597546D01*
X193416796Y-73482331D01*
X193420960Y-73471165D01*
X193462829Y-73415234D01*
X193528293Y-73390816D01*
X193537141Y-73390500D01*
X194274890Y-73390500D01*
X194364548Y-73390500D01*
X194370632Y-73390649D01*
X194427142Y-73393425D01*
X194691007Y-73406388D01*
X194703109Y-73407580D01*
X195017380Y-73454197D01*
X195029290Y-73456566D01*
X195337501Y-73533769D01*
X195349124Y-73537296D01*
X195648252Y-73644325D01*
X195659481Y-73648976D01*
X195946710Y-73784825D01*
X195957418Y-73790549D01*
X196229919Y-73953880D01*
X196240036Y-73960640D01*
X196495218Y-74149895D01*
X196504621Y-74157611D01*
X196742317Y-74373047D01*
X196746724Y-74377244D01*
X197467781Y-75098301D01*
X197501266Y-75159624D01*
X197504100Y-75185980D01*
X197504100Y-75245200D01*
X197504101Y-75245219D01*
X197514600Y-75347996D01*
X197514601Y-75347999D01*
X197532506Y-75402032D01*
X197569786Y-75514534D01*
X197661888Y-75663856D01*
X197785944Y-75787912D01*
X197935266Y-75880014D01*
X198101803Y-75935199D01*
X198204591Y-75945700D01*
X199254608Y-75945699D01*
X199254616Y-75945698D01*
X199254619Y-75945698D01*
X199310902Y-75939948D01*
X199357397Y-75935199D01*
X199357398Y-75935198D01*
X199364022Y-75933781D01*
X199364263Y-75934910D01*
X199391588Y-75930500D01*
X200842242Y-75930500D01*
X200909281Y-75950185D01*
X200929923Y-75966819D01*
X200931599Y-75968495D01*
X201028384Y-76036265D01*
X201125165Y-76104032D01*
X201125167Y-76104033D01*
X201125170Y-76104035D01*
X201339337Y-76203903D01*
X201567592Y-76265063D01*
X201755918Y-76281539D01*
X201802999Y-76285659D01*
X201803000Y-76285659D01*
X201803001Y-76285659D01*
X201842234Y-76282226D01*
X202038408Y-76265063D01*
X202266663Y-76203903D01*
X202480830Y-76104035D01*
X202674401Y-75968495D01*
X202676077Y-75966819D01*
X202676995Y-75966317D01*
X202678544Y-75965018D01*
X202678805Y-75965329D01*
X202737400Y-75933334D01*
X202763758Y-75930500D01*
X203382242Y-75930500D01*
X203449281Y-75950185D01*
X203469923Y-75966819D01*
X203471599Y-75968495D01*
X203568384Y-76036265D01*
X203665165Y-76104032D01*
X203665167Y-76104033D01*
X203665170Y-76104035D01*
X203879337Y-76203903D01*
X204107592Y-76265063D01*
X204295918Y-76281539D01*
X204342999Y-76285659D01*
X204343000Y-76285659D01*
X204343001Y-76285659D01*
X204382234Y-76282226D01*
X204578408Y-76265063D01*
X204806663Y-76203903D01*
X205020830Y-76104035D01*
X205214401Y-75968495D01*
X205381495Y-75801401D01*
X205517035Y-75607830D01*
X205616903Y-75393663D01*
X205678063Y-75165408D01*
X205698659Y-74930000D01*
X205678063Y-74694592D01*
X205616903Y-74466337D01*
X205517035Y-74252171D01*
X205511425Y-74244158D01*
X205381494Y-74058597D01*
X205214402Y-73891506D01*
X205214396Y-73891501D01*
X205028842Y-73761575D01*
X204985217Y-73706998D01*
X204978023Y-73637500D01*
X205009546Y-73575145D01*
X205028842Y-73558425D01*
X205064059Y-73533766D01*
X205214401Y-73428495D01*
X205381495Y-73261401D01*
X205517035Y-73067830D01*
X205616903Y-72853663D01*
X205678063Y-72625408D01*
X205698659Y-72390000D01*
X205678063Y-72154592D01*
X205617900Y-71930057D01*
X205616905Y-71926344D01*
X205616904Y-71926343D01*
X205616903Y-71926337D01*
X205517035Y-71712171D01*
X205492716Y-71677439D01*
X205381494Y-71518597D01*
X205214402Y-71351506D01*
X205214395Y-71351501D01*
X205020834Y-71215967D01*
X205020830Y-71215965D01*
X204966748Y-71190746D01*
X204806663Y-71116097D01*
X204806659Y-71116096D01*
X204806655Y-71116094D01*
X204578413Y-71054938D01*
X204578403Y-71054936D01*
X204343001Y-71034341D01*
X204342999Y-71034341D01*
X204107596Y-71054936D01*
X204107586Y-71054938D01*
X203879344Y-71116094D01*
X203879335Y-71116098D01*
X203665171Y-71215964D01*
X203665169Y-71215965D01*
X203471600Y-71351503D01*
X203349673Y-71473430D01*
X203288350Y-71506914D01*
X203218658Y-71501930D01*
X203162725Y-71460058D01*
X203145810Y-71429081D01*
X203096797Y-71297671D01*
X203096793Y-71297664D01*
X203010547Y-71182455D01*
X203010544Y-71182452D01*
X202895335Y-71096206D01*
X202895328Y-71096202D01*
X202760482Y-71045908D01*
X202760483Y-71045908D01*
X202700883Y-71039501D01*
X202700881Y-71039500D01*
X202700873Y-71039500D01*
X202700865Y-71039500D01*
X201918782Y-71039500D01*
X201851743Y-71019815D01*
X201831101Y-71003181D01*
X201327582Y-70499662D01*
X201327575Y-70499650D01*
X201291262Y-70463337D01*
X201291263Y-70463337D01*
X201147820Y-70319893D01*
X200839309Y-70056400D01*
X200616077Y-69894213D01*
X200511095Y-69817939D01*
X200511086Y-69817933D01*
X200511075Y-69817925D01*
X200511062Y-69817917D01*
X200165162Y-69605948D01*
X200165156Y-69605945D01*
X200165146Y-69605940D01*
X200165143Y-69605938D01*
X199803645Y-69421746D01*
X199659324Y-69361966D01*
X199428804Y-69266481D01*
X199042959Y-69141114D01*
X199042952Y-69141112D01*
X199042948Y-69141111D01*
X198834158Y-69090985D01*
X198648432Y-69046396D01*
X198247727Y-68982932D01*
X198247704Y-68982930D01*
X197992694Y-68962860D01*
X197843247Y-68951099D01*
X197843246Y-68951099D01*
X197640388Y-68951100D01*
X179029652Y-68951100D01*
X179025775Y-68951039D01*
X178724817Y-68941625D01*
X178724801Y-68941625D01*
X178599832Y-68950769D01*
X178590784Y-68951100D01*
X166918030Y-68951100D01*
X166907258Y-68950631D01*
X166907062Y-68950613D01*
X166865526Y-68950838D01*
X166865089Y-68950712D01*
X166801485Y-68951098D01*
X166800733Y-68951100D01*
X166784738Y-68951100D01*
X166687344Y-68951012D01*
X166685445Y-68951100D01*
X161141060Y-68951100D01*
X161141016Y-68951098D01*
X161094121Y-68951098D01*
X161094090Y-68951089D01*
X160916769Y-68951091D01*
X160666402Y-68979307D01*
X160420763Y-69035376D01*
X160420759Y-69035377D01*
X160420756Y-69035378D01*
X160182954Y-69118592D01*
X160182949Y-69118594D01*
X160182947Y-69118595D01*
X159955943Y-69227917D01*
X159955939Y-69227919D01*
X159813719Y-69317283D01*
X159742607Y-69361967D01*
X159742604Y-69361969D01*
X159742600Y-69361972D01*
X159545620Y-69519059D01*
X159458742Y-69605938D01*
X159456540Y-69608140D01*
X159421915Y-69642765D01*
X159387290Y-69677389D01*
X159387146Y-69677546D01*
X159367474Y-69697218D01*
X159210379Y-69894206D01*
X159210374Y-69894215D01*
X159076328Y-70107544D01*
X158967001Y-70334558D01*
X158883788Y-70572359D01*
X158827718Y-70817999D01*
X158827717Y-70818002D01*
X158808785Y-70985990D01*
X158781716Y-71050403D01*
X158728903Y-71088283D01*
X158707671Y-71096202D01*
X158707663Y-71096207D01*
X158592455Y-71182452D01*
X158592452Y-71182455D01*
X158506206Y-71297664D01*
X158506202Y-71297671D01*
X158455908Y-71432517D01*
X158449501Y-71492116D01*
X158449501Y-71492123D01*
X158449500Y-71492135D01*
X158449500Y-73287870D01*
X158449501Y-73287876D01*
X158455908Y-73347483D01*
X158506202Y-73482328D01*
X158506206Y-73482335D01*
X158592452Y-73597544D01*
X158592455Y-73597547D01*
X158707664Y-73683793D01*
X158707671Y-73683797D01*
X158839081Y-73732810D01*
X158895015Y-73774681D01*
X158919432Y-73840145D01*
X158904580Y-73908418D01*
X158883430Y-73936673D01*
X158761503Y-74058600D01*
X158625965Y-74252169D01*
X158625964Y-74252171D01*
X158526098Y-74466335D01*
X158526094Y-74466344D01*
X158464938Y-74694586D01*
X158464936Y-74694596D01*
X158444341Y-74929999D01*
X157480000Y-74929999D01*
X157480000Y-68704000D01*
X157499685Y-68636961D01*
X157552489Y-68591206D01*
X157604000Y-68580000D01*
X206632000Y-68580000D01*
X206699039Y-68599685D01*
G37*
%TD.AperFunction*%
%TD*%
D24*
X157480000Y-122936000D02*
X157480000Y-68580000D01*
X206756000Y-122936000D02*
X206756000Y-68580000D01*
X157480000Y-122936000D02*
X206756000Y-122936000D01*
X206756000Y-68580000D02*
X157480000Y-68580000D01*
M02*
