%TF.GenerationSoftware,KiCad,Pcbnew,8.0.5-8.0.5-0~ubuntu24.04.1*%
%TF.CreationDate,2024-09-16T22:52:31+02:00*%
%TF.ProjectId,fx3_tn20k_adapter,6678335f-746e-4323-906b-5f6164617074,0.0.1*%
%TF.SameCoordinates,Original*%
%TF.FileFunction,Legend,Bot*%
%TF.FilePolarity,Positive*%
%FSLAX46Y46*%
G04 Gerber Fmt 4.6, Leading zero omitted, Abs format (unit mm)*
G04 Created by KiCad (PCBNEW 8.0.5-8.0.5-0~ubuntu24.04.1) date 2024-09-16 22:52:31*
%MOMM*%
%LPD*%
G01*
G04 APERTURE LIST*
%ADD10C,0.120000*%
%TA.AperFunction,Profile*%
%ADD11C,0.100000*%
%TD*%
G04 APERTURE END LIST*
D10*
X180180400Y-79616393D02*
X180413733Y-79283060D01*
X180580400Y-79616393D02*
X180580400Y-78916393D01*
X180580400Y-78916393D02*
X180313733Y-78916393D01*
X180313733Y-78916393D02*
X180247067Y-78949726D01*
X180247067Y-78949726D02*
X180213733Y-78983060D01*
X180213733Y-78983060D02*
X180180400Y-79049726D01*
X180180400Y-79049726D02*
X180180400Y-79149726D01*
X180180400Y-79149726D02*
X180213733Y-79216393D01*
X180213733Y-79216393D02*
X180247067Y-79249726D01*
X180247067Y-79249726D02*
X180313733Y-79283060D01*
X180313733Y-79283060D02*
X180580400Y-79283060D01*
X179513733Y-79616393D02*
X179913733Y-79616393D01*
X179713733Y-79616393D02*
X179713733Y-78916393D01*
X179713733Y-78916393D02*
X179780400Y-79016393D01*
X179780400Y-79016393D02*
X179847067Y-79083060D01*
X179847067Y-79083060D02*
X179913733Y-79116393D01*
X179080400Y-78916393D02*
X179013733Y-78916393D01*
X179013733Y-78916393D02*
X178947066Y-78949726D01*
X178947066Y-78949726D02*
X178913733Y-78983060D01*
X178913733Y-78983060D02*
X178880400Y-79049726D01*
X178880400Y-79049726D02*
X178847066Y-79183060D01*
X178847066Y-79183060D02*
X178847066Y-79349726D01*
X178847066Y-79349726D02*
X178880400Y-79483060D01*
X178880400Y-79483060D02*
X178913733Y-79549726D01*
X178913733Y-79549726D02*
X178947066Y-79583060D01*
X178947066Y-79583060D02*
X179013733Y-79616393D01*
X179013733Y-79616393D02*
X179080400Y-79616393D01*
X179080400Y-79616393D02*
X179147066Y-79583060D01*
X179147066Y-79583060D02*
X179180400Y-79549726D01*
X179180400Y-79549726D02*
X179213733Y-79483060D01*
X179213733Y-79483060D02*
X179247066Y-79349726D01*
X179247066Y-79349726D02*
X179247066Y-79183060D01*
X179247066Y-79183060D02*
X179213733Y-79049726D01*
X179213733Y-79049726D02*
X179180400Y-78983060D01*
X179180400Y-78983060D02*
X179147066Y-78949726D01*
X179147066Y-78949726D02*
X179080400Y-78916393D01*
X180155000Y-72047193D02*
X180388333Y-71713860D01*
X180555000Y-72047193D02*
X180555000Y-71347193D01*
X180555000Y-71347193D02*
X180288333Y-71347193D01*
X180288333Y-71347193D02*
X180221667Y-71380526D01*
X180221667Y-71380526D02*
X180188333Y-71413860D01*
X180188333Y-71413860D02*
X180155000Y-71480526D01*
X180155000Y-71480526D02*
X180155000Y-71580526D01*
X180155000Y-71580526D02*
X180188333Y-71647193D01*
X180188333Y-71647193D02*
X180221667Y-71680526D01*
X180221667Y-71680526D02*
X180288333Y-71713860D01*
X180288333Y-71713860D02*
X180555000Y-71713860D01*
X179488333Y-72047193D02*
X179888333Y-72047193D01*
X179688333Y-72047193D02*
X179688333Y-71347193D01*
X179688333Y-71347193D02*
X179755000Y-71447193D01*
X179755000Y-71447193D02*
X179821667Y-71513860D01*
X179821667Y-71513860D02*
X179888333Y-71547193D01*
X179255000Y-71347193D02*
X178821666Y-71347193D01*
X178821666Y-71347193D02*
X179055000Y-71613860D01*
X179055000Y-71613860D02*
X178955000Y-71613860D01*
X178955000Y-71613860D02*
X178888333Y-71647193D01*
X178888333Y-71647193D02*
X178855000Y-71680526D01*
X178855000Y-71680526D02*
X178821666Y-71747193D01*
X178821666Y-71747193D02*
X178821666Y-71913860D01*
X178821666Y-71913860D02*
X178855000Y-71980526D01*
X178855000Y-71980526D02*
X178888333Y-72013860D01*
X178888333Y-72013860D02*
X178955000Y-72047193D01*
X178955000Y-72047193D02*
X179155000Y-72047193D01*
X179155000Y-72047193D02*
X179221666Y-72013860D01*
X179221666Y-72013860D02*
X179255000Y-71980526D01*
X175602993Y-86646599D02*
X175269660Y-86413266D01*
X175602993Y-86246599D02*
X174902993Y-86246599D01*
X174902993Y-86246599D02*
X174902993Y-86513266D01*
X174902993Y-86513266D02*
X174936326Y-86579933D01*
X174936326Y-86579933D02*
X174969660Y-86613266D01*
X174969660Y-86613266D02*
X175036326Y-86646599D01*
X175036326Y-86646599D02*
X175136326Y-86646599D01*
X175136326Y-86646599D02*
X175202993Y-86613266D01*
X175202993Y-86613266D02*
X175236326Y-86579933D01*
X175236326Y-86579933D02*
X175269660Y-86513266D01*
X175269660Y-86513266D02*
X175269660Y-86246599D01*
X174902993Y-86879933D02*
X174902993Y-87313266D01*
X174902993Y-87313266D02*
X175169660Y-87079933D01*
X175169660Y-87079933D02*
X175169660Y-87179933D01*
X175169660Y-87179933D02*
X175202993Y-87246599D01*
X175202993Y-87246599D02*
X175236326Y-87279933D01*
X175236326Y-87279933D02*
X175302993Y-87313266D01*
X175302993Y-87313266D02*
X175469660Y-87313266D01*
X175469660Y-87313266D02*
X175536326Y-87279933D01*
X175536326Y-87279933D02*
X175569660Y-87246599D01*
X175569660Y-87246599D02*
X175602993Y-87179933D01*
X175602993Y-87179933D02*
X175602993Y-86979933D01*
X175602993Y-86979933D02*
X175569660Y-86913266D01*
X175569660Y-86913266D02*
X175536326Y-86879933D01*
X174969660Y-87579933D02*
X174936326Y-87613266D01*
X174936326Y-87613266D02*
X174902993Y-87679933D01*
X174902993Y-87679933D02*
X174902993Y-87846600D01*
X174902993Y-87846600D02*
X174936326Y-87913266D01*
X174936326Y-87913266D02*
X174969660Y-87946600D01*
X174969660Y-87946600D02*
X175036326Y-87979933D01*
X175036326Y-87979933D02*
X175102993Y-87979933D01*
X175102993Y-87979933D02*
X175202993Y-87946600D01*
X175202993Y-87946600D02*
X175602993Y-87546600D01*
X175602993Y-87546600D02*
X175602993Y-87979933D01*
X180146266Y-82156393D02*
X180379599Y-81823060D01*
X180546266Y-82156393D02*
X180546266Y-81456393D01*
X180546266Y-81456393D02*
X180279599Y-81456393D01*
X180279599Y-81456393D02*
X180212933Y-81489726D01*
X180212933Y-81489726D02*
X180179599Y-81523060D01*
X180179599Y-81523060D02*
X180146266Y-81589726D01*
X180146266Y-81589726D02*
X180146266Y-81689726D01*
X180146266Y-81689726D02*
X180179599Y-81756393D01*
X180179599Y-81756393D02*
X180212933Y-81789726D01*
X180212933Y-81789726D02*
X180279599Y-81823060D01*
X180279599Y-81823060D02*
X180546266Y-81823060D01*
X179446266Y-82089726D02*
X179479599Y-82123060D01*
X179479599Y-82123060D02*
X179579599Y-82156393D01*
X179579599Y-82156393D02*
X179646266Y-82156393D01*
X179646266Y-82156393D02*
X179746266Y-82123060D01*
X179746266Y-82123060D02*
X179812933Y-82056393D01*
X179812933Y-82056393D02*
X179846266Y-81989726D01*
X179846266Y-81989726D02*
X179879599Y-81856393D01*
X179879599Y-81856393D02*
X179879599Y-81756393D01*
X179879599Y-81756393D02*
X179846266Y-81623060D01*
X179846266Y-81623060D02*
X179812933Y-81556393D01*
X179812933Y-81556393D02*
X179746266Y-81489726D01*
X179746266Y-81489726D02*
X179646266Y-81456393D01*
X179646266Y-81456393D02*
X179579599Y-81456393D01*
X179579599Y-81456393D02*
X179479599Y-81489726D01*
X179479599Y-81489726D02*
X179446266Y-81523060D01*
X178779599Y-82156393D02*
X179179599Y-82156393D01*
X178979599Y-82156393D02*
X178979599Y-81456393D01*
X178979599Y-81456393D02*
X179046266Y-81556393D01*
X179046266Y-81556393D02*
X179112933Y-81623060D01*
X179112933Y-81623060D02*
X179179599Y-81656393D01*
X184625400Y-121780393D02*
X184858733Y-121447060D01*
X185025400Y-121780393D02*
X185025400Y-121080393D01*
X185025400Y-121080393D02*
X184758733Y-121080393D01*
X184758733Y-121080393D02*
X184692067Y-121113726D01*
X184692067Y-121113726D02*
X184658733Y-121147060D01*
X184658733Y-121147060D02*
X184625400Y-121213726D01*
X184625400Y-121213726D02*
X184625400Y-121313726D01*
X184625400Y-121313726D02*
X184658733Y-121380393D01*
X184658733Y-121380393D02*
X184692067Y-121413726D01*
X184692067Y-121413726D02*
X184758733Y-121447060D01*
X184758733Y-121447060D02*
X185025400Y-121447060D01*
X183958733Y-121780393D02*
X184358733Y-121780393D01*
X184158733Y-121780393D02*
X184158733Y-121080393D01*
X184158733Y-121080393D02*
X184225400Y-121180393D01*
X184225400Y-121180393D02*
X184292067Y-121247060D01*
X184292067Y-121247060D02*
X184358733Y-121280393D01*
X183558733Y-121380393D02*
X183625400Y-121347060D01*
X183625400Y-121347060D02*
X183658733Y-121313726D01*
X183658733Y-121313726D02*
X183692066Y-121247060D01*
X183692066Y-121247060D02*
X183692066Y-121213726D01*
X183692066Y-121213726D02*
X183658733Y-121147060D01*
X183658733Y-121147060D02*
X183625400Y-121113726D01*
X183625400Y-121113726D02*
X183558733Y-121080393D01*
X183558733Y-121080393D02*
X183425400Y-121080393D01*
X183425400Y-121080393D02*
X183358733Y-121113726D01*
X183358733Y-121113726D02*
X183325400Y-121147060D01*
X183325400Y-121147060D02*
X183292066Y-121213726D01*
X183292066Y-121213726D02*
X183292066Y-121247060D01*
X183292066Y-121247060D02*
X183325400Y-121313726D01*
X183325400Y-121313726D02*
X183358733Y-121347060D01*
X183358733Y-121347060D02*
X183425400Y-121380393D01*
X183425400Y-121380393D02*
X183558733Y-121380393D01*
X183558733Y-121380393D02*
X183625400Y-121413726D01*
X183625400Y-121413726D02*
X183658733Y-121447060D01*
X183658733Y-121447060D02*
X183692066Y-121513726D01*
X183692066Y-121513726D02*
X183692066Y-121647060D01*
X183692066Y-121647060D02*
X183658733Y-121713726D01*
X183658733Y-121713726D02*
X183625400Y-121747060D01*
X183625400Y-121747060D02*
X183558733Y-121780393D01*
X183558733Y-121780393D02*
X183425400Y-121780393D01*
X183425400Y-121780393D02*
X183358733Y-121747060D01*
X183358733Y-121747060D02*
X183325400Y-121713726D01*
X183325400Y-121713726D02*
X183292066Y-121647060D01*
X183292066Y-121647060D02*
X183292066Y-121513726D01*
X183292066Y-121513726D02*
X183325400Y-121447060D01*
X183325400Y-121447060D02*
X183358733Y-121413726D01*
X183358733Y-121413726D02*
X183425400Y-121380393D01*
X187587800Y-116777593D02*
X187821133Y-116444260D01*
X187987800Y-116777593D02*
X187987800Y-116077593D01*
X187987800Y-116077593D02*
X187721133Y-116077593D01*
X187721133Y-116077593D02*
X187654467Y-116110926D01*
X187654467Y-116110926D02*
X187621133Y-116144260D01*
X187621133Y-116144260D02*
X187587800Y-116210926D01*
X187587800Y-116210926D02*
X187587800Y-116310926D01*
X187587800Y-116310926D02*
X187621133Y-116377593D01*
X187621133Y-116377593D02*
X187654467Y-116410926D01*
X187654467Y-116410926D02*
X187721133Y-116444260D01*
X187721133Y-116444260D02*
X187987800Y-116444260D01*
X186921133Y-116777593D02*
X187321133Y-116777593D01*
X187121133Y-116777593D02*
X187121133Y-116077593D01*
X187121133Y-116077593D02*
X187187800Y-116177593D01*
X187187800Y-116177593D02*
X187254467Y-116244260D01*
X187254467Y-116244260D02*
X187321133Y-116277593D01*
X186587800Y-116777593D02*
X186454466Y-116777593D01*
X186454466Y-116777593D02*
X186387800Y-116744260D01*
X186387800Y-116744260D02*
X186354466Y-116710926D01*
X186354466Y-116710926D02*
X186287800Y-116610926D01*
X186287800Y-116610926D02*
X186254466Y-116477593D01*
X186254466Y-116477593D02*
X186254466Y-116210926D01*
X186254466Y-116210926D02*
X186287800Y-116144260D01*
X186287800Y-116144260D02*
X186321133Y-116110926D01*
X186321133Y-116110926D02*
X186387800Y-116077593D01*
X186387800Y-116077593D02*
X186521133Y-116077593D01*
X186521133Y-116077593D02*
X186587800Y-116110926D01*
X186587800Y-116110926D02*
X186621133Y-116144260D01*
X186621133Y-116144260D02*
X186654466Y-116210926D01*
X186654466Y-116210926D02*
X186654466Y-116377593D01*
X186654466Y-116377593D02*
X186621133Y-116444260D01*
X186621133Y-116444260D02*
X186587800Y-116477593D01*
X186587800Y-116477593D02*
X186521133Y-116510926D01*
X186521133Y-116510926D02*
X186387800Y-116510926D01*
X186387800Y-116510926D02*
X186321133Y-116477593D01*
X186321133Y-116477593D02*
X186287800Y-116444260D01*
X186287800Y-116444260D02*
X186254466Y-116377593D01*
X180129600Y-77127193D02*
X180362933Y-76793860D01*
X180529600Y-77127193D02*
X180529600Y-76427193D01*
X180529600Y-76427193D02*
X180262933Y-76427193D01*
X180262933Y-76427193D02*
X180196267Y-76460526D01*
X180196267Y-76460526D02*
X180162933Y-76493860D01*
X180162933Y-76493860D02*
X180129600Y-76560526D01*
X180129600Y-76560526D02*
X180129600Y-76660526D01*
X180129600Y-76660526D02*
X180162933Y-76727193D01*
X180162933Y-76727193D02*
X180196267Y-76760526D01*
X180196267Y-76760526D02*
X180262933Y-76793860D01*
X180262933Y-76793860D02*
X180529600Y-76793860D01*
X179462933Y-77127193D02*
X179862933Y-77127193D01*
X179662933Y-77127193D02*
X179662933Y-76427193D01*
X179662933Y-76427193D02*
X179729600Y-76527193D01*
X179729600Y-76527193D02*
X179796267Y-76593860D01*
X179796267Y-76593860D02*
X179862933Y-76627193D01*
X178796266Y-77127193D02*
X179196266Y-77127193D01*
X178996266Y-77127193D02*
X178996266Y-76427193D01*
X178996266Y-76427193D02*
X179062933Y-76527193D01*
X179062933Y-76527193D02*
X179129600Y-76593860D01*
X179129600Y-76593860D02*
X179196266Y-76627193D01*
X180129600Y-74510993D02*
X180362933Y-74177660D01*
X180529600Y-74510993D02*
X180529600Y-73810993D01*
X180529600Y-73810993D02*
X180262933Y-73810993D01*
X180262933Y-73810993D02*
X180196267Y-73844326D01*
X180196267Y-73844326D02*
X180162933Y-73877660D01*
X180162933Y-73877660D02*
X180129600Y-73944326D01*
X180129600Y-73944326D02*
X180129600Y-74044326D01*
X180129600Y-74044326D02*
X180162933Y-74110993D01*
X180162933Y-74110993D02*
X180196267Y-74144326D01*
X180196267Y-74144326D02*
X180262933Y-74177660D01*
X180262933Y-74177660D02*
X180529600Y-74177660D01*
X179462933Y-74510993D02*
X179862933Y-74510993D01*
X179662933Y-74510993D02*
X179662933Y-73810993D01*
X179662933Y-73810993D02*
X179729600Y-73910993D01*
X179729600Y-73910993D02*
X179796267Y-73977660D01*
X179796267Y-73977660D02*
X179862933Y-74010993D01*
X179196266Y-73877660D02*
X179162933Y-73844326D01*
X179162933Y-73844326D02*
X179096266Y-73810993D01*
X179096266Y-73810993D02*
X178929600Y-73810993D01*
X178929600Y-73810993D02*
X178862933Y-73844326D01*
X178862933Y-73844326D02*
X178829600Y-73877660D01*
X178829600Y-73877660D02*
X178796266Y-73944326D01*
X178796266Y-73944326D02*
X178796266Y-74010993D01*
X178796266Y-74010993D02*
X178829600Y-74110993D01*
X178829600Y-74110993D02*
X179229600Y-74510993D01*
X179229600Y-74510993D02*
X178796266Y-74510993D01*
%TO.C,R10*%
X176858664Y-79275000D02*
X176404536Y-79275000D01*
X176858664Y-80745000D02*
X176404536Y-80745000D01*
%TO.C,R13*%
X176858064Y-71719000D02*
X176403936Y-71719000D01*
X176858064Y-73189000D02*
X176403936Y-73189000D01*
%TO.C,R32*%
X176858664Y-84355000D02*
X176404536Y-84355000D01*
X176858664Y-85825000D02*
X176404536Y-85825000D01*
%TO.C,RC1*%
X176858664Y-81815000D02*
X176404536Y-81815000D01*
X176858664Y-83285000D02*
X176404536Y-83285000D01*
%TO.C,R18*%
X186936136Y-119915000D02*
X187390264Y-119915000D01*
X186936136Y-121385000D02*
X187390264Y-121385000D01*
%TO.C,R19*%
X186910736Y-117375000D02*
X187364864Y-117375000D01*
X186910736Y-118845000D02*
X187364864Y-118845000D01*
%TO.C,R11*%
X176858664Y-76735000D02*
X176404536Y-76735000D01*
X176858664Y-78205000D02*
X176404536Y-78205000D01*
%TO.C,R12*%
X176858664Y-74195000D02*
X176404536Y-74195000D01*
X176858664Y-75665000D02*
X176404536Y-75665000D01*
%TD*%
D11*
X157480000Y-122936000D02*
X157480000Y-68580000D01*
X206756000Y-122936000D02*
X206756000Y-68580000D01*
X157480000Y-122936000D02*
X206756000Y-122936000D01*
X206756000Y-68580000D02*
X157480000Y-68580000D01*
M02*
