%TF.GenerationSoftware,KiCad,Pcbnew,8.0.5-8.0.5-0~ubuntu24.04.1*%
%TF.CreationDate,2024-09-16T22:52:31+02:00*%
%TF.ProjectId,fx3_tn20k_adapter,6678335f-746e-4323-906b-5f6164617074,0.0.1*%
%TF.SameCoordinates,Original*%
%TF.FileFunction,Legend,Top*%
%TF.FilePolarity,Positive*%
%FSLAX46Y46*%
G04 Gerber Fmt 4.6, Leading zero omitted, Abs format (unit mm)*
G04 Created by KiCad (PCBNEW 8.0.5-8.0.5-0~ubuntu24.04.1) date 2024-09-16 22:52:31*
%MOMM*%
%LPD*%
G01*
G04 APERTURE LIST*
%ADD10C,0.120000*%
%TA.AperFunction,Profile*%
%ADD11C,0.100000*%
%TD*%
G04 APERTURE END LIST*
D10*
X197533532Y-106415676D02*
X197604242Y-106014983D01*
X197250689Y-106132834D02*
X197745664Y-105637859D01*
X197745664Y-105637859D02*
X197934225Y-105826421D01*
X197934225Y-105826421D02*
X197957796Y-105897131D01*
X197957796Y-105897131D02*
X197957796Y-105944272D01*
X197957796Y-105944272D02*
X197934225Y-106014983D01*
X197934225Y-106014983D02*
X197863515Y-106085693D01*
X197863515Y-106085693D02*
X197792804Y-106109263D01*
X197792804Y-106109263D02*
X197745664Y-106109263D01*
X197745664Y-106109263D02*
X197674953Y-106085693D01*
X197674953Y-106085693D02*
X197486391Y-105897131D01*
X198169928Y-106156404D02*
X198217068Y-106156404D01*
X198217068Y-106156404D02*
X198287779Y-106179974D01*
X198287779Y-106179974D02*
X198405630Y-106297825D01*
X198405630Y-106297825D02*
X198429200Y-106368536D01*
X198429200Y-106368536D02*
X198429200Y-106415676D01*
X198429200Y-106415676D02*
X198405630Y-106486387D01*
X198405630Y-106486387D02*
X198358489Y-106533527D01*
X198358489Y-106533527D02*
X198264209Y-106580668D01*
X198264209Y-106580668D02*
X197698523Y-106580668D01*
X197698523Y-106580668D02*
X198004936Y-106887081D01*
X197457332Y-99151276D02*
X197528042Y-98750583D01*
X197174489Y-98868434D02*
X197669464Y-98373459D01*
X197669464Y-98373459D02*
X197858025Y-98562021D01*
X197858025Y-98562021D02*
X197881596Y-98632731D01*
X197881596Y-98632731D02*
X197881596Y-98679872D01*
X197881596Y-98679872D02*
X197858025Y-98750583D01*
X197858025Y-98750583D02*
X197787315Y-98821293D01*
X197787315Y-98821293D02*
X197716604Y-98844863D01*
X197716604Y-98844863D02*
X197669464Y-98844863D01*
X197669464Y-98844863D02*
X197598753Y-98821293D01*
X197598753Y-98821293D02*
X197410191Y-98632731D01*
X198211579Y-99245557D02*
X197881596Y-99575540D01*
X198282289Y-98939144D02*
X197810885Y-99174847D01*
X197810885Y-99174847D02*
X198117298Y-99481260D01*
X184625926Y-109666866D02*
X184659260Y-109700199D01*
X184659260Y-109700199D02*
X184692593Y-109800199D01*
X184692593Y-109800199D02*
X184692593Y-109866866D01*
X184692593Y-109866866D02*
X184659260Y-109966866D01*
X184659260Y-109966866D02*
X184592593Y-110033533D01*
X184592593Y-110033533D02*
X184525926Y-110066866D01*
X184525926Y-110066866D02*
X184392593Y-110100199D01*
X184392593Y-110100199D02*
X184292593Y-110100199D01*
X184292593Y-110100199D02*
X184159260Y-110066866D01*
X184159260Y-110066866D02*
X184092593Y-110033533D01*
X184092593Y-110033533D02*
X184025926Y-109966866D01*
X184025926Y-109966866D02*
X183992593Y-109866866D01*
X183992593Y-109866866D02*
X183992593Y-109800199D01*
X183992593Y-109800199D02*
X184025926Y-109700199D01*
X184025926Y-109700199D02*
X184059260Y-109666866D01*
X184059260Y-109400199D02*
X184025926Y-109366866D01*
X184025926Y-109366866D02*
X183992593Y-109300199D01*
X183992593Y-109300199D02*
X183992593Y-109133533D01*
X183992593Y-109133533D02*
X184025926Y-109066866D01*
X184025926Y-109066866D02*
X184059260Y-109033533D01*
X184059260Y-109033533D02*
X184125926Y-109000199D01*
X184125926Y-109000199D02*
X184192593Y-109000199D01*
X184192593Y-109000199D02*
X184292593Y-109033533D01*
X184292593Y-109033533D02*
X184692593Y-109433533D01*
X184692593Y-109433533D02*
X184692593Y-109000199D01*
X165116029Y-111971174D02*
X165186739Y-111570480D01*
X164833186Y-111688331D02*
X165328161Y-111193356D01*
X165328161Y-111193356D02*
X165516723Y-111381918D01*
X165516723Y-111381918D02*
X165540293Y-111452629D01*
X165540293Y-111452629D02*
X165540293Y-111499769D01*
X165540293Y-111499769D02*
X165516723Y-111570480D01*
X165516723Y-111570480D02*
X165446012Y-111641190D01*
X165446012Y-111641190D02*
X165375301Y-111664761D01*
X165375301Y-111664761D02*
X165328161Y-111664761D01*
X165328161Y-111664761D02*
X165257450Y-111641190D01*
X165257450Y-111641190D02*
X165068888Y-111452629D01*
X165752425Y-111711901D02*
X165799565Y-111711901D01*
X165799565Y-111711901D02*
X165870276Y-111735471D01*
X165870276Y-111735471D02*
X165988127Y-111853322D01*
X165988127Y-111853322D02*
X166011697Y-111924033D01*
X166011697Y-111924033D02*
X166011697Y-111971174D01*
X166011697Y-111971174D02*
X165988127Y-112041884D01*
X165988127Y-112041884D02*
X165940987Y-112089025D01*
X165940987Y-112089025D02*
X165846706Y-112136165D01*
X165846706Y-112136165D02*
X165281020Y-112136165D01*
X165281020Y-112136165D02*
X165587433Y-112442578D01*
X166058838Y-112913983D02*
X165775995Y-112631140D01*
X165917417Y-112772562D02*
X166412391Y-112277587D01*
X166412391Y-112277587D02*
X166294540Y-112301157D01*
X166294540Y-112301157D02*
X166200259Y-112301157D01*
X166200259Y-112301157D02*
X166129549Y-112277587D01*
X164887429Y-87561774D02*
X164958139Y-87161080D01*
X164604586Y-87278931D02*
X165099561Y-86783956D01*
X165099561Y-86783956D02*
X165288123Y-86972518D01*
X165288123Y-86972518D02*
X165311693Y-87043229D01*
X165311693Y-87043229D02*
X165311693Y-87090369D01*
X165311693Y-87090369D02*
X165288123Y-87161080D01*
X165288123Y-87161080D02*
X165217412Y-87231790D01*
X165217412Y-87231790D02*
X165146701Y-87255361D01*
X165146701Y-87255361D02*
X165099561Y-87255361D01*
X165099561Y-87255361D02*
X165028850Y-87231790D01*
X165028850Y-87231790D02*
X164840288Y-87043229D01*
X165523825Y-87302501D02*
X165570965Y-87302501D01*
X165570965Y-87302501D02*
X165641676Y-87326071D01*
X165641676Y-87326071D02*
X165759527Y-87443922D01*
X165759527Y-87443922D02*
X165783097Y-87514633D01*
X165783097Y-87514633D02*
X165783097Y-87561774D01*
X165783097Y-87561774D02*
X165759527Y-87632484D01*
X165759527Y-87632484D02*
X165712387Y-87679625D01*
X165712387Y-87679625D02*
X165618106Y-87726765D01*
X165618106Y-87726765D02*
X165052420Y-87726765D01*
X165052420Y-87726765D02*
X165358833Y-88033178D01*
X165594536Y-88268881D02*
X165688817Y-88363162D01*
X165688817Y-88363162D02*
X165759527Y-88386732D01*
X165759527Y-88386732D02*
X165806668Y-88386732D01*
X165806668Y-88386732D02*
X165924519Y-88363162D01*
X165924519Y-88363162D02*
X166042370Y-88292451D01*
X166042370Y-88292451D02*
X166230932Y-88103889D01*
X166230932Y-88103889D02*
X166254502Y-88033178D01*
X166254502Y-88033178D02*
X166254502Y-87986038D01*
X166254502Y-87986038D02*
X166230932Y-87915327D01*
X166230932Y-87915327D02*
X166136651Y-87821046D01*
X166136651Y-87821046D02*
X166065940Y-87797476D01*
X166065940Y-87797476D02*
X166018800Y-87797476D01*
X166018800Y-87797476D02*
X165948089Y-87821046D01*
X165948089Y-87821046D02*
X165830238Y-87938897D01*
X165830238Y-87938897D02*
X165806668Y-88009608D01*
X165806668Y-88009608D02*
X165806668Y-88056749D01*
X165806668Y-88056749D02*
X165830238Y-88127459D01*
X165830238Y-88127459D02*
X165924519Y-88221740D01*
X165924519Y-88221740D02*
X165995230Y-88245310D01*
X165995230Y-88245310D02*
X166042370Y-88245310D01*
X166042370Y-88245310D02*
X166113081Y-88221740D01*
X197482732Y-83657276D02*
X197553442Y-83256583D01*
X197199889Y-83374434D02*
X197694864Y-82879459D01*
X197694864Y-82879459D02*
X197883425Y-83068021D01*
X197883425Y-83068021D02*
X197906996Y-83138731D01*
X197906996Y-83138731D02*
X197906996Y-83185872D01*
X197906996Y-83185872D02*
X197883425Y-83256583D01*
X197883425Y-83256583D02*
X197812715Y-83327293D01*
X197812715Y-83327293D02*
X197742004Y-83350863D01*
X197742004Y-83350863D02*
X197694864Y-83350863D01*
X197694864Y-83350863D02*
X197624153Y-83327293D01*
X197624153Y-83327293D02*
X197435591Y-83138731D01*
X198048417Y-83657276D02*
X198024847Y-83586566D01*
X198024847Y-83586566D02*
X198024847Y-83539425D01*
X198024847Y-83539425D02*
X198048417Y-83468715D01*
X198048417Y-83468715D02*
X198071987Y-83445144D01*
X198071987Y-83445144D02*
X198142698Y-83421574D01*
X198142698Y-83421574D02*
X198189838Y-83421574D01*
X198189838Y-83421574D02*
X198260549Y-83445144D01*
X198260549Y-83445144D02*
X198354830Y-83539425D01*
X198354830Y-83539425D02*
X198378400Y-83610136D01*
X198378400Y-83610136D02*
X198378400Y-83657276D01*
X198378400Y-83657276D02*
X198354830Y-83727987D01*
X198354830Y-83727987D02*
X198331260Y-83751557D01*
X198331260Y-83751557D02*
X198260549Y-83775127D01*
X198260549Y-83775127D02*
X198213409Y-83775127D01*
X198213409Y-83775127D02*
X198142698Y-83751557D01*
X198142698Y-83751557D02*
X198048417Y-83657276D01*
X198048417Y-83657276D02*
X197977706Y-83633706D01*
X197977706Y-83633706D02*
X197930566Y-83633706D01*
X197930566Y-83633706D02*
X197859855Y-83657276D01*
X197859855Y-83657276D02*
X197765574Y-83751557D01*
X197765574Y-83751557D02*
X197742004Y-83822268D01*
X197742004Y-83822268D02*
X197742004Y-83869408D01*
X197742004Y-83869408D02*
X197765574Y-83940119D01*
X197765574Y-83940119D02*
X197859855Y-84034400D01*
X197859855Y-84034400D02*
X197930566Y-84057970D01*
X197930566Y-84057970D02*
X197977706Y-84057970D01*
X197977706Y-84057970D02*
X198048417Y-84034400D01*
X198048417Y-84034400D02*
X198142698Y-83940119D01*
X198142698Y-83940119D02*
X198166268Y-83869408D01*
X198166268Y-83869408D02*
X198166268Y-83822268D01*
X198166268Y-83822268D02*
X198142698Y-83751557D01*
X197457332Y-103469275D02*
X197528042Y-103068582D01*
X197174489Y-103186433D02*
X197669464Y-102691458D01*
X197669464Y-102691458D02*
X197858025Y-102880020D01*
X197858025Y-102880020D02*
X197881596Y-102950730D01*
X197881596Y-102950730D02*
X197881596Y-102997871D01*
X197881596Y-102997871D02*
X197858025Y-103068582D01*
X197858025Y-103068582D02*
X197787315Y-103139292D01*
X197787315Y-103139292D02*
X197716604Y-103162862D01*
X197716604Y-103162862D02*
X197669464Y-103162862D01*
X197669464Y-103162862D02*
X197598753Y-103139292D01*
X197598753Y-103139292D02*
X197410191Y-102950730D01*
X198117298Y-103139292D02*
X198423711Y-103445705D01*
X198423711Y-103445705D02*
X198070157Y-103469275D01*
X198070157Y-103469275D02*
X198140868Y-103539986D01*
X198140868Y-103539986D02*
X198164438Y-103610697D01*
X198164438Y-103610697D02*
X198164438Y-103657837D01*
X198164438Y-103657837D02*
X198140868Y-103728548D01*
X198140868Y-103728548D02*
X198023017Y-103846399D01*
X198023017Y-103846399D02*
X197952306Y-103869969D01*
X197952306Y-103869969D02*
X197905166Y-103869969D01*
X197905166Y-103869969D02*
X197834455Y-103846399D01*
X197834455Y-103846399D02*
X197693034Y-103704978D01*
X197693034Y-103704978D02*
X197669464Y-103634267D01*
X197669464Y-103634267D02*
X197669464Y-103587126D01*
X164912829Y-93708574D02*
X164983539Y-93307880D01*
X164629986Y-93425731D02*
X165124961Y-92930756D01*
X165124961Y-92930756D02*
X165313523Y-93119318D01*
X165313523Y-93119318D02*
X165337093Y-93190029D01*
X165337093Y-93190029D02*
X165337093Y-93237169D01*
X165337093Y-93237169D02*
X165313523Y-93307880D01*
X165313523Y-93307880D02*
X165242812Y-93378590D01*
X165242812Y-93378590D02*
X165172101Y-93402161D01*
X165172101Y-93402161D02*
X165124961Y-93402161D01*
X165124961Y-93402161D02*
X165054250Y-93378590D01*
X165054250Y-93378590D02*
X164865688Y-93190029D01*
X165549225Y-93449301D02*
X165596365Y-93449301D01*
X165596365Y-93449301D02*
X165667076Y-93472871D01*
X165667076Y-93472871D02*
X165784927Y-93590722D01*
X165784927Y-93590722D02*
X165808497Y-93661433D01*
X165808497Y-93661433D02*
X165808497Y-93708574D01*
X165808497Y-93708574D02*
X165784927Y-93779284D01*
X165784927Y-93779284D02*
X165737787Y-93826425D01*
X165737787Y-93826425D02*
X165643506Y-93873565D01*
X165643506Y-93873565D02*
X165077820Y-93873565D01*
X165077820Y-93873565D02*
X165384233Y-94179978D01*
X166044200Y-93849995D02*
X166374183Y-94179978D01*
X166374183Y-94179978D02*
X165667076Y-94462821D01*
X202839666Y-69677593D02*
X202839666Y-70177593D01*
X202839666Y-70177593D02*
X202806333Y-70277593D01*
X202806333Y-70277593D02*
X202739666Y-70344260D01*
X202739666Y-70344260D02*
X202639666Y-70377593D01*
X202639666Y-70377593D02*
X202573000Y-70377593D01*
X203106333Y-69677593D02*
X203539666Y-69677593D01*
X203539666Y-69677593D02*
X203306333Y-69944260D01*
X203306333Y-69944260D02*
X203406333Y-69944260D01*
X203406333Y-69944260D02*
X203472999Y-69977593D01*
X203472999Y-69977593D02*
X203506333Y-70010926D01*
X203506333Y-70010926D02*
X203539666Y-70077593D01*
X203539666Y-70077593D02*
X203539666Y-70244260D01*
X203539666Y-70244260D02*
X203506333Y-70310926D01*
X203506333Y-70310926D02*
X203472999Y-70344260D01*
X203472999Y-70344260D02*
X203406333Y-70377593D01*
X203406333Y-70377593D02*
X203206333Y-70377593D01*
X203206333Y-70377593D02*
X203139666Y-70344260D01*
X203139666Y-70344260D02*
X203106333Y-70310926D01*
X164938229Y-96705774D02*
X165008939Y-96305080D01*
X164655386Y-96422931D02*
X165150361Y-95927956D01*
X165150361Y-95927956D02*
X165338923Y-96116518D01*
X165338923Y-96116518D02*
X165362493Y-96187229D01*
X165362493Y-96187229D02*
X165362493Y-96234369D01*
X165362493Y-96234369D02*
X165338923Y-96305080D01*
X165338923Y-96305080D02*
X165268212Y-96375790D01*
X165268212Y-96375790D02*
X165197501Y-96399361D01*
X165197501Y-96399361D02*
X165150361Y-96399361D01*
X165150361Y-96399361D02*
X165079650Y-96375790D01*
X165079650Y-96375790D02*
X164891088Y-96187229D01*
X165574625Y-96446501D02*
X165621765Y-96446501D01*
X165621765Y-96446501D02*
X165692476Y-96470071D01*
X165692476Y-96470071D02*
X165810327Y-96587922D01*
X165810327Y-96587922D02*
X165833897Y-96658633D01*
X165833897Y-96658633D02*
X165833897Y-96705774D01*
X165833897Y-96705774D02*
X165810327Y-96776484D01*
X165810327Y-96776484D02*
X165763187Y-96823625D01*
X165763187Y-96823625D02*
X165668906Y-96870765D01*
X165668906Y-96870765D02*
X165103220Y-96870765D01*
X165103220Y-96870765D02*
X165409633Y-97177178D01*
X166328872Y-97106468D02*
X166234591Y-97012187D01*
X166234591Y-97012187D02*
X166163881Y-96988617D01*
X166163881Y-96988617D02*
X166116740Y-96988617D01*
X166116740Y-96988617D02*
X165998889Y-97012187D01*
X165998889Y-97012187D02*
X165881038Y-97082897D01*
X165881038Y-97082897D02*
X165692476Y-97271459D01*
X165692476Y-97271459D02*
X165668906Y-97342170D01*
X165668906Y-97342170D02*
X165668906Y-97389310D01*
X165668906Y-97389310D02*
X165692476Y-97460021D01*
X165692476Y-97460021D02*
X165786757Y-97554302D01*
X165786757Y-97554302D02*
X165857468Y-97577872D01*
X165857468Y-97577872D02*
X165904608Y-97577872D01*
X165904608Y-97577872D02*
X165975319Y-97554302D01*
X165975319Y-97554302D02*
X166093170Y-97436451D01*
X166093170Y-97436451D02*
X166116740Y-97365740D01*
X166116740Y-97365740D02*
X166116740Y-97318600D01*
X166116740Y-97318600D02*
X166093170Y-97247889D01*
X166093170Y-97247889D02*
X165998889Y-97153608D01*
X165998889Y-97153608D02*
X165928179Y-97130038D01*
X165928179Y-97130038D02*
X165881038Y-97130038D01*
X165881038Y-97130038D02*
X165810327Y-97153608D01*
X187591793Y-83609600D02*
X187258460Y-83842933D01*
X187591793Y-84009600D02*
X186891793Y-84009600D01*
X186891793Y-84009600D02*
X186891793Y-83742933D01*
X186891793Y-83742933D02*
X186925126Y-83676267D01*
X186925126Y-83676267D02*
X186958460Y-83642933D01*
X186958460Y-83642933D02*
X187025126Y-83609600D01*
X187025126Y-83609600D02*
X187125126Y-83609600D01*
X187125126Y-83609600D02*
X187191793Y-83642933D01*
X187191793Y-83642933D02*
X187225126Y-83676267D01*
X187225126Y-83676267D02*
X187258460Y-83742933D01*
X187258460Y-83742933D02*
X187258460Y-84009600D01*
X187591793Y-82942933D02*
X187591793Y-83342933D01*
X187591793Y-83142933D02*
X186891793Y-83142933D01*
X186891793Y-83142933D02*
X186991793Y-83209600D01*
X186991793Y-83209600D02*
X187058460Y-83276267D01*
X187058460Y-83276267D02*
X187091793Y-83342933D01*
X187125126Y-82342933D02*
X187591793Y-82342933D01*
X186858460Y-82509600D02*
X187358460Y-82676266D01*
X187358460Y-82676266D02*
X187358460Y-82242933D01*
X165065229Y-105900574D02*
X165135939Y-105499880D01*
X164782386Y-105617731D02*
X165277361Y-105122756D01*
X165277361Y-105122756D02*
X165465923Y-105311318D01*
X165465923Y-105311318D02*
X165489493Y-105382029D01*
X165489493Y-105382029D02*
X165489493Y-105429169D01*
X165489493Y-105429169D02*
X165465923Y-105499880D01*
X165465923Y-105499880D02*
X165395212Y-105570590D01*
X165395212Y-105570590D02*
X165324501Y-105594161D01*
X165324501Y-105594161D02*
X165277361Y-105594161D01*
X165277361Y-105594161D02*
X165206650Y-105570590D01*
X165206650Y-105570590D02*
X165018088Y-105382029D01*
X165701625Y-105641301D02*
X165748765Y-105641301D01*
X165748765Y-105641301D02*
X165819476Y-105664871D01*
X165819476Y-105664871D02*
X165937327Y-105782722D01*
X165937327Y-105782722D02*
X165960897Y-105853433D01*
X165960897Y-105853433D02*
X165960897Y-105900574D01*
X165960897Y-105900574D02*
X165937327Y-105971284D01*
X165937327Y-105971284D02*
X165890187Y-106018425D01*
X165890187Y-106018425D02*
X165795906Y-106065565D01*
X165795906Y-106065565D02*
X165230220Y-106065565D01*
X165230220Y-106065565D02*
X165536633Y-106371978D01*
X166196600Y-106041995D02*
X166503013Y-106348408D01*
X166503013Y-106348408D02*
X166149459Y-106371978D01*
X166149459Y-106371978D02*
X166220170Y-106442689D01*
X166220170Y-106442689D02*
X166243740Y-106513400D01*
X166243740Y-106513400D02*
X166243740Y-106560540D01*
X166243740Y-106560540D02*
X166220170Y-106631251D01*
X166220170Y-106631251D02*
X166102319Y-106749102D01*
X166102319Y-106749102D02*
X166031608Y-106772672D01*
X166031608Y-106772672D02*
X165984468Y-106772672D01*
X165984468Y-106772672D02*
X165913757Y-106749102D01*
X165913757Y-106749102D02*
X165772336Y-106607681D01*
X165772336Y-106607681D02*
X165748766Y-106536970D01*
X165748766Y-106536970D02*
X165748766Y-106489829D01*
X183445999Y-92137593D02*
X183212666Y-91804260D01*
X183045999Y-92137593D02*
X183045999Y-91437593D01*
X183045999Y-91437593D02*
X183312666Y-91437593D01*
X183312666Y-91437593D02*
X183379333Y-91470926D01*
X183379333Y-91470926D02*
X183412666Y-91504260D01*
X183412666Y-91504260D02*
X183445999Y-91570926D01*
X183445999Y-91570926D02*
X183445999Y-91670926D01*
X183445999Y-91670926D02*
X183412666Y-91737593D01*
X183412666Y-91737593D02*
X183379333Y-91770926D01*
X183379333Y-91770926D02*
X183312666Y-91804260D01*
X183312666Y-91804260D02*
X183045999Y-91804260D01*
X184112666Y-92137593D02*
X183712666Y-92137593D01*
X183912666Y-92137593D02*
X183912666Y-91437593D01*
X183912666Y-91437593D02*
X183845999Y-91537593D01*
X183845999Y-91537593D02*
X183779333Y-91604260D01*
X183779333Y-91604260D02*
X183712666Y-91637593D01*
X184712666Y-91437593D02*
X184579333Y-91437593D01*
X184579333Y-91437593D02*
X184512666Y-91470926D01*
X184512666Y-91470926D02*
X184479333Y-91504260D01*
X184479333Y-91504260D02*
X184412666Y-91604260D01*
X184412666Y-91604260D02*
X184379333Y-91737593D01*
X184379333Y-91737593D02*
X184379333Y-92004260D01*
X184379333Y-92004260D02*
X184412666Y-92070926D01*
X184412666Y-92070926D02*
X184446000Y-92104260D01*
X184446000Y-92104260D02*
X184512666Y-92137593D01*
X184512666Y-92137593D02*
X184646000Y-92137593D01*
X184646000Y-92137593D02*
X184712666Y-92104260D01*
X184712666Y-92104260D02*
X184746000Y-92070926D01*
X184746000Y-92070926D02*
X184779333Y-92004260D01*
X184779333Y-92004260D02*
X184779333Y-91837593D01*
X184779333Y-91837593D02*
X184746000Y-91770926D01*
X184746000Y-91770926D02*
X184712666Y-91737593D01*
X184712666Y-91737593D02*
X184646000Y-91704260D01*
X184646000Y-91704260D02*
X184512666Y-91704260D01*
X184512666Y-91704260D02*
X184446000Y-91737593D01*
X184446000Y-91737593D02*
X184412666Y-91770926D01*
X184412666Y-91770926D02*
X184379333Y-91837593D01*
X197329526Y-76799266D02*
X197362860Y-76832599D01*
X197362860Y-76832599D02*
X197396193Y-76932599D01*
X197396193Y-76932599D02*
X197396193Y-76999266D01*
X197396193Y-76999266D02*
X197362860Y-77099266D01*
X197362860Y-77099266D02*
X197296193Y-77165933D01*
X197296193Y-77165933D02*
X197229526Y-77199266D01*
X197229526Y-77199266D02*
X197096193Y-77232599D01*
X197096193Y-77232599D02*
X196996193Y-77232599D01*
X196996193Y-77232599D02*
X196862860Y-77199266D01*
X196862860Y-77199266D02*
X196796193Y-77165933D01*
X196796193Y-77165933D02*
X196729526Y-77099266D01*
X196729526Y-77099266D02*
X196696193Y-76999266D01*
X196696193Y-76999266D02*
X196696193Y-76932599D01*
X196696193Y-76932599D02*
X196729526Y-76832599D01*
X196729526Y-76832599D02*
X196762860Y-76799266D01*
X197396193Y-76132599D02*
X197396193Y-76532599D01*
X197396193Y-76332599D02*
X196696193Y-76332599D01*
X196696193Y-76332599D02*
X196796193Y-76399266D01*
X196796193Y-76399266D02*
X196862860Y-76465933D01*
X196862860Y-76465933D02*
X196896193Y-76532599D01*
X197584332Y-81015675D02*
X197655042Y-80614982D01*
X197301489Y-80732833D02*
X197796464Y-80237858D01*
X197796464Y-80237858D02*
X197985025Y-80426420D01*
X197985025Y-80426420D02*
X198008596Y-80497130D01*
X198008596Y-80497130D02*
X198008596Y-80544271D01*
X198008596Y-80544271D02*
X197985025Y-80614982D01*
X197985025Y-80614982D02*
X197914315Y-80685692D01*
X197914315Y-80685692D02*
X197843604Y-80709262D01*
X197843604Y-80709262D02*
X197796464Y-80709262D01*
X197796464Y-80709262D02*
X197725753Y-80685692D01*
X197725753Y-80685692D02*
X197537191Y-80497130D01*
X197820034Y-81251378D02*
X197914315Y-81345659D01*
X197914315Y-81345659D02*
X197985025Y-81369229D01*
X197985025Y-81369229D02*
X198032166Y-81369229D01*
X198032166Y-81369229D02*
X198150017Y-81345659D01*
X198150017Y-81345659D02*
X198267868Y-81274948D01*
X198267868Y-81274948D02*
X198456430Y-81086386D01*
X198456430Y-81086386D02*
X198480000Y-81015675D01*
X198480000Y-81015675D02*
X198480000Y-80968535D01*
X198480000Y-80968535D02*
X198456430Y-80897824D01*
X198456430Y-80897824D02*
X198362149Y-80803543D01*
X198362149Y-80803543D02*
X198291438Y-80779973D01*
X198291438Y-80779973D02*
X198244298Y-80779973D01*
X198244298Y-80779973D02*
X198173587Y-80803543D01*
X198173587Y-80803543D02*
X198055736Y-80921394D01*
X198055736Y-80921394D02*
X198032166Y-80992105D01*
X198032166Y-80992105D02*
X198032166Y-81039246D01*
X198032166Y-81039246D02*
X198055736Y-81109956D01*
X198055736Y-81109956D02*
X198150017Y-81204237D01*
X198150017Y-81204237D02*
X198220728Y-81227807D01*
X198220728Y-81227807D02*
X198267868Y-81227807D01*
X198267868Y-81227807D02*
X198338579Y-81204237D01*
X165065229Y-90762175D02*
X165135939Y-90361481D01*
X164782386Y-90479332D02*
X165277361Y-89984357D01*
X165277361Y-89984357D02*
X165465923Y-90172919D01*
X165465923Y-90172919D02*
X165489493Y-90243630D01*
X165489493Y-90243630D02*
X165489493Y-90290770D01*
X165489493Y-90290770D02*
X165465923Y-90361481D01*
X165465923Y-90361481D02*
X165395212Y-90432191D01*
X165395212Y-90432191D02*
X165324501Y-90455762D01*
X165324501Y-90455762D02*
X165277361Y-90455762D01*
X165277361Y-90455762D02*
X165206650Y-90432191D01*
X165206650Y-90432191D02*
X165018088Y-90243630D01*
X165701625Y-90502902D02*
X165748765Y-90502902D01*
X165748765Y-90502902D02*
X165819476Y-90526472D01*
X165819476Y-90526472D02*
X165937327Y-90644323D01*
X165937327Y-90644323D02*
X165960897Y-90715034D01*
X165960897Y-90715034D02*
X165960897Y-90762175D01*
X165960897Y-90762175D02*
X165937327Y-90832885D01*
X165937327Y-90832885D02*
X165890187Y-90880026D01*
X165890187Y-90880026D02*
X165795906Y-90927166D01*
X165795906Y-90927166D02*
X165230220Y-90927166D01*
X165230220Y-90927166D02*
X165536633Y-91233579D01*
X166102319Y-91233579D02*
X166078749Y-91162869D01*
X166078749Y-91162869D02*
X166078749Y-91115728D01*
X166078749Y-91115728D02*
X166102319Y-91045018D01*
X166102319Y-91045018D02*
X166125889Y-91021447D01*
X166125889Y-91021447D02*
X166196600Y-90997877D01*
X166196600Y-90997877D02*
X166243740Y-90997877D01*
X166243740Y-90997877D02*
X166314451Y-91021447D01*
X166314451Y-91021447D02*
X166408732Y-91115728D01*
X166408732Y-91115728D02*
X166432302Y-91186439D01*
X166432302Y-91186439D02*
X166432302Y-91233579D01*
X166432302Y-91233579D02*
X166408732Y-91304290D01*
X166408732Y-91304290D02*
X166385162Y-91327860D01*
X166385162Y-91327860D02*
X166314451Y-91351430D01*
X166314451Y-91351430D02*
X166267311Y-91351430D01*
X166267311Y-91351430D02*
X166196600Y-91327860D01*
X166196600Y-91327860D02*
X166102319Y-91233579D01*
X166102319Y-91233579D02*
X166031608Y-91210009D01*
X166031608Y-91210009D02*
X165984468Y-91210009D01*
X165984468Y-91210009D02*
X165913757Y-91233579D01*
X165913757Y-91233579D02*
X165819476Y-91327860D01*
X165819476Y-91327860D02*
X165795906Y-91398571D01*
X165795906Y-91398571D02*
X165795906Y-91445711D01*
X165795906Y-91445711D02*
X165819476Y-91516422D01*
X165819476Y-91516422D02*
X165913757Y-91610703D01*
X165913757Y-91610703D02*
X165984468Y-91634273D01*
X165984468Y-91634273D02*
X166031608Y-91634273D01*
X166031608Y-91634273D02*
X166102319Y-91610703D01*
X166102319Y-91610703D02*
X166196600Y-91516422D01*
X166196600Y-91516422D02*
X166220170Y-91445711D01*
X166220170Y-91445711D02*
X166220170Y-91398571D01*
X166220170Y-91398571D02*
X166196600Y-91327860D01*
X165116029Y-84894774D02*
X165186739Y-84494080D01*
X164833186Y-84611931D02*
X165328161Y-84116956D01*
X165328161Y-84116956D02*
X165516723Y-84305518D01*
X165516723Y-84305518D02*
X165540293Y-84376229D01*
X165540293Y-84376229D02*
X165540293Y-84423369D01*
X165540293Y-84423369D02*
X165516723Y-84494080D01*
X165516723Y-84494080D02*
X165446012Y-84564790D01*
X165446012Y-84564790D02*
X165375301Y-84588361D01*
X165375301Y-84588361D02*
X165328161Y-84588361D01*
X165328161Y-84588361D02*
X165257450Y-84564790D01*
X165257450Y-84564790D02*
X165068888Y-84376229D01*
X165775995Y-84564790D02*
X166082408Y-84871203D01*
X166082408Y-84871203D02*
X165728855Y-84894774D01*
X165728855Y-84894774D02*
X165799565Y-84965484D01*
X165799565Y-84965484D02*
X165823136Y-85036195D01*
X165823136Y-85036195D02*
X165823136Y-85083335D01*
X165823136Y-85083335D02*
X165799565Y-85154046D01*
X165799565Y-85154046D02*
X165681714Y-85271897D01*
X165681714Y-85271897D02*
X165611004Y-85295467D01*
X165611004Y-85295467D02*
X165563863Y-85295467D01*
X165563863Y-85295467D02*
X165493152Y-85271897D01*
X165493152Y-85271897D02*
X165351731Y-85130476D01*
X165351731Y-85130476D02*
X165328161Y-85059765D01*
X165328161Y-85059765D02*
X165328161Y-85012625D01*
X166388821Y-85177617D02*
X166435962Y-85224757D01*
X166435962Y-85224757D02*
X166459532Y-85295468D01*
X166459532Y-85295468D02*
X166459532Y-85342608D01*
X166459532Y-85342608D02*
X166435962Y-85413319D01*
X166435962Y-85413319D02*
X166365251Y-85531170D01*
X166365251Y-85531170D02*
X166247400Y-85649021D01*
X166247400Y-85649021D02*
X166129549Y-85719732D01*
X166129549Y-85719732D02*
X166058838Y-85743302D01*
X166058838Y-85743302D02*
X166011698Y-85743302D01*
X166011698Y-85743302D02*
X165940987Y-85719732D01*
X165940987Y-85719732D02*
X165893847Y-85672591D01*
X165893847Y-85672591D02*
X165870276Y-85601881D01*
X165870276Y-85601881D02*
X165870276Y-85554740D01*
X165870276Y-85554740D02*
X165893847Y-85484029D01*
X165893847Y-85484029D02*
X165964557Y-85366178D01*
X165964557Y-85366178D02*
X166082408Y-85248327D01*
X166082408Y-85248327D02*
X166200259Y-85177617D01*
X166200259Y-85177617D02*
X166270970Y-85154046D01*
X166270970Y-85154046D02*
X166318111Y-85154046D01*
X166318111Y-85154046D02*
X166388821Y-85177617D01*
X171572266Y-69365993D02*
X171572266Y-69865993D01*
X171572266Y-69865993D02*
X171538933Y-69965993D01*
X171538933Y-69965993D02*
X171472266Y-70032660D01*
X171472266Y-70032660D02*
X171372266Y-70065993D01*
X171372266Y-70065993D02*
X171305600Y-70065993D01*
X171872266Y-69432660D02*
X171905599Y-69399326D01*
X171905599Y-69399326D02*
X171972266Y-69365993D01*
X171972266Y-69365993D02*
X172138933Y-69365993D01*
X172138933Y-69365993D02*
X172205599Y-69399326D01*
X172205599Y-69399326D02*
X172238933Y-69432660D01*
X172238933Y-69432660D02*
X172272266Y-69499326D01*
X172272266Y-69499326D02*
X172272266Y-69565993D01*
X172272266Y-69565993D02*
X172238933Y-69665993D01*
X172238933Y-69665993D02*
X171838933Y-70065993D01*
X171838933Y-70065993D02*
X172272266Y-70065993D01*
X165014429Y-102877975D02*
X165085139Y-102477281D01*
X164731586Y-102595132D02*
X165226561Y-102100157D01*
X165226561Y-102100157D02*
X165415123Y-102288719D01*
X165415123Y-102288719D02*
X165438693Y-102359430D01*
X165438693Y-102359430D02*
X165438693Y-102406570D01*
X165438693Y-102406570D02*
X165415123Y-102477281D01*
X165415123Y-102477281D02*
X165344412Y-102547991D01*
X165344412Y-102547991D02*
X165273701Y-102571562D01*
X165273701Y-102571562D02*
X165226561Y-102571562D01*
X165226561Y-102571562D02*
X165155850Y-102547991D01*
X165155850Y-102547991D02*
X164967288Y-102359430D01*
X165650825Y-102618702D02*
X165697965Y-102618702D01*
X165697965Y-102618702D02*
X165768676Y-102642272D01*
X165768676Y-102642272D02*
X165886527Y-102760123D01*
X165886527Y-102760123D02*
X165910097Y-102830834D01*
X165910097Y-102830834D02*
X165910097Y-102877975D01*
X165910097Y-102877975D02*
X165886527Y-102948685D01*
X165886527Y-102948685D02*
X165839387Y-102995826D01*
X165839387Y-102995826D02*
X165745106Y-103042966D01*
X165745106Y-103042966D02*
X165179420Y-103042966D01*
X165179420Y-103042966D02*
X165485833Y-103349379D01*
X166240081Y-103443660D02*
X165910098Y-103773643D01*
X166310791Y-103137247D02*
X165839387Y-103372950D01*
X165839387Y-103372950D02*
X166145800Y-103679363D01*
X165039829Y-99880774D02*
X165110539Y-99480080D01*
X164756986Y-99597931D02*
X165251961Y-99102956D01*
X165251961Y-99102956D02*
X165440523Y-99291518D01*
X165440523Y-99291518D02*
X165464093Y-99362229D01*
X165464093Y-99362229D02*
X165464093Y-99409369D01*
X165464093Y-99409369D02*
X165440523Y-99480080D01*
X165440523Y-99480080D02*
X165369812Y-99550790D01*
X165369812Y-99550790D02*
X165299101Y-99574361D01*
X165299101Y-99574361D02*
X165251961Y-99574361D01*
X165251961Y-99574361D02*
X165181250Y-99550790D01*
X165181250Y-99550790D02*
X164992688Y-99362229D01*
X165676225Y-99621501D02*
X165723365Y-99621501D01*
X165723365Y-99621501D02*
X165794076Y-99645071D01*
X165794076Y-99645071D02*
X165911927Y-99762922D01*
X165911927Y-99762922D02*
X165935497Y-99833633D01*
X165935497Y-99833633D02*
X165935497Y-99880774D01*
X165935497Y-99880774D02*
X165911927Y-99951484D01*
X165911927Y-99951484D02*
X165864787Y-99998625D01*
X165864787Y-99998625D02*
X165770506Y-100045765D01*
X165770506Y-100045765D02*
X165204820Y-100045765D01*
X165204820Y-100045765D02*
X165511233Y-100352178D01*
X166454043Y-100305038D02*
X166218340Y-100069336D01*
X166218340Y-100069336D02*
X165959068Y-100281468D01*
X165959068Y-100281468D02*
X166006208Y-100281468D01*
X166006208Y-100281468D02*
X166076919Y-100305038D01*
X166076919Y-100305038D02*
X166194770Y-100422889D01*
X166194770Y-100422889D02*
X166218340Y-100493600D01*
X166218340Y-100493600D02*
X166218340Y-100540740D01*
X166218340Y-100540740D02*
X166194770Y-100611451D01*
X166194770Y-100611451D02*
X166076919Y-100729302D01*
X166076919Y-100729302D02*
X166006208Y-100752872D01*
X166006208Y-100752872D02*
X165959068Y-100752872D01*
X165959068Y-100752872D02*
X165888357Y-100729302D01*
X165888357Y-100729302D02*
X165770506Y-100611451D01*
X165770506Y-100611451D02*
X165746936Y-100540740D01*
X165746936Y-100540740D02*
X165746936Y-100493600D01*
X168758126Y-72278066D02*
X168791460Y-72311399D01*
X168791460Y-72311399D02*
X168824793Y-72411399D01*
X168824793Y-72411399D02*
X168824793Y-72478066D01*
X168824793Y-72478066D02*
X168791460Y-72578066D01*
X168791460Y-72578066D02*
X168724793Y-72644733D01*
X168724793Y-72644733D02*
X168658126Y-72678066D01*
X168658126Y-72678066D02*
X168524793Y-72711399D01*
X168524793Y-72711399D02*
X168424793Y-72711399D01*
X168424793Y-72711399D02*
X168291460Y-72678066D01*
X168291460Y-72678066D02*
X168224793Y-72644733D01*
X168224793Y-72644733D02*
X168158126Y-72578066D01*
X168158126Y-72578066D02*
X168124793Y-72478066D01*
X168124793Y-72478066D02*
X168124793Y-72411399D01*
X168124793Y-72411399D02*
X168158126Y-72311399D01*
X168158126Y-72311399D02*
X168191460Y-72278066D01*
X168124793Y-72044733D02*
X168124793Y-71611399D01*
X168124793Y-71611399D02*
X168391460Y-71844733D01*
X168391460Y-71844733D02*
X168391460Y-71744733D01*
X168391460Y-71744733D02*
X168424793Y-71678066D01*
X168424793Y-71678066D02*
X168458126Y-71644733D01*
X168458126Y-71644733D02*
X168524793Y-71611399D01*
X168524793Y-71611399D02*
X168691460Y-71611399D01*
X168691460Y-71611399D02*
X168758126Y-71644733D01*
X168758126Y-71644733D02*
X168791460Y-71678066D01*
X168791460Y-71678066D02*
X168824793Y-71744733D01*
X168824793Y-71744733D02*
X168824793Y-71944733D01*
X168824793Y-71944733D02*
X168791460Y-72011399D01*
X168791460Y-72011399D02*
X168758126Y-72044733D01*
X197508132Y-86603676D02*
X197578842Y-86202983D01*
X197225289Y-86320834D02*
X197720264Y-85825859D01*
X197720264Y-85825859D02*
X197908825Y-86014421D01*
X197908825Y-86014421D02*
X197932396Y-86085131D01*
X197932396Y-86085131D02*
X197932396Y-86132272D01*
X197932396Y-86132272D02*
X197908825Y-86202983D01*
X197908825Y-86202983D02*
X197838115Y-86273693D01*
X197838115Y-86273693D02*
X197767404Y-86297263D01*
X197767404Y-86297263D02*
X197720264Y-86297263D01*
X197720264Y-86297263D02*
X197649553Y-86273693D01*
X197649553Y-86273693D02*
X197460991Y-86085131D01*
X198168098Y-86273693D02*
X198498081Y-86603676D01*
X198498081Y-86603676D02*
X197790974Y-86886519D01*
X165065229Y-108897774D02*
X165135939Y-108497080D01*
X164782386Y-108614931D02*
X165277361Y-108119956D01*
X165277361Y-108119956D02*
X165465923Y-108308518D01*
X165465923Y-108308518D02*
X165489493Y-108379229D01*
X165489493Y-108379229D02*
X165489493Y-108426369D01*
X165489493Y-108426369D02*
X165465923Y-108497080D01*
X165465923Y-108497080D02*
X165395212Y-108567790D01*
X165395212Y-108567790D02*
X165324501Y-108591361D01*
X165324501Y-108591361D02*
X165277361Y-108591361D01*
X165277361Y-108591361D02*
X165206650Y-108567790D01*
X165206650Y-108567790D02*
X165018088Y-108379229D01*
X165701625Y-108638501D02*
X165748765Y-108638501D01*
X165748765Y-108638501D02*
X165819476Y-108662071D01*
X165819476Y-108662071D02*
X165937327Y-108779922D01*
X165937327Y-108779922D02*
X165960897Y-108850633D01*
X165960897Y-108850633D02*
X165960897Y-108897774D01*
X165960897Y-108897774D02*
X165937327Y-108968484D01*
X165937327Y-108968484D02*
X165890187Y-109015625D01*
X165890187Y-109015625D02*
X165795906Y-109062765D01*
X165795906Y-109062765D02*
X165230220Y-109062765D01*
X165230220Y-109062765D02*
X165536633Y-109369178D01*
X166173030Y-109109906D02*
X166220170Y-109109906D01*
X166220170Y-109109906D02*
X166290881Y-109133476D01*
X166290881Y-109133476D02*
X166408732Y-109251327D01*
X166408732Y-109251327D02*
X166432302Y-109322038D01*
X166432302Y-109322038D02*
X166432302Y-109369178D01*
X166432302Y-109369178D02*
X166408732Y-109439889D01*
X166408732Y-109439889D02*
X166361591Y-109487029D01*
X166361591Y-109487029D02*
X166267311Y-109534170D01*
X166267311Y-109534170D02*
X165701625Y-109534170D01*
X165701625Y-109534170D02*
X166008038Y-109840583D01*
X198739933Y-115963793D02*
X198506600Y-115630460D01*
X198339933Y-115963793D02*
X198339933Y-115263793D01*
X198339933Y-115263793D02*
X198606600Y-115263793D01*
X198606600Y-115263793D02*
X198673267Y-115297126D01*
X198673267Y-115297126D02*
X198706600Y-115330460D01*
X198706600Y-115330460D02*
X198739933Y-115397126D01*
X198739933Y-115397126D02*
X198739933Y-115497126D01*
X198739933Y-115497126D02*
X198706600Y-115563793D01*
X198706600Y-115563793D02*
X198673267Y-115597126D01*
X198673267Y-115597126D02*
X198606600Y-115630460D01*
X198606600Y-115630460D02*
X198339933Y-115630460D01*
X199173267Y-115263793D02*
X199239933Y-115263793D01*
X199239933Y-115263793D02*
X199306600Y-115297126D01*
X199306600Y-115297126D02*
X199339933Y-115330460D01*
X199339933Y-115330460D02*
X199373267Y-115397126D01*
X199373267Y-115397126D02*
X199406600Y-115530460D01*
X199406600Y-115530460D02*
X199406600Y-115697126D01*
X199406600Y-115697126D02*
X199373267Y-115830460D01*
X199373267Y-115830460D02*
X199339933Y-115897126D01*
X199339933Y-115897126D02*
X199306600Y-115930460D01*
X199306600Y-115930460D02*
X199239933Y-115963793D01*
X199239933Y-115963793D02*
X199173267Y-115963793D01*
X199173267Y-115963793D02*
X199106600Y-115930460D01*
X199106600Y-115930460D02*
X199073267Y-115897126D01*
X199073267Y-115897126D02*
X199039933Y-115830460D01*
X199039933Y-115830460D02*
X199006600Y-115697126D01*
X199006600Y-115697126D02*
X199006600Y-115530460D01*
X199006600Y-115530460D02*
X199039933Y-115397126D01*
X199039933Y-115397126D02*
X199073267Y-115330460D01*
X199073267Y-115330460D02*
X199106600Y-115297126D01*
X199106600Y-115297126D02*
X199173267Y-115263793D01*
X185635993Y-83685800D02*
X185302660Y-83919133D01*
X185635993Y-84085800D02*
X184935993Y-84085800D01*
X184935993Y-84085800D02*
X184935993Y-83819133D01*
X184935993Y-83819133D02*
X184969326Y-83752467D01*
X184969326Y-83752467D02*
X185002660Y-83719133D01*
X185002660Y-83719133D02*
X185069326Y-83685800D01*
X185069326Y-83685800D02*
X185169326Y-83685800D01*
X185169326Y-83685800D02*
X185235993Y-83719133D01*
X185235993Y-83719133D02*
X185269326Y-83752467D01*
X185269326Y-83752467D02*
X185302660Y-83819133D01*
X185302660Y-83819133D02*
X185302660Y-84085800D01*
X185635993Y-83019133D02*
X185635993Y-83419133D01*
X185635993Y-83219133D02*
X184935993Y-83219133D01*
X184935993Y-83219133D02*
X185035993Y-83285800D01*
X185035993Y-83285800D02*
X185102660Y-83352467D01*
X185102660Y-83352467D02*
X185135993Y-83419133D01*
X184935993Y-82385800D02*
X184935993Y-82719133D01*
X184935993Y-82719133D02*
X185269326Y-82752466D01*
X185269326Y-82752466D02*
X185235993Y-82719133D01*
X185235993Y-82719133D02*
X185202660Y-82652466D01*
X185202660Y-82652466D02*
X185202660Y-82485800D01*
X185202660Y-82485800D02*
X185235993Y-82419133D01*
X185235993Y-82419133D02*
X185269326Y-82385800D01*
X185269326Y-82385800D02*
X185335993Y-82352466D01*
X185335993Y-82352466D02*
X185502660Y-82352466D01*
X185502660Y-82352466D02*
X185569326Y-82385800D01*
X185569326Y-82385800D02*
X185602660Y-82419133D01*
X185602660Y-82419133D02*
X185635993Y-82485800D01*
X185635993Y-82485800D02*
X185635993Y-82652466D01*
X185635993Y-82652466D02*
X185602660Y-82719133D01*
X185602660Y-82719133D02*
X185569326Y-82752466D01*
X165790503Y-115573100D02*
X165861213Y-115172406D01*
X165507660Y-115290257D02*
X166002635Y-114795282D01*
X166002635Y-114795282D02*
X166191197Y-114983844D01*
X166191197Y-114983844D02*
X166214767Y-115054555D01*
X166214767Y-115054555D02*
X166214767Y-115101695D01*
X166214767Y-115101695D02*
X166191197Y-115172406D01*
X166191197Y-115172406D02*
X166120486Y-115243116D01*
X166120486Y-115243116D02*
X166049775Y-115266687D01*
X166049775Y-115266687D02*
X166002635Y-115266687D01*
X166002635Y-115266687D02*
X165931924Y-115243116D01*
X165931924Y-115243116D02*
X165743362Y-115054555D01*
X166426899Y-115313827D02*
X166474039Y-115313827D01*
X166474039Y-115313827D02*
X166544750Y-115337397D01*
X166544750Y-115337397D02*
X166662601Y-115455248D01*
X166662601Y-115455248D02*
X166686171Y-115525959D01*
X166686171Y-115525959D02*
X166686171Y-115573100D01*
X166686171Y-115573100D02*
X166662601Y-115643810D01*
X166662601Y-115643810D02*
X166615461Y-115690951D01*
X166615461Y-115690951D02*
X166521180Y-115738091D01*
X166521180Y-115738091D02*
X165955494Y-115738091D01*
X165955494Y-115738091D02*
X166261907Y-116044504D01*
X167063295Y-115855943D02*
X167110436Y-115903083D01*
X167110436Y-115903083D02*
X167134006Y-115973794D01*
X167134006Y-115973794D02*
X167134006Y-116020934D01*
X167134006Y-116020934D02*
X167110436Y-116091645D01*
X167110436Y-116091645D02*
X167039725Y-116209496D01*
X167039725Y-116209496D02*
X166921874Y-116327347D01*
X166921874Y-116327347D02*
X166804023Y-116398058D01*
X166804023Y-116398058D02*
X166733312Y-116421628D01*
X166733312Y-116421628D02*
X166686172Y-116421628D01*
X166686172Y-116421628D02*
X166615461Y-116398058D01*
X166615461Y-116398058D02*
X166568321Y-116350917D01*
X166568321Y-116350917D02*
X166544750Y-116280207D01*
X166544750Y-116280207D02*
X166544750Y-116233066D01*
X166544750Y-116233066D02*
X166568321Y-116162355D01*
X166568321Y-116162355D02*
X166639031Y-116044504D01*
X166639031Y-116044504D02*
X166756882Y-115926653D01*
X166756882Y-115926653D02*
X166874733Y-115855943D01*
X166874733Y-115855943D02*
X166945444Y-115832372D01*
X166945444Y-115832372D02*
X166992585Y-115832372D01*
X166992585Y-115832372D02*
X167063295Y-115855943D01*
X177080933Y-89990793D02*
X177080933Y-90490793D01*
X177080933Y-90490793D02*
X177047600Y-90590793D01*
X177047600Y-90590793D02*
X176980933Y-90657460D01*
X176980933Y-90657460D02*
X176880933Y-90690793D01*
X176880933Y-90690793D02*
X176814267Y-90690793D01*
X177347600Y-89990793D02*
X177780933Y-89990793D01*
X177780933Y-89990793D02*
X177547600Y-90257460D01*
X177547600Y-90257460D02*
X177647600Y-90257460D01*
X177647600Y-90257460D02*
X177714266Y-90290793D01*
X177714266Y-90290793D02*
X177747600Y-90324126D01*
X177747600Y-90324126D02*
X177780933Y-90390793D01*
X177780933Y-90390793D02*
X177780933Y-90557460D01*
X177780933Y-90557460D02*
X177747600Y-90624126D01*
X177747600Y-90624126D02*
X177714266Y-90657460D01*
X177714266Y-90657460D02*
X177647600Y-90690793D01*
X177647600Y-90690793D02*
X177447600Y-90690793D01*
X177447600Y-90690793D02*
X177380933Y-90657460D01*
X177380933Y-90657460D02*
X177347600Y-90624126D01*
X178047600Y-90057460D02*
X178080933Y-90024126D01*
X178080933Y-90024126D02*
X178147600Y-89990793D01*
X178147600Y-89990793D02*
X178314267Y-89990793D01*
X178314267Y-89990793D02*
X178380933Y-90024126D01*
X178380933Y-90024126D02*
X178414267Y-90057460D01*
X178414267Y-90057460D02*
X178447600Y-90124126D01*
X178447600Y-90124126D02*
X178447600Y-90190793D01*
X178447600Y-90190793D02*
X178414267Y-90290793D01*
X178414267Y-90290793D02*
X178014267Y-90690793D01*
X178014267Y-90690793D02*
X178447600Y-90690793D01*
X197431932Y-89296076D02*
X197502642Y-88895383D01*
X197149089Y-89013234D02*
X197644064Y-88518259D01*
X197644064Y-88518259D02*
X197832625Y-88706821D01*
X197832625Y-88706821D02*
X197856196Y-88777531D01*
X197856196Y-88777531D02*
X197856196Y-88824672D01*
X197856196Y-88824672D02*
X197832625Y-88895383D01*
X197832625Y-88895383D02*
X197761915Y-88966093D01*
X197761915Y-88966093D02*
X197691204Y-88989663D01*
X197691204Y-88989663D02*
X197644064Y-88989663D01*
X197644064Y-88989663D02*
X197573353Y-88966093D01*
X197573353Y-88966093D02*
X197384791Y-88777531D01*
X198351170Y-89225366D02*
X198256889Y-89131085D01*
X198256889Y-89131085D02*
X198186179Y-89107515D01*
X198186179Y-89107515D02*
X198139038Y-89107515D01*
X198139038Y-89107515D02*
X198021187Y-89131085D01*
X198021187Y-89131085D02*
X197903336Y-89201795D01*
X197903336Y-89201795D02*
X197714774Y-89390357D01*
X197714774Y-89390357D02*
X197691204Y-89461068D01*
X197691204Y-89461068D02*
X197691204Y-89508208D01*
X197691204Y-89508208D02*
X197714774Y-89578919D01*
X197714774Y-89578919D02*
X197809055Y-89673200D01*
X197809055Y-89673200D02*
X197879766Y-89696770D01*
X197879766Y-89696770D02*
X197926906Y-89696770D01*
X197926906Y-89696770D02*
X197997617Y-89673200D01*
X197997617Y-89673200D02*
X198115468Y-89555349D01*
X198115468Y-89555349D02*
X198139038Y-89484638D01*
X198139038Y-89484638D02*
X198139038Y-89437498D01*
X198139038Y-89437498D02*
X198115468Y-89366787D01*
X198115468Y-89366787D02*
X198021187Y-89272506D01*
X198021187Y-89272506D02*
X197950477Y-89248936D01*
X197950477Y-89248936D02*
X197903336Y-89248936D01*
X197903336Y-89248936D02*
X197832625Y-89272506D01*
X187636999Y-107607193D02*
X187403666Y-107273860D01*
X187236999Y-107607193D02*
X187236999Y-106907193D01*
X187236999Y-106907193D02*
X187503666Y-106907193D01*
X187503666Y-106907193D02*
X187570333Y-106940526D01*
X187570333Y-106940526D02*
X187603666Y-106973860D01*
X187603666Y-106973860D02*
X187636999Y-107040526D01*
X187636999Y-107040526D02*
X187636999Y-107140526D01*
X187636999Y-107140526D02*
X187603666Y-107207193D01*
X187603666Y-107207193D02*
X187570333Y-107240526D01*
X187570333Y-107240526D02*
X187503666Y-107273860D01*
X187503666Y-107273860D02*
X187236999Y-107273860D01*
X188303666Y-107607193D02*
X187903666Y-107607193D01*
X188103666Y-107607193D02*
X188103666Y-106907193D01*
X188103666Y-106907193D02*
X188036999Y-107007193D01*
X188036999Y-107007193D02*
X187970333Y-107073860D01*
X187970333Y-107073860D02*
X187903666Y-107107193D01*
X188537000Y-106907193D02*
X189003666Y-106907193D01*
X189003666Y-106907193D02*
X188703666Y-107607193D01*
X197533532Y-94731675D02*
X197604242Y-94330982D01*
X197250689Y-94448833D02*
X197745664Y-93953858D01*
X197745664Y-93953858D02*
X197934225Y-94142420D01*
X197934225Y-94142420D02*
X197957796Y-94213130D01*
X197957796Y-94213130D02*
X197957796Y-94260271D01*
X197957796Y-94260271D02*
X197934225Y-94330982D01*
X197934225Y-94330982D02*
X197863515Y-94401692D01*
X197863515Y-94401692D02*
X197792804Y-94425262D01*
X197792804Y-94425262D02*
X197745664Y-94425262D01*
X197745664Y-94425262D02*
X197674953Y-94401692D01*
X197674953Y-94401692D02*
X197486391Y-94213130D01*
X198476341Y-94684535D02*
X198240638Y-94448833D01*
X198240638Y-94448833D02*
X197981366Y-94660965D01*
X197981366Y-94660965D02*
X198028506Y-94660965D01*
X198028506Y-94660965D02*
X198099217Y-94684535D01*
X198099217Y-94684535D02*
X198217068Y-94802386D01*
X198217068Y-94802386D02*
X198240638Y-94873097D01*
X198240638Y-94873097D02*
X198240638Y-94920237D01*
X198240638Y-94920237D02*
X198217068Y-94990948D01*
X198217068Y-94990948D02*
X198099217Y-95108799D01*
X198099217Y-95108799D02*
X198028506Y-95132369D01*
X198028506Y-95132369D02*
X197981366Y-95132369D01*
X197981366Y-95132369D02*
X197910655Y-95108799D01*
X197910655Y-95108799D02*
X197792804Y-94990948D01*
X197792804Y-94990948D02*
X197769234Y-94920237D01*
X197769234Y-94920237D02*
X197769234Y-94873097D01*
X181712126Y-119191866D02*
X181745460Y-119225199D01*
X181745460Y-119225199D02*
X181778793Y-119325199D01*
X181778793Y-119325199D02*
X181778793Y-119391866D01*
X181778793Y-119391866D02*
X181745460Y-119491866D01*
X181745460Y-119491866D02*
X181678793Y-119558533D01*
X181678793Y-119558533D02*
X181612126Y-119591866D01*
X181612126Y-119591866D02*
X181478793Y-119625199D01*
X181478793Y-119625199D02*
X181378793Y-119625199D01*
X181378793Y-119625199D02*
X181245460Y-119591866D01*
X181245460Y-119591866D02*
X181178793Y-119558533D01*
X181178793Y-119558533D02*
X181112126Y-119491866D01*
X181112126Y-119491866D02*
X181078793Y-119391866D01*
X181078793Y-119391866D02*
X181078793Y-119325199D01*
X181078793Y-119325199D02*
X181112126Y-119225199D01*
X181112126Y-119225199D02*
X181145460Y-119191866D01*
X181078793Y-118558533D02*
X181078793Y-118891866D01*
X181078793Y-118891866D02*
X181412126Y-118925199D01*
X181412126Y-118925199D02*
X181378793Y-118891866D01*
X181378793Y-118891866D02*
X181345460Y-118825199D01*
X181345460Y-118825199D02*
X181345460Y-118658533D01*
X181345460Y-118658533D02*
X181378793Y-118591866D01*
X181378793Y-118591866D02*
X181412126Y-118558533D01*
X181412126Y-118558533D02*
X181478793Y-118525199D01*
X181478793Y-118525199D02*
X181645460Y-118525199D01*
X181645460Y-118525199D02*
X181712126Y-118558533D01*
X181712126Y-118558533D02*
X181745460Y-118591866D01*
X181745460Y-118591866D02*
X181778793Y-118658533D01*
X181778793Y-118658533D02*
X181778793Y-118825199D01*
X181778793Y-118825199D02*
X181745460Y-118891866D01*
X181745460Y-118891866D02*
X181712126Y-118925199D01*
X165039829Y-81846774D02*
X165110539Y-81446080D01*
X164756986Y-81563931D02*
X165251961Y-81068956D01*
X165251961Y-81068956D02*
X165440523Y-81257518D01*
X165440523Y-81257518D02*
X165464093Y-81328229D01*
X165464093Y-81328229D02*
X165464093Y-81375369D01*
X165464093Y-81375369D02*
X165440523Y-81446080D01*
X165440523Y-81446080D02*
X165369812Y-81516790D01*
X165369812Y-81516790D02*
X165299101Y-81540361D01*
X165299101Y-81540361D02*
X165251961Y-81540361D01*
X165251961Y-81540361D02*
X165181250Y-81516790D01*
X165181250Y-81516790D02*
X164992688Y-81328229D01*
X165699795Y-81516790D02*
X166006208Y-81823203D01*
X166006208Y-81823203D02*
X165652655Y-81846774D01*
X165652655Y-81846774D02*
X165723365Y-81917484D01*
X165723365Y-81917484D02*
X165746936Y-81988195D01*
X165746936Y-81988195D02*
X165746936Y-82035335D01*
X165746936Y-82035335D02*
X165723365Y-82106046D01*
X165723365Y-82106046D02*
X165605514Y-82223897D01*
X165605514Y-82223897D02*
X165534804Y-82247467D01*
X165534804Y-82247467D02*
X165487663Y-82247467D01*
X165487663Y-82247467D02*
X165416952Y-82223897D01*
X165416952Y-82223897D02*
X165275531Y-82082476D01*
X165275531Y-82082476D02*
X165251961Y-82011765D01*
X165251961Y-82011765D02*
X165251961Y-81964625D01*
X165982638Y-82789583D02*
X165699795Y-82506740D01*
X165841217Y-82648162D02*
X166336191Y-82153187D01*
X166336191Y-82153187D02*
X166218340Y-82176757D01*
X166218340Y-82176757D02*
X166124059Y-82176757D01*
X166124059Y-82176757D02*
X166053349Y-82153187D01*
X191889666Y-69442193D02*
X191889666Y-69942193D01*
X191889666Y-69942193D02*
X191856333Y-70042193D01*
X191856333Y-70042193D02*
X191789666Y-70108860D01*
X191789666Y-70108860D02*
X191689666Y-70142193D01*
X191689666Y-70142193D02*
X191623000Y-70142193D01*
X192589666Y-70142193D02*
X192189666Y-70142193D01*
X192389666Y-70142193D02*
X192389666Y-69442193D01*
X192389666Y-69442193D02*
X192322999Y-69542193D01*
X192322999Y-69542193D02*
X192256333Y-69608860D01*
X192256333Y-69608860D02*
X192189666Y-69642193D01*
X187194926Y-73395666D02*
X187228260Y-73428999D01*
X187228260Y-73428999D02*
X187261593Y-73528999D01*
X187261593Y-73528999D02*
X187261593Y-73595666D01*
X187261593Y-73595666D02*
X187228260Y-73695666D01*
X187228260Y-73695666D02*
X187161593Y-73762333D01*
X187161593Y-73762333D02*
X187094926Y-73795666D01*
X187094926Y-73795666D02*
X186961593Y-73828999D01*
X186961593Y-73828999D02*
X186861593Y-73828999D01*
X186861593Y-73828999D02*
X186728260Y-73795666D01*
X186728260Y-73795666D02*
X186661593Y-73762333D01*
X186661593Y-73762333D02*
X186594926Y-73695666D01*
X186594926Y-73695666D02*
X186561593Y-73595666D01*
X186561593Y-73595666D02*
X186561593Y-73528999D01*
X186561593Y-73528999D02*
X186594926Y-73428999D01*
X186594926Y-73428999D02*
X186628260Y-73395666D01*
X186794926Y-72795666D02*
X187261593Y-72795666D01*
X186528260Y-72962333D02*
X187028260Y-73128999D01*
X187028260Y-73128999D02*
X187028260Y-72695666D01*
X197038133Y-111697593D02*
X196804800Y-111364260D01*
X196638133Y-111697593D02*
X196638133Y-110997593D01*
X196638133Y-110997593D02*
X196904800Y-110997593D01*
X196904800Y-110997593D02*
X196971467Y-111030926D01*
X196971467Y-111030926D02*
X197004800Y-111064260D01*
X197004800Y-111064260D02*
X197038133Y-111130926D01*
X197038133Y-111130926D02*
X197038133Y-111230926D01*
X197038133Y-111230926D02*
X197004800Y-111297593D01*
X197004800Y-111297593D02*
X196971467Y-111330926D01*
X196971467Y-111330926D02*
X196904800Y-111364260D01*
X196904800Y-111364260D02*
X196638133Y-111364260D01*
X197704800Y-111697593D02*
X197304800Y-111697593D01*
X197504800Y-111697593D02*
X197504800Y-110997593D01*
X197504800Y-110997593D02*
X197438133Y-111097593D01*
X197438133Y-111097593D02*
X197371467Y-111164260D01*
X197371467Y-111164260D02*
X197304800Y-111197593D01*
%TO.C,R2*%
X195280718Y-106988365D02*
X195601835Y-107309482D01*
X196320165Y-105948918D02*
X196641282Y-106270035D01*
%TO.C,R4*%
X195255318Y-99723965D02*
X195576435Y-100045082D01*
X196294765Y-98684518D02*
X196615882Y-99005635D01*
%TO.C,C2*%
X185320000Y-109811452D02*
X185320000Y-109288948D01*
X186790000Y-109811452D02*
X186790000Y-109288948D01*
%TO.C,R21*%
X167140835Y-112180282D02*
X166819718Y-111859165D01*
X168180282Y-111140835D02*
X167859165Y-110819718D01*
%TO.C,R29*%
X167140835Y-88180282D02*
X166819718Y-87859165D01*
X168180282Y-87140835D02*
X167859165Y-86819718D01*
%TO.C,R8*%
X195229918Y-84255365D02*
X195551035Y-84576482D01*
X196269365Y-83215918D02*
X196590482Y-83537035D01*
%TO.C,R3*%
X195255318Y-103965765D02*
X195576435Y-104286882D01*
X196294765Y-102926318D02*
X196615882Y-103247435D01*
%TO.C,R27*%
X167140835Y-94180282D02*
X166819718Y-93859165D01*
X168180282Y-93140835D02*
X167859165Y-92819718D01*
%TO.C,J3*%
X200473000Y-71060000D02*
X201803000Y-71060000D01*
X200473000Y-72390000D02*
X200473000Y-71060000D01*
X200473000Y-73660000D02*
X200473000Y-121980000D01*
X200473000Y-73660000D02*
X203073000Y-73660000D01*
X200473000Y-121980000D02*
X205673000Y-121980000D01*
X203073000Y-71060000D02*
X205673000Y-71060000D01*
X203073000Y-73660000D02*
X203073000Y-71060000D01*
X205673000Y-71060000D02*
X205673000Y-121980000D01*
%TO.C,R26*%
X167140835Y-97180282D02*
X166819718Y-96859165D01*
X168180282Y-96140835D02*
X167859165Y-95819718D01*
%TO.C,R14*%
X187733000Y-86460064D02*
X187733000Y-86005936D01*
X189203000Y-86460064D02*
X189203000Y-86005936D01*
%TO.C,R23*%
X167140835Y-106180282D02*
X166819718Y-105859165D01*
X168180282Y-105140835D02*
X167859165Y-104819718D01*
%TO.C,R16*%
X184123064Y-89435000D02*
X183668936Y-89435000D01*
X184123064Y-90905000D02*
X183668936Y-90905000D01*
%TO.C,C1*%
X197994600Y-75633948D02*
X197994600Y-76156452D01*
X199464600Y-75633948D02*
X199464600Y-76156452D01*
%TO.C,R9*%
X195229918Y-81461365D02*
X195551035Y-81782482D01*
X196269365Y-80421918D02*
X196590482Y-80743035D01*
%TO.C,R28*%
X167140835Y-91180282D02*
X166819718Y-90859165D01*
X168180282Y-90140835D02*
X167859165Y-89819718D01*
%TO.C,R30*%
X167140835Y-85180282D02*
X166819718Y-84859165D01*
X168180282Y-84140835D02*
X167859165Y-83819718D01*
%TO.C,J2*%
X170473000Y-73660000D02*
X170473000Y-121980000D01*
X170473000Y-73660000D02*
X173133000Y-73660000D01*
X170473000Y-121980000D02*
X173133000Y-121980000D01*
X171803000Y-71060000D02*
X173133000Y-71060000D01*
X173133000Y-71060000D02*
X173133000Y-72390000D01*
X173133000Y-73660000D02*
X173133000Y-121980000D01*
%TO.C,R24*%
X167140835Y-103180282D02*
X166819718Y-102859165D01*
X168180282Y-102140835D02*
X167859165Y-101819718D01*
%TO.C,R25*%
X167140835Y-100180282D02*
X166819718Y-99859165D01*
X168180282Y-99140835D02*
X167859165Y-98819718D01*
%TO.C,C3*%
X166092200Y-71900148D02*
X166092200Y-72422652D01*
X167562200Y-71900148D02*
X167562200Y-72422652D01*
%TO.C,R7*%
X195229918Y-87049365D02*
X195551035Y-87370482D01*
X196269365Y-86009918D02*
X196590482Y-86331035D01*
%TO.C,R22*%
X167140835Y-109180282D02*
X166819718Y-108859165D01*
X168180282Y-108140835D02*
X167859165Y-107819718D01*
%TO.C,R0*%
X195835536Y-114835000D02*
X196289664Y-114835000D01*
X195835536Y-116305000D02*
X196289664Y-116305000D01*
%TO.C,R15*%
X185396200Y-86460064D02*
X185396200Y-86005936D01*
X186866200Y-86460064D02*
X186866200Y-86005936D01*
%TO.C,R20*%
X167140835Y-115180282D02*
X166819718Y-114859165D01*
X168180282Y-114140835D02*
X167859165Y-113819718D01*
%TO.C,J32*%
X176393800Y-86554000D02*
X177723800Y-86554000D01*
X176393800Y-87884000D02*
X176393800Y-86554000D01*
X176393800Y-89154000D02*
X176393800Y-89214000D01*
X176393800Y-89154000D02*
X179053800Y-89154000D01*
X176393800Y-89214000D02*
X179053800Y-89214000D01*
X179053800Y-89154000D02*
X179053800Y-89214000D01*
%TO.C,R6*%
X195229918Y-89843365D02*
X195551035Y-90164482D01*
X196269365Y-88803918D02*
X196590482Y-89125035D01*
%TO.C,R17*%
X187364864Y-104675000D02*
X186910736Y-104675000D01*
X187364864Y-106145000D02*
X186910736Y-106145000D01*
%TO.C,R5*%
X195229918Y-95228165D02*
X195551035Y-95549282D01*
X196269365Y-94188718D02*
X196590482Y-94509835D01*
%TO.C,C5*%
X179046200Y-118813948D02*
X179046200Y-119336452D01*
X180516200Y-118813948D02*
X180516200Y-119336452D01*
%TO.C,R31*%
X167140835Y-82180282D02*
X166819718Y-81859165D01*
X168180282Y-81140835D02*
X167859165Y-80819718D01*
%TO.C,J1*%
X190793000Y-73660000D02*
X190793000Y-121980000D01*
X190793000Y-73660000D02*
X193453000Y-73660000D01*
X190793000Y-121980000D02*
X193453000Y-121980000D01*
X192123000Y-71060000D02*
X193453000Y-71060000D01*
X193453000Y-71060000D02*
X193453000Y-72390000D01*
X193453000Y-73660000D02*
X193453000Y-121980000D01*
%TO.C,C4*%
X187809200Y-71874748D02*
X187809200Y-72397252D01*
X189279200Y-71874748D02*
X189279200Y-72397252D01*
%TO.C,J4*%
X158470000Y-71060000D02*
X159800000Y-71060000D01*
X158470000Y-72390000D02*
X158470000Y-71060000D01*
X158470000Y-73660000D02*
X158470000Y-121980000D01*
X158470000Y-73660000D02*
X161070000Y-73660000D01*
X158470000Y-121980000D02*
X163670000Y-121980000D01*
X161070000Y-71060000D02*
X163670000Y-71060000D01*
X161070000Y-73660000D02*
X161070000Y-71060000D01*
X163670000Y-71060000D02*
X163670000Y-121980000D01*
%TO.C,R1*%
X195835536Y-112295000D02*
X196289664Y-112295000D01*
X195835536Y-113765000D02*
X196289664Y-113765000D01*
%TD*%
D11*
X157480000Y-122936000D02*
X157480000Y-68580000D01*
X206756000Y-122936000D02*
X206756000Y-68580000D01*
X157480000Y-122936000D02*
X206756000Y-122936000D01*
X206756000Y-68580000D02*
X157480000Y-68580000D01*
M02*
