%TF.GenerationSoftware,KiCad,Pcbnew,8.0.2*%
%TF.CreationDate,2025-02-26T15:06:30+00:00*%
%TF.ProjectId,misrc,6d697372-632e-46b6-9963-61645f706362,0.3*%
%TF.SameCoordinates,Original*%
%TF.FileFunction,Paste,Bot*%
%TF.FilePolarity,Positive*%
%FSLAX46Y46*%
G04 Gerber Fmt 4.6, Leading zero omitted, Abs format (unit mm)*
G04 Created by KiCad (PCBNEW 8.0.2) date 2025-02-26 15:06:30*
%MOMM*%
%LPD*%
G01*
G04 APERTURE LIST*
G04 Aperture macros list*
%AMRoundRect*
0 Rectangle with rounded corners*
0 $1 Rounding radius*
0 $2 $3 $4 $5 $6 $7 $8 $9 X,Y pos of 4 corners*
0 Add a 4 corners polygon primitive as box body*
4,1,4,$2,$3,$4,$5,$6,$7,$8,$9,$2,$3,0*
0 Add four circle primitives for the rounded corners*
1,1,$1+$1,$2,$3*
1,1,$1+$1,$4,$5*
1,1,$1+$1,$6,$7*
1,1,$1+$1,$8,$9*
0 Add four rect primitives between the rounded corners*
20,1,$1+$1,$2,$3,$4,$5,0*
20,1,$1+$1,$4,$5,$6,$7,0*
20,1,$1+$1,$6,$7,$8,$9,0*
20,1,$1+$1,$8,$9,$2,$3,0*%
G04 Aperture macros list end*
%ADD10RoundRect,0.250000X-0.250000X-0.475000X0.250000X-0.475000X0.250000X0.475000X-0.250000X0.475000X0*%
%ADD11RoundRect,0.250001X-0.924999X0.499999X-0.924999X-0.499999X0.924999X-0.499999X0.924999X0.499999X0*%
%ADD12RoundRect,0.250000X-0.475000X0.250000X-0.475000X-0.250000X0.475000X-0.250000X0.475000X0.250000X0*%
%ADD13RoundRect,0.250000X0.475000X-0.250000X0.475000X0.250000X-0.475000X0.250000X-0.475000X-0.250000X0*%
%ADD14R,2.000000X2.000000*%
%ADD15RoundRect,0.150000X0.150000X-0.512500X0.150000X0.512500X-0.150000X0.512500X-0.150000X-0.512500X0*%
%ADD16RoundRect,0.250000X-0.450000X0.262500X-0.450000X-0.262500X0.450000X-0.262500X0.450000X0.262500X0*%
%ADD17RoundRect,0.250000X-0.262500X-0.450000X0.262500X-0.450000X0.262500X0.450000X-0.262500X0.450000X0*%
%ADD18RoundRect,0.250000X0.262500X0.450000X-0.262500X0.450000X-0.262500X-0.450000X0.262500X-0.450000X0*%
%ADD19R,1.500000X2.000000*%
%ADD20R,3.800000X2.000000*%
%ADD21RoundRect,0.230000X0.375000X-0.230000X0.375000X0.230000X-0.375000X0.230000X-0.375000X-0.230000X0*%
%ADD22RoundRect,0.150000X0.150000X-0.825000X0.150000X0.825000X-0.150000X0.825000X-0.150000X-0.825000X0*%
%ADD23RoundRect,0.250001X0.924999X-0.499999X0.924999X0.499999X-0.924999X0.499999X-0.924999X-0.499999X0*%
%ADD24RoundRect,0.250000X0.250000X0.475000X-0.250000X0.475000X-0.250000X-0.475000X0.250000X-0.475000X0*%
%ADD25RoundRect,0.250000X0.450000X-0.262500X0.450000X0.262500X-0.450000X0.262500X-0.450000X-0.262500X0*%
%ADD26RoundRect,0.250001X-0.499999X-0.924999X0.499999X-0.924999X0.499999X0.924999X-0.499999X0.924999X0*%
%ADD27RoundRect,0.150000X0.512500X0.150000X-0.512500X0.150000X-0.512500X-0.150000X0.512500X-0.150000X0*%
%ADD28RoundRect,0.150000X0.150000X-0.725000X0.150000X0.725000X-0.150000X0.725000X-0.150000X-0.725000X0*%
G04 APERTURE END LIST*
D10*
%TO.C,C122*%
X100015000Y-117856000D03*
X101915000Y-117856000D03*
%TD*%
D11*
%TO.C,C102*%
X110363000Y-116358000D03*
X110363000Y-119608000D03*
%TD*%
D12*
%TO.C,C226*%
X132207000Y-81600000D03*
X132207000Y-83500000D03*
%TD*%
D13*
%TO.C,C221*%
X118097000Y-83119000D03*
X118097000Y-81219000D03*
%TD*%
D12*
%TO.C,C20*%
X169418000Y-96586000D03*
X169418000Y-98486000D03*
%TD*%
%TO.C,C8*%
X175831500Y-74361000D03*
X175831500Y-76261000D03*
%TD*%
D14*
%TO.C,X1*%
X149330000Y-96240000D03*
X149330000Y-91240000D03*
X153530000Y-91240000D03*
X153530000Y-96240000D03*
%TD*%
D15*
%TO.C,Q202*%
X93279000Y-76194500D03*
X91379000Y-76194500D03*
X92329000Y-73919500D03*
%TD*%
D16*
%TO.C,R204*%
X112141000Y-84154000D03*
X112141000Y-85979000D03*
%TD*%
D13*
%TO.C,C22*%
X108839000Y-109789000D03*
X108839000Y-107889000D03*
%TD*%
D12*
%TO.C,C21*%
X180467000Y-96586000D03*
X180467000Y-98486000D03*
%TD*%
D17*
%TO.C,R5*%
X182983500Y-96393000D03*
X184808500Y-96393000D03*
%TD*%
D18*
%TO.C,R126*%
X126769500Y-110871000D03*
X124944500Y-110871000D03*
%TD*%
D12*
%TO.C,C114*%
X120396000Y-112080000D03*
X120396000Y-113980000D03*
%TD*%
D10*
%TO.C,C216*%
X126291000Y-80645000D03*
X128191000Y-80645000D03*
%TD*%
D18*
%TO.C,R226*%
X126756500Y-76454000D03*
X124931500Y-76454000D03*
%TD*%
D12*
%TO.C,C213*%
X118097000Y-77663000D03*
X118097000Y-79563000D03*
%TD*%
%TO.C,C7*%
X195961000Y-76647000D03*
X195961000Y-78547000D03*
%TD*%
D19*
%TO.C,Q2*%
X185053000Y-94082000D03*
X182753000Y-94082000D03*
D20*
X182753000Y-87782000D03*
D19*
X180453000Y-94082000D03*
%TD*%
D10*
%TO.C,C15*%
X184978000Y-98425000D03*
X186878000Y-98425000D03*
%TD*%
D13*
%TO.C,C112*%
X118110000Y-121092000D03*
X118110000Y-119192000D03*
%TD*%
%TO.C,C31*%
X146810000Y-94250000D03*
X146810000Y-92350000D03*
%TD*%
D15*
%TO.C,Q102*%
X93279000Y-110490000D03*
X91379000Y-110490000D03*
X92329000Y-108215000D03*
%TD*%
D12*
%TO.C,C223*%
X105537000Y-84775000D03*
X105537000Y-86675000D03*
%TD*%
%TO.C,C214*%
X120383000Y-77663000D03*
X120383000Y-79563000D03*
%TD*%
D21*
%TO.C,U7*%
X109093000Y-103883000D03*
X110593000Y-103883000D03*
X109093000Y-102743000D03*
X110593000Y-102743000D03*
D22*
X111748000Y-105788000D03*
X110478000Y-105788000D03*
X109208000Y-105788000D03*
X107938000Y-105788000D03*
X107938000Y-100838000D03*
X109208000Y-100838000D03*
X110478000Y-100838000D03*
X111748000Y-100838000D03*
%TD*%
D23*
%TO.C,C217*%
X115049000Y-83286000D03*
X115049000Y-80036000D03*
%TD*%
D10*
%TO.C,C14*%
X173802000Y-98552000D03*
X175702000Y-98552000D03*
%TD*%
D16*
%TO.C,R125*%
X123063000Y-109831500D03*
X123063000Y-111656500D03*
%TD*%
D10*
%TO.C,C115*%
X126304000Y-113030000D03*
X128204000Y-113030000D03*
%TD*%
D13*
%TO.C,C111*%
X120396000Y-121092000D03*
X120396000Y-119192000D03*
%TD*%
D18*
%TO.C,R224*%
X126756500Y-74422000D03*
X124931500Y-74422000D03*
%TD*%
D24*
%TO.C,C29*%
X73975000Y-91313000D03*
X72075000Y-91313000D03*
%TD*%
D13*
%TO.C,C204*%
X106172000Y-82103000D03*
X106172000Y-80203000D03*
%TD*%
D19*
%TO.C,Q1*%
X174004000Y-94082000D03*
X171704000Y-94082000D03*
D20*
X171704000Y-87782000D03*
D19*
X169404000Y-94082000D03*
%TD*%
D10*
%TO.C,C116*%
X126304000Y-115062000D03*
X128204000Y-115062000D03*
%TD*%
D13*
%TO.C,C211*%
X120383000Y-86675000D03*
X120383000Y-84775000D03*
%TD*%
D12*
%TO.C,C113*%
X118110000Y-112080000D03*
X118110000Y-113980000D03*
%TD*%
D16*
%TO.C,R225*%
X123050000Y-75414500D03*
X123050000Y-77239500D03*
%TD*%
D18*
%TO.C,R124*%
X126769500Y-108839000D03*
X124944500Y-108839000D03*
%TD*%
D10*
%TO.C,C12*%
X172659000Y-84963000D03*
X174559000Y-84963000D03*
%TD*%
D12*
%TO.C,C126*%
X132207000Y-116144000D03*
X132207000Y-118044000D03*
%TD*%
D25*
%TO.C,R104*%
X111760000Y-114450500D03*
X111760000Y-112625500D03*
%TD*%
D13*
%TO.C,C220*%
X120383000Y-83119000D03*
X120383000Y-81219000D03*
%TD*%
D12*
%TO.C,C23*%
X110490000Y-96713000D03*
X110490000Y-98613000D03*
%TD*%
D23*
%TO.C,C117*%
X115062000Y-117703000D03*
X115062000Y-114453000D03*
%TD*%
D26*
%TO.C,C110*%
X124867000Y-117856000D03*
X128117000Y-117856000D03*
%TD*%
D27*
%TO.C,U6*%
X182430000Y-75250000D03*
X182430000Y-76200000D03*
X182430000Y-77150000D03*
X180155000Y-77150000D03*
X180155000Y-75250000D03*
%TD*%
D12*
%TO.C,C27*%
X181483000Y-69850000D03*
X181483000Y-71750000D03*
%TD*%
D17*
%TO.C,R4*%
X171934500Y-96393000D03*
X173759500Y-96393000D03*
%TD*%
D23*
%TO.C,C202*%
X110871000Y-81990000D03*
X110871000Y-78740000D03*
%TD*%
D27*
%TO.C,Q101*%
X93974500Y-112334000D03*
X93974500Y-114234000D03*
X91699500Y-113284000D03*
%TD*%
D28*
%TO.C,U1*%
X147574000Y-104175000D03*
X146304000Y-104175000D03*
X145034000Y-104175000D03*
X143764000Y-104175000D03*
X142494000Y-104175000D03*
X141224000Y-104175000D03*
X139954000Y-104175000D03*
X138684000Y-104175000D03*
X138684000Y-99025000D03*
X139954000Y-99025000D03*
X141224000Y-99025000D03*
X142494000Y-99025000D03*
X143764000Y-99025000D03*
X145034000Y-99025000D03*
X146304000Y-99025000D03*
X147574000Y-99025000D03*
%TD*%
D13*
%TO.C,C104*%
X105410000Y-116647000D03*
X105410000Y-114747000D03*
%TD*%
D25*
%TO.C,R1*%
X136652000Y-104163500D03*
X136652000Y-102338500D03*
%TD*%
%TO.C,R205*%
X109982000Y-86002500D03*
X109982000Y-84177500D03*
%TD*%
D12*
%TO.C,C28*%
X183642000Y-69850000D03*
X183642000Y-71750000D03*
%TD*%
D27*
%TO.C,Q201*%
X93980000Y-77978000D03*
X93980000Y-79878000D03*
X91705000Y-78928000D03*
%TD*%
D13*
%TO.C,C212*%
X118097000Y-86675000D03*
X118097000Y-84775000D03*
%TD*%
D12*
%TO.C,C5*%
X149606000Y-98491000D03*
X149606000Y-100391000D03*
%TD*%
D13*
%TO.C,C120*%
X120396000Y-117536000D03*
X120396000Y-115636000D03*
%TD*%
%TO.C,C203*%
X108204000Y-82103000D03*
X108204000Y-80203000D03*
%TD*%
D10*
%TO.C,C13*%
X183581000Y-84836000D03*
X185481000Y-84836000D03*
%TD*%
D13*
%TO.C,C103*%
X107442000Y-116647000D03*
X107442000Y-114747000D03*
%TD*%
D10*
%TO.C,C215*%
X126291000Y-78613000D03*
X128191000Y-78613000D03*
%TD*%
D12*
%TO.C,C123*%
X105664000Y-121732000D03*
X105664000Y-123632000D03*
%TD*%
D10*
%TO.C,C222*%
X100142000Y-83439000D03*
X102042000Y-83439000D03*
%TD*%
D13*
%TO.C,C121*%
X118110000Y-117536000D03*
X118110000Y-115636000D03*
%TD*%
D26*
%TO.C,C210*%
X124854000Y-83439000D03*
X128104000Y-83439000D03*
%TD*%
D13*
%TO.C,C25*%
X116078000Y-105725000D03*
X116078000Y-103825000D03*
%TD*%
D10*
%TO.C,C30*%
X81727000Y-124841000D03*
X83627000Y-124841000D03*
%TD*%
D16*
%TO.C,R105*%
X109601000Y-112625500D03*
X109601000Y-114450500D03*
%TD*%
D12*
%TO.C,C9*%
X177990500Y-74361000D03*
X177990500Y-76261000D03*
%TD*%
D13*
%TO.C,C26*%
X113792000Y-105725000D03*
X113792000Y-103825000D03*
%TD*%
%TO.C,C24*%
X108331000Y-98613000D03*
X108331000Y-96713000D03*
%TD*%
M02*
