%TF.GenerationSoftware,KiCad,Pcbnew,8.0.2*%
%TF.CreationDate,2024-10-09T13:35:06+01:00*%
%TF.ProjectId,MISRC V1.5,4d495352-4320-4563-912e-352e6b696361,0.3*%
%TF.SameCoordinates,Original*%
%TF.FileFunction,Paste,Top*%
%TF.FilePolarity,Positive*%
%FSLAX46Y46*%
G04 Gerber Fmt 4.6, Leading zero omitted, Abs format (unit mm)*
G04 Created by KiCad (PCBNEW 8.0.2) date 2024-10-09 13:35:06*
%MOMM*%
%LPD*%
G01*
G04 APERTURE LIST*
G04 Aperture macros list*
%AMRoundRect*
0 Rectangle with rounded corners*
0 $1 Rounding radius*
0 $2 $3 $4 $5 $6 $7 $8 $9 X,Y pos of 4 corners*
0 Add a 4 corners polygon primitive as box body*
4,1,4,$2,$3,$4,$5,$6,$7,$8,$9,$2,$3,0*
0 Add four circle primitives for the rounded corners*
1,1,$1+$1,$2,$3*
1,1,$1+$1,$4,$5*
1,1,$1+$1,$6,$7*
1,1,$1+$1,$8,$9*
0 Add four rect primitives between the rounded corners*
20,1,$1+$1,$2,$3,$4,$5,0*
20,1,$1+$1,$4,$5,$6,$7,0*
20,1,$1+$1,$6,$7,$8,$9,0*
20,1,$1+$1,$8,$9,$2,$3,0*%
G04 Aperture macros list end*
%ADD10R,2.440000X1.120000*%
%ADD11RoundRect,0.250000X-0.475000X0.250000X-0.475000X-0.250000X0.475000X-0.250000X0.475000X0.250000X0*%
%ADD12RoundRect,0.250000X-0.262500X-0.450000X0.262500X-0.450000X0.262500X0.450000X-0.262500X0.450000X0*%
%ADD13RoundRect,0.250000X-0.325000X-0.450000X0.325000X-0.450000X0.325000X0.450000X-0.325000X0.450000X0*%
%ADD14RoundRect,0.250000X1.100000X-0.325000X1.100000X0.325000X-1.100000X0.325000X-1.100000X-0.325000X0*%
%ADD15RoundRect,0.250000X-0.450000X0.262500X-0.450000X-0.262500X0.450000X-0.262500X0.450000X0.262500X0*%
%ADD16RoundRect,0.250000X0.450000X-0.262500X0.450000X0.262500X-0.450000X0.262500X-0.450000X-0.262500X0*%
%ADD17RoundRect,0.250000X0.262500X0.450000X-0.262500X0.450000X-0.262500X-0.450000X0.262500X-0.450000X0*%
%ADD18RoundRect,0.100000X-0.637500X-0.100000X0.637500X-0.100000X0.637500X0.100000X-0.637500X0.100000X0*%
%ADD19RoundRect,0.250000X-0.250000X-0.475000X0.250000X-0.475000X0.250000X0.475000X-0.250000X0.475000X0*%
%ADD20RoundRect,0.150000X-0.875000X-0.150000X0.875000X-0.150000X0.875000X0.150000X-0.875000X0.150000X0*%
%ADD21R,3.200000X2.000000*%
%ADD22R,1.120000X2.440000*%
%ADD23RoundRect,0.250000X0.475000X-0.250000X0.475000X0.250000X-0.475000X0.250000X-0.475000X-0.250000X0*%
%ADD24R,2.750000X1.000000*%
%ADD25RoundRect,0.250000X-0.650000X0.325000X-0.650000X-0.325000X0.650000X-0.325000X0.650000X0.325000X0*%
%ADD26RoundRect,0.150000X0.150000X-0.725000X0.150000X0.725000X-0.150000X0.725000X-0.150000X-0.725000X0*%
G04 APERTURE END LIST*
D10*
%TO.C,SW204*%
X105664000Y-93599000D03*
X105664000Y-96139000D03*
X105664000Y-98679000D03*
X114274000Y-98679000D03*
X114274000Y-96139000D03*
X114274000Y-93599000D03*
%TD*%
D11*
%TO.C,C119*%
X117348000Y-119700000D03*
X117348000Y-121600000D03*
%TD*%
D12*
%TO.C,R120*%
X107291500Y-119888000D03*
X109116500Y-119888000D03*
%TD*%
D11*
%TO.C,C108*%
X111252000Y-115890000D03*
X111252000Y-117790000D03*
%TD*%
D12*
%TO.C,R211*%
X100928500Y-69850000D03*
X102753500Y-69850000D03*
%TD*%
%TO.C,R213*%
X100928500Y-74930000D03*
X102753500Y-74930000D03*
%TD*%
%TO.C,R101*%
X77827500Y-106680000D03*
X79652500Y-106680000D03*
%TD*%
D10*
%TO.C,SW103*%
X105677000Y-104267000D03*
X105677000Y-106807000D03*
X105677000Y-109347000D03*
X114287000Y-109347000D03*
X114287000Y-106807000D03*
X114287000Y-104267000D03*
%TD*%
D13*
%TO.C,D2*%
X142984000Y-94742000D03*
X145034000Y-94742000D03*
%TD*%
D12*
%TO.C,R116*%
X100941500Y-128016000D03*
X102766500Y-128016000D03*
%TD*%
D14*
%TO.C,C101*%
X81280000Y-111965000D03*
X81280000Y-109015000D03*
%TD*%
D15*
%TO.C,R209*%
X98031000Y-79605500D03*
X98031000Y-81430500D03*
%TD*%
D16*
%TO.C,R203*%
X91427000Y-69365500D03*
X91427000Y-67540500D03*
%TD*%
D17*
%TO.C,R208*%
X96657500Y-84963000D03*
X94832500Y-84963000D03*
%TD*%
%TO.C,R206*%
X96657500Y-87249000D03*
X94832500Y-87249000D03*
%TD*%
D15*
%TO.C,R110*%
X99060000Y-119483500D03*
X99060000Y-121308500D03*
%TD*%
D18*
%TO.C,U102*%
X124645500Y-113123000D03*
X124645500Y-113773000D03*
X124645500Y-114423000D03*
X124645500Y-115073000D03*
X124645500Y-115723000D03*
X124645500Y-116373000D03*
X124645500Y-117023000D03*
X124645500Y-117673000D03*
X124645500Y-118323000D03*
X124645500Y-118973000D03*
X124645500Y-119623000D03*
X124645500Y-120273000D03*
X124645500Y-120923000D03*
X124645500Y-121573000D03*
X130370500Y-121573000D03*
X130370500Y-120923000D03*
X130370500Y-120273000D03*
X130370500Y-119623000D03*
X130370500Y-118973000D03*
X130370500Y-118323000D03*
X130370500Y-117673000D03*
X130370500Y-117023000D03*
X130370500Y-116373000D03*
X130370500Y-115723000D03*
X130370500Y-115073000D03*
X130370500Y-114423000D03*
X130370500Y-113773000D03*
X130370500Y-113123000D03*
%TD*%
D15*
%TO.C,R210*%
X99047000Y-85066500D03*
X99047000Y-86891500D03*
%TD*%
D19*
%TO.C,C106*%
X100904000Y-113792000D03*
X102804000Y-113792000D03*
%TD*%
D20*
%TO.C,U5*%
X139241000Y-66421000D03*
X139241000Y-67691000D03*
X139241000Y-68961000D03*
X139241000Y-70231000D03*
X139241000Y-71501000D03*
X139241000Y-72771000D03*
X139241000Y-74041000D03*
X139241000Y-75311000D03*
X139241000Y-76581000D03*
X139241000Y-77851000D03*
X148541000Y-77851000D03*
X148541000Y-76581000D03*
X148541000Y-75311000D03*
X148541000Y-74041000D03*
X148541000Y-72771000D03*
X148541000Y-71501000D03*
X148541000Y-70231000D03*
X148541000Y-68961000D03*
X148541000Y-67691000D03*
X148541000Y-66421000D03*
%TD*%
D11*
%TO.C,C225*%
X120129000Y-80965000D03*
X120129000Y-82865000D03*
%TD*%
D19*
%TO.C,C206*%
X100891000Y-79375000D03*
X102791000Y-79375000D03*
%TD*%
D12*
%TO.C,R215*%
X100928500Y-89535000D03*
X102753500Y-89535000D03*
%TD*%
D20*
%TO.C,U4*%
X139241000Y-80899000D03*
X139241000Y-82169000D03*
X139241000Y-83439000D03*
X139241000Y-84709000D03*
X139241000Y-85979000D03*
X139241000Y-87249000D03*
X139241000Y-88519000D03*
X139241000Y-89789000D03*
X139241000Y-91059000D03*
X139241000Y-92329000D03*
X148541000Y-92329000D03*
X148541000Y-91059000D03*
X148541000Y-89789000D03*
X148541000Y-88519000D03*
X148541000Y-87249000D03*
X148541000Y-85979000D03*
X148541000Y-84709000D03*
X148541000Y-83439000D03*
X148541000Y-82169000D03*
X148541000Y-80899000D03*
%TD*%
D10*
%TO.C,SW203*%
X105677000Y-69850000D03*
X105677000Y-72390000D03*
X105677000Y-74930000D03*
X114287000Y-74930000D03*
X114287000Y-72390000D03*
X114287000Y-69850000D03*
%TD*%
D12*
%TO.C,R122*%
X113387500Y-119888000D03*
X115212500Y-119888000D03*
%TD*%
D21*
%TO.C,L1*%
X172339000Y-72173000D03*
X172339000Y-79973000D03*
%TD*%
D17*
%TO.C,R108*%
X96670500Y-119380000D03*
X94845500Y-119380000D03*
%TD*%
%TO.C,R2*%
X140739500Y-106299000D03*
X138914500Y-106299000D03*
%TD*%
%TO.C,R106*%
X96670500Y-121666000D03*
X94845500Y-121666000D03*
%TD*%
D11*
%TO.C,C208*%
X111239000Y-81473000D03*
X111239000Y-83373000D03*
%TD*%
D20*
%TO.C,U2*%
X139241000Y-123063000D03*
X139241000Y-124333000D03*
X139241000Y-125603000D03*
X139241000Y-126873000D03*
X139241000Y-128143000D03*
X139241000Y-129413000D03*
X139241000Y-130683000D03*
X139241000Y-131953000D03*
X139241000Y-133223000D03*
X139241000Y-134493000D03*
X148541000Y-134493000D03*
X148541000Y-133223000D03*
X148541000Y-131953000D03*
X148541000Y-130683000D03*
X148541000Y-129413000D03*
X148541000Y-128143000D03*
X148541000Y-126873000D03*
X148541000Y-125603000D03*
X148541000Y-124333000D03*
X148541000Y-123063000D03*
%TD*%
D12*
%TO.C,R216*%
X100928500Y-93599000D03*
X102753500Y-93599000D03*
%TD*%
D22*
%TO.C,SW201*%
X86347000Y-80378000D03*
X88887000Y-80378000D03*
X91427000Y-80378000D03*
X93967000Y-80378000D03*
X93967000Y-71768000D03*
X91427000Y-71768000D03*
X88887000Y-71768000D03*
X86347000Y-71768000D03*
%TD*%
D16*
%TO.C,R223*%
X120510000Y-79271500D03*
X120510000Y-77446500D03*
%TD*%
D13*
%TO.C,D1*%
X142984000Y-106299000D03*
X145034000Y-106299000D03*
%TD*%
D21*
%TO.C,L2*%
X182499000Y-72083000D03*
X182499000Y-79883000D03*
%TD*%
D16*
%TO.C,R102*%
X88900000Y-103782500D03*
X88900000Y-101957500D03*
%TD*%
D14*
%TO.C,C201*%
X81267000Y-77548000D03*
X81267000Y-74598000D03*
%TD*%
D12*
%TO.C,R115*%
X100941500Y-123952000D03*
X102766500Y-123952000D03*
%TD*%
%TO.C,R111*%
X100941500Y-104267000D03*
X102766500Y-104267000D03*
%TD*%
D22*
%TO.C,SW105*%
X125095000Y-100978000D03*
X122555000Y-100978000D03*
X122555000Y-109588000D03*
X125095000Y-109588000D03*
%TD*%
D23*
%TO.C,C224*%
X121399000Y-87437000D03*
X121399000Y-85537000D03*
%TD*%
D12*
%TO.C,R220*%
X107278500Y-85471000D03*
X109103500Y-85471000D03*
%TD*%
D11*
%TO.C,C109*%
X111252000Y-119700000D03*
X111252000Y-121600000D03*
%TD*%
%TO.C,C125*%
X120142000Y-115382000D03*
X120142000Y-117282000D03*
%TD*%
%TO.C,C209*%
X111239000Y-85283000D03*
X111239000Y-87183000D03*
%TD*%
D12*
%TO.C,R212*%
X100928500Y-72390000D03*
X102753500Y-72390000D03*
%TD*%
%TO.C,R113*%
X100941500Y-109347000D03*
X102766500Y-109347000D03*
%TD*%
D17*
%TO.C,R207*%
X96657500Y-89535000D03*
X94832500Y-89535000D03*
%TD*%
D12*
%TO.C,R222*%
X113374500Y-85471000D03*
X115199500Y-85471000D03*
%TD*%
D20*
%TO.C,U3*%
X139241000Y-108585000D03*
X139241000Y-109855000D03*
X139241000Y-111125000D03*
X139241000Y-112395000D03*
X139241000Y-113665000D03*
X139241000Y-114935000D03*
X139241000Y-116205000D03*
X139241000Y-117475000D03*
X139241000Y-118745000D03*
X139241000Y-120015000D03*
X148541000Y-120015000D03*
X148541000Y-118745000D03*
X148541000Y-117475000D03*
X148541000Y-116205000D03*
X148541000Y-114935000D03*
X148541000Y-113665000D03*
X148541000Y-112395000D03*
X148541000Y-111125000D03*
X148541000Y-109855000D03*
X148541000Y-108585000D03*
%TD*%
D23*
%TO.C,C128*%
X82677000Y-118933000D03*
X82677000Y-117033000D03*
%TD*%
D19*
%TO.C,C107*%
X100904000Y-125984000D03*
X102804000Y-125984000D03*
%TD*%
D17*
%TO.C,R107*%
X96670500Y-123952000D03*
X94845500Y-123952000D03*
%TD*%
D12*
%TO.C,R218*%
X100928500Y-98679000D03*
X102753500Y-98679000D03*
%TD*%
%TO.C,R119*%
X107291500Y-117602000D03*
X109116500Y-117602000D03*
%TD*%
%TO.C,R219*%
X107278500Y-83185000D03*
X109103500Y-83185000D03*
%TD*%
D22*
%TO.C,SW2*%
X149987000Y-106019000D03*
X149987000Y-97409000D03*
%TD*%
D24*
%TO.C,SW1*%
X145882000Y-102330000D03*
X140122000Y-102330000D03*
X145882000Y-98330000D03*
X140122000Y-98330000D03*
%TD*%
D11*
%TO.C,C2*%
X151003000Y-80269000D03*
X151003000Y-82169000D03*
%TD*%
D25*
%TO.C,C105*%
X97790000Y-109015000D03*
X97790000Y-111965000D03*
%TD*%
D23*
%TO.C,C228*%
X82550000Y-84450000D03*
X82550000Y-82550000D03*
%TD*%
D12*
%TO.C,R201*%
X77814500Y-72263000D03*
X79639500Y-72263000D03*
%TD*%
%TO.C,R217*%
X100928500Y-96139000D03*
X102753500Y-96139000D03*
%TD*%
D11*
%TO.C,C118*%
X117348000Y-115890000D03*
X117348000Y-117790000D03*
%TD*%
%TO.C,C4*%
X151003000Y-122875000D03*
X151003000Y-124775000D03*
%TD*%
D12*
%TO.C,R118*%
X100941500Y-133096000D03*
X102766500Y-133096000D03*
%TD*%
%TO.C,R221*%
X113374500Y-83185000D03*
X115199500Y-83185000D03*
%TD*%
D15*
%TO.C,R228*%
X78232000Y-84558500D03*
X78232000Y-86383500D03*
%TD*%
D22*
%TO.C,SW101*%
X86360000Y-114795000D03*
X88900000Y-114795000D03*
X91440000Y-114795000D03*
X93980000Y-114795000D03*
X93980000Y-106185000D03*
X91440000Y-106185000D03*
X88900000Y-106185000D03*
X86360000Y-106185000D03*
%TD*%
D15*
%TO.C,R109*%
X98044000Y-114022500D03*
X98044000Y-115847500D03*
%TD*%
D23*
%TO.C,C227*%
X80391000Y-84450000D03*
X80391000Y-82550000D03*
%TD*%
D22*
%TO.C,SW202*%
X91427000Y-84608000D03*
X88887000Y-84608000D03*
X86347000Y-84608000D03*
X86347000Y-93218000D03*
X88887000Y-93218000D03*
X91427000Y-93218000D03*
%TD*%
D12*
%TO.C,R112*%
X100941500Y-106807000D03*
X102766500Y-106807000D03*
%TD*%
D16*
%TO.C,R103*%
X91440000Y-103782500D03*
X91440000Y-101957500D03*
%TD*%
D26*
%TO.C,U201*%
X100965000Y-86903000D03*
X102235000Y-86903000D03*
X103505000Y-86903000D03*
X104775000Y-86903000D03*
X104775000Y-81753000D03*
X103505000Y-81753000D03*
X102235000Y-81753000D03*
X100965000Y-81753000D03*
%TD*%
D11*
%TO.C,C219*%
X117335000Y-85283000D03*
X117335000Y-87183000D03*
%TD*%
D18*
%TO.C,U202*%
X124632500Y-78706000D03*
X124632500Y-79356000D03*
X124632500Y-80006000D03*
X124632500Y-80656000D03*
X124632500Y-81306000D03*
X124632500Y-81956000D03*
X124632500Y-82606000D03*
X124632500Y-83256000D03*
X124632500Y-83906000D03*
X124632500Y-84556000D03*
X124632500Y-85206000D03*
X124632500Y-85856000D03*
X124632500Y-86506000D03*
X124632500Y-87156000D03*
X130357500Y-87156000D03*
X130357500Y-86506000D03*
X130357500Y-85856000D03*
X130357500Y-85206000D03*
X130357500Y-84556000D03*
X130357500Y-83906000D03*
X130357500Y-83256000D03*
X130357500Y-82606000D03*
X130357500Y-81956000D03*
X130357500Y-81306000D03*
X130357500Y-80656000D03*
X130357500Y-80006000D03*
X130357500Y-79356000D03*
X130357500Y-78706000D03*
%TD*%
D16*
%TO.C,R202*%
X88887000Y-69365500D03*
X88887000Y-67540500D03*
%TD*%
D12*
%TO.C,R121*%
X113387500Y-117602000D03*
X115212500Y-117602000D03*
%TD*%
%TO.C,R214*%
X100928500Y-77089000D03*
X102753500Y-77089000D03*
%TD*%
D22*
%TO.C,SW205*%
X125082000Y-66561000D03*
X122542000Y-66561000D03*
X122542000Y-75171000D03*
X125082000Y-75171000D03*
%TD*%
D11*
%TO.C,C3*%
X151765000Y-108524000D03*
X151765000Y-110424000D03*
%TD*%
D26*
%TO.C,U101*%
X100965000Y-121320000D03*
X102235000Y-121320000D03*
X103505000Y-121320000D03*
X104775000Y-121320000D03*
X104775000Y-116170000D03*
X103505000Y-116170000D03*
X102235000Y-116170000D03*
X100965000Y-116170000D03*
%TD*%
D22*
%TO.C,SW102*%
X91440000Y-119025000D03*
X88900000Y-119025000D03*
X86360000Y-119025000D03*
X86360000Y-127635000D03*
X88900000Y-127635000D03*
X91440000Y-127635000D03*
%TD*%
D17*
%TO.C,R3*%
X140739500Y-94742000D03*
X138914500Y-94742000D03*
%TD*%
D15*
%TO.C,R127*%
X78232000Y-118999000D03*
X78232000Y-120824000D03*
%TD*%
D12*
%TO.C,R117*%
X100941500Y-130556000D03*
X102766500Y-130556000D03*
%TD*%
D16*
%TO.C,R123*%
X120523000Y-113688500D03*
X120523000Y-111863500D03*
%TD*%
D23*
%TO.C,C124*%
X121412000Y-121854000D03*
X121412000Y-119954000D03*
%TD*%
%TO.C,C127*%
X80518000Y-118933000D03*
X80518000Y-117033000D03*
%TD*%
D10*
%TO.C,SW104*%
X105677000Y-128016000D03*
X105677000Y-130556000D03*
X105677000Y-133096000D03*
X114287000Y-133096000D03*
X114287000Y-130556000D03*
X114287000Y-128016000D03*
%TD*%
D11*
%TO.C,C1*%
X151765000Y-65852000D03*
X151765000Y-67752000D03*
%TD*%
D19*
%TO.C,C207*%
X100891000Y-91567000D03*
X102791000Y-91567000D03*
%TD*%
D25*
%TO.C,C205*%
X97777000Y-74598000D03*
X97777000Y-77548000D03*
%TD*%
D11*
%TO.C,C218*%
X117335000Y-81473000D03*
X117335000Y-83373000D03*
%TD*%
D12*
%TO.C,R114*%
X100941500Y-111506000D03*
X102766500Y-111506000D03*
%TD*%
M02*
