%TF.GenerationSoftware,KiCad,Pcbnew,7.0.10-7.0.10~ubuntu22.04.1*%
%TF.CreationDate,2024-01-23T12:41:05+01:00*%
%TF.ProjectId,misrc,6d697372-632e-46b6-9963-61645f706362,0.3*%
%TF.SameCoordinates,Original*%
%TF.FileFunction,Soldermask,Bot*%
%TF.FilePolarity,Negative*%
%FSLAX46Y46*%
G04 Gerber Fmt 4.6, Leading zero omitted, Abs format (unit mm)*
G04 Created by KiCad (PCBNEW 7.0.10-7.0.10~ubuntu22.04.1) date 2024-01-23 12:41:05*
%MOMM*%
%LPD*%
G01*
G04 APERTURE LIST*
G04 Aperture macros list*
%AMRoundRect*
0 Rectangle with rounded corners*
0 $1 Rounding radius*
0 $2 $3 $4 $5 $6 $7 $8 $9 X,Y pos of 4 corners*
0 Add a 4 corners polygon primitive as box body*
4,1,4,$2,$3,$4,$5,$6,$7,$8,$9,$2,$3,0*
0 Add four circle primitives for the rounded corners*
1,1,$1+$1,$2,$3*
1,1,$1+$1,$4,$5*
1,1,$1+$1,$6,$7*
1,1,$1+$1,$8,$9*
0 Add four rect primitives between the rounded corners*
20,1,$1+$1,$2,$3,$4,$5,0*
20,1,$1+$1,$4,$5,$6,$7,0*
20,1,$1+$1,$6,$7,$8,$9,0*
20,1,$1+$1,$8,$9,$2,$3,0*%
G04 Aperture macros list end*
%ADD10C,0.476609*%
%ADD11C,0.434210*%
%ADD12C,0.150000*%
%ADD13C,0.598634*%
%ADD14R,1.600000X1.600000*%
%ADD15C,1.600000*%
%ADD16R,1.700000X1.700000*%
%ADD17O,1.700000X1.700000*%
%ADD18C,3.200000*%
%ADD19C,3.000000*%
%ADD20C,4.000000*%
%ADD21C,2.050000*%
%ADD22C,2.250000*%
%ADD23C,1.440000*%
%ADD24RoundRect,0.250000X-0.250000X-0.475000X0.250000X-0.475000X0.250000X0.475000X-0.250000X0.475000X0*%
%ADD25RoundRect,0.250001X-0.924999X0.499999X-0.924999X-0.499999X0.924999X-0.499999X0.924999X0.499999X0*%
%ADD26RoundRect,0.250000X-0.475000X0.250000X-0.475000X-0.250000X0.475000X-0.250000X0.475000X0.250000X0*%
%ADD27RoundRect,0.250000X0.475000X-0.250000X0.475000X0.250000X-0.475000X0.250000X-0.475000X-0.250000X0*%
%ADD28R,1.200000X1.400000*%
%ADD29RoundRect,0.150000X0.150000X-0.512500X0.150000X0.512500X-0.150000X0.512500X-0.150000X-0.512500X0*%
%ADD30RoundRect,0.250000X-0.450000X0.262500X-0.450000X-0.262500X0.450000X-0.262500X0.450000X0.262500X0*%
%ADD31RoundRect,0.250000X-0.262500X-0.450000X0.262500X-0.450000X0.262500X0.450000X-0.262500X0.450000X0*%
%ADD32RoundRect,0.250000X0.262500X0.450000X-0.262500X0.450000X-0.262500X-0.450000X0.262500X-0.450000X0*%
%ADD33R,1.500000X2.000000*%
%ADD34R,3.800000X2.000000*%
%ADD35RoundRect,0.150000X0.150000X-0.825000X0.150000X0.825000X-0.150000X0.825000X-0.150000X-0.825000X0*%
%ADD36R,3.000000X2.290000*%
%ADD37RoundRect,0.250001X0.924999X-0.499999X0.924999X0.499999X-0.924999X0.499999X-0.924999X-0.499999X0*%
%ADD38RoundRect,0.250000X0.250000X0.475000X-0.250000X0.475000X-0.250000X-0.475000X0.250000X-0.475000X0*%
%ADD39RoundRect,0.250000X0.450000X-0.262500X0.450000X0.262500X-0.450000X0.262500X-0.450000X-0.262500X0*%
%ADD40RoundRect,0.250001X-0.499999X-0.924999X0.499999X-0.924999X0.499999X0.924999X-0.499999X0.924999X0*%
%ADD41RoundRect,0.150000X0.512500X0.150000X-0.512500X0.150000X-0.512500X-0.150000X0.512500X-0.150000X0*%
%ADD42RoundRect,0.150000X0.150000X-0.725000X0.150000X0.725000X-0.150000X0.725000X-0.150000X-0.725000X0*%
G04 APERTURE END LIST*
D10*
X102092304Y-117983000D02*
G75*
G03*
X101615696Y-117983000I-238304J0D01*
G01*
X101615696Y-117983000D02*
G75*
G03*
X102092304Y-117983000I238304J0D01*
G01*
D11*
X145251105Y-94742000D02*
G75*
G03*
X144816895Y-94742000I-217105J0D01*
G01*
X144816895Y-94742000D02*
G75*
G03*
X145251105Y-94742000I217105J0D01*
G01*
D12*
X126639609Y-80645000D02*
G75*
G03*
X125836391Y-80645000I-401609J0D01*
G01*
X125836391Y-80645000D02*
G75*
G03*
X126639609Y-80645000I401609J0D01*
G01*
X132862609Y-81534000D02*
G75*
G03*
X132059391Y-81534000I-401609J0D01*
G01*
X132059391Y-81534000D02*
G75*
G03*
X132862609Y-81534000I401609J0D01*
G01*
D10*
X94197695Y-114173000D02*
G75*
G03*
X93721087Y-114173000I-238304J0D01*
G01*
X93721087Y-114173000D02*
G75*
G03*
X94197695Y-114173000I238304J0D01*
G01*
D12*
X123444000Y-77216000D02*
G75*
G03*
X122682000Y-77216000I-381000J0D01*
G01*
X122682000Y-77216000D02*
G75*
G03*
X123444000Y-77216000I381000J0D01*
G01*
D11*
X145251105Y-106299000D02*
G75*
G03*
X144816895Y-106299000I-217105J0D01*
G01*
X144816895Y-106299000D02*
G75*
G03*
X145251105Y-106299000I217105J0D01*
G01*
D10*
X151347695Y-125222000D02*
G75*
G03*
X150871087Y-125222000I-238304J0D01*
G01*
X150871087Y-125222000D02*
G75*
G03*
X151347695Y-125222000I238304J0D01*
G01*
X105521304Y-84709000D02*
G75*
G03*
X105044696Y-84709000I-238304J0D01*
G01*
X105044696Y-84709000D02*
G75*
G03*
X105521304Y-84709000I238304J0D01*
G01*
X94197695Y-79883000D02*
G75*
G03*
X93721087Y-79883000I-238304J0D01*
G01*
X93721087Y-79883000D02*
G75*
G03*
X94197695Y-79883000I238304J0D01*
G01*
X149864913Y-96266000D02*
G75*
G03*
X149388305Y-96266000I-238304J0D01*
G01*
X149388305Y-96266000D02*
G75*
G03*
X149864913Y-96266000I238304J0D01*
G01*
D13*
X182798317Y-72136000D02*
G75*
G03*
X182199683Y-72136000I-299317J0D01*
G01*
X182199683Y-72136000D02*
G75*
G03*
X182798317Y-72136000I299317J0D01*
G01*
D14*
%TO.C,C19*%
X181554000Y-118364000D03*
D15*
X178054000Y-118364000D03*
%TD*%
D16*
%TO.C,J2*%
X133350000Y-107442000D03*
D17*
X133350000Y-104902000D03*
X133350000Y-102362000D03*
X133350000Y-99822000D03*
X133350000Y-97282000D03*
X133350000Y-94742000D03*
X133350000Y-92202000D03*
X133350000Y-89662000D03*
%TD*%
D18*
%TO.C,H3*%
X203073000Y-132207000D03*
%TD*%
D19*
%TO.C,J101*%
X68580000Y-112014000D03*
D20*
X63500000Y-117094000D03*
X63500000Y-106934000D03*
X73660000Y-106934000D03*
X73660000Y-117094000D03*
%TD*%
D16*
%TO.C,J3*%
X201803000Y-72390000D03*
D17*
X204343000Y-72390000D03*
X201803000Y-74930000D03*
X204343000Y-74930000D03*
X204343000Y-77470000D03*
X201803000Y-80010000D03*
X204343000Y-80010000D03*
X201803000Y-82550000D03*
X204343000Y-82550000D03*
X201803000Y-85090000D03*
X204343000Y-85090000D03*
X201803000Y-87630000D03*
X204343000Y-87630000D03*
X201803000Y-90170000D03*
X204343000Y-90170000D03*
X201803000Y-92710000D03*
X204343000Y-92710000D03*
X201803000Y-95250000D03*
X204343000Y-95250000D03*
X201803000Y-97790000D03*
X204343000Y-97790000D03*
X201803000Y-100330000D03*
X204343000Y-100330000D03*
X201803000Y-102870000D03*
X204343000Y-102870000D03*
X201803000Y-105410000D03*
X204343000Y-105410000D03*
X201803000Y-107950000D03*
X204343000Y-107950000D03*
X201803000Y-110490000D03*
X204343000Y-110490000D03*
X201803000Y-113030000D03*
X204343000Y-113030000D03*
X201803000Y-115570000D03*
X204343000Y-115570000D03*
X201803000Y-118110000D03*
X204343000Y-118110000D03*
X201803000Y-120650000D03*
X204343000Y-120650000D03*
%TD*%
D21*
%TO.C,J1*%
X124460000Y-94234000D03*
D22*
X121920000Y-91694000D03*
X121920000Y-96774000D03*
X127000000Y-91694000D03*
X127000000Y-96774000D03*
%TD*%
D23*
%TO.C,RV201*%
X75692000Y-91313000D03*
X78232000Y-88773000D03*
X80772000Y-91313000D03*
%TD*%
D14*
%TO.C,C17*%
X180721000Y-100584000D03*
D15*
X184221000Y-100584000D03*
%TD*%
D14*
%TO.C,C11*%
X186564651Y-82804000D03*
D15*
X183064651Y-82804000D03*
%TD*%
D18*
%TO.C,H2*%
X64262000Y-132207000D03*
%TD*%
D19*
%TO.C,J201*%
X68567000Y-77597000D03*
D20*
X63487000Y-82677000D03*
X63487000Y-72517000D03*
X73647000Y-72517000D03*
X73647000Y-82677000D03*
%TD*%
D14*
%TO.C,C10*%
X172240000Y-82801000D03*
D15*
X175740000Y-82801000D03*
%TD*%
D14*
%TO.C,C6*%
X195962651Y-74930000D03*
D15*
X192462651Y-74930000D03*
%TD*%
D14*
%TO.C,C18*%
X167259000Y-118364000D03*
D15*
X170759000Y-118364000D03*
%TD*%
D18*
%TO.C,H1*%
X64262000Y-66929000D03*
%TD*%
D14*
%TO.C,C16*%
X173609000Y-100584000D03*
D15*
X170109000Y-100584000D03*
%TD*%
D18*
%TO.C,H4*%
X203073000Y-66929000D03*
%TD*%
D23*
%TO.C,RV101*%
X75707000Y-125685000D03*
X78247000Y-123145000D03*
X80787000Y-125685000D03*
%TD*%
D16*
%TO.C,J4*%
X159800000Y-72390000D03*
D17*
X162340000Y-72390000D03*
X159800000Y-74930000D03*
X162340000Y-74930000D03*
X162340000Y-77470000D03*
X159800000Y-80010000D03*
X162340000Y-80010000D03*
X159800000Y-82550000D03*
X162340000Y-82550000D03*
X159800000Y-85090000D03*
X162340000Y-85090000D03*
X159800000Y-87630000D03*
X162340000Y-87630000D03*
X159800000Y-90170000D03*
X162340000Y-90170000D03*
X159800000Y-92710000D03*
X162340000Y-92710000D03*
X159800000Y-95250000D03*
X162340000Y-95250000D03*
X159800000Y-97790000D03*
X162340000Y-97790000D03*
X159800000Y-100330000D03*
X162340000Y-100330000D03*
X159800000Y-102870000D03*
X162340000Y-102870000D03*
X159800000Y-105410000D03*
X162340000Y-105410000D03*
X159800000Y-107950000D03*
X162340000Y-107950000D03*
X159800000Y-110490000D03*
X162340000Y-110490000D03*
X159800000Y-113030000D03*
X162340000Y-113030000D03*
X159800000Y-115570000D03*
X162340000Y-115570000D03*
X159800000Y-118110000D03*
X162340000Y-118110000D03*
X159800000Y-120650000D03*
X162340000Y-120650000D03*
%TD*%
D24*
%TO.C,C122*%
X100015000Y-117856000D03*
X101915000Y-117856000D03*
%TD*%
D25*
%TO.C,C102*%
X110363000Y-116358000D03*
X110363000Y-119608000D03*
%TD*%
D26*
%TO.C,C226*%
X132207000Y-81600000D03*
X132207000Y-83500000D03*
%TD*%
D27*
%TO.C,C221*%
X118097000Y-83119000D03*
X118097000Y-81219000D03*
%TD*%
D26*
%TO.C,C20*%
X169418000Y-96586000D03*
X169418000Y-98486000D03*
%TD*%
%TO.C,C8*%
X175831500Y-74361000D03*
X175831500Y-76261000D03*
%TD*%
D28*
%TO.C,X1*%
X149649000Y-95504000D03*
X149649000Y-92964000D03*
X151849000Y-92964000D03*
X151849000Y-95504000D03*
%TD*%
D29*
%TO.C,Q202*%
X93279000Y-76194500D03*
X91379000Y-76194500D03*
X92329000Y-73919500D03*
%TD*%
D30*
%TO.C,R204*%
X112141000Y-84154000D03*
X112141000Y-85979000D03*
%TD*%
D27*
%TO.C,C22*%
X108839000Y-109789000D03*
X108839000Y-107889000D03*
%TD*%
D26*
%TO.C,C21*%
X180467000Y-96586000D03*
X180467000Y-98486000D03*
%TD*%
D31*
%TO.C,R5*%
X182983500Y-96393000D03*
X184808500Y-96393000D03*
%TD*%
D32*
%TO.C,R126*%
X126769500Y-110871000D03*
X124944500Y-110871000D03*
%TD*%
D26*
%TO.C,C114*%
X120396000Y-112080000D03*
X120396000Y-113980000D03*
%TD*%
D24*
%TO.C,C216*%
X126291000Y-80645000D03*
X128191000Y-80645000D03*
%TD*%
D32*
%TO.C,R226*%
X126756500Y-76454000D03*
X124931500Y-76454000D03*
%TD*%
D26*
%TO.C,C213*%
X118097000Y-77663000D03*
X118097000Y-79563000D03*
%TD*%
%TO.C,C7*%
X195961000Y-76647000D03*
X195961000Y-78547000D03*
%TD*%
D33*
%TO.C,Q2*%
X185053000Y-94082000D03*
X182753000Y-94082000D03*
D34*
X182753000Y-87782000D03*
D33*
X180453000Y-94082000D03*
%TD*%
D24*
%TO.C,C15*%
X184978000Y-98425000D03*
X186878000Y-98425000D03*
%TD*%
D27*
%TO.C,C112*%
X118110000Y-121092000D03*
X118110000Y-119192000D03*
%TD*%
%TO.C,C31*%
X147447000Y-94234000D03*
X147447000Y-92334000D03*
%TD*%
D29*
%TO.C,Q102*%
X93279000Y-110490000D03*
X91379000Y-110490000D03*
X92329000Y-108215000D03*
%TD*%
D26*
%TO.C,C223*%
X105537000Y-84775000D03*
X105537000Y-86675000D03*
%TD*%
%TO.C,C214*%
X120383000Y-77663000D03*
X120383000Y-79563000D03*
%TD*%
D35*
%TO.C,U7*%
X111748000Y-105788000D03*
X110478000Y-105788000D03*
X109208000Y-105788000D03*
X107938000Y-105788000D03*
X107938000Y-100838000D03*
X109208000Y-100838000D03*
X110478000Y-100838000D03*
X111748000Y-100838000D03*
D36*
X109843000Y-103313000D03*
%TD*%
D37*
%TO.C,C217*%
X115049000Y-83286000D03*
X115049000Y-80036000D03*
%TD*%
D24*
%TO.C,C14*%
X173802000Y-98552000D03*
X175702000Y-98552000D03*
%TD*%
D30*
%TO.C,R125*%
X123063000Y-109831500D03*
X123063000Y-111656500D03*
%TD*%
D24*
%TO.C,C115*%
X126304000Y-113030000D03*
X128204000Y-113030000D03*
%TD*%
D27*
%TO.C,C111*%
X120396000Y-121092000D03*
X120396000Y-119192000D03*
%TD*%
D32*
%TO.C,R224*%
X126756500Y-74422000D03*
X124931500Y-74422000D03*
%TD*%
D38*
%TO.C,C29*%
X73975000Y-91313000D03*
X72075000Y-91313000D03*
%TD*%
D27*
%TO.C,C204*%
X106172000Y-82103000D03*
X106172000Y-80203000D03*
%TD*%
D33*
%TO.C,Q1*%
X174004000Y-94082000D03*
X171704000Y-94082000D03*
D34*
X171704000Y-87782000D03*
D33*
X169404000Y-94082000D03*
%TD*%
D24*
%TO.C,C116*%
X126304000Y-115062000D03*
X128204000Y-115062000D03*
%TD*%
D27*
%TO.C,C211*%
X120383000Y-86675000D03*
X120383000Y-84775000D03*
%TD*%
D26*
%TO.C,C113*%
X118110000Y-112080000D03*
X118110000Y-113980000D03*
%TD*%
D30*
%TO.C,R225*%
X123050000Y-75414500D03*
X123050000Y-77239500D03*
%TD*%
D32*
%TO.C,R124*%
X126769500Y-108839000D03*
X124944500Y-108839000D03*
%TD*%
D24*
%TO.C,C12*%
X172659000Y-84963000D03*
X174559000Y-84963000D03*
%TD*%
D26*
%TO.C,C126*%
X132207000Y-116144000D03*
X132207000Y-118044000D03*
%TD*%
D39*
%TO.C,R104*%
X111760000Y-114450500D03*
X111760000Y-112625500D03*
%TD*%
D27*
%TO.C,C220*%
X120383000Y-83119000D03*
X120383000Y-81219000D03*
%TD*%
D26*
%TO.C,C23*%
X110490000Y-96713000D03*
X110490000Y-98613000D03*
%TD*%
D37*
%TO.C,C117*%
X115062000Y-117703000D03*
X115062000Y-114453000D03*
%TD*%
D40*
%TO.C,C110*%
X124867000Y-117856000D03*
X128117000Y-117856000D03*
%TD*%
D41*
%TO.C,U6*%
X182430000Y-75250000D03*
X182430000Y-76200000D03*
X182430000Y-77150000D03*
X180155000Y-77150000D03*
X180155000Y-75250000D03*
%TD*%
D26*
%TO.C,C27*%
X181483000Y-69850000D03*
X181483000Y-71750000D03*
%TD*%
D31*
%TO.C,R4*%
X171934500Y-96393000D03*
X173759500Y-96393000D03*
%TD*%
D37*
%TO.C,C202*%
X110871000Y-81990000D03*
X110871000Y-78740000D03*
%TD*%
D41*
%TO.C,Q101*%
X93974500Y-112334000D03*
X93974500Y-114234000D03*
X91699500Y-113284000D03*
%TD*%
D42*
%TO.C,U1*%
X147574000Y-104175000D03*
X146304000Y-104175000D03*
X145034000Y-104175000D03*
X143764000Y-104175000D03*
X142494000Y-104175000D03*
X141224000Y-104175000D03*
X139954000Y-104175000D03*
X138684000Y-104175000D03*
X138684000Y-99025000D03*
X139954000Y-99025000D03*
X141224000Y-99025000D03*
X142494000Y-99025000D03*
X143764000Y-99025000D03*
X145034000Y-99025000D03*
X146304000Y-99025000D03*
X147574000Y-99025000D03*
%TD*%
D27*
%TO.C,C104*%
X105410000Y-116647000D03*
X105410000Y-114747000D03*
%TD*%
D39*
%TO.C,R1*%
X136652000Y-104163500D03*
X136652000Y-102338500D03*
%TD*%
%TO.C,R205*%
X109982000Y-86002500D03*
X109982000Y-84177500D03*
%TD*%
D26*
%TO.C,C28*%
X183642000Y-69850000D03*
X183642000Y-71750000D03*
%TD*%
D41*
%TO.C,Q201*%
X93980000Y-77978000D03*
X93980000Y-79878000D03*
X91705000Y-78928000D03*
%TD*%
D27*
%TO.C,C212*%
X118097000Y-86675000D03*
X118097000Y-84775000D03*
%TD*%
D26*
%TO.C,C5*%
X149606000Y-98491000D03*
X149606000Y-100391000D03*
%TD*%
D27*
%TO.C,C120*%
X120396000Y-117536000D03*
X120396000Y-115636000D03*
%TD*%
%TO.C,C203*%
X108204000Y-82103000D03*
X108204000Y-80203000D03*
%TD*%
D24*
%TO.C,C13*%
X183581000Y-84836000D03*
X185481000Y-84836000D03*
%TD*%
D27*
%TO.C,C103*%
X107442000Y-116647000D03*
X107442000Y-114747000D03*
%TD*%
D24*
%TO.C,C215*%
X126291000Y-78613000D03*
X128191000Y-78613000D03*
%TD*%
D26*
%TO.C,C123*%
X105664000Y-121732000D03*
X105664000Y-123632000D03*
%TD*%
D24*
%TO.C,C222*%
X100142000Y-83439000D03*
X102042000Y-83439000D03*
%TD*%
D27*
%TO.C,C121*%
X118110000Y-117536000D03*
X118110000Y-115636000D03*
%TD*%
D40*
%TO.C,C210*%
X124854000Y-83439000D03*
X128104000Y-83439000D03*
%TD*%
D27*
%TO.C,C25*%
X116078000Y-105725000D03*
X116078000Y-103825000D03*
%TD*%
D24*
%TO.C,C30*%
X81727000Y-124841000D03*
X83627000Y-124841000D03*
%TD*%
D30*
%TO.C,R105*%
X109601000Y-112625500D03*
X109601000Y-114450500D03*
%TD*%
D26*
%TO.C,C9*%
X177990500Y-74361000D03*
X177990500Y-76261000D03*
%TD*%
D27*
%TO.C,C26*%
X113792000Y-105725000D03*
X113792000Y-103825000D03*
%TD*%
%TO.C,C24*%
X108331000Y-98613000D03*
X108331000Y-96713000D03*
%TD*%
M02*
