%TF.GenerationSoftware,KiCad,Pcbnew,8.0.2*%
%TF.CreationDate,2025-02-26T15:06:23+00:00*%
%TF.ProjectId,misrc,6d697372-632e-46b6-9963-61645f706362,0.3*%
%TF.SameCoordinates,Original*%
%TF.FileFunction,Legend,Bot*%
%TF.FilePolarity,Positive*%
%FSLAX46Y46*%
G04 Gerber Fmt 4.6, Leading zero omitted, Abs format (unit mm)*
G04 Created by KiCad (PCBNEW 8.0.2) date 2025-02-26 15:06:23*
%MOMM*%
%LPD*%
G01*
G04 APERTURE LIST*
G04 Aperture macros list*
%AMRoundRect*
0 Rectangle with rounded corners*
0 $1 Rounding radius*
0 $2 $3 $4 $5 $6 $7 $8 $9 X,Y pos of 4 corners*
0 Add a 4 corners polygon primitive as box body*
4,1,4,$2,$3,$4,$5,$6,$7,$8,$9,$2,$3,0*
0 Add four circle primitives for the rounded corners*
1,1,$1+$1,$2,$3*
1,1,$1+$1,$4,$5*
1,1,$1+$1,$6,$7*
1,1,$1+$1,$8,$9*
0 Add four rect primitives between the rounded corners*
20,1,$1+$1,$2,$3,$4,$5,0*
20,1,$1+$1,$4,$5,$6,$7,0*
20,1,$1+$1,$6,$7,$8,$9,0*
20,1,$1+$1,$8,$9,$2,$3,0*%
G04 Aperture macros list end*
%ADD10C,0.120000*%
%ADD11C,0.150000*%
%ADD12C,0.476609*%
%ADD13C,0.434210*%
%ADD14C,0.598634*%
%ADD15O,1.700000X1.700000*%
%ADD16R,1.600000X1.600000*%
%ADD17C,1.600000*%
%ADD18R,1.700000X1.700000*%
%ADD19C,3.200000*%
%ADD20C,2.050000*%
%ADD21C,2.250000*%
%ADD22C,1.440000*%
%ADD23C,2.400000*%
%ADD24C,2.500000*%
%ADD25RoundRect,0.250000X-0.250000X-0.475000X0.250000X-0.475000X0.250000X0.475000X-0.250000X0.475000X0*%
%ADD26RoundRect,0.250001X-0.924999X0.499999X-0.924999X-0.499999X0.924999X-0.499999X0.924999X0.499999X0*%
%ADD27RoundRect,0.250000X-0.475000X0.250000X-0.475000X-0.250000X0.475000X-0.250000X0.475000X0.250000X0*%
%ADD28RoundRect,0.250000X0.475000X-0.250000X0.475000X0.250000X-0.475000X0.250000X-0.475000X-0.250000X0*%
%ADD29R,2.000000X2.000000*%
%ADD30RoundRect,0.150000X0.150000X-0.512500X0.150000X0.512500X-0.150000X0.512500X-0.150000X-0.512500X0*%
%ADD31RoundRect,0.250000X-0.450000X0.262500X-0.450000X-0.262500X0.450000X-0.262500X0.450000X0.262500X0*%
%ADD32RoundRect,0.250000X-0.262500X-0.450000X0.262500X-0.450000X0.262500X0.450000X-0.262500X0.450000X0*%
%ADD33RoundRect,0.250000X0.262500X0.450000X-0.262500X0.450000X-0.262500X-0.450000X0.262500X-0.450000X0*%
%ADD34R,1.500000X2.000000*%
%ADD35R,3.800000X2.000000*%
%ADD36RoundRect,0.150000X0.150000X-0.825000X0.150000X0.825000X-0.150000X0.825000X-0.150000X-0.825000X0*%
%ADD37R,3.000000X2.290000*%
%ADD38RoundRect,0.250001X0.924999X-0.499999X0.924999X0.499999X-0.924999X0.499999X-0.924999X-0.499999X0*%
%ADD39RoundRect,0.250000X0.250000X0.475000X-0.250000X0.475000X-0.250000X-0.475000X0.250000X-0.475000X0*%
%ADD40RoundRect,0.250000X0.450000X-0.262500X0.450000X0.262500X-0.450000X0.262500X-0.450000X-0.262500X0*%
%ADD41RoundRect,0.250001X-0.499999X-0.924999X0.499999X-0.924999X0.499999X0.924999X-0.499999X0.924999X0*%
%ADD42RoundRect,0.150000X0.512500X0.150000X-0.512500X0.150000X-0.512500X-0.150000X0.512500X-0.150000X0*%
%ADD43RoundRect,0.150000X0.150000X-0.725000X0.150000X0.725000X-0.150000X0.725000X-0.150000X-0.725000X0*%
G04 APERTURE END LIST*
D10*
X101860237Y-119921664D02*
X101898333Y-119959760D01*
X101898333Y-119959760D02*
X102012618Y-119997855D01*
X102012618Y-119997855D02*
X102088809Y-119997855D01*
X102088809Y-119997855D02*
X102203095Y-119959760D01*
X102203095Y-119959760D02*
X102279285Y-119883569D01*
X102279285Y-119883569D02*
X102317380Y-119807379D01*
X102317380Y-119807379D02*
X102355476Y-119654998D01*
X102355476Y-119654998D02*
X102355476Y-119540712D01*
X102355476Y-119540712D02*
X102317380Y-119388331D01*
X102317380Y-119388331D02*
X102279285Y-119312140D01*
X102279285Y-119312140D02*
X102203095Y-119235950D01*
X102203095Y-119235950D02*
X102088809Y-119197855D01*
X102088809Y-119197855D02*
X102012618Y-119197855D01*
X102012618Y-119197855D02*
X101898333Y-119235950D01*
X101898333Y-119235950D02*
X101860237Y-119274045D01*
X101098333Y-119997855D02*
X101555476Y-119997855D01*
X101326904Y-119997855D02*
X101326904Y-119197855D01*
X101326904Y-119197855D02*
X101403095Y-119312140D01*
X101403095Y-119312140D02*
X101479285Y-119388331D01*
X101479285Y-119388331D02*
X101555476Y-119426426D01*
X100793571Y-119274045D02*
X100755475Y-119235950D01*
X100755475Y-119235950D02*
X100679285Y-119197855D01*
X100679285Y-119197855D02*
X100488809Y-119197855D01*
X100488809Y-119197855D02*
X100412618Y-119235950D01*
X100412618Y-119235950D02*
X100374523Y-119274045D01*
X100374523Y-119274045D02*
X100336428Y-119350236D01*
X100336428Y-119350236D02*
X100336428Y-119426426D01*
X100336428Y-119426426D02*
X100374523Y-119540712D01*
X100374523Y-119540712D02*
X100831666Y-119997855D01*
X100831666Y-119997855D02*
X100336428Y-119997855D01*
X100031666Y-119274045D02*
X99993570Y-119235950D01*
X99993570Y-119235950D02*
X99917380Y-119197855D01*
X99917380Y-119197855D02*
X99726904Y-119197855D01*
X99726904Y-119197855D02*
X99650713Y-119235950D01*
X99650713Y-119235950D02*
X99612618Y-119274045D01*
X99612618Y-119274045D02*
X99574523Y-119350236D01*
X99574523Y-119350236D02*
X99574523Y-119426426D01*
X99574523Y-119426426D02*
X99612618Y-119540712D01*
X99612618Y-119540712D02*
X100069761Y-119997855D01*
X100069761Y-119997855D02*
X99574523Y-119997855D01*
X111385237Y-121572664D02*
X111423333Y-121610760D01*
X111423333Y-121610760D02*
X111537618Y-121648855D01*
X111537618Y-121648855D02*
X111613809Y-121648855D01*
X111613809Y-121648855D02*
X111728095Y-121610760D01*
X111728095Y-121610760D02*
X111804285Y-121534569D01*
X111804285Y-121534569D02*
X111842380Y-121458379D01*
X111842380Y-121458379D02*
X111880476Y-121305998D01*
X111880476Y-121305998D02*
X111880476Y-121191712D01*
X111880476Y-121191712D02*
X111842380Y-121039331D01*
X111842380Y-121039331D02*
X111804285Y-120963140D01*
X111804285Y-120963140D02*
X111728095Y-120886950D01*
X111728095Y-120886950D02*
X111613809Y-120848855D01*
X111613809Y-120848855D02*
X111537618Y-120848855D01*
X111537618Y-120848855D02*
X111423333Y-120886950D01*
X111423333Y-120886950D02*
X111385237Y-120925045D01*
X110623333Y-121648855D02*
X111080476Y-121648855D01*
X110851904Y-121648855D02*
X110851904Y-120848855D01*
X110851904Y-120848855D02*
X110928095Y-120963140D01*
X110928095Y-120963140D02*
X111004285Y-121039331D01*
X111004285Y-121039331D02*
X111080476Y-121077426D01*
X110128094Y-120848855D02*
X110051904Y-120848855D01*
X110051904Y-120848855D02*
X109975713Y-120886950D01*
X109975713Y-120886950D02*
X109937618Y-120925045D01*
X109937618Y-120925045D02*
X109899523Y-121001236D01*
X109899523Y-121001236D02*
X109861428Y-121153617D01*
X109861428Y-121153617D02*
X109861428Y-121344093D01*
X109861428Y-121344093D02*
X109899523Y-121496474D01*
X109899523Y-121496474D02*
X109937618Y-121572664D01*
X109937618Y-121572664D02*
X109975713Y-121610760D01*
X109975713Y-121610760D02*
X110051904Y-121648855D01*
X110051904Y-121648855D02*
X110128094Y-121648855D01*
X110128094Y-121648855D02*
X110204285Y-121610760D01*
X110204285Y-121610760D02*
X110242380Y-121572664D01*
X110242380Y-121572664D02*
X110280475Y-121496474D01*
X110280475Y-121496474D02*
X110318571Y-121344093D01*
X110318571Y-121344093D02*
X110318571Y-121153617D01*
X110318571Y-121153617D02*
X110280475Y-121001236D01*
X110280475Y-121001236D02*
X110242380Y-120925045D01*
X110242380Y-120925045D02*
X110204285Y-120886950D01*
X110204285Y-120886950D02*
X110128094Y-120848855D01*
X109556666Y-120925045D02*
X109518570Y-120886950D01*
X109518570Y-120886950D02*
X109442380Y-120848855D01*
X109442380Y-120848855D02*
X109251904Y-120848855D01*
X109251904Y-120848855D02*
X109175713Y-120886950D01*
X109175713Y-120886950D02*
X109137618Y-120925045D01*
X109137618Y-120925045D02*
X109099523Y-121001236D01*
X109099523Y-121001236D02*
X109099523Y-121077426D01*
X109099523Y-121077426D02*
X109137618Y-121191712D01*
X109137618Y-121191712D02*
X109594761Y-121648855D01*
X109594761Y-121648855D02*
X109099523Y-121648855D01*
X130814664Y-81654762D02*
X130852760Y-81616666D01*
X130852760Y-81616666D02*
X130890855Y-81502381D01*
X130890855Y-81502381D02*
X130890855Y-81426190D01*
X130890855Y-81426190D02*
X130852760Y-81311904D01*
X130852760Y-81311904D02*
X130776569Y-81235714D01*
X130776569Y-81235714D02*
X130700379Y-81197619D01*
X130700379Y-81197619D02*
X130547998Y-81159523D01*
X130547998Y-81159523D02*
X130433712Y-81159523D01*
X130433712Y-81159523D02*
X130281331Y-81197619D01*
X130281331Y-81197619D02*
X130205140Y-81235714D01*
X130205140Y-81235714D02*
X130128950Y-81311904D01*
X130128950Y-81311904D02*
X130090855Y-81426190D01*
X130090855Y-81426190D02*
X130090855Y-81502381D01*
X130090855Y-81502381D02*
X130128950Y-81616666D01*
X130128950Y-81616666D02*
X130167045Y-81654762D01*
X130167045Y-81959523D02*
X130128950Y-81997619D01*
X130128950Y-81997619D02*
X130090855Y-82073809D01*
X130090855Y-82073809D02*
X130090855Y-82264285D01*
X130090855Y-82264285D02*
X130128950Y-82340476D01*
X130128950Y-82340476D02*
X130167045Y-82378571D01*
X130167045Y-82378571D02*
X130243236Y-82416666D01*
X130243236Y-82416666D02*
X130319426Y-82416666D01*
X130319426Y-82416666D02*
X130433712Y-82378571D01*
X130433712Y-82378571D02*
X130890855Y-81921428D01*
X130890855Y-81921428D02*
X130890855Y-82416666D01*
X130167045Y-82721428D02*
X130128950Y-82759524D01*
X130128950Y-82759524D02*
X130090855Y-82835714D01*
X130090855Y-82835714D02*
X130090855Y-83026190D01*
X130090855Y-83026190D02*
X130128950Y-83102381D01*
X130128950Y-83102381D02*
X130167045Y-83140476D01*
X130167045Y-83140476D02*
X130243236Y-83178571D01*
X130243236Y-83178571D02*
X130319426Y-83178571D01*
X130319426Y-83178571D02*
X130433712Y-83140476D01*
X130433712Y-83140476D02*
X130890855Y-82683333D01*
X130890855Y-82683333D02*
X130890855Y-83178571D01*
X130090855Y-83864286D02*
X130090855Y-83711905D01*
X130090855Y-83711905D02*
X130128950Y-83635714D01*
X130128950Y-83635714D02*
X130167045Y-83597619D01*
X130167045Y-83597619D02*
X130281331Y-83521429D01*
X130281331Y-83521429D02*
X130433712Y-83483333D01*
X130433712Y-83483333D02*
X130738474Y-83483333D01*
X130738474Y-83483333D02*
X130814664Y-83521429D01*
X130814664Y-83521429D02*
X130852760Y-83559524D01*
X130852760Y-83559524D02*
X130890855Y-83635714D01*
X130890855Y-83635714D02*
X130890855Y-83788095D01*
X130890855Y-83788095D02*
X130852760Y-83864286D01*
X130852760Y-83864286D02*
X130814664Y-83902381D01*
X130814664Y-83902381D02*
X130738474Y-83940476D01*
X130738474Y-83940476D02*
X130547998Y-83940476D01*
X130547998Y-83940476D02*
X130471807Y-83902381D01*
X130471807Y-83902381D02*
X130433712Y-83864286D01*
X130433712Y-83864286D02*
X130395617Y-83788095D01*
X130395617Y-83788095D02*
X130395617Y-83635714D01*
X130395617Y-83635714D02*
X130433712Y-83559524D01*
X130433712Y-83559524D02*
X130471807Y-83521429D01*
X130471807Y-83521429D02*
X130547998Y-83483333D01*
X168025664Y-97021714D02*
X168063760Y-96983618D01*
X168063760Y-96983618D02*
X168101855Y-96869333D01*
X168101855Y-96869333D02*
X168101855Y-96793142D01*
X168101855Y-96793142D02*
X168063760Y-96678856D01*
X168063760Y-96678856D02*
X167987569Y-96602666D01*
X167987569Y-96602666D02*
X167911379Y-96564571D01*
X167911379Y-96564571D02*
X167758998Y-96526475D01*
X167758998Y-96526475D02*
X167644712Y-96526475D01*
X167644712Y-96526475D02*
X167492331Y-96564571D01*
X167492331Y-96564571D02*
X167416140Y-96602666D01*
X167416140Y-96602666D02*
X167339950Y-96678856D01*
X167339950Y-96678856D02*
X167301855Y-96793142D01*
X167301855Y-96793142D02*
X167301855Y-96869333D01*
X167301855Y-96869333D02*
X167339950Y-96983618D01*
X167339950Y-96983618D02*
X167378045Y-97021714D01*
X167378045Y-97326475D02*
X167339950Y-97364571D01*
X167339950Y-97364571D02*
X167301855Y-97440761D01*
X167301855Y-97440761D02*
X167301855Y-97631237D01*
X167301855Y-97631237D02*
X167339950Y-97707428D01*
X167339950Y-97707428D02*
X167378045Y-97745523D01*
X167378045Y-97745523D02*
X167454236Y-97783618D01*
X167454236Y-97783618D02*
X167530426Y-97783618D01*
X167530426Y-97783618D02*
X167644712Y-97745523D01*
X167644712Y-97745523D02*
X168101855Y-97288380D01*
X168101855Y-97288380D02*
X168101855Y-97783618D01*
X167301855Y-98278857D02*
X167301855Y-98355047D01*
X167301855Y-98355047D02*
X167339950Y-98431238D01*
X167339950Y-98431238D02*
X167378045Y-98469333D01*
X167378045Y-98469333D02*
X167454236Y-98507428D01*
X167454236Y-98507428D02*
X167606617Y-98545523D01*
X167606617Y-98545523D02*
X167797093Y-98545523D01*
X167797093Y-98545523D02*
X167949474Y-98507428D01*
X167949474Y-98507428D02*
X168025664Y-98469333D01*
X168025664Y-98469333D02*
X168063760Y-98431238D01*
X168063760Y-98431238D02*
X168101855Y-98355047D01*
X168101855Y-98355047D02*
X168101855Y-98278857D01*
X168101855Y-98278857D02*
X168063760Y-98202666D01*
X168063760Y-98202666D02*
X168025664Y-98164571D01*
X168025664Y-98164571D02*
X167949474Y-98126476D01*
X167949474Y-98126476D02*
X167797093Y-98088380D01*
X167797093Y-98088380D02*
X167606617Y-98088380D01*
X167606617Y-98088380D02*
X167454236Y-98126476D01*
X167454236Y-98126476D02*
X167378045Y-98164571D01*
X167378045Y-98164571D02*
X167339950Y-98202666D01*
X167339950Y-98202666D02*
X167301855Y-98278857D01*
X176218832Y-73119664D02*
X176256928Y-73157760D01*
X176256928Y-73157760D02*
X176371213Y-73195855D01*
X176371213Y-73195855D02*
X176447404Y-73195855D01*
X176447404Y-73195855D02*
X176561690Y-73157760D01*
X176561690Y-73157760D02*
X176637880Y-73081569D01*
X176637880Y-73081569D02*
X176675975Y-73005379D01*
X176675975Y-73005379D02*
X176714071Y-72852998D01*
X176714071Y-72852998D02*
X176714071Y-72738712D01*
X176714071Y-72738712D02*
X176675975Y-72586331D01*
X176675975Y-72586331D02*
X176637880Y-72510140D01*
X176637880Y-72510140D02*
X176561690Y-72433950D01*
X176561690Y-72433950D02*
X176447404Y-72395855D01*
X176447404Y-72395855D02*
X176371213Y-72395855D01*
X176371213Y-72395855D02*
X176256928Y-72433950D01*
X176256928Y-72433950D02*
X176218832Y-72472045D01*
X175761690Y-72738712D02*
X175837880Y-72700617D01*
X175837880Y-72700617D02*
X175875975Y-72662521D01*
X175875975Y-72662521D02*
X175914071Y-72586331D01*
X175914071Y-72586331D02*
X175914071Y-72548236D01*
X175914071Y-72548236D02*
X175875975Y-72472045D01*
X175875975Y-72472045D02*
X175837880Y-72433950D01*
X175837880Y-72433950D02*
X175761690Y-72395855D01*
X175761690Y-72395855D02*
X175609309Y-72395855D01*
X175609309Y-72395855D02*
X175533118Y-72433950D01*
X175533118Y-72433950D02*
X175495023Y-72472045D01*
X175495023Y-72472045D02*
X175456928Y-72548236D01*
X175456928Y-72548236D02*
X175456928Y-72586331D01*
X175456928Y-72586331D02*
X175495023Y-72662521D01*
X175495023Y-72662521D02*
X175533118Y-72700617D01*
X175533118Y-72700617D02*
X175609309Y-72738712D01*
X175609309Y-72738712D02*
X175761690Y-72738712D01*
X175761690Y-72738712D02*
X175837880Y-72776807D01*
X175837880Y-72776807D02*
X175875975Y-72814902D01*
X175875975Y-72814902D02*
X175914071Y-72891093D01*
X175914071Y-72891093D02*
X175914071Y-73043474D01*
X175914071Y-73043474D02*
X175875975Y-73119664D01*
X175875975Y-73119664D02*
X175837880Y-73157760D01*
X175837880Y-73157760D02*
X175761690Y-73195855D01*
X175761690Y-73195855D02*
X175609309Y-73195855D01*
X175609309Y-73195855D02*
X175533118Y-73157760D01*
X175533118Y-73157760D02*
X175495023Y-73119664D01*
X175495023Y-73119664D02*
X175456928Y-73043474D01*
X175456928Y-73043474D02*
X175456928Y-72891093D01*
X175456928Y-72891093D02*
X175495023Y-72814902D01*
X175495023Y-72814902D02*
X175533118Y-72776807D01*
X175533118Y-72776807D02*
X175609309Y-72738712D01*
D11*
X154984819Y-92930476D02*
X155984819Y-93597142D01*
X154984819Y-93597142D02*
X155984819Y-92930476D01*
X155984819Y-94501904D02*
X155984819Y-93930476D01*
X155984819Y-94216190D02*
X154984819Y-94216190D01*
X154984819Y-94216190D02*
X155127676Y-94120952D01*
X155127676Y-94120952D02*
X155222914Y-94025714D01*
X155222914Y-94025714D02*
X155270533Y-93930476D01*
D10*
X89865095Y-76640045D02*
X89941285Y-76601950D01*
X89941285Y-76601950D02*
X90017476Y-76525760D01*
X90017476Y-76525760D02*
X90131762Y-76411474D01*
X90131762Y-76411474D02*
X90207952Y-76373379D01*
X90207952Y-76373379D02*
X90284143Y-76373379D01*
X90246047Y-76563855D02*
X90322238Y-76525760D01*
X90322238Y-76525760D02*
X90398428Y-76449569D01*
X90398428Y-76449569D02*
X90436524Y-76297188D01*
X90436524Y-76297188D02*
X90436524Y-76030521D01*
X90436524Y-76030521D02*
X90398428Y-75878140D01*
X90398428Y-75878140D02*
X90322238Y-75801950D01*
X90322238Y-75801950D02*
X90246047Y-75763855D01*
X90246047Y-75763855D02*
X90093666Y-75763855D01*
X90093666Y-75763855D02*
X90017476Y-75801950D01*
X90017476Y-75801950D02*
X89941285Y-75878140D01*
X89941285Y-75878140D02*
X89903190Y-76030521D01*
X89903190Y-76030521D02*
X89903190Y-76297188D01*
X89903190Y-76297188D02*
X89941285Y-76449569D01*
X89941285Y-76449569D02*
X90017476Y-76525760D01*
X90017476Y-76525760D02*
X90093666Y-76563855D01*
X90093666Y-76563855D02*
X90246047Y-76563855D01*
X89598429Y-75840045D02*
X89560333Y-75801950D01*
X89560333Y-75801950D02*
X89484143Y-75763855D01*
X89484143Y-75763855D02*
X89293667Y-75763855D01*
X89293667Y-75763855D02*
X89217476Y-75801950D01*
X89217476Y-75801950D02*
X89179381Y-75840045D01*
X89179381Y-75840045D02*
X89141286Y-75916236D01*
X89141286Y-75916236D02*
X89141286Y-75992426D01*
X89141286Y-75992426D02*
X89179381Y-76106712D01*
X89179381Y-76106712D02*
X89636524Y-76563855D01*
X89636524Y-76563855D02*
X89141286Y-76563855D01*
X88646047Y-75763855D02*
X88569857Y-75763855D01*
X88569857Y-75763855D02*
X88493666Y-75801950D01*
X88493666Y-75801950D02*
X88455571Y-75840045D01*
X88455571Y-75840045D02*
X88417476Y-75916236D01*
X88417476Y-75916236D02*
X88379381Y-76068617D01*
X88379381Y-76068617D02*
X88379381Y-76259093D01*
X88379381Y-76259093D02*
X88417476Y-76411474D01*
X88417476Y-76411474D02*
X88455571Y-76487664D01*
X88455571Y-76487664D02*
X88493666Y-76525760D01*
X88493666Y-76525760D02*
X88569857Y-76563855D01*
X88569857Y-76563855D02*
X88646047Y-76563855D01*
X88646047Y-76563855D02*
X88722238Y-76525760D01*
X88722238Y-76525760D02*
X88760333Y-76487664D01*
X88760333Y-76487664D02*
X88798428Y-76411474D01*
X88798428Y-76411474D02*
X88836524Y-76259093D01*
X88836524Y-76259093D02*
X88836524Y-76068617D01*
X88836524Y-76068617D02*
X88798428Y-75916236D01*
X88798428Y-75916236D02*
X88760333Y-75840045D01*
X88760333Y-75840045D02*
X88722238Y-75801950D01*
X88722238Y-75801950D02*
X88646047Y-75763855D01*
X88074619Y-75840045D02*
X88036523Y-75801950D01*
X88036523Y-75801950D02*
X87960333Y-75763855D01*
X87960333Y-75763855D02*
X87769857Y-75763855D01*
X87769857Y-75763855D02*
X87693666Y-75801950D01*
X87693666Y-75801950D02*
X87655571Y-75840045D01*
X87655571Y-75840045D02*
X87617476Y-75916236D01*
X87617476Y-75916236D02*
X87617476Y-75992426D01*
X87617476Y-75992426D02*
X87655571Y-76106712D01*
X87655571Y-76106712D02*
X88112714Y-76563855D01*
X88112714Y-76563855D02*
X87617476Y-76563855D01*
X112504855Y-87496762D02*
X112123902Y-87230095D01*
X112504855Y-87039619D02*
X111704855Y-87039619D01*
X111704855Y-87039619D02*
X111704855Y-87344381D01*
X111704855Y-87344381D02*
X111742950Y-87420571D01*
X111742950Y-87420571D02*
X111781045Y-87458666D01*
X111781045Y-87458666D02*
X111857236Y-87496762D01*
X111857236Y-87496762D02*
X111971521Y-87496762D01*
X111971521Y-87496762D02*
X112047712Y-87458666D01*
X112047712Y-87458666D02*
X112085807Y-87420571D01*
X112085807Y-87420571D02*
X112123902Y-87344381D01*
X112123902Y-87344381D02*
X112123902Y-87039619D01*
X111781045Y-87801523D02*
X111742950Y-87839619D01*
X111742950Y-87839619D02*
X111704855Y-87915809D01*
X111704855Y-87915809D02*
X111704855Y-88106285D01*
X111704855Y-88106285D02*
X111742950Y-88182476D01*
X111742950Y-88182476D02*
X111781045Y-88220571D01*
X111781045Y-88220571D02*
X111857236Y-88258666D01*
X111857236Y-88258666D02*
X111933426Y-88258666D01*
X111933426Y-88258666D02*
X112047712Y-88220571D01*
X112047712Y-88220571D02*
X112504855Y-87763428D01*
X112504855Y-87763428D02*
X112504855Y-88258666D01*
X111704855Y-88753905D02*
X111704855Y-88830095D01*
X111704855Y-88830095D02*
X111742950Y-88906286D01*
X111742950Y-88906286D02*
X111781045Y-88944381D01*
X111781045Y-88944381D02*
X111857236Y-88982476D01*
X111857236Y-88982476D02*
X112009617Y-89020571D01*
X112009617Y-89020571D02*
X112200093Y-89020571D01*
X112200093Y-89020571D02*
X112352474Y-88982476D01*
X112352474Y-88982476D02*
X112428664Y-88944381D01*
X112428664Y-88944381D02*
X112466760Y-88906286D01*
X112466760Y-88906286D02*
X112504855Y-88830095D01*
X112504855Y-88830095D02*
X112504855Y-88753905D01*
X112504855Y-88753905D02*
X112466760Y-88677714D01*
X112466760Y-88677714D02*
X112428664Y-88639619D01*
X112428664Y-88639619D02*
X112352474Y-88601524D01*
X112352474Y-88601524D02*
X112200093Y-88563428D01*
X112200093Y-88563428D02*
X112009617Y-88563428D01*
X112009617Y-88563428D02*
X111857236Y-88601524D01*
X111857236Y-88601524D02*
X111781045Y-88639619D01*
X111781045Y-88639619D02*
X111742950Y-88677714D01*
X111742950Y-88677714D02*
X111704855Y-88753905D01*
X111971521Y-89706286D02*
X112504855Y-89706286D01*
X111666760Y-89515810D02*
X112238188Y-89325333D01*
X112238188Y-89325333D02*
X112238188Y-89820572D01*
X110806664Y-108324714D02*
X110844760Y-108286618D01*
X110844760Y-108286618D02*
X110882855Y-108172333D01*
X110882855Y-108172333D02*
X110882855Y-108096142D01*
X110882855Y-108096142D02*
X110844760Y-107981856D01*
X110844760Y-107981856D02*
X110768569Y-107905666D01*
X110768569Y-107905666D02*
X110692379Y-107867571D01*
X110692379Y-107867571D02*
X110539998Y-107829475D01*
X110539998Y-107829475D02*
X110425712Y-107829475D01*
X110425712Y-107829475D02*
X110273331Y-107867571D01*
X110273331Y-107867571D02*
X110197140Y-107905666D01*
X110197140Y-107905666D02*
X110120950Y-107981856D01*
X110120950Y-107981856D02*
X110082855Y-108096142D01*
X110082855Y-108096142D02*
X110082855Y-108172333D01*
X110082855Y-108172333D02*
X110120950Y-108286618D01*
X110120950Y-108286618D02*
X110159045Y-108324714D01*
X110159045Y-108629475D02*
X110120950Y-108667571D01*
X110120950Y-108667571D02*
X110082855Y-108743761D01*
X110082855Y-108743761D02*
X110082855Y-108934237D01*
X110082855Y-108934237D02*
X110120950Y-109010428D01*
X110120950Y-109010428D02*
X110159045Y-109048523D01*
X110159045Y-109048523D02*
X110235236Y-109086618D01*
X110235236Y-109086618D02*
X110311426Y-109086618D01*
X110311426Y-109086618D02*
X110425712Y-109048523D01*
X110425712Y-109048523D02*
X110882855Y-108591380D01*
X110882855Y-108591380D02*
X110882855Y-109086618D01*
X110159045Y-109391380D02*
X110120950Y-109429476D01*
X110120950Y-109429476D02*
X110082855Y-109505666D01*
X110082855Y-109505666D02*
X110082855Y-109696142D01*
X110082855Y-109696142D02*
X110120950Y-109772333D01*
X110120950Y-109772333D02*
X110159045Y-109810428D01*
X110159045Y-109810428D02*
X110235236Y-109848523D01*
X110235236Y-109848523D02*
X110311426Y-109848523D01*
X110311426Y-109848523D02*
X110425712Y-109810428D01*
X110425712Y-109810428D02*
X110882855Y-109353285D01*
X110882855Y-109353285D02*
X110882855Y-109848523D01*
X178722664Y-96005714D02*
X178760760Y-95967618D01*
X178760760Y-95967618D02*
X178798855Y-95853333D01*
X178798855Y-95853333D02*
X178798855Y-95777142D01*
X178798855Y-95777142D02*
X178760760Y-95662856D01*
X178760760Y-95662856D02*
X178684569Y-95586666D01*
X178684569Y-95586666D02*
X178608379Y-95548571D01*
X178608379Y-95548571D02*
X178455998Y-95510475D01*
X178455998Y-95510475D02*
X178341712Y-95510475D01*
X178341712Y-95510475D02*
X178189331Y-95548571D01*
X178189331Y-95548571D02*
X178113140Y-95586666D01*
X178113140Y-95586666D02*
X178036950Y-95662856D01*
X178036950Y-95662856D02*
X177998855Y-95777142D01*
X177998855Y-95777142D02*
X177998855Y-95853333D01*
X177998855Y-95853333D02*
X178036950Y-95967618D01*
X178036950Y-95967618D02*
X178075045Y-96005714D01*
X178075045Y-96310475D02*
X178036950Y-96348571D01*
X178036950Y-96348571D02*
X177998855Y-96424761D01*
X177998855Y-96424761D02*
X177998855Y-96615237D01*
X177998855Y-96615237D02*
X178036950Y-96691428D01*
X178036950Y-96691428D02*
X178075045Y-96729523D01*
X178075045Y-96729523D02*
X178151236Y-96767618D01*
X178151236Y-96767618D02*
X178227426Y-96767618D01*
X178227426Y-96767618D02*
X178341712Y-96729523D01*
X178341712Y-96729523D02*
X178798855Y-96272380D01*
X178798855Y-96272380D02*
X178798855Y-96767618D01*
X178798855Y-97529523D02*
X178798855Y-97072380D01*
X178798855Y-97300952D02*
X177998855Y-97300952D01*
X177998855Y-97300952D02*
X178113140Y-97224761D01*
X178113140Y-97224761D02*
X178189331Y-97148571D01*
X178189331Y-97148571D02*
X178227426Y-97072380D01*
X186696332Y-96756855D02*
X186962999Y-96375902D01*
X187153475Y-96756855D02*
X187153475Y-95956855D01*
X187153475Y-95956855D02*
X186848713Y-95956855D01*
X186848713Y-95956855D02*
X186772523Y-95994950D01*
X186772523Y-95994950D02*
X186734428Y-96033045D01*
X186734428Y-96033045D02*
X186696332Y-96109236D01*
X186696332Y-96109236D02*
X186696332Y-96223521D01*
X186696332Y-96223521D02*
X186734428Y-96299712D01*
X186734428Y-96299712D02*
X186772523Y-96337807D01*
X186772523Y-96337807D02*
X186848713Y-96375902D01*
X186848713Y-96375902D02*
X187153475Y-96375902D01*
X185972523Y-95956855D02*
X186353475Y-95956855D01*
X186353475Y-95956855D02*
X186391571Y-96337807D01*
X186391571Y-96337807D02*
X186353475Y-96299712D01*
X186353475Y-96299712D02*
X186277285Y-96261617D01*
X186277285Y-96261617D02*
X186086809Y-96261617D01*
X186086809Y-96261617D02*
X186010618Y-96299712D01*
X186010618Y-96299712D02*
X185972523Y-96337807D01*
X185972523Y-96337807D02*
X185934428Y-96413998D01*
X185934428Y-96413998D02*
X185934428Y-96604474D01*
X185934428Y-96604474D02*
X185972523Y-96680664D01*
X185972523Y-96680664D02*
X186010618Y-96718760D01*
X186010618Y-96718760D02*
X186086809Y-96756855D01*
X186086809Y-96756855D02*
X186277285Y-96756855D01*
X186277285Y-96756855D02*
X186353475Y-96718760D01*
X186353475Y-96718760D02*
X186391571Y-96680664D01*
X130181237Y-111234855D02*
X130447904Y-110853902D01*
X130638380Y-111234855D02*
X130638380Y-110434855D01*
X130638380Y-110434855D02*
X130333618Y-110434855D01*
X130333618Y-110434855D02*
X130257428Y-110472950D01*
X130257428Y-110472950D02*
X130219333Y-110511045D01*
X130219333Y-110511045D02*
X130181237Y-110587236D01*
X130181237Y-110587236D02*
X130181237Y-110701521D01*
X130181237Y-110701521D02*
X130219333Y-110777712D01*
X130219333Y-110777712D02*
X130257428Y-110815807D01*
X130257428Y-110815807D02*
X130333618Y-110853902D01*
X130333618Y-110853902D02*
X130638380Y-110853902D01*
X129419333Y-111234855D02*
X129876476Y-111234855D01*
X129647904Y-111234855D02*
X129647904Y-110434855D01*
X129647904Y-110434855D02*
X129724095Y-110549140D01*
X129724095Y-110549140D02*
X129800285Y-110625331D01*
X129800285Y-110625331D02*
X129876476Y-110663426D01*
X129114571Y-110511045D02*
X129076475Y-110472950D01*
X129076475Y-110472950D02*
X129000285Y-110434855D01*
X129000285Y-110434855D02*
X128809809Y-110434855D01*
X128809809Y-110434855D02*
X128733618Y-110472950D01*
X128733618Y-110472950D02*
X128695523Y-110511045D01*
X128695523Y-110511045D02*
X128657428Y-110587236D01*
X128657428Y-110587236D02*
X128657428Y-110663426D01*
X128657428Y-110663426D02*
X128695523Y-110777712D01*
X128695523Y-110777712D02*
X129152666Y-111234855D01*
X129152666Y-111234855D02*
X128657428Y-111234855D01*
X127971713Y-110434855D02*
X128124094Y-110434855D01*
X128124094Y-110434855D02*
X128200285Y-110472950D01*
X128200285Y-110472950D02*
X128238380Y-110511045D01*
X128238380Y-110511045D02*
X128314570Y-110625331D01*
X128314570Y-110625331D02*
X128352666Y-110777712D01*
X128352666Y-110777712D02*
X128352666Y-111082474D01*
X128352666Y-111082474D02*
X128314570Y-111158664D01*
X128314570Y-111158664D02*
X128276475Y-111196760D01*
X128276475Y-111196760D02*
X128200285Y-111234855D01*
X128200285Y-111234855D02*
X128047904Y-111234855D01*
X128047904Y-111234855D02*
X127971713Y-111196760D01*
X127971713Y-111196760D02*
X127933618Y-111158664D01*
X127933618Y-111158664D02*
X127895523Y-111082474D01*
X127895523Y-111082474D02*
X127895523Y-110891998D01*
X127895523Y-110891998D02*
X127933618Y-110815807D01*
X127933618Y-110815807D02*
X127971713Y-110777712D01*
X127971713Y-110777712D02*
X128047904Y-110739617D01*
X128047904Y-110739617D02*
X128200285Y-110739617D01*
X128200285Y-110739617D02*
X128276475Y-110777712D01*
X128276475Y-110777712D02*
X128314570Y-110815807D01*
X128314570Y-110815807D02*
X128352666Y-110891998D01*
X123958237Y-114206664D02*
X123996333Y-114244760D01*
X123996333Y-114244760D02*
X124110618Y-114282855D01*
X124110618Y-114282855D02*
X124186809Y-114282855D01*
X124186809Y-114282855D02*
X124301095Y-114244760D01*
X124301095Y-114244760D02*
X124377285Y-114168569D01*
X124377285Y-114168569D02*
X124415380Y-114092379D01*
X124415380Y-114092379D02*
X124453476Y-113939998D01*
X124453476Y-113939998D02*
X124453476Y-113825712D01*
X124453476Y-113825712D02*
X124415380Y-113673331D01*
X124415380Y-113673331D02*
X124377285Y-113597140D01*
X124377285Y-113597140D02*
X124301095Y-113520950D01*
X124301095Y-113520950D02*
X124186809Y-113482855D01*
X124186809Y-113482855D02*
X124110618Y-113482855D01*
X124110618Y-113482855D02*
X123996333Y-113520950D01*
X123996333Y-113520950D02*
X123958237Y-113559045D01*
X123196333Y-114282855D02*
X123653476Y-114282855D01*
X123424904Y-114282855D02*
X123424904Y-113482855D01*
X123424904Y-113482855D02*
X123501095Y-113597140D01*
X123501095Y-113597140D02*
X123577285Y-113673331D01*
X123577285Y-113673331D02*
X123653476Y-113711426D01*
X122434428Y-114282855D02*
X122891571Y-114282855D01*
X122662999Y-114282855D02*
X122662999Y-113482855D01*
X122662999Y-113482855D02*
X122739190Y-113597140D01*
X122739190Y-113597140D02*
X122815380Y-113673331D01*
X122815380Y-113673331D02*
X122891571Y-113711426D01*
X121748713Y-113749521D02*
X121748713Y-114282855D01*
X121939189Y-113444760D02*
X122129666Y-114016188D01*
X122129666Y-114016188D02*
X121634427Y-114016188D01*
X131565237Y-80932664D02*
X131603333Y-80970760D01*
X131603333Y-80970760D02*
X131717618Y-81008855D01*
X131717618Y-81008855D02*
X131793809Y-81008855D01*
X131793809Y-81008855D02*
X131908095Y-80970760D01*
X131908095Y-80970760D02*
X131984285Y-80894569D01*
X131984285Y-80894569D02*
X132022380Y-80818379D01*
X132022380Y-80818379D02*
X132060476Y-80665998D01*
X132060476Y-80665998D02*
X132060476Y-80551712D01*
X132060476Y-80551712D02*
X132022380Y-80399331D01*
X132022380Y-80399331D02*
X131984285Y-80323140D01*
X131984285Y-80323140D02*
X131908095Y-80246950D01*
X131908095Y-80246950D02*
X131793809Y-80208855D01*
X131793809Y-80208855D02*
X131717618Y-80208855D01*
X131717618Y-80208855D02*
X131603333Y-80246950D01*
X131603333Y-80246950D02*
X131565237Y-80285045D01*
X131260476Y-80285045D02*
X131222380Y-80246950D01*
X131222380Y-80246950D02*
X131146190Y-80208855D01*
X131146190Y-80208855D02*
X130955714Y-80208855D01*
X130955714Y-80208855D02*
X130879523Y-80246950D01*
X130879523Y-80246950D02*
X130841428Y-80285045D01*
X130841428Y-80285045D02*
X130803333Y-80361236D01*
X130803333Y-80361236D02*
X130803333Y-80437426D01*
X130803333Y-80437426D02*
X130841428Y-80551712D01*
X130841428Y-80551712D02*
X131298571Y-81008855D01*
X131298571Y-81008855D02*
X130803333Y-81008855D01*
X130041428Y-81008855D02*
X130498571Y-81008855D01*
X130269999Y-81008855D02*
X130269999Y-80208855D01*
X130269999Y-80208855D02*
X130346190Y-80323140D01*
X130346190Y-80323140D02*
X130422380Y-80399331D01*
X130422380Y-80399331D02*
X130498571Y-80437426D01*
X129355713Y-80208855D02*
X129508094Y-80208855D01*
X129508094Y-80208855D02*
X129584285Y-80246950D01*
X129584285Y-80246950D02*
X129622380Y-80285045D01*
X129622380Y-80285045D02*
X129698570Y-80399331D01*
X129698570Y-80399331D02*
X129736666Y-80551712D01*
X129736666Y-80551712D02*
X129736666Y-80856474D01*
X129736666Y-80856474D02*
X129698570Y-80932664D01*
X129698570Y-80932664D02*
X129660475Y-80970760D01*
X129660475Y-80970760D02*
X129584285Y-81008855D01*
X129584285Y-81008855D02*
X129431904Y-81008855D01*
X129431904Y-81008855D02*
X129355713Y-80970760D01*
X129355713Y-80970760D02*
X129317618Y-80932664D01*
X129317618Y-80932664D02*
X129279523Y-80856474D01*
X129279523Y-80856474D02*
X129279523Y-80665998D01*
X129279523Y-80665998D02*
X129317618Y-80589807D01*
X129317618Y-80589807D02*
X129355713Y-80551712D01*
X129355713Y-80551712D02*
X129431904Y-80513617D01*
X129431904Y-80513617D02*
X129584285Y-80513617D01*
X129584285Y-80513617D02*
X129660475Y-80551712D01*
X129660475Y-80551712D02*
X129698570Y-80589807D01*
X129698570Y-80589807D02*
X129736666Y-80665998D01*
X130168237Y-76817855D02*
X130434904Y-76436902D01*
X130625380Y-76817855D02*
X130625380Y-76017855D01*
X130625380Y-76017855D02*
X130320618Y-76017855D01*
X130320618Y-76017855D02*
X130244428Y-76055950D01*
X130244428Y-76055950D02*
X130206333Y-76094045D01*
X130206333Y-76094045D02*
X130168237Y-76170236D01*
X130168237Y-76170236D02*
X130168237Y-76284521D01*
X130168237Y-76284521D02*
X130206333Y-76360712D01*
X130206333Y-76360712D02*
X130244428Y-76398807D01*
X130244428Y-76398807D02*
X130320618Y-76436902D01*
X130320618Y-76436902D02*
X130625380Y-76436902D01*
X129863476Y-76094045D02*
X129825380Y-76055950D01*
X129825380Y-76055950D02*
X129749190Y-76017855D01*
X129749190Y-76017855D02*
X129558714Y-76017855D01*
X129558714Y-76017855D02*
X129482523Y-76055950D01*
X129482523Y-76055950D02*
X129444428Y-76094045D01*
X129444428Y-76094045D02*
X129406333Y-76170236D01*
X129406333Y-76170236D02*
X129406333Y-76246426D01*
X129406333Y-76246426D02*
X129444428Y-76360712D01*
X129444428Y-76360712D02*
X129901571Y-76817855D01*
X129901571Y-76817855D02*
X129406333Y-76817855D01*
X129101571Y-76094045D02*
X129063475Y-76055950D01*
X129063475Y-76055950D02*
X128987285Y-76017855D01*
X128987285Y-76017855D02*
X128796809Y-76017855D01*
X128796809Y-76017855D02*
X128720618Y-76055950D01*
X128720618Y-76055950D02*
X128682523Y-76094045D01*
X128682523Y-76094045D02*
X128644428Y-76170236D01*
X128644428Y-76170236D02*
X128644428Y-76246426D01*
X128644428Y-76246426D02*
X128682523Y-76360712D01*
X128682523Y-76360712D02*
X129139666Y-76817855D01*
X129139666Y-76817855D02*
X128644428Y-76817855D01*
X127958713Y-76017855D02*
X128111094Y-76017855D01*
X128111094Y-76017855D02*
X128187285Y-76055950D01*
X128187285Y-76055950D02*
X128225380Y-76094045D01*
X128225380Y-76094045D02*
X128301570Y-76208331D01*
X128301570Y-76208331D02*
X128339666Y-76360712D01*
X128339666Y-76360712D02*
X128339666Y-76665474D01*
X128339666Y-76665474D02*
X128301570Y-76741664D01*
X128301570Y-76741664D02*
X128263475Y-76779760D01*
X128263475Y-76779760D02*
X128187285Y-76817855D01*
X128187285Y-76817855D02*
X128034904Y-76817855D01*
X128034904Y-76817855D02*
X127958713Y-76779760D01*
X127958713Y-76779760D02*
X127920618Y-76741664D01*
X127920618Y-76741664D02*
X127882523Y-76665474D01*
X127882523Y-76665474D02*
X127882523Y-76474998D01*
X127882523Y-76474998D02*
X127920618Y-76398807D01*
X127920618Y-76398807D02*
X127958713Y-76360712D01*
X127958713Y-76360712D02*
X128034904Y-76322617D01*
X128034904Y-76322617D02*
X128187285Y-76322617D01*
X128187285Y-76322617D02*
X128263475Y-76360712D01*
X128263475Y-76360712D02*
X128301570Y-76398807D01*
X128301570Y-76398807D02*
X128339666Y-76474998D01*
X118384664Y-74288762D02*
X118422760Y-74250666D01*
X118422760Y-74250666D02*
X118460855Y-74136381D01*
X118460855Y-74136381D02*
X118460855Y-74060190D01*
X118460855Y-74060190D02*
X118422760Y-73945904D01*
X118422760Y-73945904D02*
X118346569Y-73869714D01*
X118346569Y-73869714D02*
X118270379Y-73831619D01*
X118270379Y-73831619D02*
X118117998Y-73793523D01*
X118117998Y-73793523D02*
X118003712Y-73793523D01*
X118003712Y-73793523D02*
X117851331Y-73831619D01*
X117851331Y-73831619D02*
X117775140Y-73869714D01*
X117775140Y-73869714D02*
X117698950Y-73945904D01*
X117698950Y-73945904D02*
X117660855Y-74060190D01*
X117660855Y-74060190D02*
X117660855Y-74136381D01*
X117660855Y-74136381D02*
X117698950Y-74250666D01*
X117698950Y-74250666D02*
X117737045Y-74288762D01*
X117737045Y-74593523D02*
X117698950Y-74631619D01*
X117698950Y-74631619D02*
X117660855Y-74707809D01*
X117660855Y-74707809D02*
X117660855Y-74898285D01*
X117660855Y-74898285D02*
X117698950Y-74974476D01*
X117698950Y-74974476D02*
X117737045Y-75012571D01*
X117737045Y-75012571D02*
X117813236Y-75050666D01*
X117813236Y-75050666D02*
X117889426Y-75050666D01*
X117889426Y-75050666D02*
X118003712Y-75012571D01*
X118003712Y-75012571D02*
X118460855Y-74555428D01*
X118460855Y-74555428D02*
X118460855Y-75050666D01*
X118460855Y-75812571D02*
X118460855Y-75355428D01*
X118460855Y-75584000D02*
X117660855Y-75584000D01*
X117660855Y-75584000D02*
X117775140Y-75507809D01*
X117775140Y-75507809D02*
X117851331Y-75431619D01*
X117851331Y-75431619D02*
X117889426Y-75355428D01*
X117660855Y-76079238D02*
X117660855Y-76574476D01*
X117660855Y-76574476D02*
X117965617Y-76307810D01*
X117965617Y-76307810D02*
X117965617Y-76422095D01*
X117965617Y-76422095D02*
X118003712Y-76498286D01*
X118003712Y-76498286D02*
X118041807Y-76536381D01*
X118041807Y-76536381D02*
X118117998Y-76574476D01*
X118117998Y-76574476D02*
X118308474Y-76574476D01*
X118308474Y-76574476D02*
X118384664Y-76536381D01*
X118384664Y-76536381D02*
X118422760Y-76498286D01*
X118422760Y-76498286D02*
X118460855Y-76422095D01*
X118460855Y-76422095D02*
X118460855Y-76193524D01*
X118460855Y-76193524D02*
X118422760Y-76117333D01*
X118422760Y-76117333D02*
X118384664Y-76079238D01*
X194597664Y-77463667D02*
X194635760Y-77425571D01*
X194635760Y-77425571D02*
X194673855Y-77311286D01*
X194673855Y-77311286D02*
X194673855Y-77235095D01*
X194673855Y-77235095D02*
X194635760Y-77120809D01*
X194635760Y-77120809D02*
X194559569Y-77044619D01*
X194559569Y-77044619D02*
X194483379Y-77006524D01*
X194483379Y-77006524D02*
X194330998Y-76968428D01*
X194330998Y-76968428D02*
X194216712Y-76968428D01*
X194216712Y-76968428D02*
X194064331Y-77006524D01*
X194064331Y-77006524D02*
X193988140Y-77044619D01*
X193988140Y-77044619D02*
X193911950Y-77120809D01*
X193911950Y-77120809D02*
X193873855Y-77235095D01*
X193873855Y-77235095D02*
X193873855Y-77311286D01*
X193873855Y-77311286D02*
X193911950Y-77425571D01*
X193911950Y-77425571D02*
X193950045Y-77463667D01*
X193873855Y-77730333D02*
X193873855Y-78263667D01*
X193873855Y-78263667D02*
X194673855Y-77920809D01*
X187693045Y-90855809D02*
X187654950Y-90779619D01*
X187654950Y-90779619D02*
X187578760Y-90703428D01*
X187578760Y-90703428D02*
X187464474Y-90589142D01*
X187464474Y-90589142D02*
X187426379Y-90512952D01*
X187426379Y-90512952D02*
X187426379Y-90436761D01*
X187616855Y-90474857D02*
X187578760Y-90398666D01*
X187578760Y-90398666D02*
X187502569Y-90322476D01*
X187502569Y-90322476D02*
X187350188Y-90284380D01*
X187350188Y-90284380D02*
X187083521Y-90284380D01*
X187083521Y-90284380D02*
X186931140Y-90322476D01*
X186931140Y-90322476D02*
X186854950Y-90398666D01*
X186854950Y-90398666D02*
X186816855Y-90474857D01*
X186816855Y-90474857D02*
X186816855Y-90627238D01*
X186816855Y-90627238D02*
X186854950Y-90703428D01*
X186854950Y-90703428D02*
X186931140Y-90779619D01*
X186931140Y-90779619D02*
X187083521Y-90817714D01*
X187083521Y-90817714D02*
X187350188Y-90817714D01*
X187350188Y-90817714D02*
X187502569Y-90779619D01*
X187502569Y-90779619D02*
X187578760Y-90703428D01*
X187578760Y-90703428D02*
X187616855Y-90627238D01*
X187616855Y-90627238D02*
X187616855Y-90474857D01*
X186893045Y-91122475D02*
X186854950Y-91160571D01*
X186854950Y-91160571D02*
X186816855Y-91236761D01*
X186816855Y-91236761D02*
X186816855Y-91427237D01*
X186816855Y-91427237D02*
X186854950Y-91503428D01*
X186854950Y-91503428D02*
X186893045Y-91541523D01*
X186893045Y-91541523D02*
X186969236Y-91579618D01*
X186969236Y-91579618D02*
X187045426Y-91579618D01*
X187045426Y-91579618D02*
X187159712Y-91541523D01*
X187159712Y-91541523D02*
X187616855Y-91084380D01*
X187616855Y-91084380D02*
X187616855Y-91579618D01*
X189490285Y-98712664D02*
X189528381Y-98750760D01*
X189528381Y-98750760D02*
X189642666Y-98788855D01*
X189642666Y-98788855D02*
X189718857Y-98788855D01*
X189718857Y-98788855D02*
X189833143Y-98750760D01*
X189833143Y-98750760D02*
X189909333Y-98674569D01*
X189909333Y-98674569D02*
X189947428Y-98598379D01*
X189947428Y-98598379D02*
X189985524Y-98445998D01*
X189985524Y-98445998D02*
X189985524Y-98331712D01*
X189985524Y-98331712D02*
X189947428Y-98179331D01*
X189947428Y-98179331D02*
X189909333Y-98103140D01*
X189909333Y-98103140D02*
X189833143Y-98026950D01*
X189833143Y-98026950D02*
X189718857Y-97988855D01*
X189718857Y-97988855D02*
X189642666Y-97988855D01*
X189642666Y-97988855D02*
X189528381Y-98026950D01*
X189528381Y-98026950D02*
X189490285Y-98065045D01*
X188728381Y-98788855D02*
X189185524Y-98788855D01*
X188956952Y-98788855D02*
X188956952Y-97988855D01*
X188956952Y-97988855D02*
X189033143Y-98103140D01*
X189033143Y-98103140D02*
X189109333Y-98179331D01*
X189109333Y-98179331D02*
X189185524Y-98217426D01*
X188004571Y-97988855D02*
X188385523Y-97988855D01*
X188385523Y-97988855D02*
X188423619Y-98369807D01*
X188423619Y-98369807D02*
X188385523Y-98331712D01*
X188385523Y-98331712D02*
X188309333Y-98293617D01*
X188309333Y-98293617D02*
X188118857Y-98293617D01*
X188118857Y-98293617D02*
X188042666Y-98331712D01*
X188042666Y-98331712D02*
X188004571Y-98369807D01*
X188004571Y-98369807D02*
X187966476Y-98445998D01*
X187966476Y-98445998D02*
X187966476Y-98636474D01*
X187966476Y-98636474D02*
X188004571Y-98712664D01*
X188004571Y-98712664D02*
X188042666Y-98750760D01*
X188042666Y-98750760D02*
X188118857Y-98788855D01*
X188118857Y-98788855D02*
X188309333Y-98788855D01*
X188309333Y-98788855D02*
X188385523Y-98750760D01*
X188385523Y-98750760D02*
X188423619Y-98712664D01*
X116619664Y-119627762D02*
X116657760Y-119589666D01*
X116657760Y-119589666D02*
X116695855Y-119475381D01*
X116695855Y-119475381D02*
X116695855Y-119399190D01*
X116695855Y-119399190D02*
X116657760Y-119284904D01*
X116657760Y-119284904D02*
X116581569Y-119208714D01*
X116581569Y-119208714D02*
X116505379Y-119170619D01*
X116505379Y-119170619D02*
X116352998Y-119132523D01*
X116352998Y-119132523D02*
X116238712Y-119132523D01*
X116238712Y-119132523D02*
X116086331Y-119170619D01*
X116086331Y-119170619D02*
X116010140Y-119208714D01*
X116010140Y-119208714D02*
X115933950Y-119284904D01*
X115933950Y-119284904D02*
X115895855Y-119399190D01*
X115895855Y-119399190D02*
X115895855Y-119475381D01*
X115895855Y-119475381D02*
X115933950Y-119589666D01*
X115933950Y-119589666D02*
X115972045Y-119627762D01*
X116695855Y-120389666D02*
X116695855Y-119932523D01*
X116695855Y-120161095D02*
X115895855Y-120161095D01*
X115895855Y-120161095D02*
X116010140Y-120084904D01*
X116010140Y-120084904D02*
X116086331Y-120008714D01*
X116086331Y-120008714D02*
X116124426Y-119932523D01*
X116695855Y-121151571D02*
X116695855Y-120694428D01*
X116695855Y-120923000D02*
X115895855Y-120923000D01*
X115895855Y-120923000D02*
X116010140Y-120846809D01*
X116010140Y-120846809D02*
X116086331Y-120770619D01*
X116086331Y-120770619D02*
X116124426Y-120694428D01*
X115972045Y-121456333D02*
X115933950Y-121494429D01*
X115933950Y-121494429D02*
X115895855Y-121570619D01*
X115895855Y-121570619D02*
X115895855Y-121761095D01*
X115895855Y-121761095D02*
X115933950Y-121837286D01*
X115933950Y-121837286D02*
X115972045Y-121875381D01*
X115972045Y-121875381D02*
X116048236Y-121913476D01*
X116048236Y-121913476D02*
X116124426Y-121913476D01*
X116124426Y-121913476D02*
X116238712Y-121875381D01*
X116238712Y-121875381D02*
X116695855Y-121418238D01*
X116695855Y-121418238D02*
X116695855Y-121913476D01*
X145573664Y-91703714D02*
X145611760Y-91665618D01*
X145611760Y-91665618D02*
X145649855Y-91551333D01*
X145649855Y-91551333D02*
X145649855Y-91475142D01*
X145649855Y-91475142D02*
X145611760Y-91360856D01*
X145611760Y-91360856D02*
X145535569Y-91284666D01*
X145535569Y-91284666D02*
X145459379Y-91246571D01*
X145459379Y-91246571D02*
X145306998Y-91208475D01*
X145306998Y-91208475D02*
X145192712Y-91208475D01*
X145192712Y-91208475D02*
X145040331Y-91246571D01*
X145040331Y-91246571D02*
X144964140Y-91284666D01*
X144964140Y-91284666D02*
X144887950Y-91360856D01*
X144887950Y-91360856D02*
X144849855Y-91475142D01*
X144849855Y-91475142D02*
X144849855Y-91551333D01*
X144849855Y-91551333D02*
X144887950Y-91665618D01*
X144887950Y-91665618D02*
X144926045Y-91703714D01*
X144849855Y-91970380D02*
X144849855Y-92465618D01*
X144849855Y-92465618D02*
X145154617Y-92198952D01*
X145154617Y-92198952D02*
X145154617Y-92313237D01*
X145154617Y-92313237D02*
X145192712Y-92389428D01*
X145192712Y-92389428D02*
X145230807Y-92427523D01*
X145230807Y-92427523D02*
X145306998Y-92465618D01*
X145306998Y-92465618D02*
X145497474Y-92465618D01*
X145497474Y-92465618D02*
X145573664Y-92427523D01*
X145573664Y-92427523D02*
X145611760Y-92389428D01*
X145611760Y-92389428D02*
X145649855Y-92313237D01*
X145649855Y-92313237D02*
X145649855Y-92084666D01*
X145649855Y-92084666D02*
X145611760Y-92008475D01*
X145611760Y-92008475D02*
X145573664Y-91970380D01*
X145649855Y-93227523D02*
X145649855Y-92770380D01*
X145649855Y-92998952D02*
X144849855Y-92998952D01*
X144849855Y-92998952D02*
X144964140Y-92922761D01*
X144964140Y-92922761D02*
X145040331Y-92846571D01*
X145040331Y-92846571D02*
X145078426Y-92770380D01*
X89865095Y-110422045D02*
X89941285Y-110383950D01*
X89941285Y-110383950D02*
X90017476Y-110307760D01*
X90017476Y-110307760D02*
X90131762Y-110193474D01*
X90131762Y-110193474D02*
X90207952Y-110155379D01*
X90207952Y-110155379D02*
X90284143Y-110155379D01*
X90246047Y-110345855D02*
X90322238Y-110307760D01*
X90322238Y-110307760D02*
X90398428Y-110231569D01*
X90398428Y-110231569D02*
X90436524Y-110079188D01*
X90436524Y-110079188D02*
X90436524Y-109812521D01*
X90436524Y-109812521D02*
X90398428Y-109660140D01*
X90398428Y-109660140D02*
X90322238Y-109583950D01*
X90322238Y-109583950D02*
X90246047Y-109545855D01*
X90246047Y-109545855D02*
X90093666Y-109545855D01*
X90093666Y-109545855D02*
X90017476Y-109583950D01*
X90017476Y-109583950D02*
X89941285Y-109660140D01*
X89941285Y-109660140D02*
X89903190Y-109812521D01*
X89903190Y-109812521D02*
X89903190Y-110079188D01*
X89903190Y-110079188D02*
X89941285Y-110231569D01*
X89941285Y-110231569D02*
X90017476Y-110307760D01*
X90017476Y-110307760D02*
X90093666Y-110345855D01*
X90093666Y-110345855D02*
X90246047Y-110345855D01*
X89141286Y-110345855D02*
X89598429Y-110345855D01*
X89369857Y-110345855D02*
X89369857Y-109545855D01*
X89369857Y-109545855D02*
X89446048Y-109660140D01*
X89446048Y-109660140D02*
X89522238Y-109736331D01*
X89522238Y-109736331D02*
X89598429Y-109774426D01*
X88646047Y-109545855D02*
X88569857Y-109545855D01*
X88569857Y-109545855D02*
X88493666Y-109583950D01*
X88493666Y-109583950D02*
X88455571Y-109622045D01*
X88455571Y-109622045D02*
X88417476Y-109698236D01*
X88417476Y-109698236D02*
X88379381Y-109850617D01*
X88379381Y-109850617D02*
X88379381Y-110041093D01*
X88379381Y-110041093D02*
X88417476Y-110193474D01*
X88417476Y-110193474D02*
X88455571Y-110269664D01*
X88455571Y-110269664D02*
X88493666Y-110307760D01*
X88493666Y-110307760D02*
X88569857Y-110345855D01*
X88569857Y-110345855D02*
X88646047Y-110345855D01*
X88646047Y-110345855D02*
X88722238Y-110307760D01*
X88722238Y-110307760D02*
X88760333Y-110269664D01*
X88760333Y-110269664D02*
X88798428Y-110193474D01*
X88798428Y-110193474D02*
X88836524Y-110041093D01*
X88836524Y-110041093D02*
X88836524Y-109850617D01*
X88836524Y-109850617D02*
X88798428Y-109698236D01*
X88798428Y-109698236D02*
X88760333Y-109622045D01*
X88760333Y-109622045D02*
X88722238Y-109583950D01*
X88722238Y-109583950D02*
X88646047Y-109545855D01*
X88074619Y-109622045D02*
X88036523Y-109583950D01*
X88036523Y-109583950D02*
X87960333Y-109545855D01*
X87960333Y-109545855D02*
X87769857Y-109545855D01*
X87769857Y-109545855D02*
X87693666Y-109583950D01*
X87693666Y-109583950D02*
X87655571Y-109622045D01*
X87655571Y-109622045D02*
X87617476Y-109698236D01*
X87617476Y-109698236D02*
X87617476Y-109774426D01*
X87617476Y-109774426D02*
X87655571Y-109888712D01*
X87655571Y-109888712D02*
X88112714Y-110345855D01*
X88112714Y-110345855D02*
X87617476Y-110345855D01*
X105824664Y-88258762D02*
X105862760Y-88220666D01*
X105862760Y-88220666D02*
X105900855Y-88106381D01*
X105900855Y-88106381D02*
X105900855Y-88030190D01*
X105900855Y-88030190D02*
X105862760Y-87915904D01*
X105862760Y-87915904D02*
X105786569Y-87839714D01*
X105786569Y-87839714D02*
X105710379Y-87801619D01*
X105710379Y-87801619D02*
X105557998Y-87763523D01*
X105557998Y-87763523D02*
X105443712Y-87763523D01*
X105443712Y-87763523D02*
X105291331Y-87801619D01*
X105291331Y-87801619D02*
X105215140Y-87839714D01*
X105215140Y-87839714D02*
X105138950Y-87915904D01*
X105138950Y-87915904D02*
X105100855Y-88030190D01*
X105100855Y-88030190D02*
X105100855Y-88106381D01*
X105100855Y-88106381D02*
X105138950Y-88220666D01*
X105138950Y-88220666D02*
X105177045Y-88258762D01*
X105177045Y-88563523D02*
X105138950Y-88601619D01*
X105138950Y-88601619D02*
X105100855Y-88677809D01*
X105100855Y-88677809D02*
X105100855Y-88868285D01*
X105100855Y-88868285D02*
X105138950Y-88944476D01*
X105138950Y-88944476D02*
X105177045Y-88982571D01*
X105177045Y-88982571D02*
X105253236Y-89020666D01*
X105253236Y-89020666D02*
X105329426Y-89020666D01*
X105329426Y-89020666D02*
X105443712Y-88982571D01*
X105443712Y-88982571D02*
X105900855Y-88525428D01*
X105900855Y-88525428D02*
X105900855Y-89020666D01*
X105177045Y-89325428D02*
X105138950Y-89363524D01*
X105138950Y-89363524D02*
X105100855Y-89439714D01*
X105100855Y-89439714D02*
X105100855Y-89630190D01*
X105100855Y-89630190D02*
X105138950Y-89706381D01*
X105138950Y-89706381D02*
X105177045Y-89744476D01*
X105177045Y-89744476D02*
X105253236Y-89782571D01*
X105253236Y-89782571D02*
X105329426Y-89782571D01*
X105329426Y-89782571D02*
X105443712Y-89744476D01*
X105443712Y-89744476D02*
X105900855Y-89287333D01*
X105900855Y-89287333D02*
X105900855Y-89782571D01*
X105100855Y-90049238D02*
X105100855Y-90544476D01*
X105100855Y-90544476D02*
X105405617Y-90277810D01*
X105405617Y-90277810D02*
X105405617Y-90392095D01*
X105405617Y-90392095D02*
X105443712Y-90468286D01*
X105443712Y-90468286D02*
X105481807Y-90506381D01*
X105481807Y-90506381D02*
X105557998Y-90544476D01*
X105557998Y-90544476D02*
X105748474Y-90544476D01*
X105748474Y-90544476D02*
X105824664Y-90506381D01*
X105824664Y-90506381D02*
X105862760Y-90468286D01*
X105862760Y-90468286D02*
X105900855Y-90392095D01*
X105900855Y-90392095D02*
X105900855Y-90163524D01*
X105900855Y-90163524D02*
X105862760Y-90087333D01*
X105862760Y-90087333D02*
X105824664Y-90049238D01*
X123945237Y-79789664D02*
X123983333Y-79827760D01*
X123983333Y-79827760D02*
X124097618Y-79865855D01*
X124097618Y-79865855D02*
X124173809Y-79865855D01*
X124173809Y-79865855D02*
X124288095Y-79827760D01*
X124288095Y-79827760D02*
X124364285Y-79751569D01*
X124364285Y-79751569D02*
X124402380Y-79675379D01*
X124402380Y-79675379D02*
X124440476Y-79522998D01*
X124440476Y-79522998D02*
X124440476Y-79408712D01*
X124440476Y-79408712D02*
X124402380Y-79256331D01*
X124402380Y-79256331D02*
X124364285Y-79180140D01*
X124364285Y-79180140D02*
X124288095Y-79103950D01*
X124288095Y-79103950D02*
X124173809Y-79065855D01*
X124173809Y-79065855D02*
X124097618Y-79065855D01*
X124097618Y-79065855D02*
X123983333Y-79103950D01*
X123983333Y-79103950D02*
X123945237Y-79142045D01*
X123640476Y-79142045D02*
X123602380Y-79103950D01*
X123602380Y-79103950D02*
X123526190Y-79065855D01*
X123526190Y-79065855D02*
X123335714Y-79065855D01*
X123335714Y-79065855D02*
X123259523Y-79103950D01*
X123259523Y-79103950D02*
X123221428Y-79142045D01*
X123221428Y-79142045D02*
X123183333Y-79218236D01*
X123183333Y-79218236D02*
X123183333Y-79294426D01*
X123183333Y-79294426D02*
X123221428Y-79408712D01*
X123221428Y-79408712D02*
X123678571Y-79865855D01*
X123678571Y-79865855D02*
X123183333Y-79865855D01*
X122421428Y-79865855D02*
X122878571Y-79865855D01*
X122649999Y-79865855D02*
X122649999Y-79065855D01*
X122649999Y-79065855D02*
X122726190Y-79180140D01*
X122726190Y-79180140D02*
X122802380Y-79256331D01*
X122802380Y-79256331D02*
X122878571Y-79294426D01*
X121735713Y-79332521D02*
X121735713Y-79865855D01*
X121926189Y-79027760D02*
X122116666Y-79599188D01*
X122116666Y-79599188D02*
X121621427Y-79599188D01*
X112974855Y-100990476D02*
X113622474Y-100990476D01*
X113622474Y-100990476D02*
X113698664Y-101028571D01*
X113698664Y-101028571D02*
X113736760Y-101066666D01*
X113736760Y-101066666D02*
X113774855Y-101142857D01*
X113774855Y-101142857D02*
X113774855Y-101295238D01*
X113774855Y-101295238D02*
X113736760Y-101371428D01*
X113736760Y-101371428D02*
X113698664Y-101409523D01*
X113698664Y-101409523D02*
X113622474Y-101447619D01*
X113622474Y-101447619D02*
X112974855Y-101447619D01*
X112974855Y-101752380D02*
X112974855Y-102285714D01*
X112974855Y-102285714D02*
X113774855Y-101942856D01*
X115349664Y-76320762D02*
X115387760Y-76282666D01*
X115387760Y-76282666D02*
X115425855Y-76168381D01*
X115425855Y-76168381D02*
X115425855Y-76092190D01*
X115425855Y-76092190D02*
X115387760Y-75977904D01*
X115387760Y-75977904D02*
X115311569Y-75901714D01*
X115311569Y-75901714D02*
X115235379Y-75863619D01*
X115235379Y-75863619D02*
X115082998Y-75825523D01*
X115082998Y-75825523D02*
X114968712Y-75825523D01*
X114968712Y-75825523D02*
X114816331Y-75863619D01*
X114816331Y-75863619D02*
X114740140Y-75901714D01*
X114740140Y-75901714D02*
X114663950Y-75977904D01*
X114663950Y-75977904D02*
X114625855Y-76092190D01*
X114625855Y-76092190D02*
X114625855Y-76168381D01*
X114625855Y-76168381D02*
X114663950Y-76282666D01*
X114663950Y-76282666D02*
X114702045Y-76320762D01*
X114702045Y-76625523D02*
X114663950Y-76663619D01*
X114663950Y-76663619D02*
X114625855Y-76739809D01*
X114625855Y-76739809D02*
X114625855Y-76930285D01*
X114625855Y-76930285D02*
X114663950Y-77006476D01*
X114663950Y-77006476D02*
X114702045Y-77044571D01*
X114702045Y-77044571D02*
X114778236Y-77082666D01*
X114778236Y-77082666D02*
X114854426Y-77082666D01*
X114854426Y-77082666D02*
X114968712Y-77044571D01*
X114968712Y-77044571D02*
X115425855Y-76587428D01*
X115425855Y-76587428D02*
X115425855Y-77082666D01*
X115425855Y-77844571D02*
X115425855Y-77387428D01*
X115425855Y-77616000D02*
X114625855Y-77616000D01*
X114625855Y-77616000D02*
X114740140Y-77539809D01*
X114740140Y-77539809D02*
X114816331Y-77463619D01*
X114816331Y-77463619D02*
X114854426Y-77387428D01*
X114625855Y-78111238D02*
X114625855Y-78644572D01*
X114625855Y-78644572D02*
X115425855Y-78301714D01*
X178314285Y-99347664D02*
X178352381Y-99385760D01*
X178352381Y-99385760D02*
X178466666Y-99423855D01*
X178466666Y-99423855D02*
X178542857Y-99423855D01*
X178542857Y-99423855D02*
X178657143Y-99385760D01*
X178657143Y-99385760D02*
X178733333Y-99309569D01*
X178733333Y-99309569D02*
X178771428Y-99233379D01*
X178771428Y-99233379D02*
X178809524Y-99080998D01*
X178809524Y-99080998D02*
X178809524Y-98966712D01*
X178809524Y-98966712D02*
X178771428Y-98814331D01*
X178771428Y-98814331D02*
X178733333Y-98738140D01*
X178733333Y-98738140D02*
X178657143Y-98661950D01*
X178657143Y-98661950D02*
X178542857Y-98623855D01*
X178542857Y-98623855D02*
X178466666Y-98623855D01*
X178466666Y-98623855D02*
X178352381Y-98661950D01*
X178352381Y-98661950D02*
X178314285Y-98700045D01*
X177552381Y-99423855D02*
X178009524Y-99423855D01*
X177780952Y-99423855D02*
X177780952Y-98623855D01*
X177780952Y-98623855D02*
X177857143Y-98738140D01*
X177857143Y-98738140D02*
X177933333Y-98814331D01*
X177933333Y-98814331D02*
X178009524Y-98852426D01*
X176866666Y-98890521D02*
X176866666Y-99423855D01*
X177057142Y-98585760D02*
X177247619Y-99157188D01*
X177247619Y-99157188D02*
X176752380Y-99157188D01*
X121776855Y-108705762D02*
X121395902Y-108439095D01*
X121776855Y-108248619D02*
X120976855Y-108248619D01*
X120976855Y-108248619D02*
X120976855Y-108553381D01*
X120976855Y-108553381D02*
X121014950Y-108629571D01*
X121014950Y-108629571D02*
X121053045Y-108667666D01*
X121053045Y-108667666D02*
X121129236Y-108705762D01*
X121129236Y-108705762D02*
X121243521Y-108705762D01*
X121243521Y-108705762D02*
X121319712Y-108667666D01*
X121319712Y-108667666D02*
X121357807Y-108629571D01*
X121357807Y-108629571D02*
X121395902Y-108553381D01*
X121395902Y-108553381D02*
X121395902Y-108248619D01*
X121776855Y-109467666D02*
X121776855Y-109010523D01*
X121776855Y-109239095D02*
X120976855Y-109239095D01*
X120976855Y-109239095D02*
X121091140Y-109162904D01*
X121091140Y-109162904D02*
X121167331Y-109086714D01*
X121167331Y-109086714D02*
X121205426Y-109010523D01*
X121053045Y-109772428D02*
X121014950Y-109810524D01*
X121014950Y-109810524D02*
X120976855Y-109886714D01*
X120976855Y-109886714D02*
X120976855Y-110077190D01*
X120976855Y-110077190D02*
X121014950Y-110153381D01*
X121014950Y-110153381D02*
X121053045Y-110191476D01*
X121053045Y-110191476D02*
X121129236Y-110229571D01*
X121129236Y-110229571D02*
X121205426Y-110229571D01*
X121205426Y-110229571D02*
X121319712Y-110191476D01*
X121319712Y-110191476D02*
X121776855Y-109734333D01*
X121776855Y-109734333D02*
X121776855Y-110229571D01*
X120976855Y-110953381D02*
X120976855Y-110572429D01*
X120976855Y-110572429D02*
X121357807Y-110534333D01*
X121357807Y-110534333D02*
X121319712Y-110572429D01*
X121319712Y-110572429D02*
X121281617Y-110648619D01*
X121281617Y-110648619D02*
X121281617Y-110839095D01*
X121281617Y-110839095D02*
X121319712Y-110915286D01*
X121319712Y-110915286D02*
X121357807Y-110953381D01*
X121357807Y-110953381D02*
X121433998Y-110991476D01*
X121433998Y-110991476D02*
X121624474Y-110991476D01*
X121624474Y-110991476D02*
X121700664Y-110953381D01*
X121700664Y-110953381D02*
X121738760Y-110915286D01*
X121738760Y-110915286D02*
X121776855Y-110839095D01*
X121776855Y-110839095D02*
X121776855Y-110648619D01*
X121776855Y-110648619D02*
X121738760Y-110572429D01*
X121738760Y-110572429D02*
X121700664Y-110534333D01*
X131578237Y-113317664D02*
X131616333Y-113355760D01*
X131616333Y-113355760D02*
X131730618Y-113393855D01*
X131730618Y-113393855D02*
X131806809Y-113393855D01*
X131806809Y-113393855D02*
X131921095Y-113355760D01*
X131921095Y-113355760D02*
X131997285Y-113279569D01*
X131997285Y-113279569D02*
X132035380Y-113203379D01*
X132035380Y-113203379D02*
X132073476Y-113050998D01*
X132073476Y-113050998D02*
X132073476Y-112936712D01*
X132073476Y-112936712D02*
X132035380Y-112784331D01*
X132035380Y-112784331D02*
X131997285Y-112708140D01*
X131997285Y-112708140D02*
X131921095Y-112631950D01*
X131921095Y-112631950D02*
X131806809Y-112593855D01*
X131806809Y-112593855D02*
X131730618Y-112593855D01*
X131730618Y-112593855D02*
X131616333Y-112631950D01*
X131616333Y-112631950D02*
X131578237Y-112670045D01*
X130816333Y-113393855D02*
X131273476Y-113393855D01*
X131044904Y-113393855D02*
X131044904Y-112593855D01*
X131044904Y-112593855D02*
X131121095Y-112708140D01*
X131121095Y-112708140D02*
X131197285Y-112784331D01*
X131197285Y-112784331D02*
X131273476Y-112822426D01*
X130054428Y-113393855D02*
X130511571Y-113393855D01*
X130282999Y-113393855D02*
X130282999Y-112593855D01*
X130282999Y-112593855D02*
X130359190Y-112708140D01*
X130359190Y-112708140D02*
X130435380Y-112784331D01*
X130435380Y-112784331D02*
X130511571Y-112822426D01*
X129330618Y-112593855D02*
X129711570Y-112593855D01*
X129711570Y-112593855D02*
X129749666Y-112974807D01*
X129749666Y-112974807D02*
X129711570Y-112936712D01*
X129711570Y-112936712D02*
X129635380Y-112898617D01*
X129635380Y-112898617D02*
X129444904Y-112898617D01*
X129444904Y-112898617D02*
X129368713Y-112936712D01*
X129368713Y-112936712D02*
X129330618Y-112974807D01*
X129330618Y-112974807D02*
X129292523Y-113050998D01*
X129292523Y-113050998D02*
X129292523Y-113241474D01*
X129292523Y-113241474D02*
X129330618Y-113317664D01*
X129330618Y-113317664D02*
X129368713Y-113355760D01*
X129368713Y-113355760D02*
X129444904Y-113393855D01*
X129444904Y-113393855D02*
X129635380Y-113393855D01*
X129635380Y-113393855D02*
X129711570Y-113355760D01*
X129711570Y-113355760D02*
X129749666Y-113317664D01*
X122363664Y-120262762D02*
X122401760Y-120224666D01*
X122401760Y-120224666D02*
X122439855Y-120110381D01*
X122439855Y-120110381D02*
X122439855Y-120034190D01*
X122439855Y-120034190D02*
X122401760Y-119919904D01*
X122401760Y-119919904D02*
X122325569Y-119843714D01*
X122325569Y-119843714D02*
X122249379Y-119805619D01*
X122249379Y-119805619D02*
X122096998Y-119767523D01*
X122096998Y-119767523D02*
X121982712Y-119767523D01*
X121982712Y-119767523D02*
X121830331Y-119805619D01*
X121830331Y-119805619D02*
X121754140Y-119843714D01*
X121754140Y-119843714D02*
X121677950Y-119919904D01*
X121677950Y-119919904D02*
X121639855Y-120034190D01*
X121639855Y-120034190D02*
X121639855Y-120110381D01*
X121639855Y-120110381D02*
X121677950Y-120224666D01*
X121677950Y-120224666D02*
X121716045Y-120262762D01*
X122439855Y-121024666D02*
X122439855Y-120567523D01*
X122439855Y-120796095D02*
X121639855Y-120796095D01*
X121639855Y-120796095D02*
X121754140Y-120719904D01*
X121754140Y-120719904D02*
X121830331Y-120643714D01*
X121830331Y-120643714D02*
X121868426Y-120567523D01*
X122439855Y-121786571D02*
X122439855Y-121329428D01*
X122439855Y-121558000D02*
X121639855Y-121558000D01*
X121639855Y-121558000D02*
X121754140Y-121481809D01*
X121754140Y-121481809D02*
X121830331Y-121405619D01*
X121830331Y-121405619D02*
X121868426Y-121329428D01*
X122439855Y-122548476D02*
X122439855Y-122091333D01*
X122439855Y-122319905D02*
X121639855Y-122319905D01*
X121639855Y-122319905D02*
X121754140Y-122243714D01*
X121754140Y-122243714D02*
X121830331Y-122167524D01*
X121830331Y-122167524D02*
X121868426Y-122091333D01*
X130168237Y-74785855D02*
X130434904Y-74404902D01*
X130625380Y-74785855D02*
X130625380Y-73985855D01*
X130625380Y-73985855D02*
X130320618Y-73985855D01*
X130320618Y-73985855D02*
X130244428Y-74023950D01*
X130244428Y-74023950D02*
X130206333Y-74062045D01*
X130206333Y-74062045D02*
X130168237Y-74138236D01*
X130168237Y-74138236D02*
X130168237Y-74252521D01*
X130168237Y-74252521D02*
X130206333Y-74328712D01*
X130206333Y-74328712D02*
X130244428Y-74366807D01*
X130244428Y-74366807D02*
X130320618Y-74404902D01*
X130320618Y-74404902D02*
X130625380Y-74404902D01*
X129863476Y-74062045D02*
X129825380Y-74023950D01*
X129825380Y-74023950D02*
X129749190Y-73985855D01*
X129749190Y-73985855D02*
X129558714Y-73985855D01*
X129558714Y-73985855D02*
X129482523Y-74023950D01*
X129482523Y-74023950D02*
X129444428Y-74062045D01*
X129444428Y-74062045D02*
X129406333Y-74138236D01*
X129406333Y-74138236D02*
X129406333Y-74214426D01*
X129406333Y-74214426D02*
X129444428Y-74328712D01*
X129444428Y-74328712D02*
X129901571Y-74785855D01*
X129901571Y-74785855D02*
X129406333Y-74785855D01*
X129101571Y-74062045D02*
X129063475Y-74023950D01*
X129063475Y-74023950D02*
X128987285Y-73985855D01*
X128987285Y-73985855D02*
X128796809Y-73985855D01*
X128796809Y-73985855D02*
X128720618Y-74023950D01*
X128720618Y-74023950D02*
X128682523Y-74062045D01*
X128682523Y-74062045D02*
X128644428Y-74138236D01*
X128644428Y-74138236D02*
X128644428Y-74214426D01*
X128644428Y-74214426D02*
X128682523Y-74328712D01*
X128682523Y-74328712D02*
X129139666Y-74785855D01*
X129139666Y-74785855D02*
X128644428Y-74785855D01*
X127958713Y-74252521D02*
X127958713Y-74785855D01*
X128149189Y-73947760D02*
X128339666Y-74519188D01*
X128339666Y-74519188D02*
X127844427Y-74519188D01*
X73539285Y-89920664D02*
X73577381Y-89958760D01*
X73577381Y-89958760D02*
X73691666Y-89996855D01*
X73691666Y-89996855D02*
X73767857Y-89996855D01*
X73767857Y-89996855D02*
X73882143Y-89958760D01*
X73882143Y-89958760D02*
X73958333Y-89882569D01*
X73958333Y-89882569D02*
X73996428Y-89806379D01*
X73996428Y-89806379D02*
X74034524Y-89653998D01*
X74034524Y-89653998D02*
X74034524Y-89539712D01*
X74034524Y-89539712D02*
X73996428Y-89387331D01*
X73996428Y-89387331D02*
X73958333Y-89311140D01*
X73958333Y-89311140D02*
X73882143Y-89234950D01*
X73882143Y-89234950D02*
X73767857Y-89196855D01*
X73767857Y-89196855D02*
X73691666Y-89196855D01*
X73691666Y-89196855D02*
X73577381Y-89234950D01*
X73577381Y-89234950D02*
X73539285Y-89273045D01*
X73234524Y-89273045D02*
X73196428Y-89234950D01*
X73196428Y-89234950D02*
X73120238Y-89196855D01*
X73120238Y-89196855D02*
X72929762Y-89196855D01*
X72929762Y-89196855D02*
X72853571Y-89234950D01*
X72853571Y-89234950D02*
X72815476Y-89273045D01*
X72815476Y-89273045D02*
X72777381Y-89349236D01*
X72777381Y-89349236D02*
X72777381Y-89425426D01*
X72777381Y-89425426D02*
X72815476Y-89539712D01*
X72815476Y-89539712D02*
X73272619Y-89996855D01*
X73272619Y-89996855D02*
X72777381Y-89996855D01*
X72396428Y-89996855D02*
X72244047Y-89996855D01*
X72244047Y-89996855D02*
X72167857Y-89958760D01*
X72167857Y-89958760D02*
X72129761Y-89920664D01*
X72129761Y-89920664D02*
X72053571Y-89806379D01*
X72053571Y-89806379D02*
X72015476Y-89653998D01*
X72015476Y-89653998D02*
X72015476Y-89349236D01*
X72015476Y-89349236D02*
X72053571Y-89273045D01*
X72053571Y-89273045D02*
X72091666Y-89234950D01*
X72091666Y-89234950D02*
X72167857Y-89196855D01*
X72167857Y-89196855D02*
X72320238Y-89196855D01*
X72320238Y-89196855D02*
X72396428Y-89234950D01*
X72396428Y-89234950D02*
X72434523Y-89273045D01*
X72434523Y-89273045D02*
X72472619Y-89349236D01*
X72472619Y-89349236D02*
X72472619Y-89539712D01*
X72472619Y-89539712D02*
X72434523Y-89615902D01*
X72434523Y-89615902D02*
X72396428Y-89653998D01*
X72396428Y-89653998D02*
X72320238Y-89692093D01*
X72320238Y-89692093D02*
X72167857Y-89692093D01*
X72167857Y-89692093D02*
X72091666Y-89653998D01*
X72091666Y-89653998D02*
X72053571Y-89615902D01*
X72053571Y-89615902D02*
X72015476Y-89539712D01*
X106459664Y-76955762D02*
X106497760Y-76917666D01*
X106497760Y-76917666D02*
X106535855Y-76803381D01*
X106535855Y-76803381D02*
X106535855Y-76727190D01*
X106535855Y-76727190D02*
X106497760Y-76612904D01*
X106497760Y-76612904D02*
X106421569Y-76536714D01*
X106421569Y-76536714D02*
X106345379Y-76498619D01*
X106345379Y-76498619D02*
X106192998Y-76460523D01*
X106192998Y-76460523D02*
X106078712Y-76460523D01*
X106078712Y-76460523D02*
X105926331Y-76498619D01*
X105926331Y-76498619D02*
X105850140Y-76536714D01*
X105850140Y-76536714D02*
X105773950Y-76612904D01*
X105773950Y-76612904D02*
X105735855Y-76727190D01*
X105735855Y-76727190D02*
X105735855Y-76803381D01*
X105735855Y-76803381D02*
X105773950Y-76917666D01*
X105773950Y-76917666D02*
X105812045Y-76955762D01*
X105812045Y-77260523D02*
X105773950Y-77298619D01*
X105773950Y-77298619D02*
X105735855Y-77374809D01*
X105735855Y-77374809D02*
X105735855Y-77565285D01*
X105735855Y-77565285D02*
X105773950Y-77641476D01*
X105773950Y-77641476D02*
X105812045Y-77679571D01*
X105812045Y-77679571D02*
X105888236Y-77717666D01*
X105888236Y-77717666D02*
X105964426Y-77717666D01*
X105964426Y-77717666D02*
X106078712Y-77679571D01*
X106078712Y-77679571D02*
X106535855Y-77222428D01*
X106535855Y-77222428D02*
X106535855Y-77717666D01*
X105735855Y-78212905D02*
X105735855Y-78289095D01*
X105735855Y-78289095D02*
X105773950Y-78365286D01*
X105773950Y-78365286D02*
X105812045Y-78403381D01*
X105812045Y-78403381D02*
X105888236Y-78441476D01*
X105888236Y-78441476D02*
X106040617Y-78479571D01*
X106040617Y-78479571D02*
X106231093Y-78479571D01*
X106231093Y-78479571D02*
X106383474Y-78441476D01*
X106383474Y-78441476D02*
X106459664Y-78403381D01*
X106459664Y-78403381D02*
X106497760Y-78365286D01*
X106497760Y-78365286D02*
X106535855Y-78289095D01*
X106535855Y-78289095D02*
X106535855Y-78212905D01*
X106535855Y-78212905D02*
X106497760Y-78136714D01*
X106497760Y-78136714D02*
X106459664Y-78098619D01*
X106459664Y-78098619D02*
X106383474Y-78060524D01*
X106383474Y-78060524D02*
X106231093Y-78022428D01*
X106231093Y-78022428D02*
X106040617Y-78022428D01*
X106040617Y-78022428D02*
X105888236Y-78060524D01*
X105888236Y-78060524D02*
X105812045Y-78098619D01*
X105812045Y-78098619D02*
X105773950Y-78136714D01*
X105773950Y-78136714D02*
X105735855Y-78212905D01*
X106002521Y-79165286D02*
X106535855Y-79165286D01*
X105697760Y-78974810D02*
X106269188Y-78784333D01*
X106269188Y-78784333D02*
X106269188Y-79279572D01*
X176644045Y-90855809D02*
X176605950Y-90779619D01*
X176605950Y-90779619D02*
X176529760Y-90703428D01*
X176529760Y-90703428D02*
X176415474Y-90589142D01*
X176415474Y-90589142D02*
X176377379Y-90512952D01*
X176377379Y-90512952D02*
X176377379Y-90436761D01*
X176567855Y-90474857D02*
X176529760Y-90398666D01*
X176529760Y-90398666D02*
X176453569Y-90322476D01*
X176453569Y-90322476D02*
X176301188Y-90284380D01*
X176301188Y-90284380D02*
X176034521Y-90284380D01*
X176034521Y-90284380D02*
X175882140Y-90322476D01*
X175882140Y-90322476D02*
X175805950Y-90398666D01*
X175805950Y-90398666D02*
X175767855Y-90474857D01*
X175767855Y-90474857D02*
X175767855Y-90627238D01*
X175767855Y-90627238D02*
X175805950Y-90703428D01*
X175805950Y-90703428D02*
X175882140Y-90779619D01*
X175882140Y-90779619D02*
X176034521Y-90817714D01*
X176034521Y-90817714D02*
X176301188Y-90817714D01*
X176301188Y-90817714D02*
X176453569Y-90779619D01*
X176453569Y-90779619D02*
X176529760Y-90703428D01*
X176529760Y-90703428D02*
X176567855Y-90627238D01*
X176567855Y-90627238D02*
X176567855Y-90474857D01*
X176567855Y-91579618D02*
X176567855Y-91122475D01*
X176567855Y-91351047D02*
X175767855Y-91351047D01*
X175767855Y-91351047D02*
X175882140Y-91274856D01*
X175882140Y-91274856D02*
X175958331Y-91198666D01*
X175958331Y-91198666D02*
X175996426Y-91122475D01*
X131578237Y-115349664D02*
X131616333Y-115387760D01*
X131616333Y-115387760D02*
X131730618Y-115425855D01*
X131730618Y-115425855D02*
X131806809Y-115425855D01*
X131806809Y-115425855D02*
X131921095Y-115387760D01*
X131921095Y-115387760D02*
X131997285Y-115311569D01*
X131997285Y-115311569D02*
X132035380Y-115235379D01*
X132035380Y-115235379D02*
X132073476Y-115082998D01*
X132073476Y-115082998D02*
X132073476Y-114968712D01*
X132073476Y-114968712D02*
X132035380Y-114816331D01*
X132035380Y-114816331D02*
X131997285Y-114740140D01*
X131997285Y-114740140D02*
X131921095Y-114663950D01*
X131921095Y-114663950D02*
X131806809Y-114625855D01*
X131806809Y-114625855D02*
X131730618Y-114625855D01*
X131730618Y-114625855D02*
X131616333Y-114663950D01*
X131616333Y-114663950D02*
X131578237Y-114702045D01*
X130816333Y-115425855D02*
X131273476Y-115425855D01*
X131044904Y-115425855D02*
X131044904Y-114625855D01*
X131044904Y-114625855D02*
X131121095Y-114740140D01*
X131121095Y-114740140D02*
X131197285Y-114816331D01*
X131197285Y-114816331D02*
X131273476Y-114854426D01*
X130054428Y-115425855D02*
X130511571Y-115425855D01*
X130282999Y-115425855D02*
X130282999Y-114625855D01*
X130282999Y-114625855D02*
X130359190Y-114740140D01*
X130359190Y-114740140D02*
X130435380Y-114816331D01*
X130435380Y-114816331D02*
X130511571Y-114854426D01*
X129368713Y-114625855D02*
X129521094Y-114625855D01*
X129521094Y-114625855D02*
X129597285Y-114663950D01*
X129597285Y-114663950D02*
X129635380Y-114702045D01*
X129635380Y-114702045D02*
X129711570Y-114816331D01*
X129711570Y-114816331D02*
X129749666Y-114968712D01*
X129749666Y-114968712D02*
X129749666Y-115273474D01*
X129749666Y-115273474D02*
X129711570Y-115349664D01*
X129711570Y-115349664D02*
X129673475Y-115387760D01*
X129673475Y-115387760D02*
X129597285Y-115425855D01*
X129597285Y-115425855D02*
X129444904Y-115425855D01*
X129444904Y-115425855D02*
X129368713Y-115387760D01*
X129368713Y-115387760D02*
X129330618Y-115349664D01*
X129330618Y-115349664D02*
X129292523Y-115273474D01*
X129292523Y-115273474D02*
X129292523Y-115082998D01*
X129292523Y-115082998D02*
X129330618Y-115006807D01*
X129330618Y-115006807D02*
X129368713Y-114968712D01*
X129368713Y-114968712D02*
X129444904Y-114930617D01*
X129444904Y-114930617D02*
X129597285Y-114930617D01*
X129597285Y-114930617D02*
X129673475Y-114968712D01*
X129673475Y-114968712D02*
X129711570Y-115006807D01*
X129711570Y-115006807D02*
X129749666Y-115082998D01*
X122350664Y-85845762D02*
X122388760Y-85807666D01*
X122388760Y-85807666D02*
X122426855Y-85693381D01*
X122426855Y-85693381D02*
X122426855Y-85617190D01*
X122426855Y-85617190D02*
X122388760Y-85502904D01*
X122388760Y-85502904D02*
X122312569Y-85426714D01*
X122312569Y-85426714D02*
X122236379Y-85388619D01*
X122236379Y-85388619D02*
X122083998Y-85350523D01*
X122083998Y-85350523D02*
X121969712Y-85350523D01*
X121969712Y-85350523D02*
X121817331Y-85388619D01*
X121817331Y-85388619D02*
X121741140Y-85426714D01*
X121741140Y-85426714D02*
X121664950Y-85502904D01*
X121664950Y-85502904D02*
X121626855Y-85617190D01*
X121626855Y-85617190D02*
X121626855Y-85693381D01*
X121626855Y-85693381D02*
X121664950Y-85807666D01*
X121664950Y-85807666D02*
X121703045Y-85845762D01*
X121703045Y-86150523D02*
X121664950Y-86188619D01*
X121664950Y-86188619D02*
X121626855Y-86264809D01*
X121626855Y-86264809D02*
X121626855Y-86455285D01*
X121626855Y-86455285D02*
X121664950Y-86531476D01*
X121664950Y-86531476D02*
X121703045Y-86569571D01*
X121703045Y-86569571D02*
X121779236Y-86607666D01*
X121779236Y-86607666D02*
X121855426Y-86607666D01*
X121855426Y-86607666D02*
X121969712Y-86569571D01*
X121969712Y-86569571D02*
X122426855Y-86112428D01*
X122426855Y-86112428D02*
X122426855Y-86607666D01*
X122426855Y-87369571D02*
X122426855Y-86912428D01*
X122426855Y-87141000D02*
X121626855Y-87141000D01*
X121626855Y-87141000D02*
X121741140Y-87064809D01*
X121741140Y-87064809D02*
X121817331Y-86988619D01*
X121817331Y-86988619D02*
X121855426Y-86912428D01*
X122426855Y-88131476D02*
X122426855Y-87674333D01*
X122426855Y-87902905D02*
X121626855Y-87902905D01*
X121626855Y-87902905D02*
X121741140Y-87826714D01*
X121741140Y-87826714D02*
X121817331Y-87750524D01*
X121817331Y-87750524D02*
X121855426Y-87674333D01*
X118397664Y-108705762D02*
X118435760Y-108667666D01*
X118435760Y-108667666D02*
X118473855Y-108553381D01*
X118473855Y-108553381D02*
X118473855Y-108477190D01*
X118473855Y-108477190D02*
X118435760Y-108362904D01*
X118435760Y-108362904D02*
X118359569Y-108286714D01*
X118359569Y-108286714D02*
X118283379Y-108248619D01*
X118283379Y-108248619D02*
X118130998Y-108210523D01*
X118130998Y-108210523D02*
X118016712Y-108210523D01*
X118016712Y-108210523D02*
X117864331Y-108248619D01*
X117864331Y-108248619D02*
X117788140Y-108286714D01*
X117788140Y-108286714D02*
X117711950Y-108362904D01*
X117711950Y-108362904D02*
X117673855Y-108477190D01*
X117673855Y-108477190D02*
X117673855Y-108553381D01*
X117673855Y-108553381D02*
X117711950Y-108667666D01*
X117711950Y-108667666D02*
X117750045Y-108705762D01*
X118473855Y-109467666D02*
X118473855Y-109010523D01*
X118473855Y-109239095D02*
X117673855Y-109239095D01*
X117673855Y-109239095D02*
X117788140Y-109162904D01*
X117788140Y-109162904D02*
X117864331Y-109086714D01*
X117864331Y-109086714D02*
X117902426Y-109010523D01*
X118473855Y-110229571D02*
X118473855Y-109772428D01*
X118473855Y-110001000D02*
X117673855Y-110001000D01*
X117673855Y-110001000D02*
X117788140Y-109924809D01*
X117788140Y-109924809D02*
X117864331Y-109848619D01*
X117864331Y-109848619D02*
X117902426Y-109772428D01*
X117673855Y-110496238D02*
X117673855Y-110991476D01*
X117673855Y-110991476D02*
X117978617Y-110724810D01*
X117978617Y-110724810D02*
X117978617Y-110839095D01*
X117978617Y-110839095D02*
X118016712Y-110915286D01*
X118016712Y-110915286D02*
X118054807Y-110953381D01*
X118054807Y-110953381D02*
X118130998Y-110991476D01*
X118130998Y-110991476D02*
X118321474Y-110991476D01*
X118321474Y-110991476D02*
X118397664Y-110953381D01*
X118397664Y-110953381D02*
X118435760Y-110915286D01*
X118435760Y-110915286D02*
X118473855Y-110839095D01*
X118473855Y-110839095D02*
X118473855Y-110610524D01*
X118473855Y-110610524D02*
X118435760Y-110534333D01*
X118435760Y-110534333D02*
X118397664Y-110496238D01*
X121763855Y-74288762D02*
X121382902Y-74022095D01*
X121763855Y-73831619D02*
X120963855Y-73831619D01*
X120963855Y-73831619D02*
X120963855Y-74136381D01*
X120963855Y-74136381D02*
X121001950Y-74212571D01*
X121001950Y-74212571D02*
X121040045Y-74250666D01*
X121040045Y-74250666D02*
X121116236Y-74288762D01*
X121116236Y-74288762D02*
X121230521Y-74288762D01*
X121230521Y-74288762D02*
X121306712Y-74250666D01*
X121306712Y-74250666D02*
X121344807Y-74212571D01*
X121344807Y-74212571D02*
X121382902Y-74136381D01*
X121382902Y-74136381D02*
X121382902Y-73831619D01*
X121040045Y-74593523D02*
X121001950Y-74631619D01*
X121001950Y-74631619D02*
X120963855Y-74707809D01*
X120963855Y-74707809D02*
X120963855Y-74898285D01*
X120963855Y-74898285D02*
X121001950Y-74974476D01*
X121001950Y-74974476D02*
X121040045Y-75012571D01*
X121040045Y-75012571D02*
X121116236Y-75050666D01*
X121116236Y-75050666D02*
X121192426Y-75050666D01*
X121192426Y-75050666D02*
X121306712Y-75012571D01*
X121306712Y-75012571D02*
X121763855Y-74555428D01*
X121763855Y-74555428D02*
X121763855Y-75050666D01*
X121040045Y-75355428D02*
X121001950Y-75393524D01*
X121001950Y-75393524D02*
X120963855Y-75469714D01*
X120963855Y-75469714D02*
X120963855Y-75660190D01*
X120963855Y-75660190D02*
X121001950Y-75736381D01*
X121001950Y-75736381D02*
X121040045Y-75774476D01*
X121040045Y-75774476D02*
X121116236Y-75812571D01*
X121116236Y-75812571D02*
X121192426Y-75812571D01*
X121192426Y-75812571D02*
X121306712Y-75774476D01*
X121306712Y-75774476D02*
X121763855Y-75317333D01*
X121763855Y-75317333D02*
X121763855Y-75812571D01*
X120963855Y-76536381D02*
X120963855Y-76155429D01*
X120963855Y-76155429D02*
X121344807Y-76117333D01*
X121344807Y-76117333D02*
X121306712Y-76155429D01*
X121306712Y-76155429D02*
X121268617Y-76231619D01*
X121268617Y-76231619D02*
X121268617Y-76422095D01*
X121268617Y-76422095D02*
X121306712Y-76498286D01*
X121306712Y-76498286D02*
X121344807Y-76536381D01*
X121344807Y-76536381D02*
X121420998Y-76574476D01*
X121420998Y-76574476D02*
X121611474Y-76574476D01*
X121611474Y-76574476D02*
X121687664Y-76536381D01*
X121687664Y-76536381D02*
X121725760Y-76498286D01*
X121725760Y-76498286D02*
X121763855Y-76422095D01*
X121763855Y-76422095D02*
X121763855Y-76231619D01*
X121763855Y-76231619D02*
X121725760Y-76155429D01*
X121725760Y-76155429D02*
X121687664Y-76117333D01*
X130181237Y-109202855D02*
X130447904Y-108821902D01*
X130638380Y-109202855D02*
X130638380Y-108402855D01*
X130638380Y-108402855D02*
X130333618Y-108402855D01*
X130333618Y-108402855D02*
X130257428Y-108440950D01*
X130257428Y-108440950D02*
X130219333Y-108479045D01*
X130219333Y-108479045D02*
X130181237Y-108555236D01*
X130181237Y-108555236D02*
X130181237Y-108669521D01*
X130181237Y-108669521D02*
X130219333Y-108745712D01*
X130219333Y-108745712D02*
X130257428Y-108783807D01*
X130257428Y-108783807D02*
X130333618Y-108821902D01*
X130333618Y-108821902D02*
X130638380Y-108821902D01*
X129419333Y-109202855D02*
X129876476Y-109202855D01*
X129647904Y-109202855D02*
X129647904Y-108402855D01*
X129647904Y-108402855D02*
X129724095Y-108517140D01*
X129724095Y-108517140D02*
X129800285Y-108593331D01*
X129800285Y-108593331D02*
X129876476Y-108631426D01*
X129114571Y-108479045D02*
X129076475Y-108440950D01*
X129076475Y-108440950D02*
X129000285Y-108402855D01*
X129000285Y-108402855D02*
X128809809Y-108402855D01*
X128809809Y-108402855D02*
X128733618Y-108440950D01*
X128733618Y-108440950D02*
X128695523Y-108479045D01*
X128695523Y-108479045D02*
X128657428Y-108555236D01*
X128657428Y-108555236D02*
X128657428Y-108631426D01*
X128657428Y-108631426D02*
X128695523Y-108745712D01*
X128695523Y-108745712D02*
X129152666Y-109202855D01*
X129152666Y-109202855D02*
X128657428Y-109202855D01*
X127971713Y-108669521D02*
X127971713Y-109202855D01*
X128162189Y-108364760D02*
X128352666Y-108936188D01*
X128352666Y-108936188D02*
X127857427Y-108936188D01*
X177298285Y-85250664D02*
X177336381Y-85288760D01*
X177336381Y-85288760D02*
X177450666Y-85326855D01*
X177450666Y-85326855D02*
X177526857Y-85326855D01*
X177526857Y-85326855D02*
X177641143Y-85288760D01*
X177641143Y-85288760D02*
X177717333Y-85212569D01*
X177717333Y-85212569D02*
X177755428Y-85136379D01*
X177755428Y-85136379D02*
X177793524Y-84983998D01*
X177793524Y-84983998D02*
X177793524Y-84869712D01*
X177793524Y-84869712D02*
X177755428Y-84717331D01*
X177755428Y-84717331D02*
X177717333Y-84641140D01*
X177717333Y-84641140D02*
X177641143Y-84564950D01*
X177641143Y-84564950D02*
X177526857Y-84526855D01*
X177526857Y-84526855D02*
X177450666Y-84526855D01*
X177450666Y-84526855D02*
X177336381Y-84564950D01*
X177336381Y-84564950D02*
X177298285Y-84603045D01*
X176536381Y-85326855D02*
X176993524Y-85326855D01*
X176764952Y-85326855D02*
X176764952Y-84526855D01*
X176764952Y-84526855D02*
X176841143Y-84641140D01*
X176841143Y-84641140D02*
X176917333Y-84717331D01*
X176917333Y-84717331D02*
X176993524Y-84755426D01*
X176231619Y-84603045D02*
X176193523Y-84564950D01*
X176193523Y-84564950D02*
X176117333Y-84526855D01*
X176117333Y-84526855D02*
X175926857Y-84526855D01*
X175926857Y-84526855D02*
X175850666Y-84564950D01*
X175850666Y-84564950D02*
X175812571Y-84603045D01*
X175812571Y-84603045D02*
X175774476Y-84679236D01*
X175774476Y-84679236D02*
X175774476Y-84755426D01*
X175774476Y-84755426D02*
X175812571Y-84869712D01*
X175812571Y-84869712D02*
X176269714Y-85326855D01*
X176269714Y-85326855D02*
X175774476Y-85326855D01*
X130814664Y-116198762D02*
X130852760Y-116160666D01*
X130852760Y-116160666D02*
X130890855Y-116046381D01*
X130890855Y-116046381D02*
X130890855Y-115970190D01*
X130890855Y-115970190D02*
X130852760Y-115855904D01*
X130852760Y-115855904D02*
X130776569Y-115779714D01*
X130776569Y-115779714D02*
X130700379Y-115741619D01*
X130700379Y-115741619D02*
X130547998Y-115703523D01*
X130547998Y-115703523D02*
X130433712Y-115703523D01*
X130433712Y-115703523D02*
X130281331Y-115741619D01*
X130281331Y-115741619D02*
X130205140Y-115779714D01*
X130205140Y-115779714D02*
X130128950Y-115855904D01*
X130128950Y-115855904D02*
X130090855Y-115970190D01*
X130090855Y-115970190D02*
X130090855Y-116046381D01*
X130090855Y-116046381D02*
X130128950Y-116160666D01*
X130128950Y-116160666D02*
X130167045Y-116198762D01*
X130890855Y-116960666D02*
X130890855Y-116503523D01*
X130890855Y-116732095D02*
X130090855Y-116732095D01*
X130090855Y-116732095D02*
X130205140Y-116655904D01*
X130205140Y-116655904D02*
X130281331Y-116579714D01*
X130281331Y-116579714D02*
X130319426Y-116503523D01*
X130167045Y-117265428D02*
X130128950Y-117303524D01*
X130128950Y-117303524D02*
X130090855Y-117379714D01*
X130090855Y-117379714D02*
X130090855Y-117570190D01*
X130090855Y-117570190D02*
X130128950Y-117646381D01*
X130128950Y-117646381D02*
X130167045Y-117684476D01*
X130167045Y-117684476D02*
X130243236Y-117722571D01*
X130243236Y-117722571D02*
X130319426Y-117722571D01*
X130319426Y-117722571D02*
X130433712Y-117684476D01*
X130433712Y-117684476D02*
X130890855Y-117227333D01*
X130890855Y-117227333D02*
X130890855Y-117722571D01*
X130090855Y-118408286D02*
X130090855Y-118255905D01*
X130090855Y-118255905D02*
X130128950Y-118179714D01*
X130128950Y-118179714D02*
X130167045Y-118141619D01*
X130167045Y-118141619D02*
X130281331Y-118065429D01*
X130281331Y-118065429D02*
X130433712Y-118027333D01*
X130433712Y-118027333D02*
X130738474Y-118027333D01*
X130738474Y-118027333D02*
X130814664Y-118065429D01*
X130814664Y-118065429D02*
X130852760Y-118103524D01*
X130852760Y-118103524D02*
X130890855Y-118179714D01*
X130890855Y-118179714D02*
X130890855Y-118332095D01*
X130890855Y-118332095D02*
X130852760Y-118408286D01*
X130852760Y-118408286D02*
X130814664Y-118446381D01*
X130814664Y-118446381D02*
X130738474Y-118484476D01*
X130738474Y-118484476D02*
X130547998Y-118484476D01*
X130547998Y-118484476D02*
X130471807Y-118446381D01*
X130471807Y-118446381D02*
X130433712Y-118408286D01*
X130433712Y-118408286D02*
X130395617Y-118332095D01*
X130395617Y-118332095D02*
X130395617Y-118179714D01*
X130395617Y-118179714D02*
X130433712Y-118103524D01*
X130433712Y-118103524D02*
X130471807Y-118065429D01*
X130471807Y-118065429D02*
X130547998Y-118027333D01*
X115068237Y-113012855D02*
X115334904Y-112631902D01*
X115525380Y-113012855D02*
X115525380Y-112212855D01*
X115525380Y-112212855D02*
X115220618Y-112212855D01*
X115220618Y-112212855D02*
X115144428Y-112250950D01*
X115144428Y-112250950D02*
X115106333Y-112289045D01*
X115106333Y-112289045D02*
X115068237Y-112365236D01*
X115068237Y-112365236D02*
X115068237Y-112479521D01*
X115068237Y-112479521D02*
X115106333Y-112555712D01*
X115106333Y-112555712D02*
X115144428Y-112593807D01*
X115144428Y-112593807D02*
X115220618Y-112631902D01*
X115220618Y-112631902D02*
X115525380Y-112631902D01*
X114306333Y-113012855D02*
X114763476Y-113012855D01*
X114534904Y-113012855D02*
X114534904Y-112212855D01*
X114534904Y-112212855D02*
X114611095Y-112327140D01*
X114611095Y-112327140D02*
X114687285Y-112403331D01*
X114687285Y-112403331D02*
X114763476Y-112441426D01*
X113811094Y-112212855D02*
X113734904Y-112212855D01*
X113734904Y-112212855D02*
X113658713Y-112250950D01*
X113658713Y-112250950D02*
X113620618Y-112289045D01*
X113620618Y-112289045D02*
X113582523Y-112365236D01*
X113582523Y-112365236D02*
X113544428Y-112517617D01*
X113544428Y-112517617D02*
X113544428Y-112708093D01*
X113544428Y-112708093D02*
X113582523Y-112860474D01*
X113582523Y-112860474D02*
X113620618Y-112936664D01*
X113620618Y-112936664D02*
X113658713Y-112974760D01*
X113658713Y-112974760D02*
X113734904Y-113012855D01*
X113734904Y-113012855D02*
X113811094Y-113012855D01*
X113811094Y-113012855D02*
X113887285Y-112974760D01*
X113887285Y-112974760D02*
X113925380Y-112936664D01*
X113925380Y-112936664D02*
X113963475Y-112860474D01*
X113963475Y-112860474D02*
X114001571Y-112708093D01*
X114001571Y-112708093D02*
X114001571Y-112517617D01*
X114001571Y-112517617D02*
X113963475Y-112365236D01*
X113963475Y-112365236D02*
X113925380Y-112289045D01*
X113925380Y-112289045D02*
X113887285Y-112250950D01*
X113887285Y-112250950D02*
X113811094Y-112212855D01*
X112858713Y-112479521D02*
X112858713Y-113012855D01*
X113049189Y-112174760D02*
X113239666Y-112746188D01*
X113239666Y-112746188D02*
X112744427Y-112746188D01*
X122321664Y-82416762D02*
X122359760Y-82378666D01*
X122359760Y-82378666D02*
X122397855Y-82264381D01*
X122397855Y-82264381D02*
X122397855Y-82188190D01*
X122397855Y-82188190D02*
X122359760Y-82073904D01*
X122359760Y-82073904D02*
X122283569Y-81997714D01*
X122283569Y-81997714D02*
X122207379Y-81959619D01*
X122207379Y-81959619D02*
X122054998Y-81921523D01*
X122054998Y-81921523D02*
X121940712Y-81921523D01*
X121940712Y-81921523D02*
X121788331Y-81959619D01*
X121788331Y-81959619D02*
X121712140Y-81997714D01*
X121712140Y-81997714D02*
X121635950Y-82073904D01*
X121635950Y-82073904D02*
X121597855Y-82188190D01*
X121597855Y-82188190D02*
X121597855Y-82264381D01*
X121597855Y-82264381D02*
X121635950Y-82378666D01*
X121635950Y-82378666D02*
X121674045Y-82416762D01*
X121674045Y-82721523D02*
X121635950Y-82759619D01*
X121635950Y-82759619D02*
X121597855Y-82835809D01*
X121597855Y-82835809D02*
X121597855Y-83026285D01*
X121597855Y-83026285D02*
X121635950Y-83102476D01*
X121635950Y-83102476D02*
X121674045Y-83140571D01*
X121674045Y-83140571D02*
X121750236Y-83178666D01*
X121750236Y-83178666D02*
X121826426Y-83178666D01*
X121826426Y-83178666D02*
X121940712Y-83140571D01*
X121940712Y-83140571D02*
X122397855Y-82683428D01*
X122397855Y-82683428D02*
X122397855Y-83178666D01*
X121674045Y-83483428D02*
X121635950Y-83521524D01*
X121635950Y-83521524D02*
X121597855Y-83597714D01*
X121597855Y-83597714D02*
X121597855Y-83788190D01*
X121597855Y-83788190D02*
X121635950Y-83864381D01*
X121635950Y-83864381D02*
X121674045Y-83902476D01*
X121674045Y-83902476D02*
X121750236Y-83940571D01*
X121750236Y-83940571D02*
X121826426Y-83940571D01*
X121826426Y-83940571D02*
X121940712Y-83902476D01*
X121940712Y-83902476D02*
X122397855Y-83445333D01*
X122397855Y-83445333D02*
X122397855Y-83940571D01*
X121597855Y-84435810D02*
X121597855Y-84512000D01*
X121597855Y-84512000D02*
X121635950Y-84588191D01*
X121635950Y-84588191D02*
X121674045Y-84626286D01*
X121674045Y-84626286D02*
X121750236Y-84664381D01*
X121750236Y-84664381D02*
X121902617Y-84702476D01*
X121902617Y-84702476D02*
X122093093Y-84702476D01*
X122093093Y-84702476D02*
X122245474Y-84664381D01*
X122245474Y-84664381D02*
X122321664Y-84626286D01*
X122321664Y-84626286D02*
X122359760Y-84588191D01*
X122359760Y-84588191D02*
X122397855Y-84512000D01*
X122397855Y-84512000D02*
X122397855Y-84435810D01*
X122397855Y-84435810D02*
X122359760Y-84359619D01*
X122359760Y-84359619D02*
X122321664Y-84321524D01*
X122321664Y-84321524D02*
X122245474Y-84283429D01*
X122245474Y-84283429D02*
X122093093Y-84245333D01*
X122093093Y-84245333D02*
X121902617Y-84245333D01*
X121902617Y-84245333D02*
X121750236Y-84283429D01*
X121750236Y-84283429D02*
X121674045Y-84321524D01*
X121674045Y-84321524D02*
X121635950Y-84359619D01*
X121635950Y-84359619D02*
X121597855Y-84435810D01*
X110777664Y-94227714D02*
X110815760Y-94189618D01*
X110815760Y-94189618D02*
X110853855Y-94075333D01*
X110853855Y-94075333D02*
X110853855Y-93999142D01*
X110853855Y-93999142D02*
X110815760Y-93884856D01*
X110815760Y-93884856D02*
X110739569Y-93808666D01*
X110739569Y-93808666D02*
X110663379Y-93770571D01*
X110663379Y-93770571D02*
X110510998Y-93732475D01*
X110510998Y-93732475D02*
X110396712Y-93732475D01*
X110396712Y-93732475D02*
X110244331Y-93770571D01*
X110244331Y-93770571D02*
X110168140Y-93808666D01*
X110168140Y-93808666D02*
X110091950Y-93884856D01*
X110091950Y-93884856D02*
X110053855Y-93999142D01*
X110053855Y-93999142D02*
X110053855Y-94075333D01*
X110053855Y-94075333D02*
X110091950Y-94189618D01*
X110091950Y-94189618D02*
X110130045Y-94227714D01*
X110130045Y-94532475D02*
X110091950Y-94570571D01*
X110091950Y-94570571D02*
X110053855Y-94646761D01*
X110053855Y-94646761D02*
X110053855Y-94837237D01*
X110053855Y-94837237D02*
X110091950Y-94913428D01*
X110091950Y-94913428D02*
X110130045Y-94951523D01*
X110130045Y-94951523D02*
X110206236Y-94989618D01*
X110206236Y-94989618D02*
X110282426Y-94989618D01*
X110282426Y-94989618D02*
X110396712Y-94951523D01*
X110396712Y-94951523D02*
X110853855Y-94494380D01*
X110853855Y-94494380D02*
X110853855Y-94989618D01*
X110053855Y-95256285D02*
X110053855Y-95751523D01*
X110053855Y-95751523D02*
X110358617Y-95484857D01*
X110358617Y-95484857D02*
X110358617Y-95599142D01*
X110358617Y-95599142D02*
X110396712Y-95675333D01*
X110396712Y-95675333D02*
X110434807Y-95713428D01*
X110434807Y-95713428D02*
X110510998Y-95751523D01*
X110510998Y-95751523D02*
X110701474Y-95751523D01*
X110701474Y-95751523D02*
X110777664Y-95713428D01*
X110777664Y-95713428D02*
X110815760Y-95675333D01*
X110815760Y-95675333D02*
X110853855Y-95599142D01*
X110853855Y-95599142D02*
X110853855Y-95370571D01*
X110853855Y-95370571D02*
X110815760Y-95294380D01*
X110815760Y-95294380D02*
X110777664Y-95256285D01*
X112809664Y-115563762D02*
X112847760Y-115525666D01*
X112847760Y-115525666D02*
X112885855Y-115411381D01*
X112885855Y-115411381D02*
X112885855Y-115335190D01*
X112885855Y-115335190D02*
X112847760Y-115220904D01*
X112847760Y-115220904D02*
X112771569Y-115144714D01*
X112771569Y-115144714D02*
X112695379Y-115106619D01*
X112695379Y-115106619D02*
X112542998Y-115068523D01*
X112542998Y-115068523D02*
X112428712Y-115068523D01*
X112428712Y-115068523D02*
X112276331Y-115106619D01*
X112276331Y-115106619D02*
X112200140Y-115144714D01*
X112200140Y-115144714D02*
X112123950Y-115220904D01*
X112123950Y-115220904D02*
X112085855Y-115335190D01*
X112085855Y-115335190D02*
X112085855Y-115411381D01*
X112085855Y-115411381D02*
X112123950Y-115525666D01*
X112123950Y-115525666D02*
X112162045Y-115563762D01*
X112885855Y-116325666D02*
X112885855Y-115868523D01*
X112885855Y-116097095D02*
X112085855Y-116097095D01*
X112085855Y-116097095D02*
X112200140Y-116020904D01*
X112200140Y-116020904D02*
X112276331Y-115944714D01*
X112276331Y-115944714D02*
X112314426Y-115868523D01*
X112885855Y-117087571D02*
X112885855Y-116630428D01*
X112885855Y-116859000D02*
X112085855Y-116859000D01*
X112085855Y-116859000D02*
X112200140Y-116782809D01*
X112200140Y-116782809D02*
X112276331Y-116706619D01*
X112276331Y-116706619D02*
X112314426Y-116630428D01*
X112085855Y-117354238D02*
X112085855Y-117887572D01*
X112085855Y-117887572D02*
X112885855Y-117544714D01*
X127387237Y-120493664D02*
X127425333Y-120531760D01*
X127425333Y-120531760D02*
X127539618Y-120569855D01*
X127539618Y-120569855D02*
X127615809Y-120569855D01*
X127615809Y-120569855D02*
X127730095Y-120531760D01*
X127730095Y-120531760D02*
X127806285Y-120455569D01*
X127806285Y-120455569D02*
X127844380Y-120379379D01*
X127844380Y-120379379D02*
X127882476Y-120226998D01*
X127882476Y-120226998D02*
X127882476Y-120112712D01*
X127882476Y-120112712D02*
X127844380Y-119960331D01*
X127844380Y-119960331D02*
X127806285Y-119884140D01*
X127806285Y-119884140D02*
X127730095Y-119807950D01*
X127730095Y-119807950D02*
X127615809Y-119769855D01*
X127615809Y-119769855D02*
X127539618Y-119769855D01*
X127539618Y-119769855D02*
X127425333Y-119807950D01*
X127425333Y-119807950D02*
X127387237Y-119846045D01*
X126625333Y-120569855D02*
X127082476Y-120569855D01*
X126853904Y-120569855D02*
X126853904Y-119769855D01*
X126853904Y-119769855D02*
X126930095Y-119884140D01*
X126930095Y-119884140D02*
X127006285Y-119960331D01*
X127006285Y-119960331D02*
X127082476Y-119998426D01*
X125863428Y-120569855D02*
X126320571Y-120569855D01*
X126091999Y-120569855D02*
X126091999Y-119769855D01*
X126091999Y-119769855D02*
X126168190Y-119884140D01*
X126168190Y-119884140D02*
X126244380Y-119960331D01*
X126244380Y-119960331D02*
X126320571Y-119998426D01*
X125368189Y-119769855D02*
X125291999Y-119769855D01*
X125291999Y-119769855D02*
X125215808Y-119807950D01*
X125215808Y-119807950D02*
X125177713Y-119846045D01*
X125177713Y-119846045D02*
X125139618Y-119922236D01*
X125139618Y-119922236D02*
X125101523Y-120074617D01*
X125101523Y-120074617D02*
X125101523Y-120265093D01*
X125101523Y-120265093D02*
X125139618Y-120417474D01*
X125139618Y-120417474D02*
X125177713Y-120493664D01*
X125177713Y-120493664D02*
X125215808Y-120531760D01*
X125215808Y-120531760D02*
X125291999Y-120569855D01*
X125291999Y-120569855D02*
X125368189Y-120569855D01*
X125368189Y-120569855D02*
X125444380Y-120531760D01*
X125444380Y-120531760D02*
X125482475Y-120493664D01*
X125482475Y-120493664D02*
X125520570Y-120417474D01*
X125520570Y-120417474D02*
X125558666Y-120265093D01*
X125558666Y-120265093D02*
X125558666Y-120074617D01*
X125558666Y-120074617D02*
X125520570Y-119922236D01*
X125520570Y-119922236D02*
X125482475Y-119846045D01*
X125482475Y-119846045D02*
X125444380Y-119807950D01*
X125444380Y-119807950D02*
X125368189Y-119769855D01*
X181902023Y-73363855D02*
X181902023Y-74011474D01*
X181902023Y-74011474D02*
X181863928Y-74087664D01*
X181863928Y-74087664D02*
X181825833Y-74125760D01*
X181825833Y-74125760D02*
X181749642Y-74163855D01*
X181749642Y-74163855D02*
X181597261Y-74163855D01*
X181597261Y-74163855D02*
X181521071Y-74125760D01*
X181521071Y-74125760D02*
X181482976Y-74087664D01*
X181482976Y-74087664D02*
X181444880Y-74011474D01*
X181444880Y-74011474D02*
X181444880Y-73363855D01*
X180721071Y-73363855D02*
X180873452Y-73363855D01*
X180873452Y-73363855D02*
X180949643Y-73401950D01*
X180949643Y-73401950D02*
X180987738Y-73440045D01*
X180987738Y-73440045D02*
X181063928Y-73554331D01*
X181063928Y-73554331D02*
X181102024Y-73706712D01*
X181102024Y-73706712D02*
X181102024Y-74011474D01*
X181102024Y-74011474D02*
X181063928Y-74087664D01*
X181063928Y-74087664D02*
X181025833Y-74125760D01*
X181025833Y-74125760D02*
X180949643Y-74163855D01*
X180949643Y-74163855D02*
X180797262Y-74163855D01*
X180797262Y-74163855D02*
X180721071Y-74125760D01*
X180721071Y-74125760D02*
X180682976Y-74087664D01*
X180682976Y-74087664D02*
X180644881Y-74011474D01*
X180644881Y-74011474D02*
X180644881Y-73820998D01*
X180644881Y-73820998D02*
X180682976Y-73744807D01*
X180682976Y-73744807D02*
X180721071Y-73706712D01*
X180721071Y-73706712D02*
X180797262Y-73668617D01*
X180797262Y-73668617D02*
X180949643Y-73668617D01*
X180949643Y-73668617D02*
X181025833Y-73706712D01*
X181025833Y-73706712D02*
X181063928Y-73744807D01*
X181063928Y-73744807D02*
X181102024Y-73820998D01*
X179992664Y-69716714D02*
X180030760Y-69678618D01*
X180030760Y-69678618D02*
X180068855Y-69564333D01*
X180068855Y-69564333D02*
X180068855Y-69488142D01*
X180068855Y-69488142D02*
X180030760Y-69373856D01*
X180030760Y-69373856D02*
X179954569Y-69297666D01*
X179954569Y-69297666D02*
X179878379Y-69259571D01*
X179878379Y-69259571D02*
X179725998Y-69221475D01*
X179725998Y-69221475D02*
X179611712Y-69221475D01*
X179611712Y-69221475D02*
X179459331Y-69259571D01*
X179459331Y-69259571D02*
X179383140Y-69297666D01*
X179383140Y-69297666D02*
X179306950Y-69373856D01*
X179306950Y-69373856D02*
X179268855Y-69488142D01*
X179268855Y-69488142D02*
X179268855Y-69564333D01*
X179268855Y-69564333D02*
X179306950Y-69678618D01*
X179306950Y-69678618D02*
X179345045Y-69716714D01*
X179345045Y-70021475D02*
X179306950Y-70059571D01*
X179306950Y-70059571D02*
X179268855Y-70135761D01*
X179268855Y-70135761D02*
X179268855Y-70326237D01*
X179268855Y-70326237D02*
X179306950Y-70402428D01*
X179306950Y-70402428D02*
X179345045Y-70440523D01*
X179345045Y-70440523D02*
X179421236Y-70478618D01*
X179421236Y-70478618D02*
X179497426Y-70478618D01*
X179497426Y-70478618D02*
X179611712Y-70440523D01*
X179611712Y-70440523D02*
X180068855Y-69983380D01*
X180068855Y-69983380D02*
X180068855Y-70478618D01*
X179268855Y-70745285D02*
X179268855Y-71278619D01*
X179268855Y-71278619D02*
X180068855Y-70935761D01*
X175647332Y-96756855D02*
X175913999Y-96375902D01*
X176104475Y-96756855D02*
X176104475Y-95956855D01*
X176104475Y-95956855D02*
X175799713Y-95956855D01*
X175799713Y-95956855D02*
X175723523Y-95994950D01*
X175723523Y-95994950D02*
X175685428Y-96033045D01*
X175685428Y-96033045D02*
X175647332Y-96109236D01*
X175647332Y-96109236D02*
X175647332Y-96223521D01*
X175647332Y-96223521D02*
X175685428Y-96299712D01*
X175685428Y-96299712D02*
X175723523Y-96337807D01*
X175723523Y-96337807D02*
X175799713Y-96375902D01*
X175799713Y-96375902D02*
X176104475Y-96375902D01*
X174961618Y-96223521D02*
X174961618Y-96756855D01*
X175152094Y-95918760D02*
X175342571Y-96490188D01*
X175342571Y-96490188D02*
X174847332Y-96490188D01*
X111639237Y-77350664D02*
X111677333Y-77388760D01*
X111677333Y-77388760D02*
X111791618Y-77426855D01*
X111791618Y-77426855D02*
X111867809Y-77426855D01*
X111867809Y-77426855D02*
X111982095Y-77388760D01*
X111982095Y-77388760D02*
X112058285Y-77312569D01*
X112058285Y-77312569D02*
X112096380Y-77236379D01*
X112096380Y-77236379D02*
X112134476Y-77083998D01*
X112134476Y-77083998D02*
X112134476Y-76969712D01*
X112134476Y-76969712D02*
X112096380Y-76817331D01*
X112096380Y-76817331D02*
X112058285Y-76741140D01*
X112058285Y-76741140D02*
X111982095Y-76664950D01*
X111982095Y-76664950D02*
X111867809Y-76626855D01*
X111867809Y-76626855D02*
X111791618Y-76626855D01*
X111791618Y-76626855D02*
X111677333Y-76664950D01*
X111677333Y-76664950D02*
X111639237Y-76703045D01*
X111334476Y-76703045D02*
X111296380Y-76664950D01*
X111296380Y-76664950D02*
X111220190Y-76626855D01*
X111220190Y-76626855D02*
X111029714Y-76626855D01*
X111029714Y-76626855D02*
X110953523Y-76664950D01*
X110953523Y-76664950D02*
X110915428Y-76703045D01*
X110915428Y-76703045D02*
X110877333Y-76779236D01*
X110877333Y-76779236D02*
X110877333Y-76855426D01*
X110877333Y-76855426D02*
X110915428Y-76969712D01*
X110915428Y-76969712D02*
X111372571Y-77426855D01*
X111372571Y-77426855D02*
X110877333Y-77426855D01*
X110382094Y-76626855D02*
X110305904Y-76626855D01*
X110305904Y-76626855D02*
X110229713Y-76664950D01*
X110229713Y-76664950D02*
X110191618Y-76703045D01*
X110191618Y-76703045D02*
X110153523Y-76779236D01*
X110153523Y-76779236D02*
X110115428Y-76931617D01*
X110115428Y-76931617D02*
X110115428Y-77122093D01*
X110115428Y-77122093D02*
X110153523Y-77274474D01*
X110153523Y-77274474D02*
X110191618Y-77350664D01*
X110191618Y-77350664D02*
X110229713Y-77388760D01*
X110229713Y-77388760D02*
X110305904Y-77426855D01*
X110305904Y-77426855D02*
X110382094Y-77426855D01*
X110382094Y-77426855D02*
X110458285Y-77388760D01*
X110458285Y-77388760D02*
X110496380Y-77350664D01*
X110496380Y-77350664D02*
X110534475Y-77274474D01*
X110534475Y-77274474D02*
X110572571Y-77122093D01*
X110572571Y-77122093D02*
X110572571Y-76931617D01*
X110572571Y-76931617D02*
X110534475Y-76779236D01*
X110534475Y-76779236D02*
X110496380Y-76703045D01*
X110496380Y-76703045D02*
X110458285Y-76664950D01*
X110458285Y-76664950D02*
X110382094Y-76626855D01*
X109810666Y-76703045D02*
X109772570Y-76664950D01*
X109772570Y-76664950D02*
X109696380Y-76626855D01*
X109696380Y-76626855D02*
X109505904Y-76626855D01*
X109505904Y-76626855D02*
X109429713Y-76664950D01*
X109429713Y-76664950D02*
X109391618Y-76703045D01*
X109391618Y-76703045D02*
X109353523Y-76779236D01*
X109353523Y-76779236D02*
X109353523Y-76855426D01*
X109353523Y-76855426D02*
X109391618Y-76969712D01*
X109391618Y-76969712D02*
X109848761Y-77426855D01*
X109848761Y-77426855D02*
X109353523Y-77426855D01*
X89992095Y-114613045D02*
X90068285Y-114574950D01*
X90068285Y-114574950D02*
X90144476Y-114498760D01*
X90144476Y-114498760D02*
X90258762Y-114384474D01*
X90258762Y-114384474D02*
X90334952Y-114346379D01*
X90334952Y-114346379D02*
X90411143Y-114346379D01*
X90373047Y-114536855D02*
X90449238Y-114498760D01*
X90449238Y-114498760D02*
X90525428Y-114422569D01*
X90525428Y-114422569D02*
X90563524Y-114270188D01*
X90563524Y-114270188D02*
X90563524Y-114003521D01*
X90563524Y-114003521D02*
X90525428Y-113851140D01*
X90525428Y-113851140D02*
X90449238Y-113774950D01*
X90449238Y-113774950D02*
X90373047Y-113736855D01*
X90373047Y-113736855D02*
X90220666Y-113736855D01*
X90220666Y-113736855D02*
X90144476Y-113774950D01*
X90144476Y-113774950D02*
X90068285Y-113851140D01*
X90068285Y-113851140D02*
X90030190Y-114003521D01*
X90030190Y-114003521D02*
X90030190Y-114270188D01*
X90030190Y-114270188D02*
X90068285Y-114422569D01*
X90068285Y-114422569D02*
X90144476Y-114498760D01*
X90144476Y-114498760D02*
X90220666Y-114536855D01*
X90220666Y-114536855D02*
X90373047Y-114536855D01*
X89268286Y-114536855D02*
X89725429Y-114536855D01*
X89496857Y-114536855D02*
X89496857Y-113736855D01*
X89496857Y-113736855D02*
X89573048Y-113851140D01*
X89573048Y-113851140D02*
X89649238Y-113927331D01*
X89649238Y-113927331D02*
X89725429Y-113965426D01*
X88773047Y-113736855D02*
X88696857Y-113736855D01*
X88696857Y-113736855D02*
X88620666Y-113774950D01*
X88620666Y-113774950D02*
X88582571Y-113813045D01*
X88582571Y-113813045D02*
X88544476Y-113889236D01*
X88544476Y-113889236D02*
X88506381Y-114041617D01*
X88506381Y-114041617D02*
X88506381Y-114232093D01*
X88506381Y-114232093D02*
X88544476Y-114384474D01*
X88544476Y-114384474D02*
X88582571Y-114460664D01*
X88582571Y-114460664D02*
X88620666Y-114498760D01*
X88620666Y-114498760D02*
X88696857Y-114536855D01*
X88696857Y-114536855D02*
X88773047Y-114536855D01*
X88773047Y-114536855D02*
X88849238Y-114498760D01*
X88849238Y-114498760D02*
X88887333Y-114460664D01*
X88887333Y-114460664D02*
X88925428Y-114384474D01*
X88925428Y-114384474D02*
X88963524Y-114232093D01*
X88963524Y-114232093D02*
X88963524Y-114041617D01*
X88963524Y-114041617D02*
X88925428Y-113889236D01*
X88925428Y-113889236D02*
X88887333Y-113813045D01*
X88887333Y-113813045D02*
X88849238Y-113774950D01*
X88849238Y-113774950D02*
X88773047Y-113736855D01*
X87744476Y-114536855D02*
X88201619Y-114536855D01*
X87973047Y-114536855D02*
X87973047Y-113736855D01*
X87973047Y-113736855D02*
X88049238Y-113851140D01*
X88049238Y-113851140D02*
X88125428Y-113927331D01*
X88125428Y-113927331D02*
X88201619Y-113965426D01*
D11*
X148679819Y-102108095D02*
X149489342Y-102108095D01*
X149489342Y-102108095D02*
X149584580Y-102155714D01*
X149584580Y-102155714D02*
X149632200Y-102203333D01*
X149632200Y-102203333D02*
X149679819Y-102298571D01*
X149679819Y-102298571D02*
X149679819Y-102489047D01*
X149679819Y-102489047D02*
X149632200Y-102584285D01*
X149632200Y-102584285D02*
X149584580Y-102631904D01*
X149584580Y-102631904D02*
X149489342Y-102679523D01*
X149489342Y-102679523D02*
X148679819Y-102679523D01*
X149679819Y-103679523D02*
X149679819Y-103108095D01*
X149679819Y-103393809D02*
X148679819Y-103393809D01*
X148679819Y-103393809D02*
X148822676Y-103298571D01*
X148822676Y-103298571D02*
X148917914Y-103203333D01*
X148917914Y-103203333D02*
X148965533Y-103108095D01*
D10*
X105697664Y-111499762D02*
X105735760Y-111461666D01*
X105735760Y-111461666D02*
X105773855Y-111347381D01*
X105773855Y-111347381D02*
X105773855Y-111271190D01*
X105773855Y-111271190D02*
X105735760Y-111156904D01*
X105735760Y-111156904D02*
X105659569Y-111080714D01*
X105659569Y-111080714D02*
X105583379Y-111042619D01*
X105583379Y-111042619D02*
X105430998Y-111004523D01*
X105430998Y-111004523D02*
X105316712Y-111004523D01*
X105316712Y-111004523D02*
X105164331Y-111042619D01*
X105164331Y-111042619D02*
X105088140Y-111080714D01*
X105088140Y-111080714D02*
X105011950Y-111156904D01*
X105011950Y-111156904D02*
X104973855Y-111271190D01*
X104973855Y-111271190D02*
X104973855Y-111347381D01*
X104973855Y-111347381D02*
X105011950Y-111461666D01*
X105011950Y-111461666D02*
X105050045Y-111499762D01*
X105773855Y-112261666D02*
X105773855Y-111804523D01*
X105773855Y-112033095D02*
X104973855Y-112033095D01*
X104973855Y-112033095D02*
X105088140Y-111956904D01*
X105088140Y-111956904D02*
X105164331Y-111880714D01*
X105164331Y-111880714D02*
X105202426Y-111804523D01*
X104973855Y-112756905D02*
X104973855Y-112833095D01*
X104973855Y-112833095D02*
X105011950Y-112909286D01*
X105011950Y-112909286D02*
X105050045Y-112947381D01*
X105050045Y-112947381D02*
X105126236Y-112985476D01*
X105126236Y-112985476D02*
X105278617Y-113023571D01*
X105278617Y-113023571D02*
X105469093Y-113023571D01*
X105469093Y-113023571D02*
X105621474Y-112985476D01*
X105621474Y-112985476D02*
X105697664Y-112947381D01*
X105697664Y-112947381D02*
X105735760Y-112909286D01*
X105735760Y-112909286D02*
X105773855Y-112833095D01*
X105773855Y-112833095D02*
X105773855Y-112756905D01*
X105773855Y-112756905D02*
X105735760Y-112680714D01*
X105735760Y-112680714D02*
X105697664Y-112642619D01*
X105697664Y-112642619D02*
X105621474Y-112604524D01*
X105621474Y-112604524D02*
X105469093Y-112566428D01*
X105469093Y-112566428D02*
X105278617Y-112566428D01*
X105278617Y-112566428D02*
X105126236Y-112604524D01*
X105126236Y-112604524D02*
X105050045Y-112642619D01*
X105050045Y-112642619D02*
X105011950Y-112680714D01*
X105011950Y-112680714D02*
X104973855Y-112756905D01*
X105240521Y-113709286D02*
X105773855Y-113709286D01*
X104935760Y-113518810D02*
X105507188Y-113328333D01*
X105507188Y-113328333D02*
X105507188Y-113823572D01*
X137015855Y-105784667D02*
X136634902Y-105518000D01*
X137015855Y-105327524D02*
X136215855Y-105327524D01*
X136215855Y-105327524D02*
X136215855Y-105632286D01*
X136215855Y-105632286D02*
X136253950Y-105708476D01*
X136253950Y-105708476D02*
X136292045Y-105746571D01*
X136292045Y-105746571D02*
X136368236Y-105784667D01*
X136368236Y-105784667D02*
X136482521Y-105784667D01*
X136482521Y-105784667D02*
X136558712Y-105746571D01*
X136558712Y-105746571D02*
X136596807Y-105708476D01*
X136596807Y-105708476D02*
X136634902Y-105632286D01*
X136634902Y-105632286D02*
X136634902Y-105327524D01*
X137015855Y-106546571D02*
X137015855Y-106089428D01*
X137015855Y-106318000D02*
X136215855Y-106318000D01*
X136215855Y-106318000D02*
X136330140Y-106241809D01*
X136330140Y-106241809D02*
X136406331Y-106165619D01*
X136406331Y-106165619D02*
X136444426Y-106089428D01*
X110599855Y-87496762D02*
X110218902Y-87230095D01*
X110599855Y-87039619D02*
X109799855Y-87039619D01*
X109799855Y-87039619D02*
X109799855Y-87344381D01*
X109799855Y-87344381D02*
X109837950Y-87420571D01*
X109837950Y-87420571D02*
X109876045Y-87458666D01*
X109876045Y-87458666D02*
X109952236Y-87496762D01*
X109952236Y-87496762D02*
X110066521Y-87496762D01*
X110066521Y-87496762D02*
X110142712Y-87458666D01*
X110142712Y-87458666D02*
X110180807Y-87420571D01*
X110180807Y-87420571D02*
X110218902Y-87344381D01*
X110218902Y-87344381D02*
X110218902Y-87039619D01*
X109876045Y-87801523D02*
X109837950Y-87839619D01*
X109837950Y-87839619D02*
X109799855Y-87915809D01*
X109799855Y-87915809D02*
X109799855Y-88106285D01*
X109799855Y-88106285D02*
X109837950Y-88182476D01*
X109837950Y-88182476D02*
X109876045Y-88220571D01*
X109876045Y-88220571D02*
X109952236Y-88258666D01*
X109952236Y-88258666D02*
X110028426Y-88258666D01*
X110028426Y-88258666D02*
X110142712Y-88220571D01*
X110142712Y-88220571D02*
X110599855Y-87763428D01*
X110599855Y-87763428D02*
X110599855Y-88258666D01*
X109799855Y-88753905D02*
X109799855Y-88830095D01*
X109799855Y-88830095D02*
X109837950Y-88906286D01*
X109837950Y-88906286D02*
X109876045Y-88944381D01*
X109876045Y-88944381D02*
X109952236Y-88982476D01*
X109952236Y-88982476D02*
X110104617Y-89020571D01*
X110104617Y-89020571D02*
X110295093Y-89020571D01*
X110295093Y-89020571D02*
X110447474Y-88982476D01*
X110447474Y-88982476D02*
X110523664Y-88944381D01*
X110523664Y-88944381D02*
X110561760Y-88906286D01*
X110561760Y-88906286D02*
X110599855Y-88830095D01*
X110599855Y-88830095D02*
X110599855Y-88753905D01*
X110599855Y-88753905D02*
X110561760Y-88677714D01*
X110561760Y-88677714D02*
X110523664Y-88639619D01*
X110523664Y-88639619D02*
X110447474Y-88601524D01*
X110447474Y-88601524D02*
X110295093Y-88563428D01*
X110295093Y-88563428D02*
X110104617Y-88563428D01*
X110104617Y-88563428D02*
X109952236Y-88601524D01*
X109952236Y-88601524D02*
X109876045Y-88639619D01*
X109876045Y-88639619D02*
X109837950Y-88677714D01*
X109837950Y-88677714D02*
X109799855Y-88753905D01*
X109799855Y-89744381D02*
X109799855Y-89363429D01*
X109799855Y-89363429D02*
X110180807Y-89325333D01*
X110180807Y-89325333D02*
X110142712Y-89363429D01*
X110142712Y-89363429D02*
X110104617Y-89439619D01*
X110104617Y-89439619D02*
X110104617Y-89630095D01*
X110104617Y-89630095D02*
X110142712Y-89706286D01*
X110142712Y-89706286D02*
X110180807Y-89744381D01*
X110180807Y-89744381D02*
X110256998Y-89782476D01*
X110256998Y-89782476D02*
X110447474Y-89782476D01*
X110447474Y-89782476D02*
X110523664Y-89744381D01*
X110523664Y-89744381D02*
X110561760Y-89706286D01*
X110561760Y-89706286D02*
X110599855Y-89630095D01*
X110599855Y-89630095D02*
X110599855Y-89439619D01*
X110599855Y-89439619D02*
X110561760Y-89363429D01*
X110561760Y-89363429D02*
X110523664Y-89325333D01*
X185707664Y-68827714D02*
X185745760Y-68789618D01*
X185745760Y-68789618D02*
X185783855Y-68675333D01*
X185783855Y-68675333D02*
X185783855Y-68599142D01*
X185783855Y-68599142D02*
X185745760Y-68484856D01*
X185745760Y-68484856D02*
X185669569Y-68408666D01*
X185669569Y-68408666D02*
X185593379Y-68370571D01*
X185593379Y-68370571D02*
X185440998Y-68332475D01*
X185440998Y-68332475D02*
X185326712Y-68332475D01*
X185326712Y-68332475D02*
X185174331Y-68370571D01*
X185174331Y-68370571D02*
X185098140Y-68408666D01*
X185098140Y-68408666D02*
X185021950Y-68484856D01*
X185021950Y-68484856D02*
X184983855Y-68599142D01*
X184983855Y-68599142D02*
X184983855Y-68675333D01*
X184983855Y-68675333D02*
X185021950Y-68789618D01*
X185021950Y-68789618D02*
X185060045Y-68827714D01*
X185060045Y-69132475D02*
X185021950Y-69170571D01*
X185021950Y-69170571D02*
X184983855Y-69246761D01*
X184983855Y-69246761D02*
X184983855Y-69437237D01*
X184983855Y-69437237D02*
X185021950Y-69513428D01*
X185021950Y-69513428D02*
X185060045Y-69551523D01*
X185060045Y-69551523D02*
X185136236Y-69589618D01*
X185136236Y-69589618D02*
X185212426Y-69589618D01*
X185212426Y-69589618D02*
X185326712Y-69551523D01*
X185326712Y-69551523D02*
X185783855Y-69094380D01*
X185783855Y-69094380D02*
X185783855Y-69589618D01*
X185326712Y-70046761D02*
X185288617Y-69970571D01*
X185288617Y-69970571D02*
X185250521Y-69932476D01*
X185250521Y-69932476D02*
X185174331Y-69894380D01*
X185174331Y-69894380D02*
X185136236Y-69894380D01*
X185136236Y-69894380D02*
X185060045Y-69932476D01*
X185060045Y-69932476D02*
X185021950Y-69970571D01*
X185021950Y-69970571D02*
X184983855Y-70046761D01*
X184983855Y-70046761D02*
X184983855Y-70199142D01*
X184983855Y-70199142D02*
X185021950Y-70275333D01*
X185021950Y-70275333D02*
X185060045Y-70313428D01*
X185060045Y-70313428D02*
X185136236Y-70351523D01*
X185136236Y-70351523D02*
X185174331Y-70351523D01*
X185174331Y-70351523D02*
X185250521Y-70313428D01*
X185250521Y-70313428D02*
X185288617Y-70275333D01*
X185288617Y-70275333D02*
X185326712Y-70199142D01*
X185326712Y-70199142D02*
X185326712Y-70046761D01*
X185326712Y-70046761D02*
X185364807Y-69970571D01*
X185364807Y-69970571D02*
X185402902Y-69932476D01*
X185402902Y-69932476D02*
X185479093Y-69894380D01*
X185479093Y-69894380D02*
X185631474Y-69894380D01*
X185631474Y-69894380D02*
X185707664Y-69932476D01*
X185707664Y-69932476D02*
X185745760Y-69970571D01*
X185745760Y-69970571D02*
X185783855Y-70046761D01*
X185783855Y-70046761D02*
X185783855Y-70199142D01*
X185783855Y-70199142D02*
X185745760Y-70275333D01*
X185745760Y-70275333D02*
X185707664Y-70313428D01*
X185707664Y-70313428D02*
X185631474Y-70351523D01*
X185631474Y-70351523D02*
X185479093Y-70351523D01*
X185479093Y-70351523D02*
X185402902Y-70313428D01*
X185402902Y-70313428D02*
X185364807Y-70275333D01*
X185364807Y-70275333D02*
X185326712Y-70199142D01*
X90119095Y-80450045D02*
X90195285Y-80411950D01*
X90195285Y-80411950D02*
X90271476Y-80335760D01*
X90271476Y-80335760D02*
X90385762Y-80221474D01*
X90385762Y-80221474D02*
X90461952Y-80183379D01*
X90461952Y-80183379D02*
X90538143Y-80183379D01*
X90500047Y-80373855D02*
X90576238Y-80335760D01*
X90576238Y-80335760D02*
X90652428Y-80259569D01*
X90652428Y-80259569D02*
X90690524Y-80107188D01*
X90690524Y-80107188D02*
X90690524Y-79840521D01*
X90690524Y-79840521D02*
X90652428Y-79688140D01*
X90652428Y-79688140D02*
X90576238Y-79611950D01*
X90576238Y-79611950D02*
X90500047Y-79573855D01*
X90500047Y-79573855D02*
X90347666Y-79573855D01*
X90347666Y-79573855D02*
X90271476Y-79611950D01*
X90271476Y-79611950D02*
X90195285Y-79688140D01*
X90195285Y-79688140D02*
X90157190Y-79840521D01*
X90157190Y-79840521D02*
X90157190Y-80107188D01*
X90157190Y-80107188D02*
X90195285Y-80259569D01*
X90195285Y-80259569D02*
X90271476Y-80335760D01*
X90271476Y-80335760D02*
X90347666Y-80373855D01*
X90347666Y-80373855D02*
X90500047Y-80373855D01*
X89852429Y-79650045D02*
X89814333Y-79611950D01*
X89814333Y-79611950D02*
X89738143Y-79573855D01*
X89738143Y-79573855D02*
X89547667Y-79573855D01*
X89547667Y-79573855D02*
X89471476Y-79611950D01*
X89471476Y-79611950D02*
X89433381Y-79650045D01*
X89433381Y-79650045D02*
X89395286Y-79726236D01*
X89395286Y-79726236D02*
X89395286Y-79802426D01*
X89395286Y-79802426D02*
X89433381Y-79916712D01*
X89433381Y-79916712D02*
X89890524Y-80373855D01*
X89890524Y-80373855D02*
X89395286Y-80373855D01*
X88900047Y-79573855D02*
X88823857Y-79573855D01*
X88823857Y-79573855D02*
X88747666Y-79611950D01*
X88747666Y-79611950D02*
X88709571Y-79650045D01*
X88709571Y-79650045D02*
X88671476Y-79726236D01*
X88671476Y-79726236D02*
X88633381Y-79878617D01*
X88633381Y-79878617D02*
X88633381Y-80069093D01*
X88633381Y-80069093D02*
X88671476Y-80221474D01*
X88671476Y-80221474D02*
X88709571Y-80297664D01*
X88709571Y-80297664D02*
X88747666Y-80335760D01*
X88747666Y-80335760D02*
X88823857Y-80373855D01*
X88823857Y-80373855D02*
X88900047Y-80373855D01*
X88900047Y-80373855D02*
X88976238Y-80335760D01*
X88976238Y-80335760D02*
X89014333Y-80297664D01*
X89014333Y-80297664D02*
X89052428Y-80221474D01*
X89052428Y-80221474D02*
X89090524Y-80069093D01*
X89090524Y-80069093D02*
X89090524Y-79878617D01*
X89090524Y-79878617D02*
X89052428Y-79726236D01*
X89052428Y-79726236D02*
X89014333Y-79650045D01*
X89014333Y-79650045D02*
X88976238Y-79611950D01*
X88976238Y-79611950D02*
X88900047Y-79573855D01*
X87871476Y-80373855D02*
X88328619Y-80373855D01*
X88100047Y-80373855D02*
X88100047Y-79573855D01*
X88100047Y-79573855D02*
X88176238Y-79688140D01*
X88176238Y-79688140D02*
X88252428Y-79764331D01*
X88252428Y-79764331D02*
X88328619Y-79802426D01*
X116606664Y-85210762D02*
X116644760Y-85172666D01*
X116644760Y-85172666D02*
X116682855Y-85058381D01*
X116682855Y-85058381D02*
X116682855Y-84982190D01*
X116682855Y-84982190D02*
X116644760Y-84867904D01*
X116644760Y-84867904D02*
X116568569Y-84791714D01*
X116568569Y-84791714D02*
X116492379Y-84753619D01*
X116492379Y-84753619D02*
X116339998Y-84715523D01*
X116339998Y-84715523D02*
X116225712Y-84715523D01*
X116225712Y-84715523D02*
X116073331Y-84753619D01*
X116073331Y-84753619D02*
X115997140Y-84791714D01*
X115997140Y-84791714D02*
X115920950Y-84867904D01*
X115920950Y-84867904D02*
X115882855Y-84982190D01*
X115882855Y-84982190D02*
X115882855Y-85058381D01*
X115882855Y-85058381D02*
X115920950Y-85172666D01*
X115920950Y-85172666D02*
X115959045Y-85210762D01*
X115959045Y-85515523D02*
X115920950Y-85553619D01*
X115920950Y-85553619D02*
X115882855Y-85629809D01*
X115882855Y-85629809D02*
X115882855Y-85820285D01*
X115882855Y-85820285D02*
X115920950Y-85896476D01*
X115920950Y-85896476D02*
X115959045Y-85934571D01*
X115959045Y-85934571D02*
X116035236Y-85972666D01*
X116035236Y-85972666D02*
X116111426Y-85972666D01*
X116111426Y-85972666D02*
X116225712Y-85934571D01*
X116225712Y-85934571D02*
X116682855Y-85477428D01*
X116682855Y-85477428D02*
X116682855Y-85972666D01*
X116682855Y-86734571D02*
X116682855Y-86277428D01*
X116682855Y-86506000D02*
X115882855Y-86506000D01*
X115882855Y-86506000D02*
X115997140Y-86429809D01*
X115997140Y-86429809D02*
X116073331Y-86353619D01*
X116073331Y-86353619D02*
X116111426Y-86277428D01*
X115959045Y-87039333D02*
X115920950Y-87077429D01*
X115920950Y-87077429D02*
X115882855Y-87153619D01*
X115882855Y-87153619D02*
X115882855Y-87344095D01*
X115882855Y-87344095D02*
X115920950Y-87420286D01*
X115920950Y-87420286D02*
X115959045Y-87458381D01*
X115959045Y-87458381D02*
X116035236Y-87496476D01*
X116035236Y-87496476D02*
X116111426Y-87496476D01*
X116111426Y-87496476D02*
X116225712Y-87458381D01*
X116225712Y-87458381D02*
X116682855Y-87001238D01*
X116682855Y-87001238D02*
X116682855Y-87496476D01*
X122334664Y-116833762D02*
X122372760Y-116795666D01*
X122372760Y-116795666D02*
X122410855Y-116681381D01*
X122410855Y-116681381D02*
X122410855Y-116605190D01*
X122410855Y-116605190D02*
X122372760Y-116490904D01*
X122372760Y-116490904D02*
X122296569Y-116414714D01*
X122296569Y-116414714D02*
X122220379Y-116376619D01*
X122220379Y-116376619D02*
X122067998Y-116338523D01*
X122067998Y-116338523D02*
X121953712Y-116338523D01*
X121953712Y-116338523D02*
X121801331Y-116376619D01*
X121801331Y-116376619D02*
X121725140Y-116414714D01*
X121725140Y-116414714D02*
X121648950Y-116490904D01*
X121648950Y-116490904D02*
X121610855Y-116605190D01*
X121610855Y-116605190D02*
X121610855Y-116681381D01*
X121610855Y-116681381D02*
X121648950Y-116795666D01*
X121648950Y-116795666D02*
X121687045Y-116833762D01*
X122410855Y-117595666D02*
X122410855Y-117138523D01*
X122410855Y-117367095D02*
X121610855Y-117367095D01*
X121610855Y-117367095D02*
X121725140Y-117290904D01*
X121725140Y-117290904D02*
X121801331Y-117214714D01*
X121801331Y-117214714D02*
X121839426Y-117138523D01*
X121687045Y-117900428D02*
X121648950Y-117938524D01*
X121648950Y-117938524D02*
X121610855Y-118014714D01*
X121610855Y-118014714D02*
X121610855Y-118205190D01*
X121610855Y-118205190D02*
X121648950Y-118281381D01*
X121648950Y-118281381D02*
X121687045Y-118319476D01*
X121687045Y-118319476D02*
X121763236Y-118357571D01*
X121763236Y-118357571D02*
X121839426Y-118357571D01*
X121839426Y-118357571D02*
X121953712Y-118319476D01*
X121953712Y-118319476D02*
X122410855Y-117862333D01*
X122410855Y-117862333D02*
X122410855Y-118357571D01*
X121610855Y-118852810D02*
X121610855Y-118929000D01*
X121610855Y-118929000D02*
X121648950Y-119005191D01*
X121648950Y-119005191D02*
X121687045Y-119043286D01*
X121687045Y-119043286D02*
X121763236Y-119081381D01*
X121763236Y-119081381D02*
X121915617Y-119119476D01*
X121915617Y-119119476D02*
X122106093Y-119119476D01*
X122106093Y-119119476D02*
X122258474Y-119081381D01*
X122258474Y-119081381D02*
X122334664Y-119043286D01*
X122334664Y-119043286D02*
X122372760Y-119005191D01*
X122372760Y-119005191D02*
X122410855Y-118929000D01*
X122410855Y-118929000D02*
X122410855Y-118852810D01*
X122410855Y-118852810D02*
X122372760Y-118776619D01*
X122372760Y-118776619D02*
X122334664Y-118738524D01*
X122334664Y-118738524D02*
X122258474Y-118700429D01*
X122258474Y-118700429D02*
X122106093Y-118662333D01*
X122106093Y-118662333D02*
X121915617Y-118662333D01*
X121915617Y-118662333D02*
X121763236Y-118700429D01*
X121763236Y-118700429D02*
X121687045Y-118738524D01*
X121687045Y-118738524D02*
X121648950Y-118776619D01*
X121648950Y-118776619D02*
X121610855Y-118852810D01*
X108364664Y-83559762D02*
X108402760Y-83521666D01*
X108402760Y-83521666D02*
X108440855Y-83407381D01*
X108440855Y-83407381D02*
X108440855Y-83331190D01*
X108440855Y-83331190D02*
X108402760Y-83216904D01*
X108402760Y-83216904D02*
X108326569Y-83140714D01*
X108326569Y-83140714D02*
X108250379Y-83102619D01*
X108250379Y-83102619D02*
X108097998Y-83064523D01*
X108097998Y-83064523D02*
X107983712Y-83064523D01*
X107983712Y-83064523D02*
X107831331Y-83102619D01*
X107831331Y-83102619D02*
X107755140Y-83140714D01*
X107755140Y-83140714D02*
X107678950Y-83216904D01*
X107678950Y-83216904D02*
X107640855Y-83331190D01*
X107640855Y-83331190D02*
X107640855Y-83407381D01*
X107640855Y-83407381D02*
X107678950Y-83521666D01*
X107678950Y-83521666D02*
X107717045Y-83559762D01*
X107717045Y-83864523D02*
X107678950Y-83902619D01*
X107678950Y-83902619D02*
X107640855Y-83978809D01*
X107640855Y-83978809D02*
X107640855Y-84169285D01*
X107640855Y-84169285D02*
X107678950Y-84245476D01*
X107678950Y-84245476D02*
X107717045Y-84283571D01*
X107717045Y-84283571D02*
X107793236Y-84321666D01*
X107793236Y-84321666D02*
X107869426Y-84321666D01*
X107869426Y-84321666D02*
X107983712Y-84283571D01*
X107983712Y-84283571D02*
X108440855Y-83826428D01*
X108440855Y-83826428D02*
X108440855Y-84321666D01*
X107640855Y-84816905D02*
X107640855Y-84893095D01*
X107640855Y-84893095D02*
X107678950Y-84969286D01*
X107678950Y-84969286D02*
X107717045Y-85007381D01*
X107717045Y-85007381D02*
X107793236Y-85045476D01*
X107793236Y-85045476D02*
X107945617Y-85083571D01*
X107945617Y-85083571D02*
X108136093Y-85083571D01*
X108136093Y-85083571D02*
X108288474Y-85045476D01*
X108288474Y-85045476D02*
X108364664Y-85007381D01*
X108364664Y-85007381D02*
X108402760Y-84969286D01*
X108402760Y-84969286D02*
X108440855Y-84893095D01*
X108440855Y-84893095D02*
X108440855Y-84816905D01*
X108440855Y-84816905D02*
X108402760Y-84740714D01*
X108402760Y-84740714D02*
X108364664Y-84702619D01*
X108364664Y-84702619D02*
X108288474Y-84664524D01*
X108288474Y-84664524D02*
X108136093Y-84626428D01*
X108136093Y-84626428D02*
X107945617Y-84626428D01*
X107945617Y-84626428D02*
X107793236Y-84664524D01*
X107793236Y-84664524D02*
X107717045Y-84702619D01*
X107717045Y-84702619D02*
X107678950Y-84740714D01*
X107678950Y-84740714D02*
X107640855Y-84816905D01*
X107640855Y-85350238D02*
X107640855Y-85845476D01*
X107640855Y-85845476D02*
X107945617Y-85578810D01*
X107945617Y-85578810D02*
X107945617Y-85693095D01*
X107945617Y-85693095D02*
X107983712Y-85769286D01*
X107983712Y-85769286D02*
X108021807Y-85807381D01*
X108021807Y-85807381D02*
X108097998Y-85845476D01*
X108097998Y-85845476D02*
X108288474Y-85845476D01*
X108288474Y-85845476D02*
X108364664Y-85807381D01*
X108364664Y-85807381D02*
X108402760Y-85769286D01*
X108402760Y-85769286D02*
X108440855Y-85693095D01*
X108440855Y-85693095D02*
X108440855Y-85464524D01*
X108440855Y-85464524D02*
X108402760Y-85388333D01*
X108402760Y-85388333D02*
X108364664Y-85350238D01*
X188093285Y-85123664D02*
X188131381Y-85161760D01*
X188131381Y-85161760D02*
X188245666Y-85199855D01*
X188245666Y-85199855D02*
X188321857Y-85199855D01*
X188321857Y-85199855D02*
X188436143Y-85161760D01*
X188436143Y-85161760D02*
X188512333Y-85085569D01*
X188512333Y-85085569D02*
X188550428Y-85009379D01*
X188550428Y-85009379D02*
X188588524Y-84856998D01*
X188588524Y-84856998D02*
X188588524Y-84742712D01*
X188588524Y-84742712D02*
X188550428Y-84590331D01*
X188550428Y-84590331D02*
X188512333Y-84514140D01*
X188512333Y-84514140D02*
X188436143Y-84437950D01*
X188436143Y-84437950D02*
X188321857Y-84399855D01*
X188321857Y-84399855D02*
X188245666Y-84399855D01*
X188245666Y-84399855D02*
X188131381Y-84437950D01*
X188131381Y-84437950D02*
X188093285Y-84476045D01*
X187331381Y-85199855D02*
X187788524Y-85199855D01*
X187559952Y-85199855D02*
X187559952Y-84399855D01*
X187559952Y-84399855D02*
X187636143Y-84514140D01*
X187636143Y-84514140D02*
X187712333Y-84590331D01*
X187712333Y-84590331D02*
X187788524Y-84628426D01*
X187064714Y-84399855D02*
X186569476Y-84399855D01*
X186569476Y-84399855D02*
X186836142Y-84704617D01*
X186836142Y-84704617D02*
X186721857Y-84704617D01*
X186721857Y-84704617D02*
X186645666Y-84742712D01*
X186645666Y-84742712D02*
X186607571Y-84780807D01*
X186607571Y-84780807D02*
X186569476Y-84856998D01*
X186569476Y-84856998D02*
X186569476Y-85047474D01*
X186569476Y-85047474D02*
X186607571Y-85123664D01*
X186607571Y-85123664D02*
X186645666Y-85161760D01*
X186645666Y-85161760D02*
X186721857Y-85199855D01*
X186721857Y-85199855D02*
X186950428Y-85199855D01*
X186950428Y-85199855D02*
X187026619Y-85161760D01*
X187026619Y-85161760D02*
X187064714Y-85123664D01*
X107729664Y-118103762D02*
X107767760Y-118065666D01*
X107767760Y-118065666D02*
X107805855Y-117951381D01*
X107805855Y-117951381D02*
X107805855Y-117875190D01*
X107805855Y-117875190D02*
X107767760Y-117760904D01*
X107767760Y-117760904D02*
X107691569Y-117684714D01*
X107691569Y-117684714D02*
X107615379Y-117646619D01*
X107615379Y-117646619D02*
X107462998Y-117608523D01*
X107462998Y-117608523D02*
X107348712Y-117608523D01*
X107348712Y-117608523D02*
X107196331Y-117646619D01*
X107196331Y-117646619D02*
X107120140Y-117684714D01*
X107120140Y-117684714D02*
X107043950Y-117760904D01*
X107043950Y-117760904D02*
X107005855Y-117875190D01*
X107005855Y-117875190D02*
X107005855Y-117951381D01*
X107005855Y-117951381D02*
X107043950Y-118065666D01*
X107043950Y-118065666D02*
X107082045Y-118103762D01*
X107805855Y-118865666D02*
X107805855Y-118408523D01*
X107805855Y-118637095D02*
X107005855Y-118637095D01*
X107005855Y-118637095D02*
X107120140Y-118560904D01*
X107120140Y-118560904D02*
X107196331Y-118484714D01*
X107196331Y-118484714D02*
X107234426Y-118408523D01*
X107005855Y-119360905D02*
X107005855Y-119437095D01*
X107005855Y-119437095D02*
X107043950Y-119513286D01*
X107043950Y-119513286D02*
X107082045Y-119551381D01*
X107082045Y-119551381D02*
X107158236Y-119589476D01*
X107158236Y-119589476D02*
X107310617Y-119627571D01*
X107310617Y-119627571D02*
X107501093Y-119627571D01*
X107501093Y-119627571D02*
X107653474Y-119589476D01*
X107653474Y-119589476D02*
X107729664Y-119551381D01*
X107729664Y-119551381D02*
X107767760Y-119513286D01*
X107767760Y-119513286D02*
X107805855Y-119437095D01*
X107805855Y-119437095D02*
X107805855Y-119360905D01*
X107805855Y-119360905D02*
X107767760Y-119284714D01*
X107767760Y-119284714D02*
X107729664Y-119246619D01*
X107729664Y-119246619D02*
X107653474Y-119208524D01*
X107653474Y-119208524D02*
X107501093Y-119170428D01*
X107501093Y-119170428D02*
X107310617Y-119170428D01*
X107310617Y-119170428D02*
X107158236Y-119208524D01*
X107158236Y-119208524D02*
X107082045Y-119246619D01*
X107082045Y-119246619D02*
X107043950Y-119284714D01*
X107043950Y-119284714D02*
X107005855Y-119360905D01*
X107005855Y-119894238D02*
X107005855Y-120389476D01*
X107005855Y-120389476D02*
X107310617Y-120122810D01*
X107310617Y-120122810D02*
X107310617Y-120237095D01*
X107310617Y-120237095D02*
X107348712Y-120313286D01*
X107348712Y-120313286D02*
X107386807Y-120351381D01*
X107386807Y-120351381D02*
X107462998Y-120389476D01*
X107462998Y-120389476D02*
X107653474Y-120389476D01*
X107653474Y-120389476D02*
X107729664Y-120351381D01*
X107729664Y-120351381D02*
X107767760Y-120313286D01*
X107767760Y-120313286D02*
X107805855Y-120237095D01*
X107805855Y-120237095D02*
X107805855Y-120008524D01*
X107805855Y-120008524D02*
X107767760Y-119932333D01*
X107767760Y-119932333D02*
X107729664Y-119894238D01*
X131565237Y-78900664D02*
X131603333Y-78938760D01*
X131603333Y-78938760D02*
X131717618Y-78976855D01*
X131717618Y-78976855D02*
X131793809Y-78976855D01*
X131793809Y-78976855D02*
X131908095Y-78938760D01*
X131908095Y-78938760D02*
X131984285Y-78862569D01*
X131984285Y-78862569D02*
X132022380Y-78786379D01*
X132022380Y-78786379D02*
X132060476Y-78633998D01*
X132060476Y-78633998D02*
X132060476Y-78519712D01*
X132060476Y-78519712D02*
X132022380Y-78367331D01*
X132022380Y-78367331D02*
X131984285Y-78291140D01*
X131984285Y-78291140D02*
X131908095Y-78214950D01*
X131908095Y-78214950D02*
X131793809Y-78176855D01*
X131793809Y-78176855D02*
X131717618Y-78176855D01*
X131717618Y-78176855D02*
X131603333Y-78214950D01*
X131603333Y-78214950D02*
X131565237Y-78253045D01*
X131260476Y-78253045D02*
X131222380Y-78214950D01*
X131222380Y-78214950D02*
X131146190Y-78176855D01*
X131146190Y-78176855D02*
X130955714Y-78176855D01*
X130955714Y-78176855D02*
X130879523Y-78214950D01*
X130879523Y-78214950D02*
X130841428Y-78253045D01*
X130841428Y-78253045D02*
X130803333Y-78329236D01*
X130803333Y-78329236D02*
X130803333Y-78405426D01*
X130803333Y-78405426D02*
X130841428Y-78519712D01*
X130841428Y-78519712D02*
X131298571Y-78976855D01*
X131298571Y-78976855D02*
X130803333Y-78976855D01*
X130041428Y-78976855D02*
X130498571Y-78976855D01*
X130269999Y-78976855D02*
X130269999Y-78176855D01*
X130269999Y-78176855D02*
X130346190Y-78291140D01*
X130346190Y-78291140D02*
X130422380Y-78367331D01*
X130422380Y-78367331D02*
X130498571Y-78405426D01*
X129317618Y-78176855D02*
X129698570Y-78176855D01*
X129698570Y-78176855D02*
X129736666Y-78557807D01*
X129736666Y-78557807D02*
X129698570Y-78519712D01*
X129698570Y-78519712D02*
X129622380Y-78481617D01*
X129622380Y-78481617D02*
X129431904Y-78481617D01*
X129431904Y-78481617D02*
X129355713Y-78519712D01*
X129355713Y-78519712D02*
X129317618Y-78557807D01*
X129317618Y-78557807D02*
X129279523Y-78633998D01*
X129279523Y-78633998D02*
X129279523Y-78824474D01*
X129279523Y-78824474D02*
X129317618Y-78900664D01*
X129317618Y-78900664D02*
X129355713Y-78938760D01*
X129355713Y-78938760D02*
X129431904Y-78976855D01*
X129431904Y-78976855D02*
X129622380Y-78976855D01*
X129622380Y-78976855D02*
X129698570Y-78938760D01*
X129698570Y-78938760D02*
X129736666Y-78900664D01*
X105951664Y-125215762D02*
X105989760Y-125177666D01*
X105989760Y-125177666D02*
X106027855Y-125063381D01*
X106027855Y-125063381D02*
X106027855Y-124987190D01*
X106027855Y-124987190D02*
X105989760Y-124872904D01*
X105989760Y-124872904D02*
X105913569Y-124796714D01*
X105913569Y-124796714D02*
X105837379Y-124758619D01*
X105837379Y-124758619D02*
X105684998Y-124720523D01*
X105684998Y-124720523D02*
X105570712Y-124720523D01*
X105570712Y-124720523D02*
X105418331Y-124758619D01*
X105418331Y-124758619D02*
X105342140Y-124796714D01*
X105342140Y-124796714D02*
X105265950Y-124872904D01*
X105265950Y-124872904D02*
X105227855Y-124987190D01*
X105227855Y-124987190D02*
X105227855Y-125063381D01*
X105227855Y-125063381D02*
X105265950Y-125177666D01*
X105265950Y-125177666D02*
X105304045Y-125215762D01*
X106027855Y-125977666D02*
X106027855Y-125520523D01*
X106027855Y-125749095D02*
X105227855Y-125749095D01*
X105227855Y-125749095D02*
X105342140Y-125672904D01*
X105342140Y-125672904D02*
X105418331Y-125596714D01*
X105418331Y-125596714D02*
X105456426Y-125520523D01*
X105304045Y-126282428D02*
X105265950Y-126320524D01*
X105265950Y-126320524D02*
X105227855Y-126396714D01*
X105227855Y-126396714D02*
X105227855Y-126587190D01*
X105227855Y-126587190D02*
X105265950Y-126663381D01*
X105265950Y-126663381D02*
X105304045Y-126701476D01*
X105304045Y-126701476D02*
X105380236Y-126739571D01*
X105380236Y-126739571D02*
X105456426Y-126739571D01*
X105456426Y-126739571D02*
X105570712Y-126701476D01*
X105570712Y-126701476D02*
X106027855Y-126244333D01*
X106027855Y-126244333D02*
X106027855Y-126739571D01*
X105227855Y-127006238D02*
X105227855Y-127501476D01*
X105227855Y-127501476D02*
X105532617Y-127234810D01*
X105532617Y-127234810D02*
X105532617Y-127349095D01*
X105532617Y-127349095D02*
X105570712Y-127425286D01*
X105570712Y-127425286D02*
X105608807Y-127463381D01*
X105608807Y-127463381D02*
X105684998Y-127501476D01*
X105684998Y-127501476D02*
X105875474Y-127501476D01*
X105875474Y-127501476D02*
X105951664Y-127463381D01*
X105951664Y-127463381D02*
X105989760Y-127425286D01*
X105989760Y-127425286D02*
X106027855Y-127349095D01*
X106027855Y-127349095D02*
X106027855Y-127120524D01*
X106027855Y-127120524D02*
X105989760Y-127044333D01*
X105989760Y-127044333D02*
X105951664Y-127006238D01*
X101987237Y-85504664D02*
X102025333Y-85542760D01*
X102025333Y-85542760D02*
X102139618Y-85580855D01*
X102139618Y-85580855D02*
X102215809Y-85580855D01*
X102215809Y-85580855D02*
X102330095Y-85542760D01*
X102330095Y-85542760D02*
X102406285Y-85466569D01*
X102406285Y-85466569D02*
X102444380Y-85390379D01*
X102444380Y-85390379D02*
X102482476Y-85237998D01*
X102482476Y-85237998D02*
X102482476Y-85123712D01*
X102482476Y-85123712D02*
X102444380Y-84971331D01*
X102444380Y-84971331D02*
X102406285Y-84895140D01*
X102406285Y-84895140D02*
X102330095Y-84818950D01*
X102330095Y-84818950D02*
X102215809Y-84780855D01*
X102215809Y-84780855D02*
X102139618Y-84780855D01*
X102139618Y-84780855D02*
X102025333Y-84818950D01*
X102025333Y-84818950D02*
X101987237Y-84857045D01*
X101682476Y-84857045D02*
X101644380Y-84818950D01*
X101644380Y-84818950D02*
X101568190Y-84780855D01*
X101568190Y-84780855D02*
X101377714Y-84780855D01*
X101377714Y-84780855D02*
X101301523Y-84818950D01*
X101301523Y-84818950D02*
X101263428Y-84857045D01*
X101263428Y-84857045D02*
X101225333Y-84933236D01*
X101225333Y-84933236D02*
X101225333Y-85009426D01*
X101225333Y-85009426D02*
X101263428Y-85123712D01*
X101263428Y-85123712D02*
X101720571Y-85580855D01*
X101720571Y-85580855D02*
X101225333Y-85580855D01*
X100920571Y-84857045D02*
X100882475Y-84818950D01*
X100882475Y-84818950D02*
X100806285Y-84780855D01*
X100806285Y-84780855D02*
X100615809Y-84780855D01*
X100615809Y-84780855D02*
X100539618Y-84818950D01*
X100539618Y-84818950D02*
X100501523Y-84857045D01*
X100501523Y-84857045D02*
X100463428Y-84933236D01*
X100463428Y-84933236D02*
X100463428Y-85009426D01*
X100463428Y-85009426D02*
X100501523Y-85123712D01*
X100501523Y-85123712D02*
X100958666Y-85580855D01*
X100958666Y-85580855D02*
X100463428Y-85580855D01*
X100158666Y-84857045D02*
X100120570Y-84818950D01*
X100120570Y-84818950D02*
X100044380Y-84780855D01*
X100044380Y-84780855D02*
X99853904Y-84780855D01*
X99853904Y-84780855D02*
X99777713Y-84818950D01*
X99777713Y-84818950D02*
X99739618Y-84857045D01*
X99739618Y-84857045D02*
X99701523Y-84933236D01*
X99701523Y-84933236D02*
X99701523Y-85009426D01*
X99701523Y-85009426D02*
X99739618Y-85123712D01*
X99739618Y-85123712D02*
X100196761Y-85580855D01*
X100196761Y-85580855D02*
X99701523Y-85580855D01*
X116719237Y-116492664D02*
X116757333Y-116530760D01*
X116757333Y-116530760D02*
X116871618Y-116568855D01*
X116871618Y-116568855D02*
X116947809Y-116568855D01*
X116947809Y-116568855D02*
X117062095Y-116530760D01*
X117062095Y-116530760D02*
X117138285Y-116454569D01*
X117138285Y-116454569D02*
X117176380Y-116378379D01*
X117176380Y-116378379D02*
X117214476Y-116225998D01*
X117214476Y-116225998D02*
X117214476Y-116111712D01*
X117214476Y-116111712D02*
X117176380Y-115959331D01*
X117176380Y-115959331D02*
X117138285Y-115883140D01*
X117138285Y-115883140D02*
X117062095Y-115806950D01*
X117062095Y-115806950D02*
X116947809Y-115768855D01*
X116947809Y-115768855D02*
X116871618Y-115768855D01*
X116871618Y-115768855D02*
X116757333Y-115806950D01*
X116757333Y-115806950D02*
X116719237Y-115845045D01*
X115957333Y-116568855D02*
X116414476Y-116568855D01*
X116185904Y-116568855D02*
X116185904Y-115768855D01*
X116185904Y-115768855D02*
X116262095Y-115883140D01*
X116262095Y-115883140D02*
X116338285Y-115959331D01*
X116338285Y-115959331D02*
X116414476Y-115997426D01*
X115652571Y-115845045D02*
X115614475Y-115806950D01*
X115614475Y-115806950D02*
X115538285Y-115768855D01*
X115538285Y-115768855D02*
X115347809Y-115768855D01*
X115347809Y-115768855D02*
X115271618Y-115806950D01*
X115271618Y-115806950D02*
X115233523Y-115845045D01*
X115233523Y-115845045D02*
X115195428Y-115921236D01*
X115195428Y-115921236D02*
X115195428Y-115997426D01*
X115195428Y-115997426D02*
X115233523Y-116111712D01*
X115233523Y-116111712D02*
X115690666Y-116568855D01*
X115690666Y-116568855D02*
X115195428Y-116568855D01*
X114433523Y-116568855D02*
X114890666Y-116568855D01*
X114662094Y-116568855D02*
X114662094Y-115768855D01*
X114662094Y-115768855D02*
X114738285Y-115883140D01*
X114738285Y-115883140D02*
X114814475Y-115959331D01*
X114814475Y-115959331D02*
X114890666Y-115997426D01*
X127374237Y-86076664D02*
X127412333Y-86114760D01*
X127412333Y-86114760D02*
X127526618Y-86152855D01*
X127526618Y-86152855D02*
X127602809Y-86152855D01*
X127602809Y-86152855D02*
X127717095Y-86114760D01*
X127717095Y-86114760D02*
X127793285Y-86038569D01*
X127793285Y-86038569D02*
X127831380Y-85962379D01*
X127831380Y-85962379D02*
X127869476Y-85809998D01*
X127869476Y-85809998D02*
X127869476Y-85695712D01*
X127869476Y-85695712D02*
X127831380Y-85543331D01*
X127831380Y-85543331D02*
X127793285Y-85467140D01*
X127793285Y-85467140D02*
X127717095Y-85390950D01*
X127717095Y-85390950D02*
X127602809Y-85352855D01*
X127602809Y-85352855D02*
X127526618Y-85352855D01*
X127526618Y-85352855D02*
X127412333Y-85390950D01*
X127412333Y-85390950D02*
X127374237Y-85429045D01*
X127069476Y-85429045D02*
X127031380Y-85390950D01*
X127031380Y-85390950D02*
X126955190Y-85352855D01*
X126955190Y-85352855D02*
X126764714Y-85352855D01*
X126764714Y-85352855D02*
X126688523Y-85390950D01*
X126688523Y-85390950D02*
X126650428Y-85429045D01*
X126650428Y-85429045D02*
X126612333Y-85505236D01*
X126612333Y-85505236D02*
X126612333Y-85581426D01*
X126612333Y-85581426D02*
X126650428Y-85695712D01*
X126650428Y-85695712D02*
X127107571Y-86152855D01*
X127107571Y-86152855D02*
X126612333Y-86152855D01*
X125850428Y-86152855D02*
X126307571Y-86152855D01*
X126078999Y-86152855D02*
X126078999Y-85352855D01*
X126078999Y-85352855D02*
X126155190Y-85467140D01*
X126155190Y-85467140D02*
X126231380Y-85543331D01*
X126231380Y-85543331D02*
X126307571Y-85581426D01*
X125355189Y-85352855D02*
X125278999Y-85352855D01*
X125278999Y-85352855D02*
X125202808Y-85390950D01*
X125202808Y-85390950D02*
X125164713Y-85429045D01*
X125164713Y-85429045D02*
X125126618Y-85505236D01*
X125126618Y-85505236D02*
X125088523Y-85657617D01*
X125088523Y-85657617D02*
X125088523Y-85848093D01*
X125088523Y-85848093D02*
X125126618Y-86000474D01*
X125126618Y-86000474D02*
X125164713Y-86076664D01*
X125164713Y-86076664D02*
X125202808Y-86114760D01*
X125202808Y-86114760D02*
X125278999Y-86152855D01*
X125278999Y-86152855D02*
X125355189Y-86152855D01*
X125355189Y-86152855D02*
X125431380Y-86114760D01*
X125431380Y-86114760D02*
X125469475Y-86076664D01*
X125469475Y-86076664D02*
X125507570Y-86000474D01*
X125507570Y-86000474D02*
X125545666Y-85848093D01*
X125545666Y-85848093D02*
X125545666Y-85657617D01*
X125545666Y-85657617D02*
X125507570Y-85505236D01*
X125507570Y-85505236D02*
X125469475Y-85429045D01*
X125469475Y-85429045D02*
X125431380Y-85390950D01*
X125431380Y-85390950D02*
X125355189Y-85352855D01*
X118045664Y-104260714D02*
X118083760Y-104222618D01*
X118083760Y-104222618D02*
X118121855Y-104108333D01*
X118121855Y-104108333D02*
X118121855Y-104032142D01*
X118121855Y-104032142D02*
X118083760Y-103917856D01*
X118083760Y-103917856D02*
X118007569Y-103841666D01*
X118007569Y-103841666D02*
X117931379Y-103803571D01*
X117931379Y-103803571D02*
X117778998Y-103765475D01*
X117778998Y-103765475D02*
X117664712Y-103765475D01*
X117664712Y-103765475D02*
X117512331Y-103803571D01*
X117512331Y-103803571D02*
X117436140Y-103841666D01*
X117436140Y-103841666D02*
X117359950Y-103917856D01*
X117359950Y-103917856D02*
X117321855Y-104032142D01*
X117321855Y-104032142D02*
X117321855Y-104108333D01*
X117321855Y-104108333D02*
X117359950Y-104222618D01*
X117359950Y-104222618D02*
X117398045Y-104260714D01*
X117398045Y-104565475D02*
X117359950Y-104603571D01*
X117359950Y-104603571D02*
X117321855Y-104679761D01*
X117321855Y-104679761D02*
X117321855Y-104870237D01*
X117321855Y-104870237D02*
X117359950Y-104946428D01*
X117359950Y-104946428D02*
X117398045Y-104984523D01*
X117398045Y-104984523D02*
X117474236Y-105022618D01*
X117474236Y-105022618D02*
X117550426Y-105022618D01*
X117550426Y-105022618D02*
X117664712Y-104984523D01*
X117664712Y-104984523D02*
X118121855Y-104527380D01*
X118121855Y-104527380D02*
X118121855Y-105022618D01*
X117321855Y-105746428D02*
X117321855Y-105365476D01*
X117321855Y-105365476D02*
X117702807Y-105327380D01*
X117702807Y-105327380D02*
X117664712Y-105365476D01*
X117664712Y-105365476D02*
X117626617Y-105441666D01*
X117626617Y-105441666D02*
X117626617Y-105632142D01*
X117626617Y-105632142D02*
X117664712Y-105708333D01*
X117664712Y-105708333D02*
X117702807Y-105746428D01*
X117702807Y-105746428D02*
X117778998Y-105784523D01*
X117778998Y-105784523D02*
X117969474Y-105784523D01*
X117969474Y-105784523D02*
X118045664Y-105746428D01*
X118045664Y-105746428D02*
X118083760Y-105708333D01*
X118083760Y-105708333D02*
X118121855Y-105632142D01*
X118121855Y-105632142D02*
X118121855Y-105441666D01*
X118121855Y-105441666D02*
X118083760Y-105365476D01*
X118083760Y-105365476D02*
X118045664Y-105327380D01*
X86366285Y-125128664D02*
X86404381Y-125166760D01*
X86404381Y-125166760D02*
X86518666Y-125204855D01*
X86518666Y-125204855D02*
X86594857Y-125204855D01*
X86594857Y-125204855D02*
X86709143Y-125166760D01*
X86709143Y-125166760D02*
X86785333Y-125090569D01*
X86785333Y-125090569D02*
X86823428Y-125014379D01*
X86823428Y-125014379D02*
X86861524Y-124861998D01*
X86861524Y-124861998D02*
X86861524Y-124747712D01*
X86861524Y-124747712D02*
X86823428Y-124595331D01*
X86823428Y-124595331D02*
X86785333Y-124519140D01*
X86785333Y-124519140D02*
X86709143Y-124442950D01*
X86709143Y-124442950D02*
X86594857Y-124404855D01*
X86594857Y-124404855D02*
X86518666Y-124404855D01*
X86518666Y-124404855D02*
X86404381Y-124442950D01*
X86404381Y-124442950D02*
X86366285Y-124481045D01*
X86099619Y-124404855D02*
X85604381Y-124404855D01*
X85604381Y-124404855D02*
X85871047Y-124709617D01*
X85871047Y-124709617D02*
X85756762Y-124709617D01*
X85756762Y-124709617D02*
X85680571Y-124747712D01*
X85680571Y-124747712D02*
X85642476Y-124785807D01*
X85642476Y-124785807D02*
X85604381Y-124861998D01*
X85604381Y-124861998D02*
X85604381Y-125052474D01*
X85604381Y-125052474D02*
X85642476Y-125128664D01*
X85642476Y-125128664D02*
X85680571Y-125166760D01*
X85680571Y-125166760D02*
X85756762Y-125204855D01*
X85756762Y-125204855D02*
X85985333Y-125204855D01*
X85985333Y-125204855D02*
X86061524Y-125166760D01*
X86061524Y-125166760D02*
X86099619Y-125128664D01*
X85109142Y-124404855D02*
X85032952Y-124404855D01*
X85032952Y-124404855D02*
X84956761Y-124442950D01*
X84956761Y-124442950D02*
X84918666Y-124481045D01*
X84918666Y-124481045D02*
X84880571Y-124557236D01*
X84880571Y-124557236D02*
X84842476Y-124709617D01*
X84842476Y-124709617D02*
X84842476Y-124900093D01*
X84842476Y-124900093D02*
X84880571Y-125052474D01*
X84880571Y-125052474D02*
X84918666Y-125128664D01*
X84918666Y-125128664D02*
X84956761Y-125166760D01*
X84956761Y-125166760D02*
X85032952Y-125204855D01*
X85032952Y-125204855D02*
X85109142Y-125204855D01*
X85109142Y-125204855D02*
X85185333Y-125166760D01*
X85185333Y-125166760D02*
X85223428Y-125128664D01*
X85223428Y-125128664D02*
X85261523Y-125052474D01*
X85261523Y-125052474D02*
X85299619Y-124900093D01*
X85299619Y-124900093D02*
X85299619Y-124709617D01*
X85299619Y-124709617D02*
X85261523Y-124557236D01*
X85261523Y-124557236D02*
X85223428Y-124481045D01*
X85223428Y-124481045D02*
X85185333Y-124442950D01*
X85185333Y-124442950D02*
X85109142Y-124404855D01*
X109099237Y-111742855D02*
X109365904Y-111361902D01*
X109556380Y-111742855D02*
X109556380Y-110942855D01*
X109556380Y-110942855D02*
X109251618Y-110942855D01*
X109251618Y-110942855D02*
X109175428Y-110980950D01*
X109175428Y-110980950D02*
X109137333Y-111019045D01*
X109137333Y-111019045D02*
X109099237Y-111095236D01*
X109099237Y-111095236D02*
X109099237Y-111209521D01*
X109099237Y-111209521D02*
X109137333Y-111285712D01*
X109137333Y-111285712D02*
X109175428Y-111323807D01*
X109175428Y-111323807D02*
X109251618Y-111361902D01*
X109251618Y-111361902D02*
X109556380Y-111361902D01*
X108337333Y-111742855D02*
X108794476Y-111742855D01*
X108565904Y-111742855D02*
X108565904Y-110942855D01*
X108565904Y-110942855D02*
X108642095Y-111057140D01*
X108642095Y-111057140D02*
X108718285Y-111133331D01*
X108718285Y-111133331D02*
X108794476Y-111171426D01*
X107842094Y-110942855D02*
X107765904Y-110942855D01*
X107765904Y-110942855D02*
X107689713Y-110980950D01*
X107689713Y-110980950D02*
X107651618Y-111019045D01*
X107651618Y-111019045D02*
X107613523Y-111095236D01*
X107613523Y-111095236D02*
X107575428Y-111247617D01*
X107575428Y-111247617D02*
X107575428Y-111438093D01*
X107575428Y-111438093D02*
X107613523Y-111590474D01*
X107613523Y-111590474D02*
X107651618Y-111666664D01*
X107651618Y-111666664D02*
X107689713Y-111704760D01*
X107689713Y-111704760D02*
X107765904Y-111742855D01*
X107765904Y-111742855D02*
X107842094Y-111742855D01*
X107842094Y-111742855D02*
X107918285Y-111704760D01*
X107918285Y-111704760D02*
X107956380Y-111666664D01*
X107956380Y-111666664D02*
X107994475Y-111590474D01*
X107994475Y-111590474D02*
X108032571Y-111438093D01*
X108032571Y-111438093D02*
X108032571Y-111247617D01*
X108032571Y-111247617D02*
X107994475Y-111095236D01*
X107994475Y-111095236D02*
X107956380Y-111019045D01*
X107956380Y-111019045D02*
X107918285Y-110980950D01*
X107918285Y-110980950D02*
X107842094Y-110942855D01*
X106851618Y-110942855D02*
X107232570Y-110942855D01*
X107232570Y-110942855D02*
X107270666Y-111323807D01*
X107270666Y-111323807D02*
X107232570Y-111285712D01*
X107232570Y-111285712D02*
X107156380Y-111247617D01*
X107156380Y-111247617D02*
X106965904Y-111247617D01*
X106965904Y-111247617D02*
X106889713Y-111285712D01*
X106889713Y-111285712D02*
X106851618Y-111323807D01*
X106851618Y-111323807D02*
X106813523Y-111399998D01*
X106813523Y-111399998D02*
X106813523Y-111590474D01*
X106813523Y-111590474D02*
X106851618Y-111666664D01*
X106851618Y-111666664D02*
X106889713Y-111704760D01*
X106889713Y-111704760D02*
X106965904Y-111742855D01*
X106965904Y-111742855D02*
X107156380Y-111742855D01*
X107156380Y-111742855D02*
X107232570Y-111704760D01*
X107232570Y-111704760D02*
X107270666Y-111666664D01*
X178123832Y-72992664D02*
X178161928Y-73030760D01*
X178161928Y-73030760D02*
X178276213Y-73068855D01*
X178276213Y-73068855D02*
X178352404Y-73068855D01*
X178352404Y-73068855D02*
X178466690Y-73030760D01*
X178466690Y-73030760D02*
X178542880Y-72954569D01*
X178542880Y-72954569D02*
X178580975Y-72878379D01*
X178580975Y-72878379D02*
X178619071Y-72725998D01*
X178619071Y-72725998D02*
X178619071Y-72611712D01*
X178619071Y-72611712D02*
X178580975Y-72459331D01*
X178580975Y-72459331D02*
X178542880Y-72383140D01*
X178542880Y-72383140D02*
X178466690Y-72306950D01*
X178466690Y-72306950D02*
X178352404Y-72268855D01*
X178352404Y-72268855D02*
X178276213Y-72268855D01*
X178276213Y-72268855D02*
X178161928Y-72306950D01*
X178161928Y-72306950D02*
X178123832Y-72345045D01*
X177742880Y-73068855D02*
X177590499Y-73068855D01*
X177590499Y-73068855D02*
X177514309Y-73030760D01*
X177514309Y-73030760D02*
X177476213Y-72992664D01*
X177476213Y-72992664D02*
X177400023Y-72878379D01*
X177400023Y-72878379D02*
X177361928Y-72725998D01*
X177361928Y-72725998D02*
X177361928Y-72421236D01*
X177361928Y-72421236D02*
X177400023Y-72345045D01*
X177400023Y-72345045D02*
X177438118Y-72306950D01*
X177438118Y-72306950D02*
X177514309Y-72268855D01*
X177514309Y-72268855D02*
X177666690Y-72268855D01*
X177666690Y-72268855D02*
X177742880Y-72306950D01*
X177742880Y-72306950D02*
X177780975Y-72345045D01*
X177780975Y-72345045D02*
X177819071Y-72421236D01*
X177819071Y-72421236D02*
X177819071Y-72611712D01*
X177819071Y-72611712D02*
X177780975Y-72687902D01*
X177780975Y-72687902D02*
X177742880Y-72725998D01*
X177742880Y-72725998D02*
X177666690Y-72764093D01*
X177666690Y-72764093D02*
X177514309Y-72764093D01*
X177514309Y-72764093D02*
X177438118Y-72725998D01*
X177438118Y-72725998D02*
X177400023Y-72687902D01*
X177400023Y-72687902D02*
X177361928Y-72611712D01*
X114968664Y-101339714D02*
X115006760Y-101301618D01*
X115006760Y-101301618D02*
X115044855Y-101187333D01*
X115044855Y-101187333D02*
X115044855Y-101111142D01*
X115044855Y-101111142D02*
X115006760Y-100996856D01*
X115006760Y-100996856D02*
X114930569Y-100920666D01*
X114930569Y-100920666D02*
X114854379Y-100882571D01*
X114854379Y-100882571D02*
X114701998Y-100844475D01*
X114701998Y-100844475D02*
X114587712Y-100844475D01*
X114587712Y-100844475D02*
X114435331Y-100882571D01*
X114435331Y-100882571D02*
X114359140Y-100920666D01*
X114359140Y-100920666D02*
X114282950Y-100996856D01*
X114282950Y-100996856D02*
X114244855Y-101111142D01*
X114244855Y-101111142D02*
X114244855Y-101187333D01*
X114244855Y-101187333D02*
X114282950Y-101301618D01*
X114282950Y-101301618D02*
X114321045Y-101339714D01*
X114321045Y-101644475D02*
X114282950Y-101682571D01*
X114282950Y-101682571D02*
X114244855Y-101758761D01*
X114244855Y-101758761D02*
X114244855Y-101949237D01*
X114244855Y-101949237D02*
X114282950Y-102025428D01*
X114282950Y-102025428D02*
X114321045Y-102063523D01*
X114321045Y-102063523D02*
X114397236Y-102101618D01*
X114397236Y-102101618D02*
X114473426Y-102101618D01*
X114473426Y-102101618D02*
X114587712Y-102063523D01*
X114587712Y-102063523D02*
X115044855Y-101606380D01*
X115044855Y-101606380D02*
X115044855Y-102101618D01*
X114244855Y-102787333D02*
X114244855Y-102634952D01*
X114244855Y-102634952D02*
X114282950Y-102558761D01*
X114282950Y-102558761D02*
X114321045Y-102520666D01*
X114321045Y-102520666D02*
X114435331Y-102444476D01*
X114435331Y-102444476D02*
X114587712Y-102406380D01*
X114587712Y-102406380D02*
X114892474Y-102406380D01*
X114892474Y-102406380D02*
X114968664Y-102444476D01*
X114968664Y-102444476D02*
X115006760Y-102482571D01*
X115006760Y-102482571D02*
X115044855Y-102558761D01*
X115044855Y-102558761D02*
X115044855Y-102711142D01*
X115044855Y-102711142D02*
X115006760Y-102787333D01*
X115006760Y-102787333D02*
X114968664Y-102825428D01*
X114968664Y-102825428D02*
X114892474Y-102863523D01*
X114892474Y-102863523D02*
X114701998Y-102863523D01*
X114701998Y-102863523D02*
X114625807Y-102825428D01*
X114625807Y-102825428D02*
X114587712Y-102787333D01*
X114587712Y-102787333D02*
X114549617Y-102711142D01*
X114549617Y-102711142D02*
X114549617Y-102558761D01*
X114549617Y-102558761D02*
X114587712Y-102482571D01*
X114587712Y-102482571D02*
X114625807Y-102444476D01*
X114625807Y-102444476D02*
X114701998Y-102406380D01*
X108745664Y-94227714D02*
X108783760Y-94189618D01*
X108783760Y-94189618D02*
X108821855Y-94075333D01*
X108821855Y-94075333D02*
X108821855Y-93999142D01*
X108821855Y-93999142D02*
X108783760Y-93884856D01*
X108783760Y-93884856D02*
X108707569Y-93808666D01*
X108707569Y-93808666D02*
X108631379Y-93770571D01*
X108631379Y-93770571D02*
X108478998Y-93732475D01*
X108478998Y-93732475D02*
X108364712Y-93732475D01*
X108364712Y-93732475D02*
X108212331Y-93770571D01*
X108212331Y-93770571D02*
X108136140Y-93808666D01*
X108136140Y-93808666D02*
X108059950Y-93884856D01*
X108059950Y-93884856D02*
X108021855Y-93999142D01*
X108021855Y-93999142D02*
X108021855Y-94075333D01*
X108021855Y-94075333D02*
X108059950Y-94189618D01*
X108059950Y-94189618D02*
X108098045Y-94227714D01*
X108098045Y-94532475D02*
X108059950Y-94570571D01*
X108059950Y-94570571D02*
X108021855Y-94646761D01*
X108021855Y-94646761D02*
X108021855Y-94837237D01*
X108021855Y-94837237D02*
X108059950Y-94913428D01*
X108059950Y-94913428D02*
X108098045Y-94951523D01*
X108098045Y-94951523D02*
X108174236Y-94989618D01*
X108174236Y-94989618D02*
X108250426Y-94989618D01*
X108250426Y-94989618D02*
X108364712Y-94951523D01*
X108364712Y-94951523D02*
X108821855Y-94494380D01*
X108821855Y-94494380D02*
X108821855Y-94989618D01*
X108288521Y-95675333D02*
X108821855Y-95675333D01*
X107983760Y-95484857D02*
X108555188Y-95294380D01*
X108555188Y-95294380D02*
X108555188Y-95789619D01*
%TO.C,C122*%
X100703748Y-117121000D02*
X101226252Y-117121000D01*
X100703748Y-118591000D02*
X101226252Y-118591000D01*
%TO.C,C102*%
X108853000Y-115348000D02*
X111873000Y-115348000D01*
X108853000Y-119733000D02*
X108853000Y-115348000D01*
X111873000Y-115348000D02*
X111873000Y-119733000D01*
%TO.C,C226*%
X131472000Y-82288748D02*
X131472000Y-82811252D01*
X132942000Y-82288748D02*
X132942000Y-82811252D01*
%TO.C,C221*%
X117362000Y-82430252D02*
X117362000Y-81907748D01*
X118832000Y-82430252D02*
X118832000Y-81907748D01*
%TO.C,C20*%
X168683000Y-97274748D02*
X168683000Y-97797252D01*
X170153000Y-97274748D02*
X170153000Y-97797252D01*
%TO.C,C8*%
X175096500Y-75049748D02*
X175096500Y-75572252D01*
X176566500Y-75049748D02*
X176566500Y-75572252D01*
%TO.C,Q202*%
X90769000Y-75057000D02*
X90769000Y-74257000D01*
X90769000Y-75057000D02*
X90769000Y-75857000D01*
X93889000Y-75057000D02*
X93889000Y-74257000D01*
X93889000Y-75057000D02*
X93889000Y-76857000D01*
%TO.C,R204*%
X111406000Y-84839436D02*
X111406000Y-85293564D01*
X112876000Y-84839436D02*
X112876000Y-85293564D01*
%TO.C,C22*%
X108104000Y-109100252D02*
X108104000Y-108577748D01*
X109574000Y-109100252D02*
X109574000Y-108577748D01*
%TO.C,C21*%
X179732000Y-97274748D02*
X179732000Y-97797252D01*
X181202000Y-97274748D02*
X181202000Y-97797252D01*
%TO.C,R5*%
X183668936Y-95658000D02*
X184123064Y-95658000D01*
X183668936Y-97128000D02*
X184123064Y-97128000D01*
%TO.C,R126*%
X126084064Y-110136000D02*
X125629936Y-110136000D01*
X126084064Y-111606000D02*
X125629936Y-111606000D01*
%TO.C,C114*%
X119661000Y-112768748D02*
X119661000Y-113291252D01*
X121131000Y-112768748D02*
X121131000Y-113291252D01*
%TO.C,C216*%
X126979748Y-79910000D02*
X127502252Y-79910000D01*
X126979748Y-81380000D02*
X127502252Y-81380000D01*
%TO.C,R226*%
X126071064Y-75719000D02*
X125616936Y-75719000D01*
X126071064Y-77189000D02*
X125616936Y-77189000D01*
%TO.C,C213*%
X117362000Y-78351748D02*
X117362000Y-78874252D01*
X118832000Y-78351748D02*
X118832000Y-78874252D01*
%TO.C,C7*%
X195226000Y-77335748D02*
X195226000Y-77858252D01*
X196696000Y-77335748D02*
X196696000Y-77858252D01*
%TO.C,Q2*%
X179343000Y-89022000D02*
X180603000Y-89022000D01*
X179343000Y-92782000D02*
X179343000Y-89022000D01*
X186163000Y-89022000D02*
X184903000Y-89022000D01*
X186163000Y-95032000D02*
X186163000Y-89022000D01*
%TO.C,C15*%
X185666748Y-97690000D02*
X186189252Y-97690000D01*
X185666748Y-99160000D02*
X186189252Y-99160000D01*
%TO.C,C112*%
X117375000Y-120403252D02*
X117375000Y-119880748D01*
X118845000Y-120403252D02*
X118845000Y-119880748D01*
%TO.C,C31*%
X146075000Y-93561252D02*
X146075000Y-93038748D01*
X147545000Y-93561252D02*
X147545000Y-93038748D01*
%TO.C,Q102*%
X90769000Y-109352500D02*
X90769000Y-108552500D01*
X90769000Y-109352500D02*
X90769000Y-110152500D01*
X93889000Y-109352500D02*
X93889000Y-108552500D01*
X93889000Y-109352500D02*
X93889000Y-111152500D01*
%TO.C,C223*%
X104802000Y-85463748D02*
X104802000Y-85986252D01*
X106272000Y-85463748D02*
X106272000Y-85986252D01*
%TO.C,C214*%
X119648000Y-78351748D02*
X119648000Y-78874252D01*
X121118000Y-78351748D02*
X121118000Y-78874252D01*
%TO.C,U7*%
X107283000Y-103313000D02*
X107283000Y-101363000D01*
X107283000Y-103313000D02*
X107283000Y-105263000D01*
X112403000Y-103313000D02*
X112403000Y-101363000D01*
X112403000Y-103313000D02*
X112403000Y-106763000D01*
%TO.C,C217*%
X113539000Y-84296000D02*
X113539000Y-79911000D01*
X116559000Y-79911000D02*
X116559000Y-84296000D01*
X116559000Y-84296000D02*
X113539000Y-84296000D01*
%TO.C,C14*%
X174490748Y-97817000D02*
X175013252Y-97817000D01*
X174490748Y-99287000D02*
X175013252Y-99287000D01*
%TO.C,R125*%
X122328000Y-110516936D02*
X122328000Y-110971064D01*
X123798000Y-110516936D02*
X123798000Y-110971064D01*
%TO.C,C115*%
X126992748Y-112295000D02*
X127515252Y-112295000D01*
X126992748Y-113765000D02*
X127515252Y-113765000D01*
%TO.C,C111*%
X119661000Y-120403252D02*
X119661000Y-119880748D01*
X121131000Y-120403252D02*
X121131000Y-119880748D01*
%TO.C,R224*%
X126071064Y-73687000D02*
X125616936Y-73687000D01*
X126071064Y-75157000D02*
X125616936Y-75157000D01*
%TO.C,C29*%
X73286252Y-90578000D02*
X72763748Y-90578000D01*
X73286252Y-92048000D02*
X72763748Y-92048000D01*
%TO.C,C204*%
X105437000Y-81414252D02*
X105437000Y-80891748D01*
X106907000Y-81414252D02*
X106907000Y-80891748D01*
%TO.C,Q1*%
X168294000Y-89022000D02*
X169554000Y-89022000D01*
X168294000Y-92782000D02*
X168294000Y-89022000D01*
X175114000Y-89022000D02*
X173854000Y-89022000D01*
X175114000Y-95032000D02*
X175114000Y-89022000D01*
%TO.C,C116*%
X126992748Y-114327000D02*
X127515252Y-114327000D01*
X126992748Y-115797000D02*
X127515252Y-115797000D01*
%TO.C,C211*%
X119648000Y-85986252D02*
X119648000Y-85463748D01*
X121118000Y-85986252D02*
X121118000Y-85463748D01*
%TO.C,C113*%
X117375000Y-112768748D02*
X117375000Y-113291252D01*
X118845000Y-112768748D02*
X118845000Y-113291252D01*
%TO.C,R225*%
X122315000Y-76099936D02*
X122315000Y-76554064D01*
X123785000Y-76099936D02*
X123785000Y-76554064D01*
%TO.C,R124*%
X126084064Y-108104000D02*
X125629936Y-108104000D01*
X126084064Y-109574000D02*
X125629936Y-109574000D01*
%TO.C,C12*%
X173347748Y-84228000D02*
X173870252Y-84228000D01*
X173347748Y-85698000D02*
X173870252Y-85698000D01*
%TO.C,C126*%
X131472000Y-116832748D02*
X131472000Y-117355252D01*
X132942000Y-116832748D02*
X132942000Y-117355252D01*
%TO.C,R104*%
X111025000Y-113765064D02*
X111025000Y-113310936D01*
X112495000Y-113765064D02*
X112495000Y-113310936D01*
%TO.C,C220*%
X119648000Y-82430252D02*
X119648000Y-81907748D01*
X121118000Y-82430252D02*
X121118000Y-81907748D01*
%TO.C,C23*%
X109755000Y-97401748D02*
X109755000Y-97924252D01*
X111225000Y-97401748D02*
X111225000Y-97924252D01*
%TO.C,C117*%
X113552000Y-118713000D02*
X113552000Y-114328000D01*
X116572000Y-114328000D02*
X116572000Y-118713000D01*
X116572000Y-118713000D02*
X113552000Y-118713000D01*
%TO.C,C110*%
X123857000Y-116346000D02*
X128242000Y-116346000D01*
X123857000Y-119366000D02*
X123857000Y-116346000D01*
X128242000Y-119366000D02*
X123857000Y-119366000D01*
%TO.C,U6*%
X181292500Y-74640000D02*
X180492500Y-74640000D01*
X181292500Y-74640000D02*
X183092500Y-74640000D01*
X181292500Y-77760000D02*
X180492500Y-77760000D01*
X181292500Y-77760000D02*
X182092500Y-77760000D01*
%TO.C,C27*%
X180748000Y-70538748D02*
X180748000Y-71061252D01*
X182218000Y-70538748D02*
X182218000Y-71061252D01*
%TO.C,R4*%
X172619936Y-95658000D02*
X173074064Y-95658000D01*
X172619936Y-97128000D02*
X173074064Y-97128000D01*
%TO.C,C202*%
X109361000Y-83000000D02*
X109361000Y-78615000D01*
X112381000Y-78615000D02*
X112381000Y-83000000D01*
X112381000Y-83000000D02*
X109361000Y-83000000D01*
%TO.C,Q101*%
X92837000Y-111724000D02*
X92037000Y-111724000D01*
X92837000Y-111724000D02*
X94637000Y-111724000D01*
X92837000Y-114844000D02*
X92037000Y-114844000D01*
X92837000Y-114844000D02*
X93637000Y-114844000D01*
%TO.C,U1*%
X138069000Y-101600000D02*
X138069000Y-99650000D01*
X138069000Y-101600000D02*
X138069000Y-103550000D01*
X148189000Y-101600000D02*
X148189000Y-99650000D01*
X148189000Y-101600000D02*
X148189000Y-105050000D01*
%TO.C,C104*%
X104675000Y-115958252D02*
X104675000Y-115435748D01*
X106145000Y-115958252D02*
X106145000Y-115435748D01*
%TO.C,R1*%
X135917000Y-103478064D02*
X135917000Y-103023936D01*
X137387000Y-103478064D02*
X137387000Y-103023936D01*
%TO.C,R205*%
X109247000Y-85317064D02*
X109247000Y-84862936D01*
X110717000Y-85317064D02*
X110717000Y-84862936D01*
%TO.C,C28*%
X182907000Y-70538748D02*
X182907000Y-71061252D01*
X184377000Y-70538748D02*
X184377000Y-71061252D01*
%TO.C,Q201*%
X92842500Y-77368000D02*
X92042500Y-77368000D01*
X92842500Y-77368000D02*
X94642500Y-77368000D01*
X92842500Y-80488000D02*
X92042500Y-80488000D01*
X92842500Y-80488000D02*
X93642500Y-80488000D01*
%TO.C,C212*%
X117362000Y-85986252D02*
X117362000Y-85463748D01*
X118832000Y-85986252D02*
X118832000Y-85463748D01*
%TO.C,C5*%
X148871000Y-99179748D02*
X148871000Y-99702252D01*
X150341000Y-99179748D02*
X150341000Y-99702252D01*
%TO.C,C120*%
X119661000Y-116847252D02*
X119661000Y-116324748D01*
X121131000Y-116847252D02*
X121131000Y-116324748D01*
%TO.C,C203*%
X107469000Y-81414252D02*
X107469000Y-80891748D01*
X108939000Y-81414252D02*
X108939000Y-80891748D01*
%TO.C,C13*%
X184269748Y-84101000D02*
X184792252Y-84101000D01*
X184269748Y-85571000D02*
X184792252Y-85571000D01*
%TO.C,C103*%
X106707000Y-115958252D02*
X106707000Y-115435748D01*
X108177000Y-115958252D02*
X108177000Y-115435748D01*
%TO.C,C215*%
X126979748Y-77878000D02*
X127502252Y-77878000D01*
X126979748Y-79348000D02*
X127502252Y-79348000D01*
%TO.C,C123*%
X104929000Y-122420748D02*
X104929000Y-122943252D01*
X106399000Y-122420748D02*
X106399000Y-122943252D01*
%TO.C,C222*%
X100830748Y-82704000D02*
X101353252Y-82704000D01*
X100830748Y-84174000D02*
X101353252Y-84174000D01*
%TO.C,C121*%
X117375000Y-116847252D02*
X117375000Y-116324748D01*
X118845000Y-116847252D02*
X118845000Y-116324748D01*
%TO.C,C210*%
X123844000Y-81929000D02*
X128229000Y-81929000D01*
X123844000Y-84949000D02*
X123844000Y-81929000D01*
X128229000Y-84949000D02*
X123844000Y-84949000D01*
%TO.C,C25*%
X115343000Y-105036252D02*
X115343000Y-104513748D01*
X116813000Y-105036252D02*
X116813000Y-104513748D01*
%TO.C,C30*%
X82415748Y-124106000D02*
X82938252Y-124106000D01*
X82415748Y-125576000D02*
X82938252Y-125576000D01*
%TO.C,R105*%
X108866000Y-113310936D02*
X108866000Y-113765064D01*
X110336000Y-113310936D02*
X110336000Y-113765064D01*
%TO.C,C9*%
X177255500Y-75049748D02*
X177255500Y-75572252D01*
X178725500Y-75049748D02*
X178725500Y-75572252D01*
%TO.C,C26*%
X113057000Y-105036252D02*
X113057000Y-104513748D01*
X114527000Y-105036252D02*
X114527000Y-104513748D01*
%TO.C,C24*%
X107596000Y-97924252D02*
X107596000Y-97401748D01*
X109066000Y-97924252D02*
X109066000Y-97401748D01*
%TD*%
%LPC*%
D12*
X102092304Y-117983000D02*
G75*
G02*
X101615696Y-117983000I-238304J0D01*
G01*
X101615696Y-117983000D02*
G75*
G02*
X102092304Y-117983000I238304J0D01*
G01*
D13*
X145251105Y-94742000D02*
G75*
G02*
X144816895Y-94742000I-217105J0D01*
G01*
X144816895Y-94742000D02*
G75*
G02*
X145251105Y-94742000I217105J0D01*
G01*
D11*
X126639609Y-80645000D02*
G75*
G02*
X125836391Y-80645000I-401609J0D01*
G01*
X125836391Y-80645000D02*
G75*
G02*
X126639609Y-80645000I401609J0D01*
G01*
X132862609Y-81534000D02*
G75*
G02*
X132059391Y-81534000I-401609J0D01*
G01*
X132059391Y-81534000D02*
G75*
G02*
X132862609Y-81534000I401609J0D01*
G01*
D12*
X94197695Y-114173000D02*
G75*
G02*
X93721087Y-114173000I-238304J0D01*
G01*
X93721087Y-114173000D02*
G75*
G02*
X94197695Y-114173000I238304J0D01*
G01*
D11*
X123444000Y-77216000D02*
G75*
G02*
X122682000Y-77216000I-381000J0D01*
G01*
X122682000Y-77216000D02*
G75*
G02*
X123444000Y-77216000I381000J0D01*
G01*
D13*
X145251105Y-106299000D02*
G75*
G02*
X144816895Y-106299000I-217105J0D01*
G01*
X144816895Y-106299000D02*
G75*
G02*
X145251105Y-106299000I217105J0D01*
G01*
D12*
X151347695Y-125222000D02*
G75*
G02*
X150871087Y-125222000I-238304J0D01*
G01*
X150871087Y-125222000D02*
G75*
G02*
X151347695Y-125222000I238304J0D01*
G01*
X105521304Y-84709000D02*
G75*
G02*
X105044696Y-84709000I-238304J0D01*
G01*
X105044696Y-84709000D02*
G75*
G02*
X105521304Y-84709000I238304J0D01*
G01*
X94197695Y-79883000D02*
G75*
G02*
X93721087Y-79883000I-238304J0D01*
G01*
X93721087Y-79883000D02*
G75*
G02*
X94197695Y-79883000I238304J0D01*
G01*
X149864913Y-96266000D02*
G75*
G02*
X149388305Y-96266000I-238304J0D01*
G01*
X149388305Y-96266000D02*
G75*
G02*
X149864913Y-96266000I238304J0D01*
G01*
D14*
X182798317Y-72136000D02*
G75*
G02*
X182199683Y-72136000I-299317J0D01*
G01*
X182199683Y-72136000D02*
G75*
G02*
X182798317Y-72136000I299317J0D01*
G01*
D15*
%TO.C,*%
X159750000Y-77470000D03*
%TD*%
%TO.C,*%
X201840000Y-77470000D03*
%TD*%
D16*
%TO.C,C19*%
X181554000Y-118364000D03*
D17*
X178054000Y-118364000D03*
%TD*%
D18*
%TO.C,J2*%
X133350000Y-107442000D03*
D15*
X133350000Y-104902000D03*
X133350000Y-102362000D03*
X133350000Y-99822000D03*
X133350000Y-97282000D03*
X133350000Y-94742000D03*
X133350000Y-92202000D03*
X133350000Y-89662000D03*
%TD*%
D19*
%TO.C,H3*%
X203073000Y-132207000D03*
%TD*%
D18*
%TO.C,J3*%
X201803000Y-72390000D03*
D15*
X204343000Y-72390000D03*
X201803000Y-74930000D03*
X204343000Y-74930000D03*
X204343000Y-77470000D03*
X201803000Y-80010000D03*
X204343000Y-80010000D03*
X201803000Y-82550000D03*
X204343000Y-82550000D03*
X201803000Y-85090000D03*
X204343000Y-85090000D03*
X201803000Y-87630000D03*
X204343000Y-87630000D03*
X201803000Y-90170000D03*
X204343000Y-90170000D03*
X201803000Y-92710000D03*
X204343000Y-92710000D03*
X201803000Y-95250000D03*
X204343000Y-95250000D03*
X201803000Y-97790000D03*
X204343000Y-97790000D03*
X201803000Y-100330000D03*
X204343000Y-100330000D03*
X201803000Y-102870000D03*
X204343000Y-102870000D03*
X201803000Y-105410000D03*
X204343000Y-105410000D03*
X201803000Y-107950000D03*
X204343000Y-107950000D03*
X201803000Y-110490000D03*
X204343000Y-110490000D03*
X201803000Y-113030000D03*
X204343000Y-113030000D03*
X201803000Y-115570000D03*
X204343000Y-115570000D03*
X201803000Y-118110000D03*
X204343000Y-118110000D03*
X201803000Y-120650000D03*
X204343000Y-120650000D03*
%TD*%
D20*
%TO.C,J1*%
X124460000Y-94234000D03*
D21*
X121920000Y-91694000D03*
X121920000Y-96774000D03*
X127000000Y-91694000D03*
X127000000Y-96774000D03*
%TD*%
D22*
%TO.C,RV201*%
X75692000Y-91313000D03*
X78232000Y-88773000D03*
X80772000Y-91313000D03*
%TD*%
D16*
%TO.C,C17*%
X180721000Y-100584000D03*
D17*
X184221000Y-100584000D03*
%TD*%
D16*
%TO.C,C11*%
X186564651Y-82804000D03*
D17*
X183064651Y-82804000D03*
%TD*%
D19*
%TO.C,H2*%
X64262000Y-132207000D03*
%TD*%
D23*
%TO.C,J202*%
X71850000Y-80840000D03*
X65240000Y-80950000D03*
X71800000Y-74260000D03*
X65200000Y-74270000D03*
D24*
X68640000Y-77550000D03*
%TD*%
D16*
%TO.C,C10*%
X172240000Y-82801000D03*
D17*
X175740000Y-82801000D03*
%TD*%
D16*
%TO.C,C6*%
X195962651Y-74930000D03*
D17*
X192462651Y-74930000D03*
%TD*%
D16*
%TO.C,C18*%
X167259000Y-118364000D03*
D17*
X170759000Y-118364000D03*
%TD*%
D19*
%TO.C,H1*%
X64262000Y-66929000D03*
%TD*%
D24*
%TO.C,J201*%
X68645000Y-111960000D03*
D23*
X65205000Y-108680000D03*
X71805000Y-108670000D03*
X65245000Y-115360000D03*
X71855000Y-115250000D03*
%TD*%
D16*
%TO.C,C16*%
X173609000Y-100584000D03*
D17*
X170109000Y-100584000D03*
%TD*%
D19*
%TO.C,H4*%
X203073000Y-66929000D03*
%TD*%
D22*
%TO.C,RV101*%
X75707000Y-125685000D03*
X78247000Y-123145000D03*
X80787000Y-125685000D03*
%TD*%
D18*
%TO.C,J4*%
X159800000Y-72390000D03*
D15*
X162340000Y-72390000D03*
X159800000Y-74930000D03*
X162340000Y-74930000D03*
X162340000Y-77470000D03*
X159800000Y-80010000D03*
X162340000Y-80010000D03*
X159800000Y-82550000D03*
X162340000Y-82550000D03*
X159800000Y-85090000D03*
X162340000Y-85090000D03*
X159800000Y-87630000D03*
X162340000Y-87630000D03*
X159800000Y-90170000D03*
X162340000Y-90170000D03*
X159800000Y-92710000D03*
X162340000Y-92710000D03*
X159800000Y-95250000D03*
X162340000Y-95250000D03*
X159800000Y-97790000D03*
X162340000Y-97790000D03*
X159800000Y-100330000D03*
X162340000Y-100330000D03*
X159800000Y-102870000D03*
X162340000Y-102870000D03*
X159800000Y-105410000D03*
X162340000Y-105410000D03*
X159800000Y-107950000D03*
X162340000Y-107950000D03*
X159800000Y-110490000D03*
X162340000Y-110490000D03*
X159800000Y-113030000D03*
X162340000Y-113030000D03*
X159800000Y-115570000D03*
X162340000Y-115570000D03*
X159800000Y-118110000D03*
X162340000Y-118110000D03*
X159800000Y-120650000D03*
X162340000Y-120650000D03*
%TD*%
D25*
%TO.C,C122*%
X100015000Y-117856000D03*
X101915000Y-117856000D03*
%TD*%
D26*
%TO.C,C102*%
X110363000Y-116358000D03*
X110363000Y-119608000D03*
%TD*%
D27*
%TO.C,C226*%
X132207000Y-81600000D03*
X132207000Y-83500000D03*
%TD*%
D28*
%TO.C,C221*%
X118097000Y-83119000D03*
X118097000Y-81219000D03*
%TD*%
D27*
%TO.C,C20*%
X169418000Y-96586000D03*
X169418000Y-98486000D03*
%TD*%
%TO.C,C8*%
X175831500Y-74361000D03*
X175831500Y-76261000D03*
%TD*%
D29*
%TO.C,X1*%
X149330000Y-96240000D03*
X149330000Y-91240000D03*
X153530000Y-91240000D03*
X153530000Y-96240000D03*
%TD*%
D30*
%TO.C,Q202*%
X93279000Y-76194500D03*
X91379000Y-76194500D03*
X92329000Y-73919500D03*
%TD*%
D31*
%TO.C,R204*%
X112141000Y-84154000D03*
X112141000Y-85979000D03*
%TD*%
D28*
%TO.C,C22*%
X108839000Y-109789000D03*
X108839000Y-107889000D03*
%TD*%
D27*
%TO.C,C21*%
X180467000Y-96586000D03*
X180467000Y-98486000D03*
%TD*%
D32*
%TO.C,R5*%
X182983500Y-96393000D03*
X184808500Y-96393000D03*
%TD*%
D33*
%TO.C,R126*%
X126769500Y-110871000D03*
X124944500Y-110871000D03*
%TD*%
D27*
%TO.C,C114*%
X120396000Y-112080000D03*
X120396000Y-113980000D03*
%TD*%
D25*
%TO.C,C216*%
X126291000Y-80645000D03*
X128191000Y-80645000D03*
%TD*%
D33*
%TO.C,R226*%
X126756500Y-76454000D03*
X124931500Y-76454000D03*
%TD*%
D27*
%TO.C,C213*%
X118097000Y-77663000D03*
X118097000Y-79563000D03*
%TD*%
%TO.C,C7*%
X195961000Y-76647000D03*
X195961000Y-78547000D03*
%TD*%
D34*
%TO.C,Q2*%
X185053000Y-94082000D03*
X182753000Y-94082000D03*
D35*
X182753000Y-87782000D03*
D34*
X180453000Y-94082000D03*
%TD*%
D25*
%TO.C,C15*%
X184978000Y-98425000D03*
X186878000Y-98425000D03*
%TD*%
D28*
%TO.C,C112*%
X118110000Y-121092000D03*
X118110000Y-119192000D03*
%TD*%
%TO.C,C31*%
X146810000Y-94250000D03*
X146810000Y-92350000D03*
%TD*%
D30*
%TO.C,Q102*%
X93279000Y-110490000D03*
X91379000Y-110490000D03*
X92329000Y-108215000D03*
%TD*%
D27*
%TO.C,C223*%
X105537000Y-84775000D03*
X105537000Y-86675000D03*
%TD*%
%TO.C,C214*%
X120383000Y-77663000D03*
X120383000Y-79563000D03*
%TD*%
D36*
%TO.C,U7*%
X111748000Y-105788000D03*
X110478000Y-105788000D03*
X109208000Y-105788000D03*
X107938000Y-105788000D03*
X107938000Y-100838000D03*
X109208000Y-100838000D03*
X110478000Y-100838000D03*
X111748000Y-100838000D03*
D37*
X109843000Y-103313000D03*
%TD*%
D38*
%TO.C,C217*%
X115049000Y-83286000D03*
X115049000Y-80036000D03*
%TD*%
D25*
%TO.C,C14*%
X173802000Y-98552000D03*
X175702000Y-98552000D03*
%TD*%
D31*
%TO.C,R125*%
X123063000Y-109831500D03*
X123063000Y-111656500D03*
%TD*%
D25*
%TO.C,C115*%
X126304000Y-113030000D03*
X128204000Y-113030000D03*
%TD*%
D28*
%TO.C,C111*%
X120396000Y-121092000D03*
X120396000Y-119192000D03*
%TD*%
D33*
%TO.C,R224*%
X126756500Y-74422000D03*
X124931500Y-74422000D03*
%TD*%
D39*
%TO.C,C29*%
X73975000Y-91313000D03*
X72075000Y-91313000D03*
%TD*%
D28*
%TO.C,C204*%
X106172000Y-82103000D03*
X106172000Y-80203000D03*
%TD*%
D34*
%TO.C,Q1*%
X174004000Y-94082000D03*
X171704000Y-94082000D03*
D35*
X171704000Y-87782000D03*
D34*
X169404000Y-94082000D03*
%TD*%
D25*
%TO.C,C116*%
X126304000Y-115062000D03*
X128204000Y-115062000D03*
%TD*%
D28*
%TO.C,C211*%
X120383000Y-86675000D03*
X120383000Y-84775000D03*
%TD*%
D27*
%TO.C,C113*%
X118110000Y-112080000D03*
X118110000Y-113980000D03*
%TD*%
D31*
%TO.C,R225*%
X123050000Y-75414500D03*
X123050000Y-77239500D03*
%TD*%
D33*
%TO.C,R124*%
X126769500Y-108839000D03*
X124944500Y-108839000D03*
%TD*%
D25*
%TO.C,C12*%
X172659000Y-84963000D03*
X174559000Y-84963000D03*
%TD*%
D27*
%TO.C,C126*%
X132207000Y-116144000D03*
X132207000Y-118044000D03*
%TD*%
D40*
%TO.C,R104*%
X111760000Y-114450500D03*
X111760000Y-112625500D03*
%TD*%
D28*
%TO.C,C220*%
X120383000Y-83119000D03*
X120383000Y-81219000D03*
%TD*%
D27*
%TO.C,C23*%
X110490000Y-96713000D03*
X110490000Y-98613000D03*
%TD*%
D38*
%TO.C,C117*%
X115062000Y-117703000D03*
X115062000Y-114453000D03*
%TD*%
D41*
%TO.C,C110*%
X124867000Y-117856000D03*
X128117000Y-117856000D03*
%TD*%
D42*
%TO.C,U6*%
X182430000Y-75250000D03*
X182430000Y-76200000D03*
X182430000Y-77150000D03*
X180155000Y-77150000D03*
X180155000Y-75250000D03*
%TD*%
D27*
%TO.C,C27*%
X181483000Y-69850000D03*
X181483000Y-71750000D03*
%TD*%
D32*
%TO.C,R4*%
X171934500Y-96393000D03*
X173759500Y-96393000D03*
%TD*%
D38*
%TO.C,C202*%
X110871000Y-81990000D03*
X110871000Y-78740000D03*
%TD*%
D42*
%TO.C,Q101*%
X93974500Y-112334000D03*
X93974500Y-114234000D03*
X91699500Y-113284000D03*
%TD*%
D43*
%TO.C,U1*%
X147574000Y-104175000D03*
X146304000Y-104175000D03*
X145034000Y-104175000D03*
X143764000Y-104175000D03*
X142494000Y-104175000D03*
X141224000Y-104175000D03*
X139954000Y-104175000D03*
X138684000Y-104175000D03*
X138684000Y-99025000D03*
X139954000Y-99025000D03*
X141224000Y-99025000D03*
X142494000Y-99025000D03*
X143764000Y-99025000D03*
X145034000Y-99025000D03*
X146304000Y-99025000D03*
X147574000Y-99025000D03*
%TD*%
D28*
%TO.C,C104*%
X105410000Y-116647000D03*
X105410000Y-114747000D03*
%TD*%
D40*
%TO.C,R1*%
X136652000Y-104163500D03*
X136652000Y-102338500D03*
%TD*%
%TO.C,R205*%
X109982000Y-86002500D03*
X109982000Y-84177500D03*
%TD*%
D27*
%TO.C,C28*%
X183642000Y-69850000D03*
X183642000Y-71750000D03*
%TD*%
D42*
%TO.C,Q201*%
X93980000Y-77978000D03*
X93980000Y-79878000D03*
X91705000Y-78928000D03*
%TD*%
D28*
%TO.C,C212*%
X118097000Y-86675000D03*
X118097000Y-84775000D03*
%TD*%
D27*
%TO.C,C5*%
X149606000Y-98491000D03*
X149606000Y-100391000D03*
%TD*%
D28*
%TO.C,C120*%
X120396000Y-117536000D03*
X120396000Y-115636000D03*
%TD*%
%TO.C,C203*%
X108204000Y-82103000D03*
X108204000Y-80203000D03*
%TD*%
D25*
%TO.C,C13*%
X183581000Y-84836000D03*
X185481000Y-84836000D03*
%TD*%
D28*
%TO.C,C103*%
X107442000Y-116647000D03*
X107442000Y-114747000D03*
%TD*%
D25*
%TO.C,C215*%
X126291000Y-78613000D03*
X128191000Y-78613000D03*
%TD*%
D27*
%TO.C,C123*%
X105664000Y-121732000D03*
X105664000Y-123632000D03*
%TD*%
D25*
%TO.C,C222*%
X100142000Y-83439000D03*
X102042000Y-83439000D03*
%TD*%
D28*
%TO.C,C121*%
X118110000Y-117536000D03*
X118110000Y-115636000D03*
%TD*%
D41*
%TO.C,C210*%
X124854000Y-83439000D03*
X128104000Y-83439000D03*
%TD*%
D28*
%TO.C,C25*%
X116078000Y-105725000D03*
X116078000Y-103825000D03*
%TD*%
D25*
%TO.C,C30*%
X81727000Y-124841000D03*
X83627000Y-124841000D03*
%TD*%
D31*
%TO.C,R105*%
X109601000Y-112625500D03*
X109601000Y-114450500D03*
%TD*%
D27*
%TO.C,C9*%
X177990500Y-74361000D03*
X177990500Y-76261000D03*
%TD*%
D28*
%TO.C,C26*%
X113792000Y-105725000D03*
X113792000Y-103825000D03*
%TD*%
%TO.C,C24*%
X108331000Y-98613000D03*
X108331000Y-96713000D03*
%TD*%
%LPD*%
M02*
