M48
INCH
T1C0.0118
T2C0.0157
T3C0.0197
T4C0.0315
T5C0.0394
T6C0.0591
T7C0.0669
%
G90
G05
T1
X4.8045Y-3.195
X4.805Y-4.55
X4.8427Y-3.2243
X4.8432Y-4.5793
T2
X2.475Y-3.52
X2.5196Y-3.9848
X2.525Y-5.0
X2.53Y-3.81
X2.54Y-3.615
X2.545Y-4.84
X2.62Y-3.55
X2.62Y-3.77
X2.64Y-3.93
X2.65Y-4.875
X2.655Y-2.785
X2.68Y-4.04
X2.725Y-3.595
X2.73Y-2.605
X2.735Y-5.005
X2.76Y-3.695
X2.77Y-3.79
X2.785Y-5.11
X2.7961Y-2.7236
X2.8Y-4.865
X2.835Y-3.935
X2.8646Y-5.0228
X2.89Y-5.21
X2.91Y-2.585
X2.95Y-3.855
X2.96Y-2.615
X2.9951Y-2.9375
X3.015Y-3.915
X3.025Y-4.03
X3.05Y-4.495
X3.055Y-4.335
X3.065Y-5.18
X3.08Y-4.95
X3.095Y-3.18
X3.125Y-2.675
X3.19Y-3.195
X3.21Y-5.14
X3.225Y-2.735
X3.24Y-5.27
X3.25Y-2.58
X3.26Y-4.06
X3.265Y-3.795
X3.28Y-2.88
X3.28Y-3.105
X3.285Y-4.46
X3.285Y-4.82
X3.29Y-4.24
X3.33Y-3.245
X3.33Y-4.6
X3.335Y-3.475
X3.41Y-5.305
X3.43Y-3.93
X3.45Y-5.11
X3.455Y-4.265
X3.455Y-4.445
X3.47Y-4.76
X3.485Y-3.245
X3.49Y-4.88
X3.5Y-4.605
X3.535Y-5.165
X3.545Y-2.555
X3.545Y-3.09
X3.55Y-2.91
X3.55Y-4.755
X3.645Y-4.6
X3.665Y-5.305
X3.67Y-3.275
X3.67Y-4.74
X3.68Y-3.945
X3.7Y-3.1448
X3.7Y-4.495
X3.72Y-3.645
X3.725Y-3.81
X3.73Y-5.045
X3.73Y-5.2
X3.755Y-2.99
X3.765Y-4.355
X3.765Y-4.43
X3.77Y-3.73
X3.77Y-4.185
X3.775Y-4.555
X3.78Y-3.205
X3.825Y-4.06
X3.845Y-2.795
X3.875Y-2.595
X3.885Y-3.265
X3.885Y-4.615
X3.895Y-4.92
X3.9Y-3.93
X3.905Y-3.57
X3.905Y-5.09
X3.91Y-5.3
X3.925Y-4.045
X4.01Y-4.645
X4.045Y-3.285
X4.075Y-5.31
X4.145Y-3.335
X4.145Y-4.71
X4.15Y-4.65
X4.155Y-3.965
X4.155Y-4.035
X4.17Y-3.28
X4.18Y-4.45
X4.185Y-3.465
X4.185Y-3.55
X4.195Y-2.555
X4.21Y-4.905
X4.22Y-4.845
X4.23Y-4.445
X4.24Y-3.1
X4.25Y-2.9
X4.25Y-5.19
X4.255Y-3.685
X4.255Y-5.095
X4.27Y-2.695
X4.285Y-4.045
X4.285Y-4.09
X4.295Y-4.85
X4.3Y-3.435
X4.3Y-3.735
X4.305Y-3.52
X4.325Y-4.045
X4.325Y-4.09
X4.35Y-4.335
X4.365Y-4.045
X4.365Y-4.09
X4.375Y-3.485
X4.375Y-3.545
X4.395Y-2.69
X4.395Y-5.29
X4.41Y-2.9
X4.45Y-3.095
X4.49Y-3.955
X4.51Y-3.55
X4.51Y-4.82
X4.515Y-3.435
X4.53Y-4.425
X4.575Y-3.735
X4.58Y-3.015
X4.58Y-3.835
X4.58Y-4.255
X4.585Y-2.685
X4.585Y-4.395
X4.585Y-4.93
X4.615Y-3.94
X4.63Y-3.71
X4.63Y-4.045
X4.64Y-2.58
X4.64Y-3.57
X4.69Y-4.1624
X4.695Y-2.985
X4.695Y-4.815
X4.715Y-3.51
X4.75Y-5.295
X4.76Y-3.95
X4.765Y-4.225
X4.77Y-2.78
X4.8Y-5.17
X4.81Y-4.93
X4.82Y-5.065
X4.8445Y-3.0409
X4.845Y-4.3959
X4.85Y-3.475
X4.855Y-4.045
X4.875Y-4.82
X4.885Y-5.215
X4.9195Y-2.865
X4.92Y-4.22
X4.93Y-5.095
X4.96Y-4.93
X4.9695Y-3.175
X4.97Y-4.53
X4.98Y-4.215
X4.99Y-4.075
X4.995Y-4.795
X5.03Y-3.91
X5.045Y-5.29
X5.0466Y-3.2266
X5.0466Y-4.5816
X5.055Y-4.725
X5.06Y-4.795
X5.075Y-5.065
X5.076Y-3.4047
X5.09Y-5.21
X5.105Y-2.61
X5.105Y-4.935
X5.1091Y-3.5118
X5.115Y-2.87
X5.1487Y-3.9943
X5.15Y-3.795
X5.155Y-3.685
X5.155Y-4.075
X5.16Y-4.155
X5.175Y-4.3765
X5.205Y-4.57
X5.215Y-3.21
X5.32Y-3.975
X5.38Y-5.3
X5.4Y-4.155
X5.43Y-3.975
X5.43Y-4.785
X5.44Y-2.54
X5.56Y-4.275
X5.565Y-3.07
X5.565Y-3.97
X5.57Y-2.63
X5.57Y-3.27
X5.575Y-4.715
X5.58Y-3.645
X5.58Y-4.63
X5.58Y-4.93
X5.595Y-3.53
X5.595Y-5.115
X5.6Y-2.96
X5.6Y-5.29
X5.61Y-4.03
X5.615Y-3.385
X5.635Y-2.76
X5.66Y-4.275
X5.665Y-4.94
X5.675Y-4.51
X5.6752Y-2.881
X5.68Y-5.195
X5.69Y-3.65
X5.69Y-4.62
X5.69Y-4.715
X5.705Y-2.615
X5.705Y-3.07
X5.705Y-3.27
X5.705Y-4.38
X5.71Y-3.73
X5.71Y-4.185
X5.7138Y-3.5555
X5.7315Y-3.4031
X5.74Y-5.085
X5.755Y-4.57
X5.755Y-4.93
X5.7597Y-5.2876
X5.765Y-3.21
X5.785Y-4.225
X5.79Y-3.97
X5.82Y-3.87
X5.835Y-3.125
X5.8791Y-3.789
X5.915Y-2.665
X5.94Y-3.99
X5.94Y-4.08
X5.95Y-4.93
X5.97Y-4.18
X5.99Y-4.025
X5.99Y-4.11
X6.01Y-3.22
X6.015Y-4.185
X6.025Y-4.39
X6.05Y-2.655
X6.05Y-5.04
X6.1Y-4.385
X6.16Y-2.535
X6.165Y-4.545
X6.18Y-2.855
X6.21Y-2.67
X6.365Y-2.675
X6.465Y-4.695
X6.49Y-4.06
X6.495Y-4.545
X6.5Y-2.995
X6.505Y-4.225
X6.505Y-4.39
X6.515Y-3.67
X6.52Y-3.905
X6.53Y-3.43
X6.535Y-3.21
X6.54Y-2.85
X6.56Y-2.66
X6.635Y-4.79
X6.64Y-3.3
X6.645Y-2.535
X6.66Y-4.2
X6.665Y-4.04
X6.67Y-4.475
X6.68Y-2.94
X6.685Y-3.59
X6.71Y-2.735
X6.71Y-3.025
X6.775Y-4.37
X6.78Y-4.57
X6.85Y-4.24
X6.8511Y-3.5701
X6.86Y-4.76
X6.875Y-4.67
X6.915Y-4.48
X6.92Y-2.675
X6.92Y-2.795
X6.935Y-4.05
X6.935Y-4.715
X6.975Y-3.445
X6.98Y-3.105
X7.065Y-3.315
X7.085Y-4.455
X7.09Y-4.245
X7.105Y-3.585
X7.175Y-4.125
X7.18Y-2.67
X7.19Y-4.785
X7.205Y-4.38
X7.21Y-4.545
X7.26Y-4.195
X7.275Y-3.065
X7.285Y-3.585
X7.29Y-2.53
X7.31Y-4.665
X7.32Y-4.46
X7.325Y-2.79
X7.325Y-4.035
X7.325Y-4.555
X7.395Y-3.08
X7.41Y-3.39
X7.425Y-2.985
X7.445Y-2.675
X7.48Y-3.16
X7.49Y-2.91
X7.5427Y-3.0294
X7.555Y-2.795
X7.57Y-3.27
X7.59Y-2.66
X7.635Y-3.16
X7.64Y-2.54
X7.645Y-5.295
X7.72Y-2.77
X7.76Y-5.175
X7.81Y-2.54
X7.82Y-2.885
X7.82Y-5.29
X7.84Y-3.02
X7.845Y-3.12
X7.85Y-5.09
X7.91Y-5.02
X8.08Y-5.055
X8.085Y-4.875
T3
X6.67Y-3.725
X7.105Y-3.725
X7.185Y-2.84
T4
X2.98Y-3.595
X2.9806Y-4.9482
X3.08Y-3.495
X3.0806Y-4.8482
X3.18Y-3.595
X3.1806Y-4.9482
X6.585Y-4.66
X6.6972Y-3.96
X6.7228Y-4.66
X6.7811Y-3.2599
X6.835Y-3.96
X6.9189Y-3.2599
X7.01Y-4.66
X7.115Y-3.96
X7.1478Y-4.66
X7.2073Y-3.26
X7.2528Y-3.96
X7.3451Y-3.26
X7.5773Y-2.95
X7.7151Y-2.95
T5
X5.25Y-3.53
X5.25Y-3.63
X5.25Y-3.73
X5.25Y-3.83
X5.25Y-3.93
X5.25Y-4.03
X5.25Y-4.13
X5.25Y-4.23
X6.2913Y-2.85
X6.2913Y-2.95
X6.2913Y-3.15
X6.2913Y-3.25
X6.2913Y-3.35
X6.2913Y-3.45
X6.2913Y-3.55
X6.2913Y-3.65
X6.2913Y-3.75
X6.2913Y-3.85
X6.2913Y-3.95
X6.2913Y-4.05
X6.2913Y-4.15
X6.2913Y-4.25
X6.2913Y-4.35
X6.2913Y-4.45
X6.2913Y-4.55
X6.2913Y-4.65
X6.2913Y-4.75
X6.3913Y-2.85
X6.3913Y-2.95
X6.3913Y-3.05
X6.3913Y-3.15
X6.3913Y-3.25
X6.3913Y-3.35
X6.3913Y-3.45
X6.3913Y-3.55
X6.3913Y-3.65
X6.3913Y-3.75
X6.3913Y-3.85
X6.3913Y-3.95
X6.3913Y-4.05
X6.3913Y-4.15
X6.3913Y-4.25
X6.3913Y-4.35
X6.3913Y-4.45
X6.3913Y-4.55
X6.3913Y-4.65
X6.3913Y-4.75
X7.945Y-2.85
X7.945Y-2.95
X7.945Y-3.15
X7.945Y-3.25
X7.945Y-3.35
X7.945Y-3.45
X7.945Y-3.55
X7.945Y-3.65
X7.945Y-3.75
X7.945Y-3.85
X7.945Y-3.95
X7.945Y-4.05
X7.945Y-4.15
X7.945Y-4.25
X7.945Y-4.35
X7.945Y-4.45
X7.945Y-4.55
X7.945Y-4.65
X7.945Y-4.75
X8.045Y-2.85
X8.045Y-2.95
X8.045Y-3.05
X8.045Y-3.15
X8.045Y-3.25
X8.045Y-3.35
X8.045Y-3.45
X8.045Y-3.55
X8.045Y-3.65
X8.045Y-3.75
X8.045Y-3.85
X8.045Y-3.95
X8.045Y-4.05
X8.045Y-4.15
X8.045Y-4.25
X8.045Y-4.35
X8.045Y-4.45
X8.045Y-4.55
X8.045Y-4.65
X8.045Y-4.75
T6
X2.5669Y-2.924
X2.5671Y-4.2787
X2.5685Y-3.187
X2.5687Y-4.5417
X2.7024Y-3.0531
X2.7026Y-4.4079
X2.8268Y-2.9236
X2.827Y-4.2783
X2.8287Y-3.1827
X2.8289Y-4.5374
X4.9Y-3.71
T7
X4.8Y-3.61
X4.8Y-3.81
X5.0Y-3.61
X5.0Y-3.81
M30
