%TF.GenerationSoftware,KiCad,Pcbnew,9.0.5-9.0.5~ubuntu24.04.1*%
%TF.CreationDate,2025-10-22T14:02:37+02:00*%
%TF.ProjectId,misrc_v2.5_top_panel,6d697372-635f-4763-922e-355f746f705f,rev?*%
%TF.SameCoordinates,Original*%
%TF.FileFunction,Profile,NP*%
%FSLAX46Y46*%
G04 Gerber Fmt 4.6, Leading zero omitted, Abs format (unit mm)*
G04 Created by KiCad (PCBNEW 9.0.5-9.0.5~ubuntu24.04.1) date 2025-10-22 14:02:37*
%MOMM*%
%LPD*%
G01*
G04 APERTURE LIST*
%TA.AperFunction,Profile*%
%ADD10C,0.050000*%
%TD*%
G04 APERTURE END LIST*
D10*
X107095000Y-64205000D02*
X107095000Y-76505000D01*
X90044000Y-67442000D02*
X77744000Y-67442000D01*
X206756000Y-60008400D02*
X56743600Y-60008400D01*
X114795000Y-124300166D02*
X107095000Y-124300166D01*
X87524000Y-83915000D02*
X72870000Y-83915000D01*
X87524000Y-108050000D02*
X72870000Y-108050000D01*
X107095000Y-110700000D02*
X114795000Y-110700000D01*
X192657400Y-95861800D02*
X192657400Y-105661800D01*
X72870000Y-108050000D02*
X72870000Y-115850000D01*
X114795000Y-64205000D02*
X107095000Y-64205000D01*
X72870000Y-83915000D02*
X72870000Y-91715000D01*
X114795000Y-110700000D02*
X114795000Y-88550000D01*
X114795000Y-88550000D02*
X107095000Y-88550000D01*
X107095000Y-124300166D02*
X107095000Y-134100166D01*
X56743600Y-60008400D02*
X56743600Y-138975200D01*
X90044000Y-75242000D02*
X90044000Y-67442000D01*
X77744000Y-67442000D02*
X77744000Y-75242000D01*
X114795000Y-76505000D02*
X114795000Y-64205000D01*
X206756000Y-138975200D02*
X206756000Y-60008400D01*
X107095000Y-134100166D02*
X114795000Y-134100166D01*
X107095000Y-76505000D02*
X114795000Y-76505000D01*
X200357400Y-105661800D02*
X200357400Y-95861800D01*
X77744000Y-132323000D02*
X90044000Y-132323000D01*
X114795000Y-134100166D02*
X114795000Y-124300166D01*
X72870000Y-91715000D02*
X87524000Y-91715000D01*
X87524000Y-91715000D02*
X87524000Y-83915000D01*
X87524000Y-115850000D02*
X87524000Y-108050000D01*
X77744000Y-124523000D02*
X77744000Y-132323000D01*
X77744000Y-75242000D02*
X90044000Y-75242000D01*
X90044000Y-124523000D02*
X77744000Y-124523000D01*
X200357400Y-95861800D02*
X192657400Y-95861800D01*
X90044000Y-132323000D02*
X90044000Y-124523000D01*
X107095000Y-88550000D02*
X107095000Y-110700000D01*
X192657400Y-105661800D02*
X200357400Y-105661800D01*
X56743600Y-138975200D02*
X206756000Y-138975200D01*
X72870000Y-115850000D02*
X87524000Y-115850000D01*
M02*
