%TF.GenerationSoftware,KiCad,Pcbnew,9.0.5-9.0.5~ubuntu24.04.1*%
%TF.CreationDate,2025-10-22T14:00:19+02:00*%
%TF.ProjectId,misrc_v2.5_back_panel,6d697372-635f-4763-922e-355f6261636b,rev?*%
%TF.SameCoordinates,Original*%
%TF.FileFunction,Legend,Top*%
%TF.FilePolarity,Positive*%
%FSLAX46Y46*%
G04 Gerber Fmt 4.6, Leading zero omitted, Abs format (unit mm)*
G04 Created by KiCad (PCBNEW 9.0.5-9.0.5~ubuntu24.04.1) date 2025-10-22 14:00:19*
%MOMM*%
%LPD*%
G01*
G04 APERTURE LIST*
%ADD10C,0.400000*%
%ADD11C,0.600000*%
%ADD12C,0.187500*%
G04 APERTURE END LIST*
D10*
G36*
X63689062Y-87638416D02*
G01*
X63748560Y-87646134D01*
X63779237Y-87664111D01*
X63795064Y-87696839D01*
X64232258Y-88948828D01*
X64248671Y-89011061D01*
X64247933Y-89031840D01*
X64239879Y-89045451D01*
X64224952Y-89054106D01*
X64197283Y-89059617D01*
X64113165Y-89062352D01*
X64026215Y-89060691D01*
X63978734Y-89054146D01*
X63955775Y-89040566D01*
X63944833Y-89017607D01*
X63849774Y-88730963D01*
X63318497Y-88730963D01*
X63228909Y-89009986D01*
X63217380Y-89035583D01*
X63194422Y-89051996D01*
X63149579Y-89060105D01*
X63073668Y-89062352D01*
X62994924Y-89059030D01*
X62969537Y-89052903D01*
X62955650Y-89043301D01*
X62948423Y-89028897D01*
X62947932Y-89007837D01*
X62964345Y-88946679D01*
X63115612Y-88512122D01*
X63381902Y-88512122D01*
X63783047Y-88512122D01*
X63583061Y-87910014D01*
X63581986Y-87910014D01*
X63381902Y-88512122D01*
X63115612Y-88512122D01*
X63400563Y-87693518D01*
X63415803Y-87663524D01*
X63443745Y-87646037D01*
X63496696Y-87638416D01*
X63586382Y-87636755D01*
X63689062Y-87638416D01*
G37*
G36*
X65545601Y-88529805D02*
G01*
X65535611Y-88655396D01*
X65507304Y-88762324D01*
X65459635Y-88857682D01*
X65394757Y-88935932D01*
X65312984Y-88997631D01*
X65211086Y-89043985D01*
X65096983Y-89071329D01*
X64959809Y-89081110D01*
X64830514Y-89072393D01*
X64720353Y-89047795D01*
X64621338Y-89005232D01*
X64541079Y-88946874D01*
X64477066Y-88871690D01*
X64429118Y-88778151D01*
X64400589Y-88671921D01*
X64390332Y-88541822D01*
X64390332Y-87682575D01*
X64396878Y-87663036D01*
X64420325Y-87648772D01*
X64464680Y-87640077D01*
X64534631Y-87636755D01*
X64603507Y-87640077D01*
X64647276Y-87648772D01*
X64670723Y-87662938D01*
X64677855Y-87682575D01*
X64677855Y-88515346D01*
X64683384Y-88596172D01*
X64698567Y-88660915D01*
X64724425Y-88718107D01*
X64758162Y-88762813D01*
X64800602Y-88798012D01*
X64851072Y-88823385D01*
X64907250Y-88838299D01*
X64971826Y-88843511D01*
X65037324Y-88838115D01*
X65093165Y-88822799D01*
X65142898Y-88797125D01*
X65183828Y-88762324D01*
X65216366Y-88718612D01*
X65241274Y-88664236D01*
X65256205Y-88603486D01*
X65261498Y-88531759D01*
X65261498Y-87682575D01*
X65268043Y-87662938D01*
X65291002Y-87648772D01*
X65335259Y-87640077D01*
X65404624Y-87636755D01*
X65472914Y-87640077D01*
X65516096Y-87648772D01*
X65539055Y-87663036D01*
X65545601Y-87682575D01*
X65545601Y-88529805D01*
G37*
G36*
X66860702Y-88947753D02*
G01*
X66886396Y-89008912D01*
X66887494Y-89029747D01*
X66879265Y-89043790D01*
X66862915Y-89052907D01*
X66831686Y-89059030D01*
X66736138Y-89062352D01*
X66655245Y-89060105D01*
X66608839Y-89053071D01*
X66584219Y-89039491D01*
X66571128Y-89017607D01*
X66305489Y-88507823D01*
X66041023Y-89017607D01*
X66026759Y-89039491D01*
X66002140Y-89053071D01*
X65955147Y-89060105D01*
X65875915Y-89062352D01*
X65787987Y-89059030D01*
X65760050Y-89052915D01*
X65745880Y-89043790D01*
X65739438Y-89029973D01*
X65741484Y-89008912D01*
X65768839Y-88947753D01*
X66107653Y-88330991D01*
X65792872Y-87751354D01*
X65766103Y-87688633D01*
X65764062Y-87667208D01*
X65771574Y-87653657D01*
X65787370Y-87645076D01*
X65817981Y-87639491D01*
X65914212Y-87636755D01*
X65995594Y-87639003D01*
X66043172Y-87646037D01*
X66067792Y-87659714D01*
X66081470Y-87681501D01*
X66329523Y-88148688D01*
X66571128Y-87681501D01*
X66584805Y-87659714D01*
X66607764Y-87646037D01*
X66651435Y-87639003D01*
X66728518Y-87636755D01*
X66814784Y-87639491D01*
X66843421Y-87645188D01*
X66858553Y-87654243D01*
X66865903Y-87668189D01*
X66864512Y-87689219D01*
X66839990Y-87751354D01*
X66525210Y-88327767D01*
X66860702Y-88947753D01*
G37*
G36*
X68481986Y-88939840D02*
G01*
X68479251Y-88993671D01*
X68471044Y-89030112D01*
X68456780Y-89050140D01*
X68437143Y-89056100D01*
X67624010Y-89056100D01*
X67582489Y-89051801D01*
X67554059Y-89034899D01*
X67538232Y-88998458D01*
X67533347Y-88936421D01*
X67536571Y-88874969D01*
X67548588Y-88829344D01*
X67571058Y-88790168D01*
X67606620Y-88748256D01*
X67851351Y-88484474D01*
X67919917Y-88408701D01*
X67969369Y-88345451D01*
X68039320Y-88230949D01*
X68061126Y-88179529D01*
X68073807Y-88135499D01*
X68083089Y-88052554D01*
X68071560Y-87983385D01*
X68057281Y-87952681D01*
X68037660Y-87926427D01*
X68012749Y-87904900D01*
X67981386Y-87888228D01*
X67945712Y-87878028D01*
X67901665Y-87874355D01*
X67839353Y-87878654D01*
X67787457Y-87890670D01*
X67700018Y-87927014D01*
X67637101Y-87963845D01*
X67612767Y-87977257D01*
X67597827Y-87980649D01*
X67580828Y-87974104D01*
X67569299Y-87952122D01*
X67562265Y-87910894D01*
X67559530Y-87847684D01*
X67561191Y-87805381D01*
X67566075Y-87775778D01*
X67574868Y-87753797D01*
X67593919Y-87731229D01*
X67644233Y-87698793D01*
X67734408Y-87661277D01*
X67852426Y-87630503D01*
X67917844Y-87621171D01*
X67986955Y-87617998D01*
X68093316Y-87625392D01*
X68179809Y-87645841D01*
X68256789Y-87679958D01*
X68316976Y-87723413D01*
X68364736Y-87777759D01*
X68398455Y-87841333D01*
X68418416Y-87911505D01*
X68425224Y-87988172D01*
X68421916Y-88056600D01*
X68412035Y-88123678D01*
X68392731Y-88190548D01*
X68357422Y-88267390D01*
X68309854Y-88344927D01*
X68240479Y-88437774D01*
X68157517Y-88533536D01*
X68040493Y-88654662D01*
X67875385Y-88824753D01*
X68432844Y-88824753D01*
X68452970Y-88831298D01*
X68468895Y-88851326D01*
X68478664Y-88887181D01*
X68481986Y-88939840D01*
G37*
D11*
G36*
X96734976Y-90628601D02*
G01*
X96765659Y-90639744D01*
X96787793Y-90676381D01*
X96801379Y-90744769D01*
X96806569Y-90852235D01*
X96801379Y-90962450D01*
X96787793Y-91030838D01*
X96765506Y-91066711D01*
X96734670Y-91077702D01*
X95839368Y-91077702D01*
X95839368Y-91904311D01*
X96734670Y-91904311D01*
X96765506Y-91914539D01*
X96787793Y-91950412D01*
X96801379Y-92018800D01*
X96806569Y-92128099D01*
X96801379Y-92236634D01*
X96787793Y-92305786D01*
X96765659Y-92342575D01*
X96734976Y-92353566D01*
X94650668Y-92353566D01*
X94620138Y-92342575D01*
X94597851Y-92305786D01*
X94584265Y-92236634D01*
X94579074Y-92128099D01*
X94584265Y-92018800D01*
X94597851Y-91950412D01*
X94619985Y-91914539D01*
X94650515Y-91904311D01*
X95458349Y-91904311D01*
X95458349Y-91077702D01*
X94650515Y-91077702D01*
X94619985Y-91066711D01*
X94597851Y-91030838D01*
X94584265Y-90962450D01*
X94579074Y-90852235D01*
X94584265Y-90744769D01*
X94597851Y-90676381D01*
X94620138Y-90639744D01*
X94650668Y-90628601D01*
X96734976Y-90628601D01*
G37*
G36*
X95862117Y-88319378D02*
G01*
X96033904Y-88346617D01*
X96179934Y-88389046D01*
X96318004Y-88451281D01*
X96434629Y-88527315D01*
X96532407Y-88617108D01*
X96614288Y-88721679D01*
X96681104Y-88841401D01*
X96732838Y-88978282D01*
X96766993Y-89121410D01*
X96788968Y-89289016D01*
X96796800Y-89484628D01*
X96796800Y-90012345D01*
X96788256Y-90064957D01*
X96763521Y-90107295D01*
X96722613Y-90134995D01*
X96655139Y-90145610D01*
X94730505Y-90145610D01*
X94663030Y-90134995D01*
X94622122Y-90107295D01*
X94597388Y-90064957D01*
X94588844Y-90012345D01*
X94588844Y-89470889D01*
X94940554Y-89470889D01*
X94940554Y-89698035D01*
X96445090Y-89698035D01*
X96445090Y-89464020D01*
X96432151Y-89287849D01*
X96397310Y-89153374D01*
X96336747Y-89036770D01*
X96252749Y-88942409D01*
X96146668Y-88869724D01*
X96012627Y-88816013D01*
X95862383Y-88785328D01*
X95677404Y-88774187D01*
X95523608Y-88783650D01*
X95385076Y-88810976D01*
X95257714Y-88859397D01*
X95150908Y-88928823D01*
X95063369Y-89020410D01*
X94996119Y-89137193D01*
X94955941Y-89275497D01*
X94940554Y-89470889D01*
X94588844Y-89470889D01*
X94588844Y-89445397D01*
X94597396Y-89248635D01*
X94621224Y-89082968D01*
X94657995Y-88944088D01*
X94712554Y-88811805D01*
X94780797Y-88696906D01*
X94862701Y-88597416D01*
X94959039Y-88511919D01*
X95070222Y-88440538D01*
X95198077Y-88383093D01*
X95333021Y-88343446D01*
X95486266Y-88318444D01*
X95660460Y-88309667D01*
X95862117Y-88319378D01*
G37*
G36*
X96734976Y-85364709D02*
G01*
X96765659Y-85374174D01*
X96787793Y-85408215D01*
X96801379Y-85474008D01*
X96806569Y-85578116D01*
X96801379Y-85680698D01*
X96787793Y-85745575D01*
X96765659Y-85779617D01*
X96734976Y-85789844D01*
X94940554Y-85789844D01*
X94940554Y-85793355D01*
X96733144Y-86433730D01*
X96769933Y-86456017D01*
X96792983Y-86497843D01*
X96803974Y-86565315D01*
X96806569Y-86664386D01*
X96802295Y-86763457D01*
X96788709Y-86830930D01*
X96765659Y-86872756D01*
X96733144Y-86893211D01*
X94940554Y-87511299D01*
X94940554Y-87514810D01*
X96734976Y-87514810D01*
X96765659Y-87524274D01*
X96787793Y-87559231D01*
X96801379Y-87625024D01*
X96806569Y-87728369D01*
X96801379Y-87830799D01*
X96787793Y-87896592D01*
X96765659Y-87930786D01*
X96734976Y-87940097D01*
X94767905Y-87940097D01*
X94688634Y-87927675D01*
X94634945Y-87893997D01*
X94600871Y-87841507D01*
X94588844Y-87770959D01*
X94588844Y-87477257D01*
X94601667Y-87342313D01*
X94619118Y-87288921D01*
X94644409Y-87244921D01*
X94678446Y-87207697D01*
X94722872Y-87176533D01*
X94843009Y-87128753D01*
X96158257Y-86650648D01*
X96158257Y-86643778D01*
X94846368Y-86148576D01*
X94725315Y-86100033D01*
X94645173Y-86038514D01*
X94619113Y-86000537D01*
X94601667Y-85955624D01*
X94588844Y-85844646D01*
X94588844Y-85542243D01*
X94600751Y-85462864D01*
X94635708Y-85408215D01*
X94692037Y-85375853D01*
X94767905Y-85364709D01*
X96734976Y-85364709D01*
G37*
G36*
X96734976Y-84431244D02*
G01*
X96765659Y-84442387D01*
X96787793Y-84479024D01*
X96801379Y-84547412D01*
X96806569Y-84656710D01*
X96801379Y-84765246D01*
X96787793Y-84834397D01*
X96765659Y-84871186D01*
X96734976Y-84882177D01*
X94650668Y-84882177D01*
X94620138Y-84871186D01*
X94597851Y-84833634D01*
X94584265Y-84764330D01*
X94579074Y-84656710D01*
X94584265Y-84547412D01*
X94597851Y-84479024D01*
X94620138Y-84442387D01*
X94650668Y-84431244D01*
X96734976Y-84431244D01*
G37*
G36*
X75537094Y-91463996D02*
G01*
X75558360Y-91476581D01*
X75571885Y-91499904D01*
X75580495Y-91543138D01*
X75584769Y-91674571D01*
X75582174Y-91810431D01*
X75571946Y-91884620D01*
X75550728Y-91920493D01*
X75514855Y-91937590D01*
X75066974Y-92086120D01*
X75066974Y-92916240D01*
X75502948Y-93056222D01*
X75542943Y-93074235D01*
X75568588Y-93110108D01*
X75581258Y-93180175D01*
X75584769Y-93298786D01*
X75579579Y-93421823D01*
X75570005Y-93461490D01*
X75555002Y-93483189D01*
X75532496Y-93494481D01*
X75499590Y-93495248D01*
X75404030Y-93469603D01*
X73445965Y-92788013D01*
X73399101Y-92764199D01*
X73371776Y-92720541D01*
X73359870Y-92637803D01*
X73357370Y-92502859D01*
X73784241Y-92502859D01*
X73784241Y-92504538D01*
X74725034Y-92817169D01*
X74725034Y-92190381D01*
X73784241Y-92502859D01*
X73357370Y-92502859D01*
X73357274Y-92497669D01*
X73359870Y-92337232D01*
X73371929Y-92244267D01*
X73400017Y-92196334D01*
X73451155Y-92171605D01*
X75407388Y-91488488D01*
X75504627Y-91462843D01*
X75537094Y-91463996D01*
G37*
G36*
X74752664Y-89436390D02*
G01*
X74948900Y-89451999D01*
X75115976Y-89496230D01*
X75264972Y-89570712D01*
X75387238Y-89672085D01*
X75483642Y-89799854D01*
X75556071Y-89959070D01*
X75598796Y-90137356D01*
X75614078Y-90351690D01*
X75600459Y-90553714D01*
X75562024Y-90725840D01*
X75495519Y-90880551D01*
X75404335Y-91005956D01*
X75286859Y-91105977D01*
X75140705Y-91180895D01*
X74974720Y-91225471D01*
X74771441Y-91241498D01*
X73428868Y-91241498D01*
X73398338Y-91231270D01*
X73376051Y-91194634D01*
X73362465Y-91125330D01*
X73357274Y-91016031D01*
X73362465Y-90908411D01*
X73376051Y-90840023D01*
X73398185Y-90803387D01*
X73428868Y-90792243D01*
X74730072Y-90792243D01*
X74856363Y-90783604D01*
X74957523Y-90759881D01*
X75046887Y-90719478D01*
X75116739Y-90666764D01*
X75171738Y-90600451D01*
X75211383Y-90521592D01*
X75234686Y-90433814D01*
X75242829Y-90332914D01*
X75234398Y-90230574D01*
X75210467Y-90143321D01*
X75170352Y-90065614D01*
X75115976Y-90001660D01*
X75047676Y-89950820D01*
X74962713Y-89911901D01*
X74867791Y-89888571D01*
X74755717Y-89880302D01*
X73428868Y-89880302D01*
X73398185Y-89870074D01*
X73376051Y-89834201D01*
X73362465Y-89765050D01*
X73357274Y-89656667D01*
X73362465Y-89549963D01*
X73376051Y-89482491D01*
X73398338Y-89446618D01*
X73428868Y-89436390D01*
X74752664Y-89436390D01*
G37*
G36*
X75405709Y-87381545D02*
G01*
X75501269Y-87341397D01*
X75533823Y-87339683D01*
X75555765Y-87352541D01*
X75570011Y-87378086D01*
X75579579Y-87426882D01*
X75584769Y-87576176D01*
X75581258Y-87702571D01*
X75570267Y-87775081D01*
X75549049Y-87813549D01*
X75514855Y-87834005D01*
X74718318Y-88249065D01*
X75514855Y-88662293D01*
X75549049Y-88684580D01*
X75570267Y-88723049D01*
X75581258Y-88796474D01*
X75584769Y-88920275D01*
X75579579Y-89057661D01*
X75570024Y-89101314D01*
X75555765Y-89123454D01*
X75534178Y-89133520D01*
X75501269Y-89130324D01*
X75405709Y-89087581D01*
X74442018Y-88558185D01*
X73536335Y-89050029D01*
X73438333Y-89091855D01*
X73404857Y-89095045D01*
X73383683Y-89083307D01*
X73370276Y-89058626D01*
X73361549Y-89010797D01*
X73357274Y-88860435D01*
X73360785Y-88733276D01*
X73371776Y-88658935D01*
X73393148Y-88620467D01*
X73427189Y-88599095D01*
X74157170Y-88211512D01*
X73427189Y-87834005D01*
X73393148Y-87812633D01*
X73371776Y-87776760D01*
X73360785Y-87708525D01*
X73357274Y-87588083D01*
X73361549Y-87453291D01*
X73370451Y-87408547D01*
X73384599Y-87384903D01*
X73406389Y-87373419D01*
X73439248Y-87375591D01*
X73536335Y-87413907D01*
X74436980Y-87905751D01*
X75405709Y-87381545D01*
G37*
G36*
X75513176Y-85789234D02*
G01*
X75543859Y-85800378D01*
X75565993Y-85837014D01*
X75579579Y-85905402D01*
X75584769Y-86014701D01*
X75579579Y-86123236D01*
X75565993Y-86192387D01*
X75543859Y-86229176D01*
X75513176Y-86240167D01*
X73428868Y-86240167D01*
X73398338Y-86229176D01*
X73376051Y-86191624D01*
X73362465Y-86122320D01*
X73357274Y-86014701D01*
X73362465Y-85905402D01*
X73376051Y-85837014D01*
X73398338Y-85800378D01*
X73428868Y-85789234D01*
X75513176Y-85789234D01*
G37*
G36*
X75414715Y-83484803D02*
G01*
X75484630Y-83498541D01*
X75535768Y-83535178D01*
X75565688Y-83589827D01*
X75575000Y-83653941D01*
X75575000Y-83845214D01*
X75563245Y-83948559D01*
X75546853Y-83990065D01*
X75520503Y-84028854D01*
X75436392Y-84099684D01*
X75296563Y-84176621D01*
X74269369Y-84726472D01*
X74071532Y-84823864D01*
X73865300Y-84912555D01*
X73865300Y-84916066D01*
X74109390Y-84905838D01*
X74360197Y-84902327D01*
X75511649Y-84902327D01*
X75542332Y-84911792D01*
X75565230Y-84944154D01*
X75579579Y-85006588D01*
X75584769Y-85107339D01*
X75579579Y-85206410D01*
X75565230Y-85267928D01*
X75542179Y-85298611D01*
X75511344Y-85307160D01*
X73527329Y-85307160D01*
X73455134Y-85294610D01*
X73407192Y-85260296D01*
X73377341Y-85208677D01*
X73367044Y-85144891D01*
X73367044Y-84904006D01*
X73378188Y-84794860D01*
X73414824Y-84715481D01*
X73485655Y-84649688D01*
X73596480Y-84586338D01*
X74400344Y-84156013D01*
X74543989Y-84081824D01*
X74685040Y-84010841D01*
X74823647Y-83944285D01*
X74959508Y-83881087D01*
X74959508Y-83879408D01*
X74710990Y-83887040D01*
X74464000Y-83889635D01*
X73430547Y-83889635D01*
X73399864Y-83879408D01*
X73376051Y-83845214D01*
X73361549Y-83782016D01*
X73357274Y-83681266D01*
X73361549Y-83583874D01*
X73376051Y-83523271D01*
X73400017Y-83493351D01*
X73430700Y-83484803D01*
X75414715Y-83484803D01*
G37*
D10*
G36*
X63977660Y-83347712D02*
G01*
X63974338Y-83399686D01*
X63964568Y-83433392D01*
X63949230Y-83451661D01*
X63930667Y-83457132D01*
X63590681Y-83457132D01*
X63590681Y-83829847D01*
X63585210Y-83849191D01*
X63566648Y-83863455D01*
X63531672Y-83872736D01*
X63477059Y-83876058D01*
X63422349Y-83872736D01*
X63387373Y-83863455D01*
X63368225Y-83849191D01*
X63362265Y-83829847D01*
X63362265Y-83457132D01*
X63023452Y-83457132D01*
X63005378Y-83451661D01*
X62990625Y-83433392D01*
X62980269Y-83399686D01*
X62976459Y-83347712D01*
X62979683Y-83296323D01*
X62988964Y-83262031D01*
X63002642Y-83243859D01*
X63020130Y-83238291D01*
X63362265Y-83238291D01*
X63362265Y-82867628D01*
X63368225Y-82847404D01*
X63387373Y-82831968D01*
X63422349Y-82822687D01*
X63477059Y-82819365D01*
X63531672Y-82822687D01*
X63566648Y-82831968D01*
X63585210Y-82847404D01*
X63590681Y-82867628D01*
X63590681Y-83238291D01*
X63933891Y-83238291D01*
X63950890Y-83243859D01*
X63965057Y-83262031D01*
X63974338Y-83296323D01*
X63977660Y-83347712D01*
G37*
G36*
X65065908Y-83518681D02*
G01*
X65055542Y-83628786D01*
X65025950Y-83722869D01*
X64977664Y-83805961D01*
X64913403Y-83874299D01*
X64834631Y-83927872D01*
X64738525Y-83968479D01*
X64632857Y-83992645D01*
X64511770Y-84001110D01*
X64387108Y-83992610D01*
X64281107Y-83971215D01*
X64204024Y-83945325D01*
X64164750Y-83924125D01*
X64151072Y-83906148D01*
X64143940Y-83882603D01*
X64140130Y-83848116D01*
X64139055Y-83798877D01*
X64141205Y-83747000D01*
X64148336Y-83712610D01*
X64159767Y-83693950D01*
X64175105Y-83688479D01*
X64208420Y-83701180D01*
X64267429Y-83729121D01*
X64356529Y-83757160D01*
X64411656Y-83766352D01*
X64482265Y-83769763D01*
X64544041Y-83766372D01*
X64597548Y-83756769D01*
X64646359Y-83739355D01*
X64685573Y-83714857D01*
X64717407Y-83682519D01*
X64741260Y-83642561D01*
X64755749Y-83596340D01*
X64760995Y-83538123D01*
X64756713Y-83487810D01*
X64744582Y-83445213D01*
X64723595Y-83407616D01*
X64693193Y-83376141D01*
X64654432Y-83352043D01*
X64602433Y-83333741D01*
X64543662Y-83323430D01*
X64467024Y-83319575D01*
X64351644Y-83326218D01*
X64253849Y-83332764D01*
X64225438Y-83328353D01*
X64208518Y-83316937D01*
X64198945Y-83297080D01*
X64194840Y-83258416D01*
X64194840Y-82644878D01*
X64199700Y-82605124D01*
X64211742Y-82582157D01*
X64232438Y-82568283D01*
X64265866Y-82563008D01*
X64935775Y-82563008D01*
X64954338Y-82569554D01*
X64969090Y-82590168D01*
X64977883Y-82627586D01*
X64980618Y-82683273D01*
X64977163Y-82743797D01*
X64969090Y-82777649D01*
X64954171Y-82800299D01*
X64935775Y-82806860D01*
X64433026Y-82806860D01*
X64433026Y-83113531D01*
X64509034Y-83108158D01*
X64588267Y-83106986D01*
X64699378Y-83114021D01*
X64792063Y-83133657D01*
X64875485Y-83167358D01*
X64941833Y-83212108D01*
X64995015Y-83269742D01*
X65034156Y-83340580D01*
X65057568Y-83421276D01*
X65065908Y-83518681D01*
G37*
G36*
X66026955Y-83925590D02*
G01*
X66012691Y-83955681D01*
X65984261Y-83973071D01*
X65930723Y-83980691D01*
X65842307Y-83982352D01*
X65767373Y-83981766D01*
X65714422Y-83979030D01*
X65678860Y-83972582D01*
X65655901Y-83961640D01*
X65641735Y-83945813D01*
X65632454Y-83922268D01*
X65211574Y-82670280D01*
X65195747Y-82608046D01*
X65197315Y-82587362D01*
X65206690Y-82573657D01*
X65223262Y-82564995D01*
X65253096Y-82559491D01*
X65344931Y-82556755D01*
X65423675Y-82559003D01*
X65467345Y-82566623D01*
X65488643Y-82582938D01*
X65500172Y-82610196D01*
X65844456Y-83699617D01*
X65845531Y-83699617D01*
X66183270Y-82615667D01*
X66194212Y-82585674D01*
X66216585Y-82567698D01*
X66262014Y-82559003D01*
X66342907Y-82556755D01*
X66420967Y-82560077D01*
X66445895Y-82566240D01*
X66459265Y-82575904D01*
X66465913Y-82590173D01*
X66465810Y-82611368D01*
X66448909Y-82672429D01*
X66026955Y-83925590D01*
G37*
D11*
G36*
X75244661Y-124098867D02*
G01*
X75316560Y-124101462D01*
X75367240Y-124109248D01*
X75403572Y-124122834D01*
X75438376Y-124150158D01*
X75488904Y-124222668D01*
X75548133Y-124354101D01*
X75595150Y-124531788D01*
X75609183Y-124633860D01*
X75614078Y-124747790D01*
X75605884Y-124897958D01*
X75582203Y-125033993D01*
X75544011Y-125157660D01*
X75489055Y-125274213D01*
X75419374Y-125377351D01*
X75334420Y-125468459D01*
X75236189Y-125545562D01*
X75120891Y-125611152D01*
X74986222Y-125664922D01*
X74845404Y-125701638D01*
X74684321Y-125724942D01*
X74500178Y-125733157D01*
X74312916Y-125724224D01*
X74146593Y-125698683D01*
X73998717Y-125658053D01*
X73857209Y-125599668D01*
X73735321Y-125529555D01*
X73630826Y-125448004D01*
X73539633Y-125352122D01*
X73464609Y-125244661D01*
X73405054Y-125124382D01*
X73362786Y-124996421D01*
X73336859Y-124858294D01*
X73327965Y-124708406D01*
X73343688Y-124530872D01*
X73384752Y-124372877D01*
X73443065Y-124242207D01*
X73499851Y-124161149D01*
X73538777Y-124129550D01*
X73578314Y-124115964D01*
X73634948Y-124108179D01*
X73715548Y-124105584D01*
X73803170Y-124109095D01*
X73861483Y-124121002D01*
X73894151Y-124141457D01*
X73904378Y-124168782D01*
X73898100Y-124194980D01*
X73874153Y-124233659D01*
X73806681Y-124335325D01*
X73739209Y-124483855D01*
X73717076Y-124574850D01*
X73708984Y-124689630D01*
X73722864Y-124815920D01*
X73762870Y-124924561D01*
X73827609Y-125019595D01*
X73916591Y-125100568D01*
X74024431Y-125163147D01*
X74158391Y-125210630D01*
X74305245Y-125238327D01*
X74477891Y-125248183D01*
X74665688Y-125237414D01*
X74815404Y-125208035D01*
X74948752Y-125157747D01*
X75050335Y-125093699D01*
X75131114Y-125011305D01*
X75187875Y-124914333D01*
X75221366Y-124804729D01*
X75233060Y-124677723D01*
X75225658Y-124562706D01*
X75205430Y-124471185D01*
X75144369Y-124321739D01*
X75084071Y-124219310D01*
X75062604Y-124180447D01*
X75057205Y-124156875D01*
X75064074Y-124129550D01*
X75091093Y-124112606D01*
X75147575Y-124102378D01*
X75244661Y-124098867D01*
G37*
G36*
X75516534Y-123371176D02*
G01*
X75546454Y-123381404D01*
X75567672Y-123416514D01*
X75580495Y-123482307D01*
X75584769Y-123586263D01*
X75580495Y-123690524D01*
X75567672Y-123756317D01*
X75546454Y-123791274D01*
X75516534Y-123801502D01*
X73274232Y-123801502D01*
X73243702Y-123791274D01*
X73220651Y-123756317D01*
X73206149Y-123690524D01*
X73200959Y-123586263D01*
X73206149Y-123482307D01*
X73220651Y-123416514D01*
X73243702Y-123381404D01*
X73274232Y-123371176D01*
X75516534Y-123371176D01*
G37*
G36*
X74928514Y-121417089D02*
G01*
X75094604Y-121455091D01*
X75245386Y-121520240D01*
X75371362Y-121610491D01*
X75473408Y-121726547D01*
X75550881Y-121871831D01*
X75597402Y-122037135D01*
X75614078Y-122238958D01*
X75599134Y-122434253D01*
X75557750Y-122592500D01*
X75487546Y-122731345D01*
X75393649Y-122841780D01*
X75275401Y-122926977D01*
X75128646Y-122988631D01*
X74965006Y-123023831D01*
X74769761Y-123036411D01*
X74580109Y-123022944D01*
X74413319Y-122984357D01*
X74261877Y-122918440D01*
X74136562Y-122828194D01*
X74035095Y-122712209D01*
X73957959Y-122567617D01*
X73911342Y-122402969D01*
X73895901Y-122216824D01*
X74236549Y-122216824D01*
X74245725Y-122308307D01*
X74271659Y-122384130D01*
X74314596Y-122449294D01*
X74374088Y-122501977D01*
X74446608Y-122541536D01*
X74536509Y-122571128D01*
X74634876Y-122588083D01*
X74752664Y-122594179D01*
X74863038Y-122589296D01*
X74960271Y-122575403D01*
X75050632Y-122550218D01*
X75125135Y-122514800D01*
X75187318Y-122465477D01*
X75233670Y-122401227D01*
X75261862Y-122323918D01*
X75272138Y-122223540D01*
X75262959Y-122130576D01*
X75237181Y-122054555D01*
X75194294Y-121989318D01*
X75135515Y-121936708D01*
X75063636Y-121897386D01*
X74974009Y-121868472D01*
X74875541Y-121852080D01*
X74757702Y-121846185D01*
X74647437Y-121850870D01*
X74550248Y-121864198D01*
X74459839Y-121888899D01*
X74385232Y-121924801D01*
X74322800Y-121974565D01*
X74275933Y-122038374D01*
X74247126Y-122115160D01*
X74236549Y-122216824D01*
X73895901Y-122216824D01*
X73894609Y-122201253D01*
X73909394Y-122004449D01*
X73950174Y-121846185D01*
X74019750Y-121707421D01*
X74113511Y-121597668D01*
X74231574Y-121513077D01*
X74378362Y-121451580D01*
X74542194Y-121416408D01*
X74738926Y-121403800D01*
X74928514Y-121417089D01*
G37*
G36*
X75277481Y-119910866D02*
G01*
X75351670Y-119913461D01*
X75401892Y-119920330D01*
X75435170Y-119930558D01*
X75467533Y-119956967D01*
X75515007Y-120027034D01*
X75564924Y-120139691D01*
X75600492Y-120277230D01*
X75614078Y-120430035D01*
X75599742Y-120599464D01*
X75559276Y-120741749D01*
X75491071Y-120867075D01*
X75397465Y-120969659D01*
X75280795Y-121049424D01*
X75136278Y-121108877D01*
X74975717Y-121143388D01*
X74783500Y-121155741D01*
X74562829Y-121140474D01*
X74387063Y-121098649D01*
X74231607Y-121028482D01*
X74110458Y-120938976D01*
X74014948Y-120827004D01*
X73947732Y-120696412D01*
X73908258Y-120551676D01*
X73894609Y-120388971D01*
X73906821Y-120255096D01*
X73939794Y-120132058D01*
X73986658Y-120029629D01*
X74031843Y-119965515D01*
X74063900Y-119939106D01*
X74097483Y-119927200D01*
X74148316Y-119920330D01*
X74221589Y-119917735D01*
X74314053Y-119922969D01*
X74362181Y-119934832D01*
X74393857Y-119956018D01*
X74402634Y-119979254D01*
X74397085Y-120007791D01*
X74378362Y-120040772D01*
X74324476Y-120117556D01*
X74270743Y-120223497D01*
X74252833Y-120288444D01*
X74246318Y-120370195D01*
X74261244Y-120475081D01*
X74303758Y-120558772D01*
X74375157Y-120626497D01*
X74465566Y-120672617D01*
X74588356Y-120703571D01*
X74752817Y-120715188D01*
X74871892Y-120709297D01*
X74969583Y-120693054D01*
X75057952Y-120664501D01*
X75126509Y-120627261D01*
X75181974Y-120577858D01*
X75221153Y-120517962D01*
X75244386Y-120448553D01*
X75252599Y-120365158D01*
X75245762Y-120280047D01*
X75226953Y-120212353D01*
X75169556Y-120100459D01*
X75112312Y-120020164D01*
X75091919Y-119987953D01*
X75086514Y-119965515D01*
X75095062Y-119939870D01*
X75126661Y-119923689D01*
X75185432Y-119914377D01*
X75277481Y-119910866D01*
G37*
G36*
X75518060Y-118184832D02*
G01*
X75547980Y-118194297D01*
X75568588Y-118228338D01*
X75580495Y-118295810D01*
X75584769Y-118406788D01*
X75581258Y-118520361D01*
X75570267Y-118592107D01*
X75548896Y-118635613D01*
X75513023Y-118662938D01*
X74709922Y-119170199D01*
X75516381Y-119170199D01*
X75546301Y-119180427D01*
X75567672Y-119215537D01*
X75580495Y-119281330D01*
X75584769Y-119385286D01*
X75580495Y-119489547D01*
X75567672Y-119555340D01*
X75546454Y-119590297D01*
X75516534Y-119600525D01*
X73274232Y-119600525D01*
X73243702Y-119590297D01*
X73220651Y-119555340D01*
X73206149Y-119489547D01*
X73200959Y-119385286D01*
X73206149Y-119281330D01*
X73220651Y-119215537D01*
X73243549Y-119180427D01*
X73274232Y-119170199D01*
X74607340Y-119170199D01*
X74000854Y-118719419D01*
X73964981Y-118688736D01*
X73941015Y-118643398D01*
X73928192Y-118573331D01*
X73923918Y-118466627D01*
X73928192Y-118359924D01*
X73941015Y-118289857D01*
X73962386Y-118253067D01*
X73993985Y-118242840D01*
X74048634Y-118255663D01*
X74110153Y-118294131D01*
X74615888Y-118739874D01*
X75413952Y-118224064D01*
X75472875Y-118194297D01*
X75518060Y-118184832D01*
G37*
G36*
X75513176Y-116657246D02*
G01*
X75543859Y-116668389D01*
X75565993Y-116705026D01*
X75579579Y-116773414D01*
X75584769Y-116882712D01*
X75579579Y-116991248D01*
X75565993Y-117060399D01*
X75543859Y-117097188D01*
X75513176Y-117108179D01*
X73428868Y-117108179D01*
X73398338Y-117097188D01*
X73376051Y-117059636D01*
X73362465Y-116990332D01*
X73357274Y-116882712D01*
X73362465Y-116773414D01*
X73376051Y-116705026D01*
X73398338Y-116668389D01*
X73428868Y-116657246D01*
X75513176Y-116657246D01*
G37*
G36*
X76017690Y-115985578D02*
G01*
X76053410Y-116007865D01*
X76075697Y-116046181D01*
X76088520Y-116107699D01*
X76092794Y-116200664D01*
X76085925Y-116315153D01*
X76065317Y-116382625D01*
X76049293Y-116401160D01*
X76030360Y-116409187D01*
X75979985Y-116402165D01*
X73111810Y-115380924D01*
X73075021Y-115360469D01*
X73051971Y-115322917D01*
X73039148Y-115260635D01*
X73034874Y-115167517D01*
X73041743Y-115052265D01*
X73062351Y-114986625D01*
X73078319Y-114968754D01*
X73097308Y-114960979D01*
X73147684Y-114966017D01*
X76017690Y-115985578D01*
G37*
G36*
X74627737Y-112693205D02*
G01*
X74790814Y-112716448D01*
X74936762Y-112753482D01*
X75076540Y-112807617D01*
X75198443Y-112875397D01*
X75304501Y-112956661D01*
X75396582Y-113052979D01*
X75473216Y-113163706D01*
X75534852Y-113290511D01*
X75577724Y-113425344D01*
X75604649Y-113577868D01*
X75614078Y-113750756D01*
X75605962Y-113921977D01*
X75582969Y-114071101D01*
X75546759Y-114200926D01*
X75493023Y-114323529D01*
X75424577Y-114429597D01*
X75341137Y-114521037D01*
X75243504Y-114597465D01*
X75127289Y-114661673D01*
X74989733Y-114713225D01*
X74846204Y-114747427D01*
X74678947Y-114769380D01*
X74484608Y-114777186D01*
X74307003Y-114769135D01*
X74147064Y-114745985D01*
X74002839Y-114708951D01*
X73864698Y-114654793D01*
X73743939Y-114586977D01*
X73638612Y-114505619D01*
X73546929Y-114409376D01*
X73470281Y-114298649D01*
X73408260Y-114171770D01*
X73364837Y-114036873D01*
X73337537Y-113883826D01*
X73328805Y-113725110D01*
X73699214Y-113725110D01*
X73715819Y-113881869D01*
X73761344Y-114001868D01*
X73834124Y-114102450D01*
X73927276Y-114181234D01*
X74037856Y-114238687D01*
X74169840Y-114277710D01*
X74310874Y-114298616D01*
X74463389Y-114305798D01*
X74639123Y-114298585D01*
X74787622Y-114278473D01*
X74923947Y-114240648D01*
X75033544Y-114186271D01*
X75123473Y-114110354D01*
X75189248Y-114012096D01*
X75228345Y-113894174D01*
X75242829Y-113737170D01*
X75226455Y-113580345D01*
X75181616Y-113460412D01*
X75109125Y-113360017D01*
X75014767Y-113281199D01*
X74902526Y-113223666D01*
X74768845Y-113184723D01*
X74625798Y-113163719D01*
X74470106Y-113156483D01*
X74300662Y-113163642D01*
X74154422Y-113183807D01*
X74019764Y-113221815D01*
X73911095Y-113276925D01*
X73821520Y-113353316D01*
X73754627Y-113451864D01*
X73714127Y-113569718D01*
X73699214Y-113725110D01*
X73328805Y-113725110D01*
X73327965Y-113709845D01*
X73335919Y-113543293D01*
X73358586Y-113396373D01*
X73394521Y-113266697D01*
X73447702Y-113143980D01*
X73515835Y-113037547D01*
X73599228Y-112945518D01*
X73696817Y-112868287D01*
X73812284Y-112803292D01*
X73948189Y-112750887D01*
X74090097Y-112715647D01*
X74254752Y-112693096D01*
X74445376Y-112685094D01*
X74627737Y-112693205D01*
G37*
D10*
G36*
X98967460Y-125207153D02*
G01*
X99063881Y-125234633D01*
X99148994Y-125280519D01*
X99218828Y-125342784D01*
X99273450Y-125420450D01*
X99314669Y-125517173D01*
X99338735Y-125625572D01*
X99347495Y-125760341D01*
X99347495Y-125878359D01*
X99795828Y-125878359D01*
X99815367Y-125885491D01*
X99829533Y-125908939D01*
X99838130Y-125952707D01*
X99841452Y-126022658D01*
X99838130Y-126092121D01*
X99829435Y-126136378D01*
X99815269Y-126159336D01*
X99795632Y-126165882D01*
X98524690Y-126165882D01*
X98478175Y-126158600D01*
X98447802Y-126139113D01*
X98428809Y-126108846D01*
X98422108Y-126068576D01*
X98422108Y-125755945D01*
X98640950Y-125755945D01*
X98640950Y-125878359D01*
X99128654Y-125878359D01*
X99128654Y-125749399D01*
X99123540Y-125683754D01*
X99109798Y-125634117D01*
X99086765Y-125591334D01*
X99057042Y-125558108D01*
X99020308Y-125532440D01*
X98975953Y-125513363D01*
X98927311Y-125501964D01*
X98873176Y-125498024D01*
X98801767Y-125505132D01*
X98748710Y-125524305D01*
X98705273Y-125554382D01*
X98676511Y-125588785D01*
X98657394Y-125628211D01*
X98647105Y-125669092D01*
X98640950Y-125755945D01*
X98422108Y-125755945D01*
X98422108Y-125735233D01*
X98425918Y-125639588D01*
X98442331Y-125530851D01*
X98459916Y-125468045D01*
X98488933Y-125402379D01*
X98527665Y-125341728D01*
X98574906Y-125291395D01*
X98630839Y-125251201D01*
X98696442Y-125221444D01*
X98768655Y-125203664D01*
X98852464Y-125197410D01*
X98967460Y-125207153D01*
G37*
G36*
X99421449Y-124049670D02*
G01*
X99527747Y-124073991D01*
X99624247Y-124115686D01*
X99704872Y-124173447D01*
X99770181Y-124247723D01*
X99819763Y-124340704D01*
X99849537Y-124446499D01*
X99860210Y-124575666D01*
X99850646Y-124700655D01*
X99824160Y-124801932D01*
X99779230Y-124890793D01*
X99719135Y-124961472D01*
X99643457Y-125015998D01*
X99549533Y-125055456D01*
X99444804Y-125077985D01*
X99319847Y-125086036D01*
X99198469Y-125077417D01*
X99091724Y-125052721D01*
X98994801Y-125010534D01*
X98914599Y-124952777D01*
X98849661Y-124878546D01*
X98800294Y-124786008D01*
X98770459Y-124680633D01*
X98760576Y-124561500D01*
X98978591Y-124561500D01*
X98984464Y-124620049D01*
X99001061Y-124668576D01*
X99028541Y-124710280D01*
X99066616Y-124743998D01*
X99113029Y-124769315D01*
X99170566Y-124788255D01*
X99233520Y-124799106D01*
X99308905Y-124803007D01*
X99379544Y-124799882D01*
X99441773Y-124790990D01*
X99499604Y-124774872D01*
X99547286Y-124752205D01*
X99587083Y-124720638D01*
X99616749Y-124679518D01*
X99634791Y-124630040D01*
X99641368Y-124565798D01*
X99635493Y-124506301D01*
X99618996Y-124457648D01*
X99591548Y-124415896D01*
X99553929Y-124382225D01*
X99507927Y-124357059D01*
X99450566Y-124338555D01*
X99387546Y-124328064D01*
X99312129Y-124324291D01*
X99241559Y-124327290D01*
X99179359Y-124335819D01*
X99121497Y-124351628D01*
X99073748Y-124374605D01*
X99033792Y-124406454D01*
X99003797Y-124447292D01*
X98985360Y-124496435D01*
X98978591Y-124561500D01*
X98760576Y-124561500D01*
X98759749Y-124551535D01*
X98769212Y-124425580D01*
X98795311Y-124324291D01*
X98839840Y-124235482D01*
X98899847Y-124165240D01*
X98975407Y-124111102D01*
X99069352Y-124071744D01*
X99174204Y-124049234D01*
X99300112Y-124041165D01*
X99421449Y-124049670D01*
G37*
G36*
X98820029Y-122336154D02*
G01*
X98849631Y-122339476D01*
X98899847Y-122351493D01*
X99782443Y-122611660D01*
X99812534Y-122625924D01*
X99830510Y-122652693D01*
X99839205Y-122704082D01*
X99841452Y-122790934D01*
X99838717Y-122878373D01*
X99829435Y-122931423D01*
X99811459Y-122959267D01*
X99782443Y-122972358D01*
X99189715Y-123136294D01*
X99179847Y-123138443D01*
X99189715Y-123140593D01*
X99782443Y-123291437D01*
X99812534Y-123304040D01*
X99830510Y-123331884D01*
X99839205Y-123385422D01*
X99841452Y-123472958D01*
X99838717Y-123560983D01*
X99829435Y-123613447D01*
X99811459Y-123641290D01*
X99782443Y-123654382D01*
X98899847Y-123912302D01*
X98850119Y-123924807D01*
X98820029Y-123927543D01*
X98800978Y-123921583D01*
X98787886Y-123899699D01*
X98780754Y-123857103D01*
X98778507Y-123789888D01*
X98780754Y-123718862D01*
X98788375Y-123676266D01*
X98803127Y-123654968D01*
X98825500Y-123645589D01*
X99541815Y-123452051D01*
X99554906Y-123449902D01*
X99541815Y-123447752D01*
X98825500Y-123266329D01*
X98803127Y-123255973D01*
X98788375Y-123234675D01*
X98780754Y-123194717D01*
X98778507Y-123128576D01*
X98781243Y-123063021D01*
X98788961Y-123023161D01*
X98802052Y-123002449D01*
X98821201Y-122993070D01*
X99542890Y-122798555D01*
X99554906Y-122795233D01*
X99541815Y-122793084D01*
X98825500Y-122607264D01*
X98803127Y-122598569D01*
X98788375Y-122576685D01*
X98780754Y-122535163D01*
X98778507Y-122468436D01*
X98780754Y-122402295D01*
X98787886Y-122361849D01*
X98800978Y-122341625D01*
X98820029Y-122336154D01*
G37*
G36*
X99326214Y-121283092D02*
G01*
X99354725Y-121299295D01*
X99372465Y-121325172D01*
X99378758Y-121360941D01*
X99378758Y-121954452D01*
X99440054Y-121950609D01*
X99493162Y-121939699D01*
X99541155Y-121920285D01*
X99580405Y-121892707D01*
X99611614Y-121856425D01*
X99635116Y-121809664D01*
X99648847Y-121755929D01*
X99653874Y-121687738D01*
X99651026Y-121617841D01*
X99643225Y-121561025D01*
X99619484Y-121466454D01*
X99595842Y-121400411D01*
X99585095Y-121357717D01*
X99589003Y-121341304D01*
X99602778Y-121330460D01*
X99630915Y-121324403D01*
X99676637Y-121322742D01*
X99718061Y-121323817D01*
X99747272Y-121327138D01*
X99767691Y-121333684D01*
X99783713Y-121345212D01*
X99804327Y-121383998D01*
X99829631Y-121464891D01*
X99851026Y-121577438D01*
X99860210Y-121712944D01*
X99851509Y-121838317D01*
X99827384Y-121940872D01*
X99785481Y-122031591D01*
X99727830Y-122104221D01*
X99653731Y-122160647D01*
X99559400Y-122202016D01*
X99452762Y-122225668D01*
X99320922Y-122234256D01*
X99194706Y-122225414D01*
X99086351Y-122200355D01*
X98988432Y-122158060D01*
X98909128Y-122101974D01*
X98845152Y-122030796D01*
X98798047Y-121945170D01*
X98769679Y-121848870D01*
X98760330Y-121743523D01*
X98953581Y-121743523D01*
X98958773Y-121793631D01*
X98973413Y-121834773D01*
X98996785Y-121870401D01*
X99026853Y-121899253D01*
X99062901Y-121921650D01*
X99106183Y-121938625D01*
X99152929Y-121949340D01*
X99203685Y-121954452D01*
X99203685Y-121543537D01*
X99127213Y-121547848D01*
X99067273Y-121563873D01*
X99020308Y-121589944D01*
X98984169Y-121627707D01*
X98961722Y-121677578D01*
X98953581Y-121743523D01*
X98760330Y-121743523D01*
X98759749Y-121736978D01*
X98769384Y-121619913D01*
X98795800Y-121527710D01*
X98839458Y-121447655D01*
X98895744Y-121385073D01*
X98964750Y-121337056D01*
X99046881Y-121303105D01*
X99136654Y-121283587D01*
X99236805Y-121276824D01*
X99280475Y-121276824D01*
X99326214Y-121283092D01*
G37*
G36*
X98911864Y-120424124D02*
G01*
X98975953Y-120426371D01*
X99015032Y-120432916D01*
X99034669Y-120444347D01*
X99040140Y-120462421D01*
X99036330Y-120482058D01*
X99028123Y-120506678D01*
X99019917Y-120536671D01*
X99016107Y-120572721D01*
X99025486Y-120618639D01*
X99054795Y-120666217D01*
X99107942Y-120717606D01*
X99189715Y-120774954D01*
X99797684Y-120774954D01*
X99816832Y-120781500D01*
X99830510Y-120803970D01*
X99838717Y-120846078D01*
X99841452Y-120912609D01*
X99838717Y-120979336D01*
X99830510Y-121021444D01*
X99816832Y-121043817D01*
X99797684Y-121050362D01*
X98822276Y-121050362D01*
X98803127Y-121044891D01*
X98789449Y-121025254D01*
X98781243Y-120988618D01*
X98778507Y-120932344D01*
X98781243Y-120874410D01*
X98789449Y-120838946D01*
X98803127Y-120820872D01*
X98822276Y-120815401D01*
X98943615Y-120815401D01*
X98853343Y-120743300D01*
X98796972Y-120678820D01*
X98767956Y-120617564D01*
X98759749Y-120556405D01*
X98761410Y-120525826D01*
X98766784Y-120491925D01*
X98775479Y-120461346D01*
X98785835Y-120442198D01*
X98797754Y-120433405D01*
X98815730Y-120428520D01*
X98849924Y-120425198D01*
X98911864Y-120424124D01*
G37*
G36*
X99795632Y-119444905D02*
G01*
X99815269Y-119452037D01*
X99829435Y-119475484D01*
X99838130Y-119519253D01*
X99841452Y-119589204D01*
X99838130Y-119658666D01*
X99829435Y-119702923D01*
X99815269Y-119726468D01*
X99795632Y-119733502D01*
X98461675Y-119733502D01*
X98442136Y-119726468D01*
X98427872Y-119702435D01*
X98419177Y-119658080D01*
X98415855Y-119589204D01*
X98419177Y-119519253D01*
X98427872Y-119475484D01*
X98442136Y-119452037D01*
X98461675Y-119444905D01*
X99795632Y-119444905D01*
G37*
G36*
X99797684Y-118221542D02*
G01*
X99816832Y-118228087D01*
X99830510Y-118249971D01*
X99838717Y-118292079D01*
X99841452Y-118358122D01*
X99838717Y-118425435D01*
X99830510Y-118467543D01*
X99816832Y-118489329D01*
X99797586Y-118495875D01*
X99239638Y-118495875D01*
X99172168Y-118498864D01*
X99127775Y-118506329D01*
X99089336Y-118519341D01*
X99058214Y-118536322D01*
X99032409Y-118558855D01*
X99013273Y-118587124D01*
X99001502Y-118620102D01*
X98997349Y-118659811D01*
X99006397Y-118711000D01*
X99035744Y-118765812D01*
X99080251Y-118817856D01*
X99147509Y-118877285D01*
X99797586Y-118877285D01*
X99816832Y-118883830D01*
X99830510Y-118906301D01*
X99838717Y-118948408D01*
X99841452Y-119014940D01*
X99838717Y-119081667D01*
X99830510Y-119123775D01*
X99816832Y-119146147D01*
X99797684Y-119152693D01*
X98822276Y-119152693D01*
X98803127Y-119147222D01*
X98789449Y-119127585D01*
X98781243Y-119090948D01*
X98778507Y-119034675D01*
X98781243Y-118976740D01*
X98789449Y-118941276D01*
X98803127Y-118923202D01*
X98822276Y-118917731D01*
X98934920Y-118917731D01*
X98856282Y-118833700D01*
X98803518Y-118753307D01*
X98770587Y-118667476D01*
X98759749Y-118578918D01*
X98768539Y-118484333D01*
X98792576Y-118411172D01*
X98831695Y-118348925D01*
X98881773Y-118300774D01*
X98942040Y-118264930D01*
X99013567Y-118240104D01*
X99092923Y-118226573D01*
X99195088Y-118221542D01*
X99797684Y-118221542D01*
G37*
G36*
X99377781Y-116551702D02*
G01*
X99487886Y-116562068D01*
X99581969Y-116591660D01*
X99665061Y-116639946D01*
X99733399Y-116704207D01*
X99786972Y-116782979D01*
X99827579Y-116879085D01*
X99851745Y-116984753D01*
X99860210Y-117105840D01*
X99851710Y-117230502D01*
X99830315Y-117336503D01*
X99804425Y-117413586D01*
X99783225Y-117452860D01*
X99765248Y-117466538D01*
X99741703Y-117473670D01*
X99707216Y-117477480D01*
X99657977Y-117478555D01*
X99606100Y-117476405D01*
X99571710Y-117469274D01*
X99553050Y-117457843D01*
X99547579Y-117442505D01*
X99560280Y-117409190D01*
X99588221Y-117350181D01*
X99616260Y-117261081D01*
X99625452Y-117205954D01*
X99628863Y-117135345D01*
X99625472Y-117073569D01*
X99615869Y-117020062D01*
X99598455Y-116971251D01*
X99573957Y-116932037D01*
X99541619Y-116900203D01*
X99501661Y-116876350D01*
X99455440Y-116861861D01*
X99397223Y-116856615D01*
X99346910Y-116860897D01*
X99304313Y-116873028D01*
X99266716Y-116894015D01*
X99235241Y-116924417D01*
X99211143Y-116963178D01*
X99192841Y-117015177D01*
X99182530Y-117073948D01*
X99178675Y-117150586D01*
X99185318Y-117265966D01*
X99191864Y-117363761D01*
X99187453Y-117392172D01*
X99176037Y-117409092D01*
X99156180Y-117418665D01*
X99117516Y-117422770D01*
X98503978Y-117422770D01*
X98464224Y-117417910D01*
X98441257Y-117405868D01*
X98427383Y-117385172D01*
X98422108Y-117351744D01*
X98422108Y-116681835D01*
X98428654Y-116663272D01*
X98449268Y-116648520D01*
X98486686Y-116639727D01*
X98542373Y-116636992D01*
X98602897Y-116640447D01*
X98636749Y-116648520D01*
X98659399Y-116663439D01*
X98665960Y-116681835D01*
X98665960Y-117184584D01*
X98972631Y-117184584D01*
X98967258Y-117108576D01*
X98966086Y-117029343D01*
X98973121Y-116918232D01*
X98992757Y-116825547D01*
X99026458Y-116742125D01*
X99071208Y-116675777D01*
X99128842Y-116622595D01*
X99199680Y-116583454D01*
X99280376Y-116560042D01*
X99377781Y-116551702D01*
G37*
G36*
X99784690Y-115590655D02*
G01*
X99814781Y-115604919D01*
X99832171Y-115633349D01*
X99839791Y-115686887D01*
X99841452Y-115775303D01*
X99840866Y-115850237D01*
X99838130Y-115903188D01*
X99831682Y-115938750D01*
X99820740Y-115961709D01*
X99804913Y-115975875D01*
X99781368Y-115985156D01*
X98529380Y-116406036D01*
X98467146Y-116421863D01*
X98446462Y-116420295D01*
X98432757Y-116410920D01*
X98424095Y-116394348D01*
X98418591Y-116364514D01*
X98415855Y-116272679D01*
X98418103Y-116193935D01*
X98425723Y-116150265D01*
X98442038Y-116128967D01*
X98469296Y-116117438D01*
X99558717Y-115773154D01*
X99558717Y-115772079D01*
X98474767Y-115434340D01*
X98444774Y-115423398D01*
X98426798Y-115401025D01*
X98418103Y-115355596D01*
X98415855Y-115274703D01*
X98419177Y-115196643D01*
X98425340Y-115171715D01*
X98435004Y-115158345D01*
X98449273Y-115151697D01*
X98470468Y-115151800D01*
X98531529Y-115168701D01*
X99784690Y-115590655D01*
G37*
D12*
G36*
X99023088Y-114486892D02*
G01*
X98744749Y-114486892D01*
X98744749Y-111742823D01*
X99023088Y-111742823D01*
X99023088Y-114486892D01*
G37*
G36*
X99579766Y-114486892D02*
G01*
X99301427Y-114486892D01*
X99301427Y-113730349D01*
X99579766Y-113730349D01*
X99579766Y-114486892D01*
G37*
G36*
X99579766Y-113495095D02*
G01*
X99301427Y-113495095D01*
X99301427Y-112738552D01*
X99579766Y-112738552D01*
X99579766Y-113495095D01*
G37*
G36*
X99579766Y-112499365D02*
G01*
X99301427Y-112499365D01*
X99301427Y-111742823D01*
X99579766Y-111742823D01*
X99579766Y-112499365D01*
G37*
D10*
G36*
X99817907Y-93629447D02*
G01*
X99831585Y-93650159D01*
X99839205Y-93698324D01*
X99841452Y-93784590D01*
X99839205Y-93857863D01*
X99830999Y-93901045D01*
X99815660Y-93923418D01*
X99793092Y-93934360D01*
X99475576Y-94061171D01*
X99380029Y-94106014D01*
X99340868Y-94129649D01*
X99310273Y-94154569D01*
X99285611Y-94183487D01*
X99267970Y-94216314D01*
X99257450Y-94253030D01*
X99253706Y-94297207D01*
X99253706Y-94386795D01*
X99795339Y-94386795D01*
X99815074Y-94393927D01*
X99829435Y-94417375D01*
X99838130Y-94461143D01*
X99841452Y-94531094D01*
X99838130Y-94600557D01*
X99829435Y-94644814D01*
X99815269Y-94667772D01*
X99795632Y-94674318D01*
X98512771Y-94674318D01*
X98469587Y-94667525D01*
X98443406Y-94649796D01*
X98427576Y-94622700D01*
X98422108Y-94589029D01*
X98422108Y-94257835D01*
X98640950Y-94257835D01*
X98640950Y-94386795D01*
X99041117Y-94386795D01*
X99041117Y-94240347D01*
X99037221Y-94181280D01*
X99026463Y-94133271D01*
X99008281Y-94090363D01*
X98985039Y-94056774D01*
X98955640Y-94029910D01*
X98921243Y-94010857D01*
X98882619Y-93999479D01*
X98838298Y-93995518D01*
X98772555Y-94003849D01*
X98720573Y-94027270D01*
X98680848Y-94067277D01*
X98652966Y-94131024D01*
X98644271Y-94180752D01*
X98640950Y-94257835D01*
X98422108Y-94257835D01*
X98422108Y-94222860D01*
X98424355Y-94131122D01*
X98429728Y-94065470D01*
X98446399Y-93983099D01*
X98471054Y-93911987D01*
X98505447Y-93848086D01*
X98547844Y-93796119D01*
X98599263Y-93754312D01*
X98659903Y-93723432D01*
X98727591Y-93704829D01*
X98808305Y-93698226D01*
X98877109Y-93702914D01*
X98937265Y-93716300D01*
X98992725Y-93738709D01*
X99041215Y-93769252D01*
X99083538Y-93807981D01*
X99120545Y-93855616D01*
X99150624Y-93909737D01*
X99174962Y-93972560D01*
X99212283Y-93913062D01*
X99265430Y-93860599D01*
X99336651Y-93814095D01*
X99427119Y-93771499D01*
X99706630Y-93652406D01*
X99767495Y-93630522D01*
X99797586Y-93625051D01*
X99817907Y-93629447D01*
G37*
G36*
X99825137Y-92611052D02*
G01*
X99837642Y-92645539D01*
X99841452Y-92714904D01*
X99837642Y-92786516D01*
X99825137Y-92818170D01*
X99801006Y-92827451D01*
X99723434Y-92827451D01*
X99781042Y-92892073D01*
X99824062Y-92964618D01*
X99850952Y-93044887D01*
X99860210Y-93135686D01*
X99854965Y-93211274D01*
X99839889Y-93278324D01*
X99814391Y-93339654D01*
X99779708Y-93390968D01*
X99735213Y-93432962D01*
X99680643Y-93464730D01*
X99618325Y-93484035D01*
X99542694Y-93490913D01*
X99461235Y-93482199D01*
X99394390Y-93457598D01*
X99337519Y-93416625D01*
X99290440Y-93358142D01*
X99255679Y-93286615D01*
X99229673Y-93193620D01*
X99215217Y-93091223D01*
X99210351Y-92974974D01*
X99385011Y-92974974D01*
X99387697Y-93039233D01*
X99394878Y-93088694D01*
X99407699Y-93132816D01*
X99424285Y-93165190D01*
X99446369Y-93191096D01*
X99471766Y-93208373D01*
X99500968Y-93218502D01*
X99535465Y-93222050D01*
X99591053Y-93211944D01*
X99631501Y-93183264D01*
X99657016Y-93138898D01*
X99666379Y-93075602D01*
X99658993Y-93019864D01*
X99636972Y-92969015D01*
X99602286Y-92921804D01*
X99550803Y-92870047D01*
X99385011Y-92870047D01*
X99385011Y-92974974D01*
X99210351Y-92974974D01*
X99209938Y-92965107D01*
X99209938Y-92870047D01*
X99150343Y-92870047D01*
X99069254Y-92879329D01*
X99036896Y-92891871D01*
X99011320Y-92909908D01*
X98991557Y-92934172D01*
X98977126Y-92966768D01*
X98969102Y-93004569D01*
X98966086Y-93054793D01*
X98970196Y-93121478D01*
X98981717Y-93177696D01*
X99016107Y-93273341D01*
X99050594Y-93342804D01*
X99062842Y-93369858D01*
X99066128Y-93388135D01*
X99058605Y-93409433D01*
X99037014Y-93424772D01*
X99002429Y-93434053D01*
X98957098Y-93437277D01*
X98904243Y-93431806D01*
X98869170Y-93411094D01*
X98833999Y-93357556D01*
X98797754Y-93267870D01*
X98770398Y-93155909D01*
X98759749Y-93030759D01*
X98765832Y-92920352D01*
X98782220Y-92834583D01*
X98811436Y-92758791D01*
X98851096Y-92700641D01*
X98903586Y-92655737D01*
X98970873Y-92624144D01*
X99047982Y-92606542D01*
X99144774Y-92600110D01*
X99801006Y-92600110D01*
X99825137Y-92611052D01*
G37*
G36*
X98820029Y-90850843D02*
G01*
X98849631Y-90854165D01*
X98899847Y-90866181D01*
X99782443Y-91126349D01*
X99812534Y-91140613D01*
X99830510Y-91167382D01*
X99839205Y-91218770D01*
X99841452Y-91305623D01*
X99838717Y-91393062D01*
X99829435Y-91446112D01*
X99811459Y-91473955D01*
X99782443Y-91487047D01*
X99189715Y-91650982D01*
X99179847Y-91653132D01*
X99189715Y-91655281D01*
X99782443Y-91806126D01*
X99812534Y-91818728D01*
X99830510Y-91846572D01*
X99839205Y-91900110D01*
X99841452Y-91987647D01*
X99838717Y-92075672D01*
X99829435Y-92128135D01*
X99811459Y-92155979D01*
X99782443Y-92169070D01*
X98899847Y-92426991D01*
X98850119Y-92439496D01*
X98820029Y-92442232D01*
X98800978Y-92436272D01*
X98787886Y-92414388D01*
X98780754Y-92371792D01*
X98778507Y-92304576D01*
X98780754Y-92233550D01*
X98788375Y-92190955D01*
X98803127Y-92169657D01*
X98825500Y-92160278D01*
X99541815Y-91966740D01*
X99554906Y-91964590D01*
X99541815Y-91962441D01*
X98825500Y-91781017D01*
X98803127Y-91770661D01*
X98788375Y-91749363D01*
X98780754Y-91709405D01*
X98778507Y-91643264D01*
X98781243Y-91577710D01*
X98788961Y-91537849D01*
X98802052Y-91517137D01*
X98821201Y-91507758D01*
X99542890Y-91313243D01*
X99554906Y-91309922D01*
X99541815Y-91307772D01*
X98825500Y-91121952D01*
X98803127Y-91113257D01*
X98788375Y-91091373D01*
X98780754Y-91049852D01*
X98778507Y-90983125D01*
X98780754Y-90916984D01*
X98787886Y-90876537D01*
X98800978Y-90856314D01*
X98820029Y-90850843D01*
G37*
G36*
X99237003Y-88984888D02*
G01*
X99346946Y-89002320D01*
X99440405Y-89029475D01*
X99528770Y-89069306D01*
X99603410Y-89117967D01*
X99665988Y-89175435D01*
X99718392Y-89242360D01*
X99761155Y-89318982D01*
X99794264Y-89406586D01*
X99816123Y-89498188D01*
X99830188Y-89605456D01*
X99835200Y-89730647D01*
X99835200Y-90068387D01*
X99829732Y-90102058D01*
X99813902Y-90129154D01*
X99787720Y-90146882D01*
X99744537Y-90153676D01*
X98512771Y-90153676D01*
X98469587Y-90146882D01*
X98443406Y-90129154D01*
X98427576Y-90102058D01*
X98422108Y-90068387D01*
X98422108Y-89721855D01*
X98647202Y-89721855D01*
X98647202Y-89867228D01*
X99610105Y-89867228D01*
X99610105Y-89717458D01*
X99601824Y-89604709D01*
X99579526Y-89518645D01*
X99540766Y-89444018D01*
X99487007Y-89383627D01*
X99419116Y-89337109D01*
X99333329Y-89302734D01*
X99237173Y-89283095D01*
X99118786Y-89275965D01*
X99020357Y-89282022D01*
X98931696Y-89299510D01*
X98850185Y-89330500D01*
X98781829Y-89374932D01*
X98725804Y-89433548D01*
X98682764Y-89508289D01*
X98657050Y-89596804D01*
X98647202Y-89721855D01*
X98422108Y-89721855D01*
X98422108Y-89705539D01*
X98427581Y-89579612D01*
X98442831Y-89473585D01*
X98466365Y-89384702D01*
X98501283Y-89300040D01*
X98544958Y-89226506D01*
X98597377Y-89162832D01*
X98659032Y-89108114D01*
X98730190Y-89062430D01*
X98812017Y-89025665D01*
X98898381Y-89000291D01*
X98996458Y-88984290D01*
X99107942Y-88978673D01*
X99237003Y-88984888D01*
G37*
G36*
X99825137Y-87938784D02*
G01*
X99837642Y-87973271D01*
X99841452Y-88042636D01*
X99837642Y-88114248D01*
X99825137Y-88145902D01*
X99801006Y-88155183D01*
X99723434Y-88155183D01*
X99781042Y-88219805D01*
X99824062Y-88292350D01*
X99850952Y-88372619D01*
X99860210Y-88463418D01*
X99854965Y-88539006D01*
X99839889Y-88606056D01*
X99814391Y-88667386D01*
X99779708Y-88718701D01*
X99735213Y-88760694D01*
X99680643Y-88792462D01*
X99618325Y-88811767D01*
X99542694Y-88818645D01*
X99461235Y-88809931D01*
X99394390Y-88785330D01*
X99337519Y-88744357D01*
X99290440Y-88685874D01*
X99255679Y-88614347D01*
X99229673Y-88521352D01*
X99215217Y-88418955D01*
X99210351Y-88302706D01*
X99385011Y-88302706D01*
X99387697Y-88366965D01*
X99394878Y-88416426D01*
X99407699Y-88460548D01*
X99424285Y-88492922D01*
X99446369Y-88518828D01*
X99471766Y-88536105D01*
X99500968Y-88546234D01*
X99535465Y-88549782D01*
X99591053Y-88539676D01*
X99631501Y-88510996D01*
X99657016Y-88466630D01*
X99666379Y-88403334D01*
X99658993Y-88347596D01*
X99636972Y-88296747D01*
X99602286Y-88249536D01*
X99550803Y-88197779D01*
X99385011Y-88197779D01*
X99385011Y-88302706D01*
X99210351Y-88302706D01*
X99209938Y-88292839D01*
X99209938Y-88197779D01*
X99150343Y-88197779D01*
X99069254Y-88207061D01*
X99036896Y-88219603D01*
X99011320Y-88237640D01*
X98991557Y-88261904D01*
X98977126Y-88294500D01*
X98969102Y-88332301D01*
X98966086Y-88382525D01*
X98970196Y-88449210D01*
X98981717Y-88505428D01*
X99016107Y-88601073D01*
X99050594Y-88670536D01*
X99062842Y-88697590D01*
X99066128Y-88715867D01*
X99058605Y-88737165D01*
X99037014Y-88752504D01*
X99002429Y-88761785D01*
X98957098Y-88765009D01*
X98904243Y-88759538D01*
X98869170Y-88738826D01*
X98833999Y-88685288D01*
X98797754Y-88595602D01*
X98770398Y-88483641D01*
X98759749Y-88358491D01*
X98765832Y-88248084D01*
X98782220Y-88162315D01*
X98811436Y-88086524D01*
X98851096Y-88028373D01*
X98903586Y-87983469D01*
X98970873Y-87951876D01*
X99047982Y-87934274D01*
X99144774Y-87927842D01*
X99801006Y-87927842D01*
X99825137Y-87938784D01*
G37*
G36*
X99704481Y-87096537D02*
G01*
X99778535Y-87102594D01*
X99814781Y-87118421D01*
X99833343Y-87147340D01*
X99847607Y-87192183D01*
X99856888Y-87247968D01*
X99860210Y-87308540D01*
X99854662Y-87387375D01*
X99839400Y-87450689D01*
X99812644Y-87506105D01*
X99775311Y-87550145D01*
X99727465Y-87583753D01*
X99666281Y-87608079D01*
X99597292Y-87621661D01*
X99510650Y-87626642D01*
X99009854Y-87626642D01*
X99009854Y-87743683D01*
X99003936Y-87761255D01*
X98983964Y-87775337D01*
X98953561Y-87782968D01*
X98897307Y-87786279D01*
X98843280Y-87783544D01*
X98808500Y-87775337D01*
X98790329Y-87761659D01*
X98784760Y-87742511D01*
X98784760Y-87626642D01*
X98567872Y-87626642D01*
X98548333Y-87620682D01*
X98533581Y-87598798D01*
X98524885Y-87556202D01*
X98522150Y-87490061D01*
X98524885Y-87422846D01*
X98533581Y-87380738D01*
X98548333Y-87358854D01*
X98567872Y-87352308D01*
X98784760Y-87352308D01*
X98784760Y-87140306D01*
X98790329Y-87121157D01*
X98808500Y-87107479D01*
X98843280Y-87099273D01*
X98897307Y-87096537D01*
X98953561Y-87099848D01*
X98983964Y-87107479D01*
X99003936Y-87121562D01*
X99009854Y-87139133D01*
X99009854Y-87352308D01*
X99468933Y-87352308D01*
X99543029Y-87345123D01*
X99588905Y-87327200D01*
X99610263Y-87307218D01*
X99623811Y-87278404D01*
X99628863Y-87237514D01*
X99625053Y-87198142D01*
X99616358Y-87167075D01*
X99607565Y-87144116D01*
X99603755Y-87127116D01*
X99607565Y-87114611D01*
X99622904Y-87105330D01*
X99654069Y-87099273D01*
X99704481Y-87096537D01*
G37*
G36*
X99825137Y-86100515D02*
G01*
X99837642Y-86135002D01*
X99841452Y-86204367D01*
X99837642Y-86275979D01*
X99825137Y-86307633D01*
X99801006Y-86316914D01*
X99723434Y-86316914D01*
X99781042Y-86381535D01*
X99824062Y-86454081D01*
X99850952Y-86534350D01*
X99860210Y-86625149D01*
X99854965Y-86700737D01*
X99839889Y-86767786D01*
X99814391Y-86829117D01*
X99779708Y-86880431D01*
X99735213Y-86922425D01*
X99680643Y-86954193D01*
X99618325Y-86973498D01*
X99542694Y-86980375D01*
X99461235Y-86971662D01*
X99394390Y-86947061D01*
X99337519Y-86906088D01*
X99290440Y-86847605D01*
X99255679Y-86776078D01*
X99229673Y-86683083D01*
X99215217Y-86580686D01*
X99210351Y-86464437D01*
X99385011Y-86464437D01*
X99387697Y-86528695D01*
X99394878Y-86578156D01*
X99407699Y-86622279D01*
X99424285Y-86654653D01*
X99446369Y-86680558D01*
X99471766Y-86697835D01*
X99500968Y-86707964D01*
X99535465Y-86711513D01*
X99591053Y-86701407D01*
X99631501Y-86672727D01*
X99657016Y-86628360D01*
X99666379Y-86565065D01*
X99658993Y-86509326D01*
X99636972Y-86458477D01*
X99602286Y-86411267D01*
X99550803Y-86359510D01*
X99385011Y-86359510D01*
X99385011Y-86464437D01*
X99210351Y-86464437D01*
X99209938Y-86454569D01*
X99209938Y-86359510D01*
X99150343Y-86359510D01*
X99069254Y-86368791D01*
X99036896Y-86381333D01*
X99011320Y-86399370D01*
X98991557Y-86423635D01*
X98977126Y-86456230D01*
X98969102Y-86494031D01*
X98966086Y-86544255D01*
X98970196Y-86610941D01*
X98981717Y-86667158D01*
X99016107Y-86762804D01*
X99050594Y-86832266D01*
X99062842Y-86859321D01*
X99066128Y-86877598D01*
X99058605Y-86898896D01*
X99037014Y-86914234D01*
X99002429Y-86923516D01*
X98957098Y-86926740D01*
X98904243Y-86921269D01*
X98869170Y-86900557D01*
X98833999Y-86847019D01*
X98797754Y-86757333D01*
X98770398Y-86645372D01*
X98759749Y-86520222D01*
X98765832Y-86409814D01*
X98782220Y-86324046D01*
X98811436Y-86248254D01*
X98851096Y-86190103D01*
X98903586Y-86145200D01*
X98970873Y-86113606D01*
X99047982Y-86096004D01*
X99144774Y-86089573D01*
X99801006Y-86089573D01*
X99825137Y-86100515D01*
G37*
G36*
X99228952Y-84026711D02*
G01*
X99333321Y-84041587D01*
X99426728Y-84065288D01*
X99516185Y-84099935D01*
X99594203Y-84143314D01*
X99662080Y-84195323D01*
X99721012Y-84256967D01*
X99770058Y-84327831D01*
X99809505Y-84408987D01*
X99836943Y-84495280D01*
X99854175Y-84592895D01*
X99860210Y-84703544D01*
X99855016Y-84813125D01*
X99840300Y-84908564D01*
X99817126Y-84991652D01*
X99782735Y-85070118D01*
X99738929Y-85138002D01*
X99685527Y-85196523D01*
X99623043Y-85245437D01*
X99548664Y-85286530D01*
X99460629Y-85319524D01*
X99368770Y-85341413D01*
X99261726Y-85355463D01*
X99137349Y-85360459D01*
X99023682Y-85355306D01*
X98921321Y-85340490D01*
X98829017Y-85316788D01*
X98740607Y-85282127D01*
X98663321Y-85238725D01*
X98595911Y-85186656D01*
X98537234Y-85125060D01*
X98488180Y-85054195D01*
X98448486Y-84972992D01*
X98420696Y-84886659D01*
X98403224Y-84788709D01*
X98397635Y-84687130D01*
X98634697Y-84687130D01*
X98645324Y-84787456D01*
X98674460Y-84864255D01*
X98721039Y-84928628D01*
X98780657Y-84979049D01*
X98851428Y-85015819D01*
X98935897Y-85040794D01*
X99026159Y-85054174D01*
X99123769Y-85058770D01*
X99236239Y-85054154D01*
X99331278Y-85041283D01*
X99418526Y-85017075D01*
X99488668Y-84982273D01*
X99546223Y-84933686D01*
X99588319Y-84870801D01*
X99613340Y-84795331D01*
X99622611Y-84694848D01*
X99612131Y-84594481D01*
X99583434Y-84517724D01*
X99537040Y-84453471D01*
X99476651Y-84403027D01*
X99404817Y-84366206D01*
X99319261Y-84341283D01*
X99227710Y-84327840D01*
X99128068Y-84323209D01*
X99019623Y-84327790D01*
X98926030Y-84340696D01*
X98839849Y-84365021D01*
X98770301Y-84400292D01*
X98712973Y-84449182D01*
X98670161Y-84512253D01*
X98644241Y-84587679D01*
X98634697Y-84687130D01*
X98397635Y-84687130D01*
X98397098Y-84677361D01*
X98402188Y-84570767D01*
X98416695Y-84476739D01*
X98439694Y-84393746D01*
X98473729Y-84315207D01*
X98517334Y-84247090D01*
X98570705Y-84188191D01*
X98633162Y-84138763D01*
X98707062Y-84097167D01*
X98794041Y-84063627D01*
X98884862Y-84041074D01*
X98990241Y-84026641D01*
X99112241Y-84021520D01*
X99228952Y-84026711D01*
G37*
G36*
X99797684Y-82870843D02*
G01*
X99816832Y-82876314D01*
X99830510Y-82895463D01*
X99838717Y-82931513D01*
X99841452Y-82987786D01*
X99838717Y-83046307D01*
X99830510Y-83081771D01*
X99816832Y-83100333D01*
X99797684Y-83105805D01*
X99685039Y-83105805D01*
X99763611Y-83189840D01*
X99816442Y-83270326D01*
X99849402Y-83355930D01*
X99860210Y-83443544D01*
X99851395Y-83539077D01*
X99827384Y-83612364D01*
X99788171Y-83674573D01*
X99737698Y-83722762D01*
X99677010Y-83758545D01*
X99605904Y-83782943D01*
X99526355Y-83795975D01*
X99419400Y-83800920D01*
X98822276Y-83800920D01*
X98803127Y-83794960D01*
X98789449Y-83773076D01*
X98781243Y-83730480D01*
X98778507Y-83664339D01*
X98781243Y-83597710D01*
X98789449Y-83555602D01*
X98803225Y-83533132D01*
X98822373Y-83526586D01*
X99374851Y-83526586D01*
X99447117Y-83523746D01*
X99492185Y-83516816D01*
X99530580Y-83504052D01*
X99561843Y-83486726D01*
X99587615Y-83463734D01*
X99606784Y-83435337D01*
X99618481Y-83402365D01*
X99622611Y-83362650D01*
X99613462Y-83311575D01*
X99583825Y-83257235D01*
X99538874Y-83205219D01*
X99470691Y-83144102D01*
X98822276Y-83144102D01*
X98803127Y-83138142D01*
X98789449Y-83116258D01*
X98781243Y-83074151D01*
X98778507Y-83007423D01*
X98781243Y-82940892D01*
X98789449Y-82899273D01*
X98803127Y-82877389D01*
X98822276Y-82870843D01*
X99797684Y-82870843D01*
G37*
G36*
X99704481Y-82016286D02*
G01*
X99778535Y-82022343D01*
X99814781Y-82038170D01*
X99833343Y-82067089D01*
X99847607Y-82111932D01*
X99856888Y-82167717D01*
X99860210Y-82228289D01*
X99854662Y-82307124D01*
X99839400Y-82370438D01*
X99812644Y-82425854D01*
X99775311Y-82469894D01*
X99727465Y-82503502D01*
X99666281Y-82527828D01*
X99597292Y-82541410D01*
X99510650Y-82546391D01*
X99009854Y-82546391D01*
X99009854Y-82663432D01*
X99003936Y-82681003D01*
X98983964Y-82695086D01*
X98953561Y-82702717D01*
X98897307Y-82706028D01*
X98843280Y-82703292D01*
X98808500Y-82695086D01*
X98790329Y-82681408D01*
X98784760Y-82662259D01*
X98784760Y-82546391D01*
X98567872Y-82546391D01*
X98548333Y-82540431D01*
X98533581Y-82518547D01*
X98524885Y-82475951D01*
X98522150Y-82409810D01*
X98524885Y-82342594D01*
X98533581Y-82300487D01*
X98548333Y-82278603D01*
X98567872Y-82272057D01*
X98784760Y-82272057D01*
X98784760Y-82060054D01*
X98790329Y-82040906D01*
X98808500Y-82027228D01*
X98843280Y-82019022D01*
X98897307Y-82016286D01*
X98953561Y-82019597D01*
X98983964Y-82027228D01*
X99003936Y-82041311D01*
X99009854Y-82058882D01*
X99009854Y-82272057D01*
X99468933Y-82272057D01*
X99543029Y-82264872D01*
X99588905Y-82246949D01*
X99610263Y-82226966D01*
X99623811Y-82198153D01*
X99628863Y-82157263D01*
X99625053Y-82117891D01*
X99616358Y-82086823D01*
X99607565Y-82063865D01*
X99603755Y-82046865D01*
X99607565Y-82034360D01*
X99622904Y-82025079D01*
X99654069Y-82019022D01*
X99704481Y-82016286D01*
G37*
G36*
X63689062Y-90178416D02*
G01*
X63748560Y-90186134D01*
X63779237Y-90204111D01*
X63795064Y-90236839D01*
X64232258Y-91488828D01*
X64248671Y-91551061D01*
X64247933Y-91571840D01*
X64239879Y-91585451D01*
X64224952Y-91594106D01*
X64197283Y-91599617D01*
X64113165Y-91602352D01*
X64026215Y-91600691D01*
X63978734Y-91594146D01*
X63955775Y-91580566D01*
X63944833Y-91557607D01*
X63849774Y-91270963D01*
X63318497Y-91270963D01*
X63228909Y-91549986D01*
X63217380Y-91575583D01*
X63194422Y-91591996D01*
X63149579Y-91600105D01*
X63073668Y-91602352D01*
X62994924Y-91599030D01*
X62969537Y-91592903D01*
X62955650Y-91583301D01*
X62948423Y-91568897D01*
X62947932Y-91547837D01*
X62964345Y-91486679D01*
X63115612Y-91052122D01*
X63381902Y-91052122D01*
X63783047Y-91052122D01*
X63583061Y-90450014D01*
X63581986Y-90450014D01*
X63381902Y-91052122D01*
X63115612Y-91052122D01*
X63400563Y-90233518D01*
X63415803Y-90203524D01*
X63443745Y-90186037D01*
X63496696Y-90178416D01*
X63586382Y-90176755D01*
X63689062Y-90178416D01*
G37*
G36*
X65545601Y-91069805D02*
G01*
X65535611Y-91195396D01*
X65507304Y-91302324D01*
X65459635Y-91397682D01*
X65394757Y-91475932D01*
X65312984Y-91537631D01*
X65211086Y-91583985D01*
X65096983Y-91611329D01*
X64959809Y-91621110D01*
X64830514Y-91612393D01*
X64720353Y-91587795D01*
X64621338Y-91545232D01*
X64541079Y-91486874D01*
X64477066Y-91411690D01*
X64429118Y-91318151D01*
X64400589Y-91211921D01*
X64390332Y-91081822D01*
X64390332Y-90222575D01*
X64396878Y-90203036D01*
X64420325Y-90188772D01*
X64464680Y-90180077D01*
X64534631Y-90176755D01*
X64603507Y-90180077D01*
X64647276Y-90188772D01*
X64670723Y-90202938D01*
X64677855Y-90222575D01*
X64677855Y-91055346D01*
X64683384Y-91136172D01*
X64698567Y-91200915D01*
X64724425Y-91258107D01*
X64758162Y-91302813D01*
X64800602Y-91338012D01*
X64851072Y-91363385D01*
X64907250Y-91378299D01*
X64971826Y-91383511D01*
X65037324Y-91378115D01*
X65093165Y-91362799D01*
X65142898Y-91337125D01*
X65183828Y-91302324D01*
X65216366Y-91258612D01*
X65241274Y-91204236D01*
X65256205Y-91143486D01*
X65261498Y-91071759D01*
X65261498Y-90222575D01*
X65268043Y-90202938D01*
X65291002Y-90188772D01*
X65335259Y-90180077D01*
X65404624Y-90176755D01*
X65472914Y-90180077D01*
X65516096Y-90188772D01*
X65539055Y-90203036D01*
X65545601Y-90222575D01*
X65545601Y-91069805D01*
G37*
G36*
X66860702Y-91487753D02*
G01*
X66886396Y-91548912D01*
X66887494Y-91569747D01*
X66879265Y-91583790D01*
X66862915Y-91592907D01*
X66831686Y-91599030D01*
X66736138Y-91602352D01*
X66655245Y-91600105D01*
X66608839Y-91593071D01*
X66584219Y-91579491D01*
X66571128Y-91557607D01*
X66305489Y-91047823D01*
X66041023Y-91557607D01*
X66026759Y-91579491D01*
X66002140Y-91593071D01*
X65955147Y-91600105D01*
X65875915Y-91602352D01*
X65787987Y-91599030D01*
X65760050Y-91592915D01*
X65745880Y-91583790D01*
X65739438Y-91569973D01*
X65741484Y-91548912D01*
X65768839Y-91487753D01*
X66107653Y-90870991D01*
X65792872Y-90291354D01*
X65766103Y-90228633D01*
X65764062Y-90207208D01*
X65771574Y-90193657D01*
X65787370Y-90185076D01*
X65817981Y-90179491D01*
X65914212Y-90176755D01*
X65995594Y-90179003D01*
X66043172Y-90186037D01*
X66067792Y-90199714D01*
X66081470Y-90221501D01*
X66329523Y-90688688D01*
X66571128Y-90221501D01*
X66584805Y-90199714D01*
X66607764Y-90186037D01*
X66651435Y-90179003D01*
X66728518Y-90176755D01*
X66814784Y-90179491D01*
X66843421Y-90185188D01*
X66858553Y-90194243D01*
X66865903Y-90208189D01*
X66864512Y-90229219D01*
X66839990Y-90291354D01*
X66525210Y-90867767D01*
X66860702Y-91487753D01*
G37*
G36*
X68468895Y-91488340D02*
G01*
X68465573Y-91539533D01*
X68456292Y-91572945D01*
X68442614Y-91590726D01*
X68425126Y-91596100D01*
X67644722Y-91596100D01*
X67628309Y-91590726D01*
X67614631Y-91572945D01*
X67605350Y-91539533D01*
X67602126Y-91488340D01*
X67604861Y-91436072D01*
X67613556Y-91402073D01*
X67627234Y-91383217D01*
X67644722Y-91377258D01*
X67908211Y-91377258D01*
X67908211Y-90451871D01*
X67680870Y-90576923D01*
X67639837Y-90591675D01*
X67625305Y-90591315D01*
X67614729Y-90585130D01*
X67602126Y-90552987D01*
X67598902Y-90488702D01*
X67599976Y-90445618D01*
X67605447Y-90416797D01*
X67617464Y-90397160D01*
X67638274Y-90380747D01*
X67942112Y-90184669D01*
X67955789Y-90177635D01*
X67977087Y-90173238D01*
X68011477Y-90171089D01*
X68066676Y-90170503D01*
X68133891Y-90172164D01*
X68172677Y-90177635D01*
X68190165Y-90188088D01*
X68194561Y-90204501D01*
X68194561Y-91377258D01*
X68425224Y-91377258D01*
X68443200Y-91383217D01*
X68457366Y-91402073D01*
X68466159Y-91436072D01*
X68468895Y-91488340D01*
G37*
G36*
X64208225Y-92945367D02*
G01*
X64205489Y-92999784D01*
X64197771Y-93036225D01*
X64185754Y-93055276D01*
X64168853Y-93060649D01*
X64153147Y-93056894D01*
X64122935Y-93040915D01*
X64038818Y-92998123D01*
X63913668Y-92955332D01*
X63837792Y-92940852D01*
X63744750Y-92935597D01*
X63645497Y-92944769D01*
X63558930Y-92971159D01*
X63481657Y-93014192D01*
X63416878Y-93071689D01*
X63365219Y-93142309D01*
X63326117Y-93227907D01*
X63302641Y-93322274D01*
X63294463Y-93429554D01*
X63302974Y-93546578D01*
X63326703Y-93643217D01*
X63366146Y-93729374D01*
X63416878Y-93797872D01*
X63480444Y-93852330D01*
X63556194Y-93891857D01*
X63640590Y-93915365D01*
X63736054Y-93923511D01*
X63831114Y-93912471D01*
X63876714Y-93898578D01*
X63918553Y-93879351D01*
X63918553Y-93548354D01*
X63650765Y-93548354D01*
X63634004Y-93542725D01*
X63620186Y-93523636D01*
X63612568Y-93494417D01*
X63609244Y-93439519D01*
X63611979Y-93387837D01*
X63620186Y-93354327D01*
X63633277Y-93335569D01*
X63650765Y-93329512D01*
X64128504Y-93329512D01*
X64159669Y-93335569D01*
X64183703Y-93353741D01*
X64199530Y-93382757D01*
X64205001Y-93421640D01*
X64205001Y-93986721D01*
X64201983Y-94018188D01*
X64193472Y-94044264D01*
X64177055Y-94065485D01*
X64146480Y-94083245D01*
X64058553Y-94112848D01*
X63949816Y-94139128D01*
X63836096Y-94155639D01*
X63720814Y-94161110D01*
X63608657Y-94155374D01*
X63508004Y-94138882D01*
X63417464Y-94112457D01*
X63331558Y-94074512D01*
X63256355Y-94027517D01*
X63190709Y-93971382D01*
X63134199Y-93906053D01*
X63086854Y-93831326D01*
X63048560Y-93746093D01*
X63021867Y-93656237D01*
X63005211Y-93556305D01*
X62999418Y-93444892D01*
X63005580Y-93329871D01*
X63023337Y-93226263D01*
X63051881Y-93132652D01*
X63092376Y-93043816D01*
X63141879Y-92965836D01*
X63200479Y-92897593D01*
X63268427Y-92838569D01*
X63345522Y-92789226D01*
X63432803Y-92749386D01*
X63524861Y-92721336D01*
X63625540Y-92703987D01*
X63736054Y-92697998D01*
X63825786Y-92701403D01*
X63903312Y-92710991D01*
X64035008Y-92742548D01*
X64128406Y-92782603D01*
X64180381Y-92819826D01*
X64192697Y-92837784D01*
X64201679Y-92863301D01*
X64208225Y-92945367D01*
G37*
G36*
X65667136Y-94033518D02*
G01*
X65658343Y-94078263D01*
X65634896Y-94110991D01*
X65599921Y-94130140D01*
X65558888Y-94136100D01*
X65436473Y-94136100D01*
X65370332Y-94128577D01*
X65343768Y-94118085D01*
X65318944Y-94101222D01*
X65273612Y-94047390D01*
X65224373Y-93957900D01*
X64872468Y-93300496D01*
X64810137Y-93173880D01*
X64753375Y-93041892D01*
X64751128Y-93041892D01*
X64757673Y-93198109D01*
X64759921Y-93358626D01*
X64759921Y-94095555D01*
X64753863Y-94115192D01*
X64733151Y-94129847D01*
X64693193Y-94139030D01*
X64628713Y-94142352D01*
X64565308Y-94139030D01*
X64525936Y-94129847D01*
X64506299Y-94115095D01*
X64500828Y-94095360D01*
X64500828Y-92825590D01*
X64508860Y-92779386D01*
X64530821Y-92748702D01*
X64563857Y-92729598D01*
X64604680Y-92723008D01*
X64758846Y-92723008D01*
X64828699Y-92730140D01*
X64879502Y-92753587D01*
X64921609Y-92798919D01*
X64962154Y-92869847D01*
X65237562Y-93384320D01*
X65285043Y-93476253D01*
X65330472Y-93566525D01*
X65373068Y-93655234D01*
X65413514Y-93742185D01*
X65414589Y-93742185D01*
X65409704Y-93583134D01*
X65408043Y-93425060D01*
X65408043Y-92763650D01*
X65414589Y-92744013D01*
X65436473Y-92728772D01*
X65476920Y-92719491D01*
X65541400Y-92716755D01*
X65603731Y-92719491D01*
X65642516Y-92728772D01*
X65661665Y-92744111D01*
X65667136Y-92763748D01*
X65667136Y-94033518D01*
G37*
G36*
X66548946Y-92728481D02*
G01*
X66654973Y-92743731D01*
X66743856Y-92767265D01*
X66828518Y-92802183D01*
X66902053Y-92845858D01*
X66965727Y-92898277D01*
X67020445Y-92959932D01*
X67066129Y-93031090D01*
X67102893Y-93112917D01*
X67128268Y-93199281D01*
X67144268Y-93297358D01*
X67149886Y-93408842D01*
X67143671Y-93537903D01*
X67126238Y-93647846D01*
X67099083Y-93741305D01*
X67059253Y-93829670D01*
X67010591Y-93904310D01*
X66953124Y-93966888D01*
X66886198Y-94019292D01*
X66809576Y-94062055D01*
X66721972Y-94095164D01*
X66630370Y-94117023D01*
X66523103Y-94131088D01*
X66397911Y-94136100D01*
X66060172Y-94136100D01*
X66026500Y-94130632D01*
X65999404Y-94114802D01*
X65981676Y-94088620D01*
X65974882Y-94045437D01*
X65974882Y-93911005D01*
X66261330Y-93911005D01*
X66411100Y-93911005D01*
X66523849Y-93902724D01*
X66609914Y-93880426D01*
X66684540Y-93841666D01*
X66744931Y-93787907D01*
X66791450Y-93720016D01*
X66825824Y-93634229D01*
X66845463Y-93538073D01*
X66852593Y-93419686D01*
X66846537Y-93321257D01*
X66829048Y-93232596D01*
X66798058Y-93151085D01*
X66753626Y-93082729D01*
X66695010Y-93026704D01*
X66620269Y-92983664D01*
X66531755Y-92957950D01*
X66406703Y-92948102D01*
X66261330Y-92948102D01*
X66261330Y-93911005D01*
X65974882Y-93911005D01*
X65974882Y-92813671D01*
X65981676Y-92770487D01*
X65999404Y-92744306D01*
X66026500Y-92728476D01*
X66060172Y-92723008D01*
X66423019Y-92723008D01*
X66548946Y-92728481D01*
G37*
D11*
G36*
X95974464Y-120112672D02*
G01*
X96170700Y-120128281D01*
X96337776Y-120172511D01*
X96486772Y-120246993D01*
X96609038Y-120348366D01*
X96705442Y-120476135D01*
X96777871Y-120635351D01*
X96820596Y-120813637D01*
X96835878Y-121027972D01*
X96822259Y-121229995D01*
X96783824Y-121402121D01*
X96717319Y-121556833D01*
X96626135Y-121682237D01*
X96508659Y-121782258D01*
X96362505Y-121857176D01*
X96196520Y-121901752D01*
X95993241Y-121917779D01*
X94650668Y-121917779D01*
X94620138Y-121907551D01*
X94597851Y-121870915D01*
X94584265Y-121801611D01*
X94579074Y-121692312D01*
X94584265Y-121584693D01*
X94597851Y-121516305D01*
X94619985Y-121479668D01*
X94650668Y-121468525D01*
X95951872Y-121468525D01*
X96078163Y-121459885D01*
X96179323Y-121436162D01*
X96268687Y-121395759D01*
X96338539Y-121343045D01*
X96393538Y-121276732D01*
X96433183Y-121197873D01*
X96456486Y-121110095D01*
X96464629Y-121009195D01*
X96456198Y-120906855D01*
X96432267Y-120819602D01*
X96392152Y-120741895D01*
X96337776Y-120677941D01*
X96269476Y-120627101D01*
X96184513Y-120588182D01*
X96089591Y-120564853D01*
X95977517Y-120556583D01*
X94650668Y-120556583D01*
X94619985Y-120546355D01*
X94597851Y-120510482D01*
X94584265Y-120441331D01*
X94579074Y-120332948D01*
X94584265Y-120226244D01*
X94597851Y-120158772D01*
X94620138Y-120122899D01*
X94650668Y-120112672D01*
X95974464Y-120112672D01*
G37*
G36*
X96134749Y-118322524D02*
G01*
X96301400Y-118339448D01*
X96440205Y-118387401D01*
X96561086Y-118464194D01*
X96659413Y-118563409D01*
X96735609Y-118682325D01*
X96791609Y-118822917D01*
X96824574Y-118974905D01*
X96835878Y-119140585D01*
X96831180Y-119252740D01*
X96817713Y-119353229D01*
X96774360Y-119526489D01*
X96720932Y-119651968D01*
X96671625Y-119724631D01*
X96646473Y-119742903D01*
X96608275Y-119756230D01*
X96487222Y-119765541D01*
X96398073Y-119762183D01*
X96339760Y-119751039D01*
X96308009Y-119730584D01*
X96298544Y-119700664D01*
X96304084Y-119675202D01*
X96326021Y-119633192D01*
X96386472Y-119521451D01*
X96447074Y-119358266D01*
X96467146Y-119259322D01*
X96474399Y-119138753D01*
X96469274Y-119059273D01*
X96454860Y-118991902D01*
X96430561Y-118930841D01*
X96399294Y-118881840D01*
X96359197Y-118841893D01*
X96310604Y-118812689D01*
X96255452Y-118794877D01*
X96192756Y-118788723D01*
X96122142Y-118799262D01*
X96063918Y-118829786D01*
X96014015Y-118875967D01*
X95968358Y-118936490D01*
X95889895Y-119085936D01*
X95812348Y-119258432D01*
X95719383Y-119430929D01*
X95662168Y-119510173D01*
X95594819Y-119580375D01*
X95516658Y-119639278D01*
X95423391Y-119687078D01*
X95318404Y-119717084D01*
X95186171Y-119727989D01*
X95034090Y-119712621D01*
X94907276Y-119669065D01*
X94796617Y-119599439D01*
X94707607Y-119510308D01*
X94639003Y-119402853D01*
X94588997Y-119274613D01*
X94559744Y-119135995D01*
X94549765Y-118986865D01*
X94561519Y-118829786D01*
X94593118Y-118682935D01*
X94638151Y-118561577D01*
X94679672Y-118491662D01*
X94708371Y-118468612D01*
X94740122Y-118458232D01*
X94789887Y-118452278D01*
X94864381Y-118450599D01*
X94948492Y-118453194D01*
X95005126Y-118461743D01*
X95037793Y-118478840D01*
X95048021Y-118508607D01*
X95024818Y-118568446D01*
X94973985Y-118669196D01*
X94924067Y-118807651D01*
X94907322Y-118888467D01*
X94901475Y-118979995D01*
X94906227Y-119050748D01*
X94919335Y-119108070D01*
X94940973Y-119159246D01*
X94968336Y-119199509D01*
X95002862Y-119231536D01*
X95043594Y-119254158D01*
X95136711Y-119272018D01*
X95205937Y-119261751D01*
X95263870Y-119231871D01*
X95313618Y-119186024D01*
X95359430Y-119124251D01*
X95437893Y-118971447D01*
X95515440Y-118797271D01*
X95608405Y-118623095D01*
X95665689Y-118542317D01*
X95732969Y-118471207D01*
X95811098Y-118411448D01*
X95903634Y-118363587D01*
X96007108Y-118333387D01*
X96134749Y-118322524D01*
G37*
G36*
X96249259Y-116387100D02*
G01*
X96348309Y-116411171D01*
X96439031Y-116450185D01*
X96517141Y-116500778D01*
X96585141Y-116563342D01*
X96643384Y-116637401D01*
X96691209Y-116720185D01*
X96730396Y-116812493D01*
X96759729Y-116910311D01*
X96780618Y-117016588D01*
X96792542Y-117128069D01*
X96796800Y-117258236D01*
X96796800Y-117845640D01*
X96788256Y-117898252D01*
X96763521Y-117940589D01*
X96722613Y-117968290D01*
X96655139Y-117978905D01*
X94730505Y-117978905D01*
X94663030Y-117968290D01*
X94622122Y-117940589D01*
X94597388Y-117898252D01*
X94588844Y-117845640D01*
X94588844Y-117311053D01*
X94921014Y-117311053D01*
X94921014Y-117538199D01*
X95497428Y-117538199D01*
X95497428Y-117287240D01*
X95496346Y-117271822D01*
X95829598Y-117271822D01*
X95829598Y-117538199D01*
X96454860Y-117538199D01*
X96454860Y-117213662D01*
X96449527Y-117123738D01*
X96435320Y-117055820D01*
X96410758Y-116995314D01*
X96377618Y-116944842D01*
X96334845Y-116903131D01*
X96282363Y-116871416D01*
X96222624Y-116851745D01*
X96152456Y-116844855D01*
X96078708Y-116851515D01*
X96015680Y-116870500D01*
X95960131Y-116902201D01*
X95914625Y-116945605D01*
X95879330Y-117000171D01*
X95851732Y-117072001D01*
X95835782Y-117154677D01*
X95829598Y-117271822D01*
X95496346Y-117271822D01*
X95490965Y-117195143D01*
X95474377Y-117131840D01*
X95446434Y-117077935D01*
X95410874Y-117035364D01*
X95367166Y-117001904D01*
X95316383Y-116978120D01*
X95202352Y-116959344D01*
X95137721Y-116964665D01*
X95082367Y-116979799D01*
X95033336Y-117005614D01*
X94993982Y-117041318D01*
X94963483Y-117086390D01*
X94939943Y-117144663D01*
X94926353Y-117212275D01*
X94921014Y-117311053D01*
X94588844Y-117311053D01*
X94588844Y-117290598D01*
X94598174Y-117095329D01*
X94623038Y-116946521D01*
X94667165Y-116813739D01*
X94726231Y-116709147D01*
X94804687Y-116623800D01*
X94901322Y-116561381D01*
X95013412Y-116523564D01*
X95150603Y-116510090D01*
X95229313Y-116515349D01*
X95301728Y-116530698D01*
X95369753Y-116556033D01*
X95430566Y-116590384D01*
X95484967Y-116633921D01*
X95532995Y-116686860D01*
X95572801Y-116747529D01*
X95604742Y-116817530D01*
X95628420Y-116726671D01*
X95664429Y-116644270D01*
X95713286Y-116569832D01*
X95774491Y-116505815D01*
X95846839Y-116453545D01*
X95932180Y-116412850D01*
X96026162Y-116387532D01*
X96135054Y-116378656D01*
X96249259Y-116387100D01*
G37*
D10*
G36*
X63977660Y-85887712D02*
G01*
X63974338Y-85939686D01*
X63964568Y-85973392D01*
X63949230Y-85991661D01*
X63930667Y-85997132D01*
X63590681Y-85997132D01*
X63590681Y-86369847D01*
X63585210Y-86389191D01*
X63566648Y-86403455D01*
X63531672Y-86412736D01*
X63477059Y-86416058D01*
X63422349Y-86412736D01*
X63387373Y-86403455D01*
X63368225Y-86389191D01*
X63362265Y-86369847D01*
X63362265Y-85997132D01*
X63023452Y-85997132D01*
X63005378Y-85991661D01*
X62990625Y-85973392D01*
X62980269Y-85939686D01*
X62976459Y-85887712D01*
X62979683Y-85836323D01*
X62988964Y-85802031D01*
X63002642Y-85783859D01*
X63020130Y-85778291D01*
X63362265Y-85778291D01*
X63362265Y-85407628D01*
X63368225Y-85387404D01*
X63387373Y-85371968D01*
X63422349Y-85362687D01*
X63477059Y-85359365D01*
X63531672Y-85362687D01*
X63566648Y-85371968D01*
X63585210Y-85387404D01*
X63590681Y-85407628D01*
X63590681Y-85778291D01*
X63933891Y-85778291D01*
X63950890Y-85783859D01*
X63965057Y-85802031D01*
X63974338Y-85836323D01*
X63977660Y-85887712D01*
G37*
G36*
X65072454Y-86099812D02*
G01*
X65061964Y-86202017D01*
X65032007Y-86288661D01*
X64983599Y-86364380D01*
X64919362Y-86426902D01*
X64841615Y-86475443D01*
X64746731Y-86511996D01*
X64643323Y-86533596D01*
X64527108Y-86541110D01*
X64391505Y-86530266D01*
X64279446Y-86503594D01*
X64199139Y-86470670D01*
X64157618Y-86444878D01*
X64142865Y-86425241D01*
X64134170Y-86399645D01*
X64128699Y-86362617D01*
X64127038Y-86308591D01*
X64129729Y-86260385D01*
X64135733Y-86236197D01*
X64147137Y-86220701D01*
X64162014Y-86215974D01*
X64199725Y-86230922D01*
X64268015Y-86262869D01*
X64365224Y-86294913D01*
X64423135Y-86305848D01*
X64492133Y-86309763D01*
X64550198Y-86306015D01*
X64598134Y-86295597D01*
X64641380Y-86278092D01*
X64676292Y-86255639D01*
X64704529Y-86227006D01*
X64724359Y-86193210D01*
X64736117Y-86155023D01*
X64740186Y-86111633D01*
X64735259Y-86064218D01*
X64721037Y-86023022D01*
X64697479Y-85986733D01*
X64664177Y-85955709D01*
X64623050Y-85931581D01*
X64569118Y-85912429D01*
X64509079Y-85901199D01*
X64434198Y-85897090D01*
X64311784Y-85897090D01*
X64287750Y-85893280D01*
X64271337Y-85877258D01*
X64262056Y-85843650D01*
X64259320Y-85788060D01*
X64262056Y-85735792D01*
X64270751Y-85704334D01*
X64286089Y-85688898D01*
X64308462Y-85684501D01*
X64431951Y-85684501D01*
X64493338Y-85680711D01*
X64544498Y-85670140D01*
X64590711Y-85652149D01*
X64627052Y-85629009D01*
X64656483Y-85599363D01*
X64677855Y-85564334D01*
X64690868Y-85524818D01*
X64695343Y-85480314D01*
X64683326Y-85413587D01*
X64668370Y-85384093D01*
X64647764Y-85359072D01*
X64621583Y-85338935D01*
X64587094Y-85322729D01*
X64548035Y-85312903D01*
X64499655Y-85309344D01*
X64444054Y-85313542D01*
X64392579Y-85325855D01*
X64302405Y-85362003D01*
X64234603Y-85398640D01*
X64193668Y-85415639D01*
X64178329Y-85411829D01*
X64167387Y-85396979D01*
X64160842Y-85365032D01*
X64158692Y-85311005D01*
X64159767Y-85265283D01*
X64164163Y-85234997D01*
X64172370Y-85214090D01*
X64188197Y-85194746D01*
X64233040Y-85163873D01*
X64318232Y-85124208D01*
X64436836Y-85091480D01*
X64505645Y-85081488D01*
X64582796Y-85077998D01*
X64682218Y-85084320D01*
X64764805Y-85101933D01*
X64839084Y-85131772D01*
X64898064Y-85170810D01*
X64945555Y-85220916D01*
X64980032Y-85281501D01*
X65000735Y-85350025D01*
X65007974Y-85429610D01*
X65003765Y-85492287D01*
X64991560Y-85549093D01*
X64971128Y-85601839D01*
X64943493Y-85647767D01*
X64908099Y-85687673D01*
X64864261Y-85721529D01*
X64813948Y-85747760D01*
X64754449Y-85767153D01*
X64754449Y-85770475D01*
X64826026Y-85784652D01*
X64887806Y-85808381D01*
X64942849Y-85841538D01*
X64987750Y-85881361D01*
X65024000Y-85928179D01*
X65050569Y-85980719D01*
X65066893Y-86037703D01*
X65072454Y-86099812D01*
G37*
G36*
X65630207Y-86357049D02*
G01*
X65625118Y-86424384D01*
X65612406Y-86467467D01*
X65594645Y-86493629D01*
X65568437Y-86511399D01*
X65527876Y-86523764D01*
X65467345Y-86528605D01*
X65406751Y-86523821D01*
X65366395Y-86511642D01*
X65340535Y-86494215D01*
X65322945Y-86468507D01*
X65310499Y-86427147D01*
X65305559Y-86363594D01*
X65310665Y-86295501D01*
X65323392Y-86252123D01*
X65341121Y-86225939D01*
X65367407Y-86208200D01*
X65408309Y-86195821D01*
X65469593Y-86190963D01*
X65529355Y-86195739D01*
X65569383Y-86207932D01*
X65595231Y-86225451D01*
X65612783Y-86251122D01*
X65625246Y-86292740D01*
X65630207Y-86357049D01*
G37*
G36*
X66804429Y-86099812D02*
G01*
X66793939Y-86202017D01*
X66763982Y-86288661D01*
X66715574Y-86364380D01*
X66651337Y-86426902D01*
X66573590Y-86475443D01*
X66478706Y-86511996D01*
X66375298Y-86533596D01*
X66259083Y-86541110D01*
X66123479Y-86530266D01*
X66011421Y-86503594D01*
X65931114Y-86470670D01*
X65889593Y-86444878D01*
X65874840Y-86425241D01*
X65866145Y-86399645D01*
X65860674Y-86362617D01*
X65859013Y-86308591D01*
X65861704Y-86260385D01*
X65867708Y-86236197D01*
X65879112Y-86220701D01*
X65893989Y-86215974D01*
X65931700Y-86230922D01*
X65999990Y-86262869D01*
X66097199Y-86294913D01*
X66155109Y-86305848D01*
X66224108Y-86309763D01*
X66282173Y-86306015D01*
X66330109Y-86295597D01*
X66373355Y-86278092D01*
X66408267Y-86255639D01*
X66436503Y-86227006D01*
X66456334Y-86193210D01*
X66468092Y-86155023D01*
X66472161Y-86111633D01*
X66467233Y-86064218D01*
X66453012Y-86023022D01*
X66429454Y-85986733D01*
X66396152Y-85955709D01*
X66355025Y-85931581D01*
X66301093Y-85912429D01*
X66241054Y-85901199D01*
X66166173Y-85897090D01*
X66043759Y-85897090D01*
X66019725Y-85893280D01*
X66003312Y-85877258D01*
X65994031Y-85843650D01*
X65991295Y-85788060D01*
X65994031Y-85735792D01*
X66002726Y-85704334D01*
X66018064Y-85688898D01*
X66040437Y-85684501D01*
X66163926Y-85684501D01*
X66225313Y-85680711D01*
X66276473Y-85670140D01*
X66322686Y-85652149D01*
X66359027Y-85629009D01*
X66388458Y-85599363D01*
X66409830Y-85564334D01*
X66422843Y-85524818D01*
X66427318Y-85480314D01*
X66415301Y-85413587D01*
X66400345Y-85384093D01*
X66379739Y-85359072D01*
X66353558Y-85338935D01*
X66319069Y-85322729D01*
X66280010Y-85312903D01*
X66231630Y-85309344D01*
X66176029Y-85313542D01*
X66124554Y-85325855D01*
X66034380Y-85362003D01*
X65966578Y-85398640D01*
X65925643Y-85415639D01*
X65910304Y-85411829D01*
X65899362Y-85396979D01*
X65892817Y-85365032D01*
X65890667Y-85311005D01*
X65891742Y-85265283D01*
X65896138Y-85234997D01*
X65904345Y-85214090D01*
X65920172Y-85194746D01*
X65965015Y-85163873D01*
X66050207Y-85124208D01*
X66168811Y-85091480D01*
X66237619Y-85081488D01*
X66314770Y-85077998D01*
X66414193Y-85084320D01*
X66496780Y-85101933D01*
X66571059Y-85131772D01*
X66630039Y-85170810D01*
X66677529Y-85220916D01*
X66712007Y-85281501D01*
X66732710Y-85350025D01*
X66739948Y-85429610D01*
X66735740Y-85492287D01*
X66723535Y-85549093D01*
X66703103Y-85601839D01*
X66675468Y-85647767D01*
X66640073Y-85687673D01*
X66596236Y-85721529D01*
X66545922Y-85747760D01*
X66486424Y-85767153D01*
X66486424Y-85770475D01*
X66558001Y-85784652D01*
X66619781Y-85808381D01*
X66674824Y-85841538D01*
X66719725Y-85881361D01*
X66755975Y-85928179D01*
X66782544Y-85980719D01*
X66798868Y-86037703D01*
X66804429Y-86099812D01*
G37*
G36*
X67758930Y-86465590D02*
G01*
X67744666Y-86495681D01*
X67716236Y-86513071D01*
X67662698Y-86520691D01*
X67574282Y-86522352D01*
X67499348Y-86521766D01*
X67446396Y-86519030D01*
X67410835Y-86512582D01*
X67387876Y-86501640D01*
X67373710Y-86485813D01*
X67364429Y-86462268D01*
X66943549Y-85210280D01*
X66927722Y-85148046D01*
X66929290Y-85127362D01*
X66938664Y-85113657D01*
X66955237Y-85104995D01*
X66985071Y-85099491D01*
X67076906Y-85096755D01*
X67155650Y-85099003D01*
X67199320Y-85106623D01*
X67220618Y-85122938D01*
X67232147Y-85150196D01*
X67576431Y-86239617D01*
X67577506Y-86239617D01*
X67915245Y-85155667D01*
X67926187Y-85125674D01*
X67948560Y-85107698D01*
X67993989Y-85099003D01*
X68074882Y-85096755D01*
X68152942Y-85100077D01*
X68177870Y-85106240D01*
X68191239Y-85115904D01*
X68197888Y-85130173D01*
X68197785Y-85151368D01*
X68180884Y-85212429D01*
X67758930Y-86465590D01*
G37*
M02*
