%TF.GenerationSoftware,KiCad,Pcbnew,9.0.5-9.0.5~ubuntu24.04.1*%
%TF.CreationDate,2025-10-22T14:00:19+02:00*%
%TF.ProjectId,misrc_v2.5_back_panel,6d697372-635f-4763-922e-355f6261636b,rev?*%
%TF.SameCoordinates,Original*%
%TF.FileFunction,Profile,NP*%
%FSLAX46Y46*%
G04 Gerber Fmt 4.6, Leading zero omitted, Abs format (unit mm)*
G04 Created by KiCad (PCBNEW 9.0.5-9.0.5~ubuntu24.04.1) date 2025-10-22 14:00:19*
%MOMM*%
%LPD*%
G01*
G04 APERTURE LIST*
%TA.AperFunction,Profile*%
%ADD10C,0.050000*%
%TD*%
G04 APERTURE END LIST*
D10*
X86500000Y-96142100D02*
X91000000Y-96142100D01*
X86000000Y-95017100D02*
X86500000Y-96142100D01*
X103000000Y-53000000D02*
X53000000Y-53000000D01*
X88100000Y-114657600D02*
G75*
G02*
X89600000Y-116157597I0J-1500000D01*
G01*
X86200000Y-116157600D02*
G75*
G02*
X87700000Y-114657600I1500000J0D01*
G01*
X87700000Y-123757600D02*
G75*
G02*
X86200000Y-122257600I0J1500000D01*
G01*
X89600000Y-116157600D02*
X89600000Y-122257600D01*
X91000000Y-80642100D02*
X91000000Y-96142100D01*
X89600000Y-122257600D02*
G75*
G02*
X88100000Y-123757600I-1500000J0D01*
G01*
X84800000Y-82992100D02*
X86000000Y-81767100D01*
X50000000Y-56000000D02*
X50000000Y-143000000D01*
X87700000Y-123757600D02*
X88100000Y-123757600D01*
X106000000Y-143000000D02*
X106000000Y-56000000D01*
X58450000Y-81792100D02*
X61150000Y-81792100D01*
X61150000Y-94992100D01*
X58450000Y-94992100D01*
X58450000Y-81792100D01*
X89544200Y-111082600D02*
G75*
G02*
X86344200Y-111082600I-1600000J0D01*
G01*
X86344200Y-111082600D02*
G75*
G02*
X89544200Y-111082600I1600000J0D01*
G01*
X84800000Y-82992100D02*
X84800000Y-93792100D01*
X89468000Y-127332600D02*
G75*
G02*
X86268000Y-127332600I-1600000J0D01*
G01*
X86268000Y-127332600D02*
G75*
G02*
X89468000Y-127332600I1600000J0D01*
G01*
X50000000Y-56000000D02*
G75*
G02*
X53000000Y-53000000I3000000J0D01*
G01*
X103000000Y-53000000D02*
G75*
G02*
X106000000Y-56000000I0J-3000000D01*
G01*
X106000000Y-143000000D02*
G75*
G02*
X103000000Y-146000000I-3000000J0D01*
G01*
X86500000Y-80642100D02*
X91000000Y-80642100D01*
X86000000Y-81767100D02*
X86500000Y-80642100D01*
X84800000Y-93792100D02*
X86000000Y-95017100D01*
X53000000Y-146000000D02*
G75*
G02*
X50000000Y-143000000I0J3000000D01*
G01*
X86200000Y-116157600D02*
X86200000Y-122257600D01*
X87700000Y-114657600D02*
X88100000Y-114657600D01*
X53000000Y-146000000D02*
X103000000Y-146000000D01*
M02*
