M48
; DRILL file {KiCad 9.0.5-9.0.5~ubuntu24.04.1} date 2025-10-22T14:02:40+0200
; FORMAT={-:-/ absolute / inch / decimal}
; #@! TF.CreationDate,2025-10-22T14:02:40+02:00
; #@! TF.GenerationSoftware,Kicad,Pcbnew,9.0.5-9.0.5~ubuntu24.04.1
; #@! TF.FileFunction,Plated,1,2,PTH
FMAT,2
INCH
; #@! TA.AperFunction,Plated,PTH,ViaDrill
T1C0.0118
%
G90
G05
T1
X2.288Y-5.428
X2.308Y-2.408
X2.424Y-2.4263
X2.44Y-5.408
X2.596Y-2.402
X2.62Y-5.432
X2.736Y-2.4243
X2.878Y-5.41
X3.002Y-2.404
X3.118Y-5.432
X3.21Y-2.4263
X3.372Y-5.4058
X3.442Y-2.402
X3.6Y-5.43
X3.718Y-2.4283
X3.828Y-5.4058
X3.926Y-2.402
X4.028Y-5.432
X4.104Y-2.4283
X4.196Y-5.4058
X4.396Y-2.404
X4.444Y-5.426
X4.51Y-2.4243
X4.698Y-5.41
X4.712Y-2.41
X4.878Y-2.4283
X4.904Y-5.434
X5.088Y-2.402
X5.122Y-5.4058
X5.25Y-2.4303
X5.288Y-5.432
X5.472Y-2.4
X5.504Y-5.4058
X5.664Y-5.424
X5.68Y-2.4243
X5.866Y-5.4018
X5.932Y-2.408
X5.98Y-5.43
X6.18Y-2.4303
X6.264Y-5.4058
X6.348Y-2.402
X6.45Y-5.432
X6.538Y-2.4283
X6.668Y-5.4138
X6.776Y-2.404
X6.934Y-5.432
X7.008Y-2.4263
X7.166Y-5.4118
X7.258Y-2.402
X7.374Y-5.43
X7.486Y-2.4263
X7.622Y-5.4078
X7.756Y-2.402
X7.78Y-5.432
X7.93Y-2.4243
X7.952Y-5.4138
X8.068Y-5.426
X8.088Y-2.406
M30
