%TF.GenerationSoftware,KiCad,Pcbnew,9.0.5-9.0.5~ubuntu24.04.1*%
%TF.CreationDate,2025-10-22T14:00:52+02:00*%
%TF.ProjectId,misrc_v2.5_front_panel,6d697372-635f-4763-922e-355f66726f6e,rev?*%
%TF.SameCoordinates,Original*%
%TF.FileFunction,Copper,L2,Bot*%
%TF.FilePolarity,Positive*%
%FSLAX46Y46*%
G04 Gerber Fmt 4.6, Leading zero omitted, Abs format (unit mm)*
G04 Created by KiCad (PCBNEW 9.0.5-9.0.5~ubuntu24.04.1) date 2025-10-22 14:00:52*
%MOMM*%
%LPD*%
G01*
G04 APERTURE LIST*
%TA.AperFunction,ComponentPad*%
%ADD10C,5.700000*%
%TD*%
G04 APERTURE END LIST*
D10*
%TO.P,H2,1,1*%
%TO.N,GND*%
X54000000Y-142000000D03*
%TD*%
%TO.P,H1,1,1*%
%TO.N,GND*%
X54000000Y-57000000D03*
%TD*%
%TO.P,H4,1,1*%
%TO.N,GND*%
X102000000Y-57000000D03*
%TD*%
%TO.P,H3,1,1*%
%TO.N,GND*%
X102000000Y-142000000D03*
%TD*%
%TA.AperFunction,Conductor*%
%TO.N,GND*%
G36*
X103001785Y-53500608D02*
G01*
X103297711Y-53518508D01*
X103304784Y-53519366D01*
X103594664Y-53572488D01*
X103601576Y-53574193D01*
X103882933Y-53661868D01*
X103889594Y-53664394D01*
X104158319Y-53785337D01*
X104164628Y-53788648D01*
X104416824Y-53941106D01*
X104422687Y-53945153D01*
X104654667Y-54126897D01*
X104660000Y-54131622D01*
X104868377Y-54339999D01*
X104873102Y-54345332D01*
X105054846Y-54577312D01*
X105058893Y-54583175D01*
X105211351Y-54835371D01*
X105214662Y-54841680D01*
X105335605Y-55110405D01*
X105338131Y-55117066D01*
X105425806Y-55398423D01*
X105427512Y-55405341D01*
X105480633Y-55695215D01*
X105481491Y-55702288D01*
X105499392Y-55998214D01*
X105499500Y-56001776D01*
X105499500Y-142998223D01*
X105499392Y-143001785D01*
X105481491Y-143297711D01*
X105480633Y-143304784D01*
X105427512Y-143594658D01*
X105425806Y-143601576D01*
X105338131Y-143882933D01*
X105335605Y-143889594D01*
X105214662Y-144158319D01*
X105211351Y-144164628D01*
X105058893Y-144416824D01*
X105054846Y-144422687D01*
X104873102Y-144654667D01*
X104868377Y-144660000D01*
X104660000Y-144868377D01*
X104654667Y-144873102D01*
X104422687Y-145054846D01*
X104416824Y-145058893D01*
X104164628Y-145211351D01*
X104158319Y-145214662D01*
X103889594Y-145335605D01*
X103882933Y-145338131D01*
X103601576Y-145425806D01*
X103594658Y-145427512D01*
X103304784Y-145480633D01*
X103297711Y-145481491D01*
X103001785Y-145499392D01*
X102998223Y-145499500D01*
X53001777Y-145499500D01*
X52998215Y-145499392D01*
X52702288Y-145481491D01*
X52695215Y-145480633D01*
X52405341Y-145427512D01*
X52398423Y-145425806D01*
X52117066Y-145338131D01*
X52110405Y-145335605D01*
X51841680Y-145214662D01*
X51835371Y-145211351D01*
X51583175Y-145058893D01*
X51577312Y-145054846D01*
X51345332Y-144873102D01*
X51339999Y-144868377D01*
X51131622Y-144660000D01*
X51126897Y-144654667D01*
X50945153Y-144422687D01*
X50941106Y-144416824D01*
X50788648Y-144164628D01*
X50785337Y-144158319D01*
X50664394Y-143889594D01*
X50661868Y-143882933D01*
X50574193Y-143601576D01*
X50572487Y-143594658D01*
X50519366Y-143304784D01*
X50518508Y-143297711D01*
X50500608Y-143001785D01*
X50500500Y-142998223D01*
X50500500Y-128530727D01*
X85249485Y-128530727D01*
X85249500Y-128600308D01*
X85249500Y-128666095D01*
X85249511Y-128666186D01*
X85249513Y-128666196D01*
X85249514Y-128666200D01*
X85266579Y-128729833D01*
X85266578Y-128729833D01*
X85266787Y-128730610D01*
X85283608Y-128793386D01*
X85283635Y-128793434D01*
X85283650Y-128793487D01*
X85283740Y-128793644D01*
X85283741Y-128793645D01*
X85316565Y-128850469D01*
X85316568Y-128850482D01*
X85316571Y-128850481D01*
X85349386Y-128907316D01*
X85349500Y-128907514D01*
X85349503Y-128907517D01*
X85349547Y-128907575D01*
X85349563Y-128907596D01*
X85349566Y-128907600D01*
X85396169Y-128954183D01*
X85442686Y-129000700D01*
X85442688Y-129000701D01*
X85442770Y-129000764D01*
X85442772Y-129000766D01*
X85499905Y-129033735D01*
X85556814Y-129066592D01*
X85556866Y-129066606D01*
X85556915Y-129066634D01*
X85620551Y-129083669D01*
X85620561Y-129083677D01*
X85620563Y-129083673D01*
X85684108Y-129100700D01*
X85684164Y-129100700D01*
X85684216Y-129100714D01*
X85749275Y-129100700D01*
X85815892Y-129100700D01*
X85819839Y-129100700D01*
X85820066Y-129100684D01*
X86253299Y-129100591D01*
X86295022Y-129117863D01*
X86309435Y-129141392D01*
X86378063Y-129353038D01*
X86378066Y-129353044D01*
X86378068Y-129353050D01*
X86479568Y-129594885D01*
X86550047Y-129762810D01*
X86755717Y-130156717D01*
X86755730Y-130156740D01*
X86993660Y-130532051D01*
X87262180Y-130886134D01*
X87559398Y-131216493D01*
X87883235Y-131520814D01*
X88231403Y-131796950D01*
X88473992Y-131958223D01*
X88601476Y-132042974D01*
X88990842Y-132257151D01*
X88990858Y-132257158D01*
X89396753Y-132437971D01*
X89396763Y-132437975D01*
X89396772Y-132437979D01*
X89816416Y-132584189D01*
X90246827Y-132694754D01*
X90684982Y-132768899D01*
X91127807Y-132806102D01*
X91127816Y-132806102D01*
X91572184Y-132806102D01*
X91572193Y-132806102D01*
X92015018Y-132768899D01*
X92453173Y-132694754D01*
X92883584Y-132584189D01*
X93303228Y-132437979D01*
X93709158Y-132257151D01*
X94098524Y-132042974D01*
X94468593Y-131796952D01*
X94816767Y-131520812D01*
X95140601Y-131216494D01*
X95437821Y-130886133D01*
X95706341Y-130532050D01*
X95944276Y-130156730D01*
X96149954Y-129762808D01*
X96321932Y-129353050D01*
X96358911Y-129239009D01*
X96390594Y-129141302D01*
X96419900Y-129106947D01*
X96446717Y-129100500D01*
X97015892Y-129100500D01*
X97143186Y-129066392D01*
X97257314Y-129000500D01*
X97257314Y-129000499D01*
X97257316Y-129000499D01*
X97350499Y-128907316D01*
X97350500Y-128907314D01*
X97416392Y-128793186D01*
X97450500Y-128665892D01*
X97450500Y-126534106D01*
X98449500Y-126534106D01*
X98449500Y-128465893D01*
X98483607Y-128593185D01*
X98483609Y-128593188D01*
X98549499Y-128707313D01*
X98549501Y-128707316D01*
X98642684Y-128800499D01*
X98642686Y-128800500D01*
X98756814Y-128866392D01*
X98884108Y-128900500D01*
X100015892Y-128900500D01*
X100143186Y-128866392D01*
X100257314Y-128800500D01*
X100257314Y-128800499D01*
X100257316Y-128800499D01*
X100350499Y-128707316D01*
X100350500Y-128707314D01*
X100416392Y-128593186D01*
X100450500Y-128465892D01*
X100450500Y-126534108D01*
X100416392Y-126406814D01*
X100350500Y-126292686D01*
X100350499Y-126292684D01*
X100257316Y-126199501D01*
X100257313Y-126199499D01*
X100143188Y-126133609D01*
X100143185Y-126133607D01*
X100015893Y-126099500D01*
X100015892Y-126099500D01*
X99015892Y-126099500D01*
X98884108Y-126099500D01*
X98884106Y-126099500D01*
X98756814Y-126133607D01*
X98756811Y-126133609D01*
X98642686Y-126199499D01*
X98549499Y-126292686D01*
X98483609Y-126406811D01*
X98483607Y-126406814D01*
X98449500Y-126534106D01*
X97450500Y-126534106D01*
X97450500Y-126334108D01*
X97416392Y-126206814D01*
X97350500Y-126092686D01*
X97350499Y-126092684D01*
X97257316Y-125999501D01*
X97257313Y-125999499D01*
X97143188Y-125933609D01*
X97143185Y-125933607D01*
X97015893Y-125899500D01*
X97015892Y-125899500D01*
X96446112Y-125899500D01*
X96404393Y-125882219D01*
X96390015Y-125858777D01*
X96321019Y-125646996D01*
X96148648Y-125237782D01*
X95942660Y-124844416D01*
X95942651Y-124844402D01*
X95942645Y-124844391D01*
X95704507Y-124469668D01*
X95704498Y-124469654D01*
X95435832Y-124116122D01*
X95138535Y-123786288D01*
X95038430Y-123692372D01*
X94814708Y-123482482D01*
X94602795Y-123314666D01*
X94466607Y-123206817D01*
X94096680Y-122961234D01*
X94096668Y-122961226D01*
X94096658Y-122961220D01*
X94096654Y-122961218D01*
X93707506Y-122747441D01*
X93707485Y-122747431D01*
X93301810Y-122566939D01*
X93301790Y-122566931D01*
X92882430Y-122420994D01*
X92882429Y-122420993D01*
X92882427Y-122420993D01*
X92452324Y-122310633D01*
X92340520Y-122291734D01*
X92014496Y-122236626D01*
X91572037Y-122199495D01*
X91572018Y-122199495D01*
X91127982Y-122199495D01*
X91127962Y-122199495D01*
X90685503Y-122236626D01*
X90247676Y-122310633D01*
X89817569Y-122420994D01*
X89398209Y-122566931D01*
X89398189Y-122566939D01*
X88992514Y-122747431D01*
X88992493Y-122747441D01*
X88603345Y-122961218D01*
X88603319Y-122961234D01*
X88233392Y-123206817D01*
X87885296Y-123482478D01*
X87561464Y-123786288D01*
X87264167Y-124116122D01*
X86995501Y-124469654D01*
X86995492Y-124469668D01*
X86757354Y-124844391D01*
X86757335Y-124844425D01*
X86551348Y-125237788D01*
X86378985Y-125646983D01*
X86378981Y-125646996D01*
X86309985Y-125858777D01*
X86280632Y-125893090D01*
X86253888Y-125899500D01*
X85684106Y-125899500D01*
X85556814Y-125933607D01*
X85556811Y-125933609D01*
X85442686Y-125999499D01*
X85349499Y-126092686D01*
X85283609Y-126206811D01*
X85283607Y-126206814D01*
X85249500Y-126334106D01*
X85249500Y-128530495D01*
X85249485Y-128530727D01*
X50500500Y-128530727D01*
X50500500Y-108274060D01*
X71049500Y-108274060D01*
X71049500Y-108725939D01*
X71084953Y-109176416D01*
X71155644Y-109622738D01*
X71261132Y-110062127D01*
X71400762Y-110491866D01*
X71400772Y-110491891D01*
X71573689Y-110909354D01*
X71573690Y-110909356D01*
X71778835Y-111311976D01*
X71778840Y-111311984D01*
X72014945Y-111697272D01*
X72014949Y-111697277D01*
X72014953Y-111697284D01*
X72236124Y-112001699D01*
X72280551Y-112062847D01*
X72453071Y-112264843D01*
X72574016Y-112406452D01*
X72574029Y-112406466D01*
X72893533Y-112725970D01*
X72893547Y-112725983D01*
X72999753Y-112816691D01*
X73237153Y-113019449D01*
X73237160Y-113019454D01*
X73602715Y-113285046D01*
X73602718Y-113285048D01*
X73602728Y-113285055D01*
X73988016Y-113521160D01*
X73988023Y-113521164D01*
X74390643Y-113726309D01*
X74390645Y-113726310D01*
X74607678Y-113816207D01*
X74808118Y-113899232D01*
X75237877Y-114038869D01*
X75677267Y-114144357D01*
X76123580Y-114215046D01*
X76461441Y-114241636D01*
X76574061Y-114250500D01*
X76574062Y-114250500D01*
X77025939Y-114250500D01*
X77116034Y-114243409D01*
X77476420Y-114215046D01*
X77922733Y-114144357D01*
X78362123Y-114038869D01*
X78791882Y-113899232D01*
X79089096Y-113776121D01*
X79209354Y-113726310D01*
X79209356Y-113726309D01*
X79611976Y-113521164D01*
X79611975Y-113521164D01*
X79611984Y-113521160D01*
X79997272Y-113285055D01*
X80362847Y-113019449D01*
X80706456Y-112725980D01*
X81025980Y-112406456D01*
X81319449Y-112062847D01*
X81585055Y-111697272D01*
X81821160Y-111311984D01*
X82026307Y-110909360D01*
X82026309Y-110909356D01*
X82026310Y-110909354D01*
X82115895Y-110693075D01*
X82199232Y-110491882D01*
X82338869Y-110062123D01*
X82444357Y-109622733D01*
X82515046Y-109176420D01*
X82550500Y-108725938D01*
X82550500Y-108274062D01*
X82550500Y-108274060D01*
X85049500Y-108274060D01*
X85049500Y-108725939D01*
X85084953Y-109176416D01*
X85155644Y-109622738D01*
X85261132Y-110062127D01*
X85400762Y-110491866D01*
X85400772Y-110491891D01*
X85573689Y-110909354D01*
X85573690Y-110909356D01*
X85778835Y-111311976D01*
X85778840Y-111311984D01*
X86014945Y-111697272D01*
X86014949Y-111697277D01*
X86014953Y-111697284D01*
X86236124Y-112001699D01*
X86280551Y-112062847D01*
X86453071Y-112264843D01*
X86574016Y-112406452D01*
X86574029Y-112406466D01*
X86893533Y-112725970D01*
X86893547Y-112725983D01*
X86999753Y-112816691D01*
X87237153Y-113019449D01*
X87237160Y-113019454D01*
X87602715Y-113285046D01*
X87602718Y-113285048D01*
X87602728Y-113285055D01*
X87988016Y-113521160D01*
X87988023Y-113521164D01*
X88390643Y-113726309D01*
X88390645Y-113726310D01*
X88607678Y-113816207D01*
X88808118Y-113899232D01*
X89237877Y-114038869D01*
X89677267Y-114144357D01*
X90123580Y-114215046D01*
X90461441Y-114241636D01*
X90574061Y-114250500D01*
X90574062Y-114250500D01*
X91025939Y-114250500D01*
X91116034Y-114243409D01*
X91476420Y-114215046D01*
X91922733Y-114144357D01*
X92362123Y-114038869D01*
X92791882Y-113899232D01*
X93089096Y-113776121D01*
X93209354Y-113726310D01*
X93209356Y-113726309D01*
X93611976Y-113521164D01*
X93611975Y-113521164D01*
X93611984Y-113521160D01*
X93997272Y-113285055D01*
X94362847Y-113019449D01*
X94706456Y-112725980D01*
X95025980Y-112406456D01*
X95319449Y-112062847D01*
X95585055Y-111697272D01*
X95821160Y-111311984D01*
X96026307Y-110909360D01*
X96026309Y-110909356D01*
X96026310Y-110909354D01*
X96115895Y-110693075D01*
X96199232Y-110491882D01*
X96338869Y-110062123D01*
X96444357Y-109622733D01*
X96515046Y-109176420D01*
X96550500Y-108725938D01*
X96550500Y-108274062D01*
X96515046Y-107823580D01*
X96444357Y-107377267D01*
X96338869Y-106937877D01*
X96199232Y-106508118D01*
X96115895Y-106306925D01*
X96026310Y-106090645D01*
X96026309Y-106090643D01*
X95821164Y-105688023D01*
X95821160Y-105688016D01*
X95585055Y-105302728D01*
X95576740Y-105291284D01*
X95319454Y-104937160D01*
X95319449Y-104937153D01*
X95025980Y-104593544D01*
X95025970Y-104593533D01*
X94706466Y-104274029D01*
X94706452Y-104274016D01*
X94516794Y-104112034D01*
X94362847Y-103980551D01*
X94348767Y-103970321D01*
X93997284Y-103714953D01*
X93997277Y-103714949D01*
X93997272Y-103714945D01*
X93611984Y-103478840D01*
X93611976Y-103478835D01*
X93209356Y-103273690D01*
X93209354Y-103273689D01*
X92855458Y-103127102D01*
X92791882Y-103100768D01*
X92791876Y-103100766D01*
X92791866Y-103100762D01*
X92362127Y-102961132D01*
X91922738Y-102855644D01*
X91922735Y-102855643D01*
X91922733Y-102855643D01*
X91761096Y-102830042D01*
X91476416Y-102784953D01*
X91025939Y-102749500D01*
X91025938Y-102749500D01*
X90574062Y-102749500D01*
X90574061Y-102749500D01*
X90123583Y-102784953D01*
X89677261Y-102855644D01*
X89237872Y-102961132D01*
X88808133Y-103100762D01*
X88808108Y-103100772D01*
X88390645Y-103273689D01*
X88390643Y-103273690D01*
X87988023Y-103478835D01*
X87602715Y-103714953D01*
X87237160Y-103980545D01*
X86893547Y-104274016D01*
X86893533Y-104274029D01*
X86574029Y-104593533D01*
X86574016Y-104593547D01*
X86280545Y-104937160D01*
X86014953Y-105302715D01*
X85778835Y-105688023D01*
X85573690Y-106090643D01*
X85573689Y-106090645D01*
X85400772Y-106508108D01*
X85400762Y-106508133D01*
X85261132Y-106937872D01*
X85155644Y-107377261D01*
X85084953Y-107823583D01*
X85049500Y-108274060D01*
X82550500Y-108274060D01*
X82515046Y-107823580D01*
X82444357Y-107377267D01*
X82338869Y-106937877D01*
X82199232Y-106508118D01*
X82115895Y-106306925D01*
X82026310Y-106090645D01*
X82026309Y-106090643D01*
X81821164Y-105688023D01*
X81821160Y-105688016D01*
X81585055Y-105302728D01*
X81576740Y-105291284D01*
X81319454Y-104937160D01*
X81319449Y-104937153D01*
X81025980Y-104593544D01*
X81025970Y-104593533D01*
X80706466Y-104274029D01*
X80706452Y-104274016D01*
X80516794Y-104112034D01*
X80362847Y-103980551D01*
X80348767Y-103970321D01*
X79997284Y-103714953D01*
X79997277Y-103714949D01*
X79997272Y-103714945D01*
X79611984Y-103478840D01*
X79611976Y-103478835D01*
X79209356Y-103273690D01*
X79209354Y-103273689D01*
X78855458Y-103127102D01*
X78791882Y-103100768D01*
X78791876Y-103100766D01*
X78791866Y-103100762D01*
X78362127Y-102961132D01*
X77922738Y-102855644D01*
X77922735Y-102855643D01*
X77922733Y-102855643D01*
X77761096Y-102830042D01*
X77476416Y-102784953D01*
X77025939Y-102749500D01*
X77025938Y-102749500D01*
X76574062Y-102749500D01*
X76574061Y-102749500D01*
X76123583Y-102784953D01*
X75677261Y-102855644D01*
X75237872Y-102961132D01*
X74808133Y-103100762D01*
X74808108Y-103100772D01*
X74390645Y-103273689D01*
X74390643Y-103273690D01*
X73988023Y-103478835D01*
X73602715Y-103714953D01*
X73237160Y-103980545D01*
X72893547Y-104274016D01*
X72893533Y-104274029D01*
X72574029Y-104593533D01*
X72574016Y-104593547D01*
X72280545Y-104937160D01*
X72014953Y-105302715D01*
X71778835Y-105688023D01*
X71573690Y-106090643D01*
X71573689Y-106090645D01*
X71400772Y-106508108D01*
X71400762Y-106508133D01*
X71261132Y-106937872D01*
X71155644Y-107377261D01*
X71084953Y-107823583D01*
X71049500Y-108274060D01*
X50500500Y-108274060D01*
X50500500Y-99298554D01*
X79699500Y-99298554D01*
X79699500Y-99701445D01*
X79738990Y-100102394D01*
X79738991Y-100102405D01*
X79817588Y-100497538D01*
X79817589Y-100497543D01*
X79934540Y-100883077D01*
X80088719Y-101255298D01*
X80088726Y-101255312D01*
X80278630Y-101610601D01*
X80278633Y-101610606D01*
X80278637Y-101610613D01*
X80278642Y-101610621D01*
X80502476Y-101945611D01*
X80758066Y-102257048D01*
X81042952Y-102541934D01*
X81354389Y-102797524D01*
X81689379Y-103021358D01*
X81689389Y-103021363D01*
X81689393Y-103021366D01*
X81689398Y-103021369D01*
X81979585Y-103176475D01*
X82044696Y-103211278D01*
X82195370Y-103273689D01*
X82416922Y-103365459D01*
X82802456Y-103482410D01*
X82802461Y-103482411D01*
X83197594Y-103561008D01*
X83197597Y-103561008D01*
X83197606Y-103561010D01*
X83559064Y-103596610D01*
X83598554Y-103600500D01*
X83598555Y-103600500D01*
X84001446Y-103600500D01*
X84037395Y-103596959D01*
X84402394Y-103561010D01*
X84402403Y-103561008D01*
X84402405Y-103561008D01*
X84797538Y-103482411D01*
X84797543Y-103482410D01*
X85183077Y-103365459D01*
X85183078Y-103365458D01*
X85183083Y-103365457D01*
X85555304Y-103211278D01*
X85804117Y-103078285D01*
X85910601Y-103021369D01*
X85910606Y-103021366D01*
X85910605Y-103021366D01*
X85910621Y-103021358D01*
X86245611Y-102797524D01*
X86557048Y-102541934D01*
X86841934Y-102257048D01*
X87097524Y-101945611D01*
X87321358Y-101610621D01*
X87511278Y-101255304D01*
X87665457Y-100883083D01*
X87782410Y-100497542D01*
X87861010Y-100102394D01*
X87900500Y-99701445D01*
X87900500Y-99298555D01*
X87861010Y-98897606D01*
X87782410Y-98502458D01*
X87782410Y-98502456D01*
X87665459Y-98116922D01*
X87511280Y-97744701D01*
X87511273Y-97744687D01*
X87321369Y-97389398D01*
X87321366Y-97389393D01*
X87321363Y-97389389D01*
X87321358Y-97389379D01*
X87097524Y-97054389D01*
X86841934Y-96742952D01*
X86557048Y-96458066D01*
X86245611Y-96202476D01*
X85910621Y-95978642D01*
X85910613Y-95978637D01*
X85910606Y-95978633D01*
X85910601Y-95978630D01*
X85555312Y-95788726D01*
X85555298Y-95788719D01*
X85183077Y-95634540D01*
X84797543Y-95517589D01*
X84797538Y-95517588D01*
X84402405Y-95438991D01*
X84402394Y-95438990D01*
X84001446Y-95399500D01*
X84001445Y-95399500D01*
X83598555Y-95399500D01*
X83598554Y-95399500D01*
X83197605Y-95438990D01*
X83197594Y-95438991D01*
X82802461Y-95517588D01*
X82802456Y-95517589D01*
X82416922Y-95634540D01*
X82044701Y-95788719D01*
X82044687Y-95788726D01*
X81689398Y-95978630D01*
X81689393Y-95978633D01*
X81689381Y-95978640D01*
X81689379Y-95978642D01*
X81517483Y-96093499D01*
X81354387Y-96202477D01*
X81042953Y-96458064D01*
X80758064Y-96742953D01*
X80502477Y-97054387D01*
X80278633Y-97389393D01*
X80278630Y-97389398D01*
X80088726Y-97744687D01*
X80088719Y-97744701D01*
X79934540Y-98116922D01*
X79817589Y-98502456D01*
X79817588Y-98502461D01*
X79738991Y-98897594D01*
X79738990Y-98897605D01*
X79699500Y-99298554D01*
X50500500Y-99298554D01*
X50500500Y-90274060D01*
X71049500Y-90274060D01*
X71049500Y-90725939D01*
X71084953Y-91176416D01*
X71155644Y-91622738D01*
X71261132Y-92062127D01*
X71400762Y-92491866D01*
X71400772Y-92491891D01*
X71573689Y-92909354D01*
X71573690Y-92909356D01*
X71778835Y-93311976D01*
X71778840Y-93311984D01*
X72014945Y-93697272D01*
X72014949Y-93697277D01*
X72014953Y-93697284D01*
X72236124Y-94001699D01*
X72280551Y-94062847D01*
X72453071Y-94264843D01*
X72574016Y-94406452D01*
X72574029Y-94406466D01*
X72893533Y-94725970D01*
X72893547Y-94725983D01*
X72999753Y-94816691D01*
X73237153Y-95019449D01*
X73237160Y-95019454D01*
X73602715Y-95285046D01*
X73602718Y-95285048D01*
X73602728Y-95285055D01*
X73988016Y-95521160D01*
X73988023Y-95521164D01*
X74390643Y-95726309D01*
X74390645Y-95726310D01*
X74607678Y-95816207D01*
X74808118Y-95899232D01*
X75237877Y-96038869D01*
X75677267Y-96144357D01*
X76123580Y-96215046D01*
X76461441Y-96241636D01*
X76574061Y-96250500D01*
X76574062Y-96250500D01*
X77025939Y-96250500D01*
X77116034Y-96243409D01*
X77476420Y-96215046D01*
X77922733Y-96144357D01*
X78362123Y-96038869D01*
X78791882Y-95899232D01*
X79089096Y-95776121D01*
X79209354Y-95726310D01*
X79209356Y-95726309D01*
X79611976Y-95521164D01*
X79611975Y-95521164D01*
X79611984Y-95521160D01*
X79997272Y-95285055D01*
X80362847Y-95019449D01*
X80706456Y-94725980D01*
X81025980Y-94406456D01*
X81319449Y-94062847D01*
X81585055Y-93697272D01*
X81821160Y-93311984D01*
X82026307Y-92909360D01*
X82026309Y-92909356D01*
X82026310Y-92909354D01*
X82115895Y-92693075D01*
X82199232Y-92491882D01*
X82338869Y-92062123D01*
X82444357Y-91622733D01*
X82515046Y-91176420D01*
X82550500Y-90725938D01*
X82550500Y-90274062D01*
X82550500Y-90274060D01*
X85049500Y-90274060D01*
X85049500Y-90725939D01*
X85084953Y-91176416D01*
X85155644Y-91622738D01*
X85261132Y-92062127D01*
X85400762Y-92491866D01*
X85400772Y-92491891D01*
X85573689Y-92909354D01*
X85573690Y-92909356D01*
X85778835Y-93311976D01*
X85778840Y-93311984D01*
X86014945Y-93697272D01*
X86014949Y-93697277D01*
X86014953Y-93697284D01*
X86236124Y-94001699D01*
X86280551Y-94062847D01*
X86453071Y-94264843D01*
X86574016Y-94406452D01*
X86574029Y-94406466D01*
X86893533Y-94725970D01*
X86893547Y-94725983D01*
X86999753Y-94816691D01*
X87237153Y-95019449D01*
X87237160Y-95019454D01*
X87602715Y-95285046D01*
X87602718Y-95285048D01*
X87602728Y-95285055D01*
X87988016Y-95521160D01*
X87988023Y-95521164D01*
X88390643Y-95726309D01*
X88390645Y-95726310D01*
X88607678Y-95816207D01*
X88808118Y-95899232D01*
X89237877Y-96038869D01*
X89677267Y-96144357D01*
X90123580Y-96215046D01*
X90461441Y-96241636D01*
X90574061Y-96250500D01*
X90574062Y-96250500D01*
X91025939Y-96250500D01*
X91116034Y-96243409D01*
X91476420Y-96215046D01*
X91922733Y-96144357D01*
X92362123Y-96038869D01*
X92791882Y-95899232D01*
X93089096Y-95776121D01*
X93209354Y-95726310D01*
X93209356Y-95726309D01*
X93611976Y-95521164D01*
X93611975Y-95521164D01*
X93611984Y-95521160D01*
X93997272Y-95285055D01*
X94362847Y-95019449D01*
X94706456Y-94725980D01*
X95025980Y-94406456D01*
X95319449Y-94062847D01*
X95585055Y-93697272D01*
X95821160Y-93311984D01*
X96026307Y-92909360D01*
X96026309Y-92909356D01*
X96026310Y-92909354D01*
X96115895Y-92693075D01*
X96199232Y-92491882D01*
X96338869Y-92062123D01*
X96444357Y-91622733D01*
X96515046Y-91176420D01*
X96550500Y-90725938D01*
X96550500Y-90274062D01*
X96515046Y-89823580D01*
X96444357Y-89377267D01*
X96338869Y-88937877D01*
X96199232Y-88508118D01*
X96115895Y-88306925D01*
X96026310Y-88090645D01*
X96026309Y-88090643D01*
X95821164Y-87688023D01*
X95821160Y-87688016D01*
X95585055Y-87302728D01*
X95576740Y-87291284D01*
X95319454Y-86937160D01*
X95319449Y-86937153D01*
X95025980Y-86593544D01*
X95025970Y-86593533D01*
X94706466Y-86274029D01*
X94706452Y-86274016D01*
X94516794Y-86112034D01*
X94362847Y-85980551D01*
X94348767Y-85970321D01*
X93997284Y-85714953D01*
X93997277Y-85714949D01*
X93997272Y-85714945D01*
X93611984Y-85478840D01*
X93611976Y-85478835D01*
X93209356Y-85273690D01*
X93209354Y-85273689D01*
X92855458Y-85127102D01*
X92791882Y-85100768D01*
X92791876Y-85100766D01*
X92791866Y-85100762D01*
X92362127Y-84961132D01*
X91922738Y-84855644D01*
X91922735Y-84855643D01*
X91922733Y-84855643D01*
X91761096Y-84830042D01*
X91476416Y-84784953D01*
X91025939Y-84749500D01*
X91025938Y-84749500D01*
X90574062Y-84749500D01*
X90574061Y-84749500D01*
X90123583Y-84784953D01*
X89677261Y-84855644D01*
X89237872Y-84961132D01*
X88808133Y-85100762D01*
X88808108Y-85100772D01*
X88390645Y-85273689D01*
X88390643Y-85273690D01*
X87988023Y-85478835D01*
X87602715Y-85714953D01*
X87237160Y-85980545D01*
X86893547Y-86274016D01*
X86893533Y-86274029D01*
X86574029Y-86593533D01*
X86574016Y-86593547D01*
X86280545Y-86937160D01*
X86014953Y-87302715D01*
X85778835Y-87688023D01*
X85573690Y-88090643D01*
X85573689Y-88090645D01*
X85400772Y-88508108D01*
X85400762Y-88508133D01*
X85261132Y-88937872D01*
X85155644Y-89377261D01*
X85084953Y-89823583D01*
X85049500Y-90274060D01*
X82550500Y-90274060D01*
X82515046Y-89823580D01*
X82444357Y-89377267D01*
X82338869Y-88937877D01*
X82199232Y-88508118D01*
X82115895Y-88306925D01*
X82026310Y-88090645D01*
X82026309Y-88090643D01*
X81821164Y-87688023D01*
X81821160Y-87688016D01*
X81585055Y-87302728D01*
X81576740Y-87291284D01*
X81319454Y-86937160D01*
X81319449Y-86937153D01*
X81025980Y-86593544D01*
X81025970Y-86593533D01*
X80706466Y-86274029D01*
X80706452Y-86274016D01*
X80516794Y-86112034D01*
X80362847Y-85980551D01*
X80348767Y-85970321D01*
X79997284Y-85714953D01*
X79997277Y-85714949D01*
X79997272Y-85714945D01*
X79611984Y-85478840D01*
X79611976Y-85478835D01*
X79209356Y-85273690D01*
X79209354Y-85273689D01*
X78855458Y-85127102D01*
X78791882Y-85100768D01*
X78791876Y-85100766D01*
X78791866Y-85100762D01*
X78362127Y-84961132D01*
X77922738Y-84855644D01*
X77922735Y-84855643D01*
X77922733Y-84855643D01*
X77761096Y-84830042D01*
X77476416Y-84784953D01*
X77025939Y-84749500D01*
X77025938Y-84749500D01*
X76574062Y-84749500D01*
X76574061Y-84749500D01*
X76123583Y-84784953D01*
X75677261Y-84855644D01*
X75237872Y-84961132D01*
X74808133Y-85100762D01*
X74808108Y-85100772D01*
X74390645Y-85273689D01*
X74390643Y-85273690D01*
X73988023Y-85478835D01*
X73602715Y-85714953D01*
X73237160Y-85980545D01*
X72893547Y-86274016D01*
X72893533Y-86274029D01*
X72574029Y-86593533D01*
X72574016Y-86593547D01*
X72280545Y-86937160D01*
X72014953Y-87302715D01*
X71778835Y-87688023D01*
X71573690Y-88090643D01*
X71573689Y-88090645D01*
X71400772Y-88508108D01*
X71400762Y-88508133D01*
X71261132Y-88937872D01*
X71155644Y-89377261D01*
X71084953Y-89823583D01*
X71049500Y-90274060D01*
X50500500Y-90274060D01*
X50500500Y-70334106D01*
X85249500Y-70334106D01*
X85249500Y-70334107D01*
X85249500Y-70334108D01*
X85249500Y-72534110D01*
X85249500Y-72665894D01*
X85260599Y-72707314D01*
X85283608Y-72793187D01*
X85283610Y-72793190D01*
X85349500Y-72907314D01*
X85349502Y-72907317D01*
X85442683Y-73000498D01*
X85442685Y-73000499D01*
X85442687Y-73000501D01*
X85556816Y-73066393D01*
X85615894Y-73082222D01*
X85684108Y-73100500D01*
X85684110Y-73100500D01*
X85684112Y-73100500D01*
X85827625Y-73100500D01*
X85827627Y-73100498D01*
X86253886Y-73100498D01*
X86295605Y-73117779D01*
X86309984Y-73141222D01*
X86378984Y-73353012D01*
X86551348Y-73762211D01*
X86551352Y-73762218D01*
X86757340Y-74155584D01*
X86757344Y-74155591D01*
X86757354Y-74155608D01*
X86995492Y-74530331D01*
X86995502Y-74530346D01*
X87264169Y-74883879D01*
X87561460Y-75213707D01*
X87885292Y-75517518D01*
X87885296Y-75517521D01*
X88189321Y-75758282D01*
X88233395Y-75793184D01*
X88603332Y-76038774D01*
X88603345Y-76038781D01*
X88992493Y-76252558D01*
X88992505Y-76252563D01*
X88992511Y-76252567D01*
X89398205Y-76433067D01*
X89817573Y-76579007D01*
X90247676Y-76689367D01*
X90685501Y-76763373D01*
X90773261Y-76770737D01*
X91127962Y-76800504D01*
X91127978Y-76800504D01*
X91127982Y-76800505D01*
X91127985Y-76800505D01*
X91572015Y-76800505D01*
X91572018Y-76800505D01*
X91572021Y-76800504D01*
X91572037Y-76800504D01*
X91882858Y-76774419D01*
X92014499Y-76763373D01*
X92452324Y-76689367D01*
X92882427Y-76579007D01*
X93301795Y-76433067D01*
X93707489Y-76252567D01*
X93707501Y-76252560D01*
X93707506Y-76252558D01*
X93835568Y-76182207D01*
X94096668Y-76038774D01*
X94466605Y-75793184D01*
X94814708Y-75517518D01*
X95138540Y-75213707D01*
X95435831Y-74883879D01*
X95704498Y-74530346D01*
X95942660Y-74155584D01*
X96148648Y-73762218D01*
X96321019Y-73353004D01*
X96390015Y-73141220D01*
X96419368Y-73106908D01*
X96446111Y-73100498D01*
X96877237Y-73100498D01*
X96877243Y-73100500D01*
X96884108Y-73100500D01*
X97015888Y-73100500D01*
X97015890Y-73100500D01*
X97015892Y-73100500D01*
X97084106Y-73082222D01*
X97143184Y-73066393D01*
X97257313Y-73000501D01*
X97257316Y-73000498D01*
X97350498Y-72907317D01*
X97350499Y-72907315D01*
X97416391Y-72793188D01*
X97450500Y-72665894D01*
X97450500Y-72534110D01*
X97450500Y-70534106D01*
X98449500Y-70534106D01*
X98449500Y-72465893D01*
X98483607Y-72593185D01*
X98483609Y-72593188D01*
X98549499Y-72707313D01*
X98549501Y-72707316D01*
X98642684Y-72800499D01*
X98642686Y-72800500D01*
X98756814Y-72866392D01*
X98884108Y-72900500D01*
X100015892Y-72900500D01*
X100143186Y-72866392D01*
X100257314Y-72800500D01*
X100257314Y-72800499D01*
X100257316Y-72800499D01*
X100350499Y-72707316D01*
X100350500Y-72707314D01*
X100416392Y-72593186D01*
X100450500Y-72465892D01*
X100450500Y-70534108D01*
X100416392Y-70406814D01*
X100350500Y-70292686D01*
X100350499Y-70292684D01*
X100257316Y-70199501D01*
X100257313Y-70199499D01*
X100143188Y-70133609D01*
X100143185Y-70133607D01*
X100015893Y-70099500D01*
X100015892Y-70099500D01*
X99015892Y-70099500D01*
X98884108Y-70099500D01*
X98884106Y-70099500D01*
X98756814Y-70133607D01*
X98756811Y-70133609D01*
X98642686Y-70199499D01*
X98549499Y-70292686D01*
X98483609Y-70406811D01*
X98483607Y-70406814D01*
X98449500Y-70534106D01*
X97450500Y-70534106D01*
X97450500Y-70334108D01*
X97416392Y-70206814D01*
X97350500Y-70092686D01*
X97350499Y-70092684D01*
X97257316Y-69999501D01*
X97257313Y-69999499D01*
X97143188Y-69933609D01*
X97143185Y-69933607D01*
X97015893Y-69899500D01*
X97015892Y-69899500D01*
X96446112Y-69899500D01*
X96404393Y-69882219D01*
X96390015Y-69858777D01*
X96321019Y-69646996D01*
X96148648Y-69237782D01*
X95942660Y-68844416D01*
X95942651Y-68844402D01*
X95942645Y-68844391D01*
X95704507Y-68469668D01*
X95704498Y-68469654D01*
X95435832Y-68116122D01*
X95138535Y-67786288D01*
X95038430Y-67692372D01*
X94814708Y-67482482D01*
X94602795Y-67314666D01*
X94466607Y-67206817D01*
X94096680Y-66961234D01*
X94096668Y-66961226D01*
X94096658Y-66961220D01*
X94096654Y-66961218D01*
X93707506Y-66747441D01*
X93707485Y-66747431D01*
X93301810Y-66566939D01*
X93301790Y-66566931D01*
X92882430Y-66420994D01*
X92882429Y-66420993D01*
X92882427Y-66420993D01*
X92452324Y-66310633D01*
X92340520Y-66291734D01*
X92014496Y-66236626D01*
X91572037Y-66199495D01*
X91572018Y-66199495D01*
X91127982Y-66199495D01*
X91127962Y-66199495D01*
X90685503Y-66236626D01*
X90247676Y-66310633D01*
X89817569Y-66420994D01*
X89398209Y-66566931D01*
X89398189Y-66566939D01*
X88992514Y-66747431D01*
X88992493Y-66747441D01*
X88603345Y-66961218D01*
X88603319Y-66961234D01*
X88233392Y-67206817D01*
X87885296Y-67482478D01*
X87561464Y-67786288D01*
X87264167Y-68116122D01*
X86995501Y-68469654D01*
X86995492Y-68469668D01*
X86757354Y-68844391D01*
X86757335Y-68844425D01*
X86551348Y-69237788D01*
X86378985Y-69646983D01*
X86378981Y-69646996D01*
X86309985Y-69858777D01*
X86280632Y-69893090D01*
X86253888Y-69899500D01*
X85684106Y-69899500D01*
X85556814Y-69933607D01*
X85556811Y-69933609D01*
X85442686Y-69999499D01*
X85349499Y-70092686D01*
X85283609Y-70206811D01*
X85283607Y-70206814D01*
X85249500Y-70334106D01*
X50500500Y-70334106D01*
X50500500Y-56001776D01*
X50500608Y-55998214D01*
X50518508Y-55702288D01*
X50519366Y-55695215D01*
X50557752Y-55485750D01*
X50572489Y-55405331D01*
X50574193Y-55398423D01*
X50661868Y-55117066D01*
X50664394Y-55110405D01*
X50785341Y-54841672D01*
X50788644Y-54835378D01*
X50941109Y-54583170D01*
X50945153Y-54577312D01*
X51126904Y-54345323D01*
X51131614Y-54340007D01*
X51340007Y-54131614D01*
X51345323Y-54126904D01*
X51577317Y-53945149D01*
X51583170Y-53941109D01*
X51835378Y-53788644D01*
X51841672Y-53785341D01*
X52110407Y-53664392D01*
X52117066Y-53661868D01*
X52398423Y-53574193D01*
X52405331Y-53572489D01*
X52695217Y-53519365D01*
X52702286Y-53518508D01*
X52998215Y-53500608D01*
X53001777Y-53500500D01*
X53065892Y-53500500D01*
X102934108Y-53500500D01*
X102998223Y-53500500D01*
X103001785Y-53500608D01*
G37*
%TD.AperFunction*%
%TD*%
M02*
