%TF.GenerationSoftware,KiCad,Pcbnew,9.0.5-9.0.5~ubuntu24.04.1*%
%TF.CreationDate,2025-10-22T14:00:19+02:00*%
%TF.ProjectId,misrc_v2.5_back_panel,6d697372-635f-4763-922e-355f6261636b,rev?*%
%TF.SameCoordinates,Original*%
%TF.FileFunction,Copper,L1,Top*%
%TF.FilePolarity,Positive*%
%FSLAX46Y46*%
G04 Gerber Fmt 4.6, Leading zero omitted, Abs format (unit mm)*
G04 Created by KiCad (PCBNEW 9.0.5-9.0.5~ubuntu24.04.1) date 2025-10-22 14:00:19*
%MOMM*%
%LPD*%
G01*
G04 APERTURE LIST*
%TA.AperFunction,ComponentPad*%
%ADD10C,13.000000*%
%TD*%
%TA.AperFunction,ComponentPad*%
%ADD11C,5.700000*%
%TD*%
G04 APERTURE END LIST*
D10*
%TO.P,H5,1,1*%
%TO.N,GND*%
X64850000Y-119207600D03*
%TD*%
D11*
%TO.P,H2,1,1*%
%TO.N,GND*%
X54000000Y-142000000D03*
%TD*%
%TO.P,H1,1,1*%
%TO.N,GND*%
X54000000Y-57000000D03*
%TD*%
%TO.P,H4,1,1*%
%TO.N,GND*%
X102000000Y-57000000D03*
%TD*%
%TO.P,H3,1,1*%
%TO.N,GND*%
X102000000Y-142000000D03*
%TD*%
%TA.AperFunction,Conductor*%
%TO.N,GND*%
G36*
X103001785Y-53500608D02*
G01*
X103297711Y-53518508D01*
X103304784Y-53519366D01*
X103594664Y-53572488D01*
X103601576Y-53574193D01*
X103882933Y-53661868D01*
X103889594Y-53664394D01*
X104158319Y-53785337D01*
X104164628Y-53788648D01*
X104416824Y-53941106D01*
X104422687Y-53945153D01*
X104654667Y-54126897D01*
X104660000Y-54131622D01*
X104868377Y-54339999D01*
X104873102Y-54345332D01*
X105054846Y-54577312D01*
X105058893Y-54583175D01*
X105211351Y-54835371D01*
X105214662Y-54841680D01*
X105335605Y-55110405D01*
X105338131Y-55117066D01*
X105425806Y-55398423D01*
X105427512Y-55405341D01*
X105480633Y-55695215D01*
X105481491Y-55702288D01*
X105499392Y-55998214D01*
X105499500Y-56001776D01*
X105499500Y-142998223D01*
X105499392Y-143001785D01*
X105481491Y-143297711D01*
X105480633Y-143304784D01*
X105427512Y-143594658D01*
X105425806Y-143601576D01*
X105338131Y-143882933D01*
X105335605Y-143889594D01*
X105214662Y-144158319D01*
X105211351Y-144164628D01*
X105058893Y-144416824D01*
X105054846Y-144422687D01*
X104873102Y-144654667D01*
X104868377Y-144660000D01*
X104660000Y-144868377D01*
X104654667Y-144873102D01*
X104422687Y-145054846D01*
X104416824Y-145058893D01*
X104164628Y-145211351D01*
X104158319Y-145214662D01*
X103889594Y-145335605D01*
X103882933Y-145338131D01*
X103601576Y-145425806D01*
X103594658Y-145427512D01*
X103304784Y-145480633D01*
X103297711Y-145481491D01*
X103001785Y-145499392D01*
X102998223Y-145499500D01*
X53001777Y-145499500D01*
X52998215Y-145499392D01*
X52702288Y-145481491D01*
X52695215Y-145480633D01*
X52405341Y-145427512D01*
X52398423Y-145425806D01*
X52117066Y-145338131D01*
X52110405Y-145335605D01*
X51841680Y-145214662D01*
X51835371Y-145211351D01*
X51583175Y-145058893D01*
X51577312Y-145054846D01*
X51345332Y-144873102D01*
X51339999Y-144868377D01*
X51131622Y-144660000D01*
X51126897Y-144654667D01*
X50945153Y-144422687D01*
X50941106Y-144416824D01*
X50788648Y-144164628D01*
X50785337Y-144158319D01*
X50664394Y-143889594D01*
X50661868Y-143882933D01*
X50574193Y-143601576D01*
X50572487Y-143594658D01*
X50519366Y-143304784D01*
X50518508Y-143297711D01*
X50500608Y-143001785D01*
X50500500Y-142998223D01*
X50500500Y-127194926D01*
X85767500Y-127194926D01*
X85767500Y-127470273D01*
X85803440Y-127743267D01*
X85874703Y-128009227D01*
X85874707Y-128009237D01*
X85980073Y-128263613D01*
X85980075Y-128263617D01*
X85980077Y-128263621D01*
X86029028Y-128348406D01*
X86117752Y-128502081D01*
X86285377Y-128720534D01*
X86480065Y-128915222D01*
X86480069Y-128915225D01*
X86480072Y-128915228D01*
X86698521Y-129082849D01*
X86936979Y-129220523D01*
X87191368Y-129325895D01*
X87457334Y-129397160D01*
X87730326Y-129433100D01*
X87730327Y-129433100D01*
X88005673Y-129433100D01*
X88005674Y-129433100D01*
X88278666Y-129397160D01*
X88544632Y-129325895D01*
X88799021Y-129220523D01*
X89037479Y-129082849D01*
X89255928Y-128915228D01*
X89450628Y-128720528D01*
X89618249Y-128502079D01*
X89755923Y-128263621D01*
X89861295Y-128009232D01*
X89932560Y-127743266D01*
X89968500Y-127470274D01*
X89968500Y-127194926D01*
X89932560Y-126921934D01*
X89861295Y-126655968D01*
X89755923Y-126401579D01*
X89618249Y-126163121D01*
X89450628Y-125944672D01*
X89450625Y-125944669D01*
X89450622Y-125944665D01*
X89255934Y-125749977D01*
X89255929Y-125749973D01*
X89255928Y-125749972D01*
X89162971Y-125678644D01*
X89037481Y-125582352D01*
X88989787Y-125554816D01*
X88799021Y-125444677D01*
X88799017Y-125444675D01*
X88799013Y-125444673D01*
X88544637Y-125339307D01*
X88544627Y-125339303D01*
X88278667Y-125268040D01*
X88142170Y-125250070D01*
X88005674Y-125232100D01*
X87730326Y-125232100D01*
X87639328Y-125244080D01*
X87457332Y-125268040D01*
X87191372Y-125339303D01*
X87191362Y-125339307D01*
X86936986Y-125444673D01*
X86698518Y-125582352D01*
X86480065Y-125749977D01*
X86285377Y-125944665D01*
X86117752Y-126163118D01*
X85980073Y-126401586D01*
X85874707Y-126655962D01*
X85874703Y-126655972D01*
X85803440Y-126921932D01*
X85767500Y-127194926D01*
X50500500Y-127194926D01*
X50500500Y-116026480D01*
X85699500Y-116026480D01*
X85699500Y-122388719D01*
X85733730Y-122648717D01*
X85801600Y-122902014D01*
X85801604Y-122902024D01*
X85901953Y-123144289D01*
X85901955Y-123144293D01*
X85901957Y-123144297D01*
X86006852Y-123325981D01*
X86033077Y-123371405D01*
X86192723Y-123579457D01*
X86378142Y-123764876D01*
X86378146Y-123764879D01*
X86378149Y-123764882D01*
X86586197Y-123924524D01*
X86813303Y-124055643D01*
X87055581Y-124155998D01*
X87308884Y-124223870D01*
X87568880Y-124258100D01*
X87568881Y-124258100D01*
X88231119Y-124258100D01*
X88231120Y-124258100D01*
X88491116Y-124223870D01*
X88744419Y-124155998D01*
X88986697Y-124055643D01*
X89213803Y-123924524D01*
X89421851Y-123764882D01*
X89607282Y-123579451D01*
X89766924Y-123371403D01*
X89898043Y-123144297D01*
X89998398Y-122902019D01*
X90066270Y-122648716D01*
X90100500Y-122388720D01*
X90100500Y-122257600D01*
X90100500Y-122191708D01*
X90100500Y-116091708D01*
X90100500Y-116084843D01*
X90100499Y-116084833D01*
X90100499Y-116026476D01*
X90094912Y-115984037D01*
X90066270Y-115766481D01*
X89998397Y-115513178D01*
X89898042Y-115270901D01*
X89766922Y-115043795D01*
X89607281Y-114835747D01*
X89607278Y-114835744D01*
X89607275Y-114835740D01*
X89421856Y-114650321D01*
X89421851Y-114650317D01*
X89421850Y-114650316D01*
X89333319Y-114582384D01*
X89213804Y-114490677D01*
X89168380Y-114464452D01*
X88986696Y-114359556D01*
X88986692Y-114359554D01*
X88986688Y-114359552D01*
X88744423Y-114259204D01*
X88744413Y-114259200D01*
X88635524Y-114230023D01*
X88491115Y-114191329D01*
X88491108Y-114191328D01*
X88394044Y-114178549D01*
X88231120Y-114157100D01*
X88165892Y-114157100D01*
X87765892Y-114157100D01*
X87700000Y-114157100D01*
X87568880Y-114157100D01*
X87482214Y-114168510D01*
X87308882Y-114191330D01*
X87055585Y-114259200D01*
X87055575Y-114259204D01*
X86813310Y-114359553D01*
X86586194Y-114490677D01*
X86378142Y-114650323D01*
X86192723Y-114835742D01*
X86033077Y-115043794D01*
X85901953Y-115270910D01*
X85801604Y-115513175D01*
X85801600Y-115513185D01*
X85733730Y-115766482D01*
X85699500Y-116026480D01*
X50500500Y-116026480D01*
X50500500Y-110944926D01*
X85843700Y-110944926D01*
X85843700Y-111220273D01*
X85879640Y-111493267D01*
X85950903Y-111759227D01*
X85950907Y-111759237D01*
X86056273Y-112013613D01*
X86056275Y-112013617D01*
X86056277Y-112013621D01*
X86105228Y-112098406D01*
X86193952Y-112252081D01*
X86361577Y-112470534D01*
X86556265Y-112665222D01*
X86556269Y-112665225D01*
X86556272Y-112665228D01*
X86774721Y-112832849D01*
X87013179Y-112970523D01*
X87267568Y-113075895D01*
X87533534Y-113147160D01*
X87806526Y-113183100D01*
X87806527Y-113183100D01*
X88081873Y-113183100D01*
X88081874Y-113183100D01*
X88354866Y-113147160D01*
X88620832Y-113075895D01*
X88875221Y-112970523D01*
X89113679Y-112832849D01*
X89332128Y-112665228D01*
X89526828Y-112470528D01*
X89694449Y-112252079D01*
X89832123Y-112013621D01*
X89937495Y-111759232D01*
X90008760Y-111493266D01*
X90044700Y-111220274D01*
X90044700Y-110944926D01*
X90008760Y-110671934D01*
X89937495Y-110405968D01*
X89832123Y-110151579D01*
X89694449Y-109913121D01*
X89526828Y-109694672D01*
X89526825Y-109694669D01*
X89526822Y-109694665D01*
X89332134Y-109499977D01*
X89332129Y-109499973D01*
X89332128Y-109499972D01*
X89239171Y-109428644D01*
X89113681Y-109332352D01*
X89065987Y-109304816D01*
X88875221Y-109194677D01*
X88875217Y-109194675D01*
X88875213Y-109194673D01*
X88620837Y-109089307D01*
X88620827Y-109089303D01*
X88354867Y-109018040D01*
X88218370Y-109000070D01*
X88081874Y-108982100D01*
X87806526Y-108982100D01*
X87715528Y-108994080D01*
X87533532Y-109018040D01*
X87267572Y-109089303D01*
X87267562Y-109089307D01*
X87013186Y-109194673D01*
X86774718Y-109332352D01*
X86556265Y-109499977D01*
X86361577Y-109694665D01*
X86193952Y-109913118D01*
X86056273Y-110151586D01*
X85950907Y-110405962D01*
X85950903Y-110405972D01*
X85879640Y-110671932D01*
X85843700Y-110944926D01*
X50500500Y-110944926D01*
X50500500Y-81726206D01*
X57949500Y-81726206D01*
X57949500Y-95057993D01*
X57983607Y-95185285D01*
X57983609Y-95185288D01*
X58049499Y-95299413D01*
X58049501Y-95299416D01*
X58142684Y-95392599D01*
X58142686Y-95392600D01*
X58256814Y-95458492D01*
X58384108Y-95492600D01*
X61215892Y-95492600D01*
X61343186Y-95458492D01*
X61457314Y-95392600D01*
X61457314Y-95392599D01*
X61457316Y-95392599D01*
X61550499Y-95299416D01*
X61550500Y-95299414D01*
X61616392Y-95185286D01*
X61650500Y-95057992D01*
X61650500Y-82931370D01*
X84298846Y-82931370D01*
X84299497Y-82994397D01*
X84299500Y-82995006D01*
X84299500Y-93789192D01*
X84299497Y-93789801D01*
X84298846Y-93852829D01*
X84299071Y-93854678D01*
X84299075Y-93854713D01*
X84299180Y-93855584D01*
X84299189Y-93855654D01*
X84299236Y-93856043D01*
X84299255Y-93856142D01*
X84299497Y-93857985D01*
X84315799Y-93918827D01*
X84315953Y-93919413D01*
X84331642Y-93980474D01*
X84332326Y-93982174D01*
X84332691Y-93983080D01*
X84332697Y-93983095D01*
X84332839Y-93983449D01*
X84332891Y-93983556D01*
X84333608Y-93985286D01*
X84365088Y-94039811D01*
X84365389Y-94040338D01*
X84387956Y-94080370D01*
X84396354Y-94095269D01*
X84396358Y-94095273D01*
X84397469Y-94096752D01*
X84397482Y-94096770D01*
X84398140Y-94097647D01*
X84398141Y-94097648D01*
X84398293Y-94097850D01*
X84398358Y-94097926D01*
X84399500Y-94099414D01*
X84444067Y-94143981D01*
X84444495Y-94144413D01*
X85571850Y-95295256D01*
X85583618Y-95312581D01*
X85663627Y-95492600D01*
X86026705Y-96309523D01*
X86033608Y-96335286D01*
X86053360Y-96369497D01*
X86054622Y-96372336D01*
X86054622Y-96372337D01*
X86069396Y-96405581D01*
X86083257Y-96422722D01*
X86088473Y-96430317D01*
X86099500Y-96449414D01*
X86125226Y-96475140D01*
X86129383Y-96479759D01*
X86152266Y-96508055D01*
X86173829Y-96523743D01*
X86192686Y-96542600D01*
X86226893Y-96562349D01*
X86258830Y-96585585D01*
X86279404Y-96593497D01*
X86287717Y-96597465D01*
X86306814Y-96608492D01*
X86344970Y-96618715D01*
X86381831Y-96632893D01*
X86408347Y-96635697D01*
X86434108Y-96642600D01*
X86473609Y-96642600D01*
X86512884Y-96646754D01*
X86539223Y-96642600D01*
X90934108Y-96642600D01*
X91065892Y-96642600D01*
X91193186Y-96608492D01*
X91307314Y-96542600D01*
X91307314Y-96542599D01*
X91307316Y-96542599D01*
X91400499Y-96449416D01*
X91400500Y-96449414D01*
X91466392Y-96335286D01*
X91500500Y-96207992D01*
X91500500Y-80576208D01*
X91466392Y-80448914D01*
X91400500Y-80334786D01*
X91400499Y-80334784D01*
X91307316Y-80241601D01*
X91307313Y-80241599D01*
X91193188Y-80175709D01*
X91193185Y-80175707D01*
X91065893Y-80141600D01*
X91065892Y-80141600D01*
X86539223Y-80141600D01*
X86512884Y-80137446D01*
X86473609Y-80141600D01*
X86434108Y-80141600D01*
X86434104Y-80141600D01*
X86412814Y-80147304D01*
X86408347Y-80148502D01*
X86381831Y-80151307D01*
X86344977Y-80165481D01*
X86341966Y-80166288D01*
X86341964Y-80166287D01*
X86306818Y-80175706D01*
X86306815Y-80175707D01*
X86287715Y-80186734D01*
X86287714Y-80186733D01*
X86283704Y-80189047D01*
X86258830Y-80198615D01*
X86226909Y-80221838D01*
X86224204Y-80223400D01*
X86224197Y-80223406D01*
X86192687Y-80241598D01*
X86177097Y-80257188D01*
X86173829Y-80260456D01*
X86152266Y-80276145D01*
X86127438Y-80306844D01*
X86125232Y-80309051D01*
X86125233Y-80309051D01*
X86099499Y-80334786D01*
X86088474Y-80353878D01*
X86088475Y-80353879D01*
X86086164Y-80357882D01*
X86069399Y-80378615D01*
X86053362Y-80414697D01*
X86051804Y-80417396D01*
X86051801Y-80417397D01*
X86033610Y-80448909D01*
X86033606Y-80448917D01*
X86027899Y-80470214D01*
X86024825Y-80478903D01*
X85583618Y-81471617D01*
X85571850Y-81488942D01*
X84444543Y-82639734D01*
X84444544Y-82639735D01*
X84444256Y-82640028D01*
X84399500Y-82684786D01*
X84398187Y-82687058D01*
X84396353Y-82688931D01*
X84365472Y-82743714D01*
X84365172Y-82744240D01*
X84333604Y-82798918D01*
X84332888Y-82800645D01*
X84332889Y-82800646D01*
X84332563Y-82801431D01*
X84332521Y-82801536D01*
X84332380Y-82801876D01*
X84332344Y-82801983D01*
X84331642Y-82803727D01*
X84315947Y-82864810D01*
X84315946Y-82864809D01*
X84315836Y-82865234D01*
X84299500Y-82926208D01*
X84299500Y-82928820D01*
X84298847Y-82931362D01*
X84298846Y-82931370D01*
X61650500Y-82931370D01*
X61650500Y-81726208D01*
X61616392Y-81598914D01*
X61550500Y-81484786D01*
X61550499Y-81484784D01*
X61457316Y-81391601D01*
X61457313Y-81391599D01*
X61343188Y-81325709D01*
X61343185Y-81325707D01*
X61215893Y-81291600D01*
X61215892Y-81291600D01*
X58515892Y-81291600D01*
X58384108Y-81291600D01*
X58384106Y-81291600D01*
X58256814Y-81325707D01*
X58256811Y-81325709D01*
X58142686Y-81391599D01*
X58049499Y-81484786D01*
X57983609Y-81598911D01*
X57983607Y-81598914D01*
X57949500Y-81726206D01*
X50500500Y-81726206D01*
X50500500Y-56001776D01*
X50500608Y-55998214D01*
X50518508Y-55702288D01*
X50519366Y-55695215D01*
X50557752Y-55485750D01*
X50572489Y-55405331D01*
X50574193Y-55398423D01*
X50661868Y-55117066D01*
X50664394Y-55110405D01*
X50785341Y-54841672D01*
X50788644Y-54835378D01*
X50941109Y-54583170D01*
X50945153Y-54577312D01*
X51126904Y-54345323D01*
X51131614Y-54340007D01*
X51340007Y-54131614D01*
X51345323Y-54126904D01*
X51577317Y-53945149D01*
X51583170Y-53941109D01*
X51835378Y-53788644D01*
X51841672Y-53785341D01*
X52110407Y-53664392D01*
X52117066Y-53661868D01*
X52398423Y-53574193D01*
X52405331Y-53572489D01*
X52695217Y-53519365D01*
X52702286Y-53518508D01*
X52998215Y-53500608D01*
X53001777Y-53500500D01*
X53065892Y-53500500D01*
X102934108Y-53500500D01*
X102998223Y-53500500D01*
X103001785Y-53500608D01*
G37*
%TD.AperFunction*%
%TD*%
M02*
