%TF.GenerationSoftware,KiCad,Pcbnew,9.0.5-9.0.5~ubuntu24.04.1*%
%TF.CreationDate,2025-10-22T14:02:37+02:00*%
%TF.ProjectId,misrc_v2.5_top_panel,6d697372-635f-4763-922e-355f746f705f,rev?*%
%TF.SameCoordinates,Original*%
%TF.FileFunction,Copper,L1,Top*%
%TF.FilePolarity,Positive*%
%FSLAX46Y46*%
G04 Gerber Fmt 4.6, Leading zero omitted, Abs format (unit mm)*
G04 Created by KiCad (PCBNEW 9.0.5-9.0.5~ubuntu24.04.1) date 2025-10-22 14:02:37*
%MOMM*%
%LPD*%
G01*
G04 APERTURE LIST*
G04 Aperture macros list*
%AMRoundRect*
0 Rectangle with rounded corners*
0 $1 Rounding radius*
0 $2 $3 $4 $5 $6 $7 $8 $9 X,Y pos of 4 corners*
0 Add a 4 corners polygon primitive as box body*
4,1,4,$2,$3,$4,$5,$6,$7,$8,$9,$2,$3,0*
0 Add four circle primitives for the rounded corners*
1,1,$1+$1,$2,$3*
1,1,$1+$1,$4,$5*
1,1,$1+$1,$6,$7*
1,1,$1+$1,$8,$9*
0 Add four rect primitives between the rounded corners*
20,1,$1+$1,$2,$3,$4,$5,0*
20,1,$1+$1,$4,$5,$6,$7,0*
20,1,$1+$1,$6,$7,$8,$9,0*
20,1,$1+$1,$8,$9,$2,$3,0*%
G04 Aperture macros list end*
%TA.AperFunction,SMDPad,CuDef*%
%ADD10RoundRect,0.100000X-0.130000X-0.100000X0.130000X-0.100000X0.130000X0.100000X-0.130000X0.100000X0*%
%TD*%
%TA.AperFunction,ViaPad*%
%ADD11C,0.600000*%
%TD*%
G04 APERTURE END LIST*
%TA.AperFunction,Conductor*%
%TO.N,GND*%
G36*
X57302400Y-138226800D02*
G01*
X206248000Y-138226800D01*
X206248000Y-139039600D01*
X57302400Y-139039600D01*
X57302400Y-138226800D01*
G37*
%TD.AperFunction*%
%TA.AperFunction,Conductor*%
G36*
X57302400Y-59969400D02*
G01*
X206248000Y-59969400D01*
X206248000Y-60756800D01*
X57302400Y-60756800D01*
X57302400Y-59969400D01*
G37*
%TD.AperFunction*%
%TD*%
D10*
%TO.P,R1,1*%
%TO.N,GND*%
X105765600Y-61468000D03*
%TO.P,R1,2*%
X106405600Y-61468000D03*
%TD*%
D11*
%TO.N,GND*%
X130098800Y-137307600D03*
X119329200Y-137414000D03*
X94437200Y-61679200D03*
X187299600Y-137922000D03*
X79197200Y-137972800D03*
X190144400Y-61628400D03*
X161239200Y-61010800D03*
X166065200Y-61679200D03*
X156972000Y-61730000D03*
X97231200Y-137307600D03*
X85648800Y-137307600D03*
X114554000Y-61577600D03*
X87426800Y-61010800D03*
X65938400Y-61010800D03*
X119684800Y-61214000D03*
X76250800Y-61061600D03*
X197612000Y-137972800D03*
X66548000Y-137972800D03*
X182016400Y-137460000D03*
X138988800Y-60960000D03*
X104241600Y-61679200D03*
X106578400Y-137307600D03*
X184353200Y-61010800D03*
X129235200Y-61010800D03*
X172110400Y-61061600D03*
X143865600Y-137769600D03*
X61976000Y-137363200D03*
X201422000Y-61577600D03*
X61569600Y-61628400D03*
X144272000Y-61577600D03*
X58623200Y-61163200D03*
X69494400Y-61577600D03*
X112877600Y-137820400D03*
X73101200Y-137414000D03*
X150672800Y-61163200D03*
X124561600Y-138023600D03*
X197002400Y-61010800D03*
X133350000Y-61730000D03*
X178003200Y-61628400D03*
X123901200Y-61679200D03*
X58115200Y-137871200D03*
X134315200Y-137972800D03*
X91440000Y-137922000D03*
X148996400Y-137206000D03*
X111658400Y-61061600D03*
X201980800Y-137510800D03*
X193598800Y-137358400D03*
X176123600Y-137972800D03*
X204927200Y-137820400D03*
X102311200Y-137972800D03*
X205435200Y-61112400D03*
X151892000Y-137922000D03*
X99720400Y-61010800D03*
X163830000Y-137972800D03*
X159105600Y-137307600D03*
X81534000Y-61628400D03*
X169367200Y-137510800D03*
X139801600Y-137307600D03*
%TD*%
%TA.AperFunction,Conductor*%
%TO.N,GND*%
G36*
X206230719Y-60526181D02*
G01*
X206248000Y-60567900D01*
X206248000Y-138415700D01*
X206230719Y-138457419D01*
X206189000Y-138474700D01*
X57361400Y-138474700D01*
X57319681Y-138457419D01*
X57302400Y-138415700D01*
X57302400Y-124457106D01*
X77243500Y-124457106D01*
X77243500Y-132388893D01*
X77277607Y-132516185D01*
X77277609Y-132516188D01*
X77343499Y-132630313D01*
X77343501Y-132630316D01*
X77436684Y-132723499D01*
X77436686Y-132723500D01*
X77550814Y-132789392D01*
X77678108Y-132823500D01*
X90109892Y-132823500D01*
X90237186Y-132789392D01*
X90351314Y-132723500D01*
X90351314Y-132723499D01*
X90351316Y-132723499D01*
X90444499Y-132630316D01*
X90444500Y-132630314D01*
X90510392Y-132516186D01*
X90544500Y-132388892D01*
X90544500Y-124457108D01*
X90510392Y-124329814D01*
X90470030Y-124259906D01*
X90470030Y-124259904D01*
X90455231Y-124234272D01*
X106594500Y-124234272D01*
X106594500Y-134166059D01*
X106628607Y-134293351D01*
X106628609Y-134293354D01*
X106694499Y-134407479D01*
X106694501Y-134407482D01*
X106787684Y-134500665D01*
X106787686Y-134500666D01*
X106901814Y-134566558D01*
X107029108Y-134600666D01*
X114860892Y-134600666D01*
X114988186Y-134566558D01*
X115102314Y-134500666D01*
X115102314Y-134500665D01*
X115102316Y-134500665D01*
X115195499Y-134407482D01*
X115195500Y-134407480D01*
X115261392Y-134293352D01*
X115295500Y-134166058D01*
X115295500Y-124234274D01*
X115261392Y-124106980D01*
X115195500Y-123992852D01*
X115195499Y-123992850D01*
X115102316Y-123899667D01*
X115102313Y-123899665D01*
X114988188Y-123833775D01*
X114988185Y-123833773D01*
X114860893Y-123799666D01*
X114860892Y-123799666D01*
X107160892Y-123799666D01*
X107029108Y-123799666D01*
X107029106Y-123799666D01*
X106901814Y-123833773D01*
X106901811Y-123833775D01*
X106787686Y-123899665D01*
X106694499Y-123992852D01*
X106628609Y-124106977D01*
X106628607Y-124106980D01*
X106594500Y-124234272D01*
X90455231Y-124234272D01*
X90444500Y-124215686D01*
X90444499Y-124215684D01*
X90351316Y-124122501D01*
X90351313Y-124122499D01*
X90237188Y-124056609D01*
X90237185Y-124056607D01*
X90109893Y-124022500D01*
X90109892Y-124022500D01*
X77809892Y-124022500D01*
X77678108Y-124022500D01*
X77678106Y-124022500D01*
X77550814Y-124056607D01*
X77550811Y-124056609D01*
X77436686Y-124122499D01*
X77343499Y-124215686D01*
X77277609Y-124329811D01*
X77277607Y-124329814D01*
X77243500Y-124457106D01*
X57302400Y-124457106D01*
X57302400Y-107984106D01*
X72369500Y-107984106D01*
X72369500Y-115915893D01*
X72403607Y-116043185D01*
X72403609Y-116043188D01*
X72469499Y-116157313D01*
X72469501Y-116157316D01*
X72562684Y-116250499D01*
X72562686Y-116250500D01*
X72676814Y-116316392D01*
X72804108Y-116350500D01*
X87589892Y-116350500D01*
X87717186Y-116316392D01*
X87831314Y-116250500D01*
X87831314Y-116250499D01*
X87831316Y-116250499D01*
X87924499Y-116157316D01*
X87924500Y-116157314D01*
X87990392Y-116043186D01*
X88024500Y-115915892D01*
X88024500Y-107984108D01*
X87990392Y-107856814D01*
X87924500Y-107742686D01*
X87924499Y-107742684D01*
X87831316Y-107649501D01*
X87831313Y-107649499D01*
X87717188Y-107583609D01*
X87717185Y-107583607D01*
X87589893Y-107549500D01*
X87589892Y-107549500D01*
X72935892Y-107549500D01*
X72804108Y-107549500D01*
X72804106Y-107549500D01*
X72676814Y-107583607D01*
X72676811Y-107583609D01*
X72562686Y-107649499D01*
X72469499Y-107742686D01*
X72403609Y-107856811D01*
X72403607Y-107856814D01*
X72369500Y-107984106D01*
X57302400Y-107984106D01*
X57302400Y-83849106D01*
X72369500Y-83849106D01*
X72369500Y-91780893D01*
X72403607Y-91908185D01*
X72403609Y-91908188D01*
X72469499Y-92022313D01*
X72469501Y-92022316D01*
X72562684Y-92115499D01*
X72562686Y-92115500D01*
X72676814Y-92181392D01*
X72804108Y-92215500D01*
X87589892Y-92215500D01*
X87717186Y-92181392D01*
X87831314Y-92115500D01*
X87831314Y-92115499D01*
X87831316Y-92115499D01*
X87924499Y-92022316D01*
X87924500Y-92022314D01*
X87990392Y-91908186D01*
X88024500Y-91780892D01*
X88024500Y-88484106D01*
X106594500Y-88484106D01*
X106594500Y-110765893D01*
X106628607Y-110893185D01*
X106628609Y-110893188D01*
X106694499Y-111007313D01*
X106694501Y-111007316D01*
X106787684Y-111100499D01*
X106787686Y-111100500D01*
X106901814Y-111166392D01*
X107029108Y-111200500D01*
X114860892Y-111200500D01*
X114988186Y-111166392D01*
X115102314Y-111100500D01*
X115102314Y-111100499D01*
X115102316Y-111100499D01*
X115195499Y-111007316D01*
X115195500Y-111007314D01*
X115261392Y-110893186D01*
X115295500Y-110765892D01*
X115295500Y-95795906D01*
X192156900Y-95795906D01*
X192156900Y-105727693D01*
X192191007Y-105854985D01*
X192191009Y-105854988D01*
X192256899Y-105969113D01*
X192256901Y-105969116D01*
X192350084Y-106062299D01*
X192350086Y-106062300D01*
X192464214Y-106128192D01*
X192591508Y-106162300D01*
X200423292Y-106162300D01*
X200550586Y-106128192D01*
X200664714Y-106062300D01*
X200664714Y-106062299D01*
X200664716Y-106062299D01*
X200757899Y-105969116D01*
X200757900Y-105969114D01*
X200823792Y-105854986D01*
X200857900Y-105727692D01*
X200857900Y-95795908D01*
X200823792Y-95668614D01*
X200757900Y-95554486D01*
X200757899Y-95554484D01*
X200664716Y-95461301D01*
X200664713Y-95461299D01*
X200550588Y-95395409D01*
X200550585Y-95395407D01*
X200423293Y-95361300D01*
X200423292Y-95361300D01*
X192723292Y-95361300D01*
X192591508Y-95361300D01*
X192591506Y-95361300D01*
X192464214Y-95395407D01*
X192464211Y-95395409D01*
X192350086Y-95461299D01*
X192256899Y-95554486D01*
X192191009Y-95668611D01*
X192191007Y-95668614D01*
X192156900Y-95795906D01*
X115295500Y-95795906D01*
X115295500Y-88484108D01*
X115261392Y-88356814D01*
X115195500Y-88242686D01*
X115195499Y-88242684D01*
X115102316Y-88149501D01*
X115102313Y-88149499D01*
X114988188Y-88083609D01*
X114988185Y-88083607D01*
X114860893Y-88049500D01*
X114860892Y-88049500D01*
X107160892Y-88049500D01*
X107029108Y-88049500D01*
X107029106Y-88049500D01*
X106901814Y-88083607D01*
X106901811Y-88083609D01*
X106787686Y-88149499D01*
X106694499Y-88242686D01*
X106628609Y-88356811D01*
X106628607Y-88356814D01*
X106594500Y-88484106D01*
X88024500Y-88484106D01*
X88024500Y-83849108D01*
X87990392Y-83721814D01*
X87924500Y-83607686D01*
X87924499Y-83607684D01*
X87831316Y-83514501D01*
X87831313Y-83514499D01*
X87717188Y-83448609D01*
X87717185Y-83448607D01*
X87589893Y-83414500D01*
X87589892Y-83414500D01*
X72935892Y-83414500D01*
X72804108Y-83414500D01*
X72804106Y-83414500D01*
X72676814Y-83448607D01*
X72676811Y-83448609D01*
X72562686Y-83514499D01*
X72469499Y-83607686D01*
X72403609Y-83721811D01*
X72403607Y-83721814D01*
X72369500Y-83849106D01*
X57302400Y-83849106D01*
X57302400Y-67376106D01*
X77243500Y-67376106D01*
X77243500Y-75307893D01*
X77277607Y-75435185D01*
X77277609Y-75435188D01*
X77343499Y-75549313D01*
X77343501Y-75549316D01*
X77436684Y-75642499D01*
X77436686Y-75642500D01*
X77550814Y-75708392D01*
X77678108Y-75742500D01*
X90109892Y-75742500D01*
X90237186Y-75708392D01*
X90351314Y-75642500D01*
X90351314Y-75642499D01*
X90351316Y-75642499D01*
X90444499Y-75549316D01*
X90444500Y-75549314D01*
X90510392Y-75435186D01*
X90544500Y-75307892D01*
X90544500Y-67376108D01*
X90510392Y-67248814D01*
X90444500Y-67134686D01*
X90444499Y-67134684D01*
X90351316Y-67041501D01*
X90351313Y-67041499D01*
X90237188Y-66975609D01*
X90237185Y-66975607D01*
X90109893Y-66941500D01*
X90109892Y-66941500D01*
X77809892Y-66941500D01*
X77678108Y-66941500D01*
X77678106Y-66941500D01*
X77550814Y-66975607D01*
X77550811Y-66975609D01*
X77436686Y-67041499D01*
X77343499Y-67134686D01*
X77277609Y-67248811D01*
X77277607Y-67248814D01*
X77243500Y-67376106D01*
X57302400Y-67376106D01*
X57302400Y-64139106D01*
X106594500Y-64139106D01*
X106594500Y-76570893D01*
X106628607Y-76698185D01*
X106628609Y-76698188D01*
X106694499Y-76812313D01*
X106694501Y-76812316D01*
X106787684Y-76905499D01*
X106787686Y-76905500D01*
X106901814Y-76971392D01*
X107029108Y-77005500D01*
X114860892Y-77005500D01*
X114988186Y-76971392D01*
X115102314Y-76905500D01*
X115102314Y-76905499D01*
X115102316Y-76905499D01*
X115195499Y-76812316D01*
X115195500Y-76812314D01*
X115261392Y-76698186D01*
X115295500Y-76570892D01*
X115295500Y-64139108D01*
X115261392Y-64011814D01*
X115195500Y-63897686D01*
X115195499Y-63897684D01*
X115102316Y-63804501D01*
X115102313Y-63804499D01*
X114988188Y-63738609D01*
X114988185Y-63738607D01*
X114860893Y-63704500D01*
X114860892Y-63704500D01*
X107160892Y-63704500D01*
X107029108Y-63704500D01*
X107029106Y-63704500D01*
X106901814Y-63738607D01*
X106901811Y-63738609D01*
X106787686Y-63804499D01*
X106694499Y-63897686D01*
X106628609Y-64011811D01*
X106628607Y-64011814D01*
X106594500Y-64139106D01*
X57302400Y-64139106D01*
X57302400Y-60567900D01*
X57319681Y-60526181D01*
X57361400Y-60508900D01*
X206189000Y-60508900D01*
X206230719Y-60526181D01*
G37*
%TD.AperFunction*%
%TD*%
M02*
